<svg width="320" height="112" version="1.1" xmlns="http://www.w3.org/2000/svg" desc="Created with imagetracer.js version 1.2.6" ><path fill="rgb(0,0,0)" stroke="rgb(0,0,0)" stroke-width="1" opacity="0" d="M 0 0 L 320 0 L 320 112 L 0 112 L 0 0 Z M 16 16 L 16 58 L 16 60 L 16 80 L 24 80 L 24 88 L 32 88 L 32 96 L 56 96 L 56 91 L 55 90 L 52 92 L 59 86 L 60 87 L 59 87 L 59 88 Q 66 91 64 84 L 63 84 L 66 80 L 72 80 L 72 73 L 72 71 L 73 72 L 80 72 L 80 16 L 16 16 Z M 88 24 L 88 64 Q 88 65 94 64 L 96 64 Q 102 66 104 63 L 105 64 L 121 64 L 123 64 L 128 63 L 129 64 L 143 64 L 142 63 L 145 64 Q 151 65 152 61 L 150 64 L 154 64 L 155 52 L 155 64 L 163 64 L 159 59 L 158 56 L 160 60 L 165 64 L 177 64 L 181 64 L 195 64 L 196 63 L 197 64 L 207 64 L 206 63 L 209 64 Q 213 65 214 62 L 213 64 L 218 64 L 220 64 L 225 63 L 226 64 L 240 64 L 240 56 L 242 54 L 242 56 L 248 56 L 248 48 L 280 48 L 281 47 L 282 48 L 304 48 L 304 46 L 297 46 L 297 45 L 304 45 L 304 40 L 299 40 L 304 39 L 304 34 L 300 34 L 300 33 L 304 33 L 304 24 L 217 24 Q 215 24 216 30 Q 218 31 216 32 L 208 32 L 208 25 L 208 24 L 88 24 Z M 88 72 L 88 88 L 96 88 L 97 84 L 93 82 L 97 81 L 99 81 L 102 80 L 103 81 L 98 84 L 102 84 L 104 81 L 106 81 L 111 79 Q 112 81 117 80 L 119 80 L 122 81 L 127 79 L 127 81 L 131 78 L 130 80 L 135 81 Q 137 79 136 73 L 135 73 L 134 72 L 125 72 L 123 72 L 118 73 Q 116 70 110 72 L 108 72 L 103 73 L 98 72 L 97 75 L 99 78 L 96 79 L 94 79 L 97 77 L 96 75 Q 98 73 96 72 L 93 73 L 88 72 Z " /><path fill="rgb(0,0,0)" stroke="rgb(0,0,0)" stroke-width="1" opacity="0" d="M 77.5 18 L 78 48.5 L 77 48.5 L 77.5 18 Z " /><path fill="rgb(0,0,0)" stroke="rgb(0,0,0)" stroke-width="1" opacity="0" d="M 74.5 20 L 75 49.5 L 74 49.5 L 74.5 20 Z " /><path fill="rgb(0,0,0)" stroke="rgb(0,0,0)" stroke-width="1" opacity="0" d="M 118.5 29 L 117.5 31 L 118.5 29 Z " /><path fill="rgb(0,0,0)" stroke="rgb(0,0,0)" stroke-width="1" opacity="0" d="M 268.5 29 Q 272.3 28.3 273 30.5 L 271.5 30 L 264.5 32 L 264.5 31 L 268.5 29 Z " /><path fill="rgb(0,0,0)" stroke="rgb(0,0,0)" stroke-width="1" opacity="0" d="M 114.5 30 L 116 30.5 L 112.5 32 L 112.5 31 L 114.5 30 Z " /><path fill="rgb(0,0,0)" stroke="rgb(0,0,0)" stroke-width="1" opacity="0" d="M 281.5 31 L 282 45 L 284 45.5 L 282.5 46 L 281 44.5 L 281.5 31 Z " /><path fill="rgb(0,0,0)" stroke="rgb(0,0,0)" stroke-width="1" opacity="0" d="M 204.5 32 L 205 34.5 L 204 34.5 L 204.5 32 Z " /><path fill="rgb(0,0,0)" stroke="rgb(0,0,0)" stroke-width="1" opacity="0" d="M 260.5 32 L 261 35.5 L 260 35.5 L 260.5 32 Z " /><path fill="rgb(0,0,0)" stroke="rgb(0,0,0)" stroke-width="1" opacity="0" d="M 29.5 33 L 34 34.5 L 31.5 36 L 31.5 34 L 28.5 35 L 29.5 33 Z " /><path fill="rgb(0,0,0)" stroke="rgb(0,0,0)" stroke-width="1" opacity="0" d="M 61.5 33 L 65 34.5 L 63 35.5 L 63.5 34 L 61 34.5 L 61.5 36 L 58 34.5 L 61.5 33 Z " /><path fill="rgb(0,0,0)" stroke="rgb(0,0,0)" stroke-width="1" opacity="0" d="M 95.5 33 L 98 33.5 L 95.5 34 L 95.5 33 Z " /><path fill="rgb(0,0,0)" stroke="rgb(0,0,0)" stroke-width="1" opacity="0" d="M 127.5 33 Q 132.3 32.3 134 34.5 L 132.5 35 L 127.5 34 L 125 35.5 L 127.5 33 Z " /><path fill="rgb(0,0,0)" stroke="rgb(0,0,0)" stroke-width="1" opacity="0" d="M 147.5 33 L 144.5 37 L 147.5 33 Z " /><path fill="rgb(0,0,0)" stroke="rgb(0,0,0)" stroke-width="1" opacity="0" d="M 183.5 33 Q 188.3 32.3 190 34.5 L 188.5 35 L 183.5 34 L 181 35.5 L 183.5 33 Z " /><path fill="rgb(0,0,0)" stroke="rgb(0,0,0)" stroke-width="1" opacity="0" d="M 248.5 33 L 252.5 34 L 254 33.5 L 251.5 35 L 248.5 34 L 248.5 33 Z " /><path fill="rgb(0,0,0)" stroke="rgb(0,0,0)" stroke-width="1" opacity="0" d="M 284.5 33 L 288 34.5 L 286.5 34 Q 283.5 34.5 284.5 33 Z " /><path fill="rgb(0,0,0)" stroke="rgb(0,0,0)" stroke-width="1" opacity="0" d="M 230.5 36 L 233.5 40 L 231 38.5 L 230.5 44 L 230.5 36 Z " /><path fill="rgb(0,0,0)" stroke="rgb(0,0,0)" stroke-width="1" opacity="0" d="M 164.5 37 L 165.5 39 L 164.5 37 Z " /><path fill="rgb(0,0,0)" stroke="rgb(0,0,0)" stroke-width="1" opacity="0" d="M 36.5 38 L 38 38.5 L 35.5 40 L 36.5 38 Z " /><path fill="rgb(0,0,0)" stroke="rgb(0,0,0)" stroke-width="1" opacity="0" d="M 55.5 38 L 60 41.5 L 56.5 39 L 55.5 38 Z " /><path fill="rgb(0,0,0)" stroke="rgb(0,0,0)" stroke-width="1" opacity="0" d="M 144.5 38 L 146.5 41 L 144.5 38 Z " /><path fill="rgb(0,0,0)" stroke="rgb(0,0,0)" stroke-width="1" opacity="0" d="M 236.5 38 L 235.5 40 L 236.5 38 Z " /><path fill="rgb(0,0,0)" stroke="rgb(0,0,0)" stroke-width="1" opacity="0" d="M 246.5 38 L 251 40.5 L 249.5 40 Q 245.8 39.7 246.5 38 Z " /><path fill="rgb(0,0,0)" stroke="rgb(0,0,0)" stroke-width="1" opacity="0" d="M 95.5 39 L 98 39.5 L 95.5 40 L 95.5 39 Z " /><path fill="rgb(0,0,0)" stroke="rgb(0,0,0)" stroke-width="1" opacity="0" d="M 199.5 39 Q 207.3 36.3 205 43.5 L 204 43.5 Q 205.8 37.8 199.5 40 L 199.5 39 Z " /><path fill="rgb(0,0,0)" stroke="rgb(0,0,0)" stroke-width="1" opacity="0" d="M 260 39 L 266 39.5 L 261 40 Q 262.3 44.6 259.5 46 L 258 45.5 L 260 45 L 260 39 Z " /><path fill="rgb(0,0,0)" stroke="rgb(0,0,0)" stroke-width="1" opacity="0" d="M 284.5 39 L 288 41.5 L 285.5 40 L 284.5 39 Z " /><path fill="rgb(0,0,0)" stroke="rgb(0,0,0)" stroke-width="1" opacity="0" d="M 45.5 40 L 44.5 42 L 45.5 40 Z " /><path fill="rgb(0,0,0)" stroke="rgb(0,0,0)" stroke-width="1" opacity="0" d="M 47.5 40 L 60 49.5 L 57.5 48 L 49.5 43 L 47.5 40 Z " /><path fill="rgb(0,0,0)" stroke="rgb(0,0,0)" stroke-width="1" opacity="0" d="M 141.5 40 Q 143.1 45.4 150 45.5 L 146.5 46 L 141.5 40 Z " /><path fill="rgb(0,0,0)" stroke="rgb(0,0,0)" stroke-width="1" opacity="0" d="M 185.5 40 L 188 40.5 L 185.5 41 L 185.5 40 Z " /><path fill="rgb(0,0,0)" stroke="rgb(0,0,0)" stroke-width="1" opacity="0" d="M 215.5 41 Q 220 40 221 42.5 L 219.5 42 L 214.5 43 L 215.5 41 Z " /><path fill="rgb(0,0,0)" stroke="rgb(0,0,0)" stroke-width="1" opacity="0" d="M 223.5 41 L 225 43.5 L 224 43.5 L 223.5 41 Z " /><path fill="rgb(0,0,0)" stroke="rgb(0,0,0)" stroke-width="1" opacity="0" d="M 168.5 42 L 174 45.5 L 171.5 46 L 168.5 42 Z " /><path fill="rgb(0,0,0)" stroke="rgb(0,0,0)" stroke-width="1" opacity="0" d="M 178.5 42 Q 180.5 47 189.5 45 L 191 44.5 L 189.5 46 L 181.5 46 L 178.5 42 Z " /><path fill="rgb(0,0,0)" stroke="rgb(0,0,0)" stroke-width="1" opacity="0" d="M 46.5 43 L 53 48.5 L 51 49 L 49.5 46 L 46.5 44 L 36.5 52 L 38.5 49 L 46.5 43 Z " /><path fill="rgb(0,0,0)" stroke="rgb(0,0,0)" stroke-width="1" opacity="0" d="M 123.5 43 L 124.5 45 L 123.5 43 Z " /><path fill="rgb(0,0,0)" stroke="rgb(0,0,0)" stroke-width="1" opacity="0" d="M 288.5 43 Q 289.8 45.8 294 45.5 L 290.5 46 L 288.5 43 Z " /><path fill="rgb(0,0,0)" stroke="rgb(0,0,0)" stroke-width="1" opacity="0" d="M 39.5 44 L 41 44.5 L 33.5 50 L 35.5 47 L 39.5 44 Z " /><path fill="rgb(0,0,0)" stroke="rgb(0,0,0)" stroke-width="1" opacity="0" d="M 67.5 44 L 68.5 46 L 67.5 44 Z " /><path fill="rgb(0,0,0)" stroke="rgb(0,0,0)" stroke-width="1" opacity="0" d="M 134.5 44 L 133.5 46 L 126 45.5 L 134.5 44 Z " /><path fill="rgb(0,0,0)" stroke="rgb(0,0,0)" stroke-width="1" opacity="0" d="M 221.5 44 L 224 45.5 L 222.5 46 L 221.5 44 Z " /><path fill="rgb(0,0,0)" stroke="rgb(0,0,0)" stroke-width="1" opacity="0" d="M 245.5 44 L 252 45.5 L 246.5 46 L 245.5 44 Z " /><path fill="rgb(0,0,0)" stroke="rgb(0,0,0)" stroke-width="1" opacity="0" d="M 92.5 45 L 100 45.5 L 92.5 46 L 92.5 45 Z " /><path fill="rgb(0,0,0)" stroke="rgb(0,0,0)" stroke-width="1" opacity="0" d="M 108.5 45 L 112 46.5 L 110.5 46 Q 107.5 46.5 108.5 45 Z " /><path fill="rgb(0,0,0)" stroke="rgb(0,0,0)" stroke-width="1" opacity="0" d="M 195.5 45 L 198 45.5 L 195.5 46 L 195.5 45 Z " /><path fill="rgb(0,0,0)" stroke="rgb(0,0,0)" stroke-width="1" opacity="0" d="M 205.5 45 L 208 46.5 L 207.5 48 L 205.5 45 Z " /><path fill="rgb(0,0,0)" stroke="rgb(0,0,0)" stroke-width="1" opacity="0" d="M 212.5 45 L 214 45.5 L 211.5 47 L 212.5 45 Z " /><path fill="rgb(0,0,0)" stroke="rgb(0,0,0)" stroke-width="1" opacity="0" d="M 238.5 45 L 241 45.5 L 238.5 46 L 238.5 45 Z " /><path fill="rgb(0,0,0)" stroke="rgb(0,0,0)" stroke-width="1" opacity="0" d="M 267.5 45 L 270 45.5 L 267.5 46 L 267.5 45 Z " /><path fill="rgb(0,0,0)" stroke="rgb(0,0,0)" stroke-width="1" opacity="0" d="M 54.5 49 L 56.5 52 L 54.5 49 Z " /><path fill="rgb(0,0,0)" stroke="rgb(0,0,0)" stroke-width="1" opacity="0" d="M 31.5 50 L 29.5 53 L 26.5 55 L 24 56 Q 25.1 58.7 22.5 58 L 24.5 55 L 31.5 50 Z " /><path fill="rgb(0,0,0)" stroke="rgb(0,0,0)" stroke-width="1" opacity="0" d="M 61.5 50 L 63.5 53 L 61.5 50 Z " /><path fill="rgb(0,0,0)" stroke="rgb(0,0,0)" stroke-width="1" opacity="0" d="M 34.5 52 L 32.5 55 L 34.5 52 Z " /><path fill="rgb(0,0,0)" stroke="rgb(0,0,0)" stroke-width="1" opacity="0" d="M 53.5 52 L 54.5 54 L 53.5 52 Z " /><path fill="rgb(0,0,0)" stroke="rgb(0,0,0)" stroke-width="1" opacity="0" d="M 185.5 52 L 186 62.5 L 185 62.5 L 185.5 52 Z " /><path fill="rgb(0,0,0)" stroke="rgb(0,0,0)" stroke-width="1" opacity="0" d="M 242.5 52 L 243.5 54 L 242.5 52 Z " /><path fill="rgb(0,0,0)" stroke="rgb(0,0,0)" stroke-width="1" opacity="0" d="M 65.5 53 L 67.5 56 L 65.5 53 Z " /><path fill="rgb(0,0,0)" stroke="rgb(0,0,0)" stroke-width="1" opacity="0" d="M 113.5 53 L 112.5 55 L 109 54.5 L 113.5 53 Z " /><path fill="rgb(0,0,0)" stroke="rgb(0,0,0)" stroke-width="1" opacity="0" d="M 220.5 53 L 224 54.5 L 221.5 55 L 220.5 53 Z " /><path fill="rgb(0,0,0)" stroke="rgb(0,0,0)" stroke-width="1" opacity="0" d="M 232.5 53 L 233.5 55 L 232.5 53 Z " /><path fill="rgb(0,0,0)" stroke="rgb(0,0,0)" stroke-width="1" opacity="0" d="M 60.5 54 L 68 59.5 L 66.5 60 L 64 58.5 L 64 72 L 56 72 L 56 56.5 Q 56 55.5 60.5 56 L 60.5 54 Z " /><path fill="rgb(0,0,0)" stroke="rgb(0,0,0)" stroke-width="1" opacity="0" d="M 188.5 54 L 192 54.5 L 188.5 55 L 188.5 54 Z " /><path fill="rgb(0,0,0)" stroke="rgb(0,0,0)" stroke-width="1" opacity="0" d="M 198.5 54 L 201 54.5 L 198.5 55 L 198.5 54 Z " /><path fill="rgb(0,0,0)" stroke="rgb(0,0,0)" stroke-width="1" opacity="0" d="M 227.5 54 L 230 54.5 L 227.5 55 L 227.5 54 Z " /><path fill="rgb(0,0,0)" stroke="rgb(0,0,0)" stroke-width="1" opacity="0" d="M 30.5 55 L 31 57 Q 28.3 55.9 29 58.5 L 25 59.5 L 30.5 55 Z " /><path fill="rgb(0,0,0)" stroke="rgb(0,0,0)" stroke-width="1" opacity="0" d="M 43.5 56 L 50 56.5 L 43 57 Q 44.1 59.7 41.5 59 L 43.5 56 Z " /><path fill="rgb(0,0,0)" stroke="rgb(0,0,0)" stroke-width="1" opacity="0" d="M 69.5 56 L 73 58.5 L 70 59 L 69.5 56 Z " /><path fill="rgb(0,0,0)" stroke="rgb(0,0,0)" stroke-width="1" opacity="0" d="M 234.5 56 L 235.5 58 L 234.5 56 Z " /><path fill="rgb(0,0,0)" stroke="rgb(0,0,0)" stroke-width="1" opacity="0" d="M 95.5 57 L 99.5 62 L 95.5 57 Z " /><path fill="rgb(0,0,0)" stroke="rgb(0,0,0)" stroke-width="1" opacity="0" d="M 207.5 57 L 211 59.5 L 209.5 59 L 207.5 57 Z " /><path fill="rgb(0,0,0)" stroke="rgb(0,0,0)" stroke-width="1" opacity="0" d="M 113.5 58 L 112.5 60 L 109 59.5 L 113.5 58 Z " /><path fill="rgb(0,0,0)" stroke="rgb(0,0,0)" stroke-width="1" opacity="0" d="M 54.5 59 L 53.5 61 L 54.5 59 Z " /><path fill="rgb(0,0,0)" stroke="rgb(0,0,0)" stroke-width="1" opacity="0" d="M 188.5 59 L 192 59.5 L 188.5 60 L 188.5 59 Z " /><path fill="rgb(0,0,0)" stroke="rgb(0,0,0)" stroke-width="1" opacity="0" d="M 198.5 59 L 201 60.5 L 199.5 60 L 198.5 59 Z " /><path fill="rgb(0,0,0)" stroke="rgb(0,0,0)" stroke-width="1" opacity="0" d="M 69.5 61 L 68.5 63 L 69.5 61 Z " /><path fill="rgb(0,0,0)" stroke="rgb(0,0,0)" stroke-width="1" opacity="0" d="M 53.5 62 L 52.5 64 L 53.5 62 Z " /><path fill="rgb(0,0,0)" stroke="rgb(0,0,0)" stroke-width="1" opacity="0" d="M 40.5 63 L 41.5 65 L 40 64.5 L 40 72 L 32 72 L 32 64 L 39.5 64 L 40.5 63 Z " /><path fill="rgb(0,0,0)" stroke="rgb(0,0,0)" stroke-width="1" opacity="0" d="M 70.5 66 L 70 67.5 L 69.5 69 L 69 67.5 L 70.5 66 Z " /><path fill="rgb(0,0,0)" stroke="rgb(0,0,0)" stroke-width="1" opacity="0" d="M 70.5 73 L 69.5 75 L 70.5 73 Z " /><path fill="rgb(0,0,0)" stroke="rgb(0,0,0)" stroke-width="1" opacity="0" d="M 102.5 74 L 101.5 76 L 100 75.5 L 102.5 74 Z " /><path fill="rgb(0,0,0)" stroke="rgb(0,0,0)" stroke-width="1" opacity="0" d="M 23.5 75 L 24.5 77 L 23.5 75 Z " /><path fill="rgb(0,0,0)" stroke="rgb(0,0,0)" stroke-width="1" opacity="0" d="M 60.5 77 L 58.5 80 L 60.5 77 Z " /><path fill="rgb(0,0,0)" stroke="rgb(0,0,0)" stroke-width="1" opacity="0" d="M 67.5 77 L 66.5 79 L 67.5 77 Z " /><path fill="rgb(0,0,0)" stroke="rgb(0,0,0)" stroke-width="1" opacity="0" d="M 25.5 78 L 26.5 80 L 25.5 78 Z " /><path fill="rgb(0,0,0)" stroke="rgb(0,0,0)" stroke-width="1" opacity="0" d="M 28.5 81 L 30.5 84 L 28.5 81 Z " /><path fill="rgb(0,0,0)" stroke="rgb(0,0,0)" stroke-width="1" opacity="0" d="M 32.5 85 L 38 89.5 L 35.5 88 L 32.5 85 Z " /><path fill="rgb(0,0,0)" stroke="rgb(0,0,0)" stroke-width="1" opacity="0" d="M 43.5 86 L 47.5 87 L 49 86.5 L 45.5 88 L 43.5 86 Z " /><path fill="rgb(0,0,0)" stroke="rgb(0,0,0)" stroke-width="1" opacity="0" d="M 39.5 90 L 43 92.5 L 41.5 92 L 39.5 90 Z " /><path fill="rgb(0,0,0)" stroke="rgb(0,0,0)" stroke-width="1" opacity="0" d="M 49.5 92 L 52 93.5 L 50.5 93 L 44.5 94 L 44.5 93 L 49.5 92 Z " /><path fill="rgb(24,24,24)" stroke="rgb(24,24,24)" stroke-width="1" opacity="0.027450980392156862" d="M 16 16 L 80 16 L 80 72 L 72 72 L 72 80 L 65.5 80 Q 61.3 81.8 64 83.5 Q 66.3 90.7 58.5 88 L 58.5 87 L 60 86.5 L 59 85.5 L 65.5 79 L 68 77.5 Q 65.7 76.3 68.5 75 L 70 74.5 Q 67.8 73.3 70.5 72 L 72 71.5 L 72 69.5 L 73 65 L 75 64.5 L 74 62 L 76 61.5 L 75 59.5 L 78 48.5 L 78 18 L 16.5 18 L 16 16 Z " /><path fill="rgb(24,24,24)" stroke="rgb(24,24,24)" stroke-width="1" opacity="0.027450980392156862" d="M 19.5 20 L 74 20.5 L 19 21 L 18.5 53 L 18 21.5 L 19.5 20 Z " /><path fill="rgb(24,24,24)" stroke="rgb(24,24,24)" stroke-width="1" opacity="0.027450980392156862" d="M 20 22 L 23.5 23 L 25.5 22 L 27.5 22 L 29.5 23 L 30.5 22 L 38.5 22 L 40.5 22 L 42.5 23 L 44.5 22 L 47.5 23 L 49.5 22 L 51.5 22 L 54.5 23 L 56.5 22 L 58.5 22 L 63.5 23 L 65.5 22 L 67.5 22 L 70.5 23 L 72 22.5 L 73 25.5 L 72 28.5 L 73 32.5 L 72 35.5 L 73 39.5 L 72 42.5 L 73 46.5 L 72 49.5 Q 73.3 55.6 70.5 55 L 67.5 53 L 69 55.5 L 69.5 57 L 71.5 57 Q 74.1 57.8 73 54.5 L 74.5 50 L 75 54.5 L 74 60 L 71 59.5 L 73 58.5 L 70.5 57 L 68.5 58 L 60.5 52 L 62 54.5 L 60.5 56 Q 56 55.5 56 56.5 L 56 72 L 64 72 L 64 58.5 L 64.5 56 L 66.5 60 L 68.5 59 L 70 62.5 Q 67.4 71.4 61.5 77 L 58 79.5 L 54.5 84 L 48.5 88 L 45.5 87 L 44 87.5 L 50 85 L 49 78.5 L 49 76.5 L 50 65.5 L 48.5 63 L 47.5 65 L 46.5 62 L 45.5 65 L 44 62.5 L 47.5 61 L 50 62 L 50.5 65 L 51.5 63 Q 52.8 65.3 54 62.5 L 52.5 59 L 51.5 62 L 49 60.5 L 52 58.5 L 50.5 58 L 48.5 58 L 45 58.5 L 48 59.5 L 45.5 60 L 43 59 L 42.5 57 Q 39.5 58.5 42.5 60 L 44 60.5 L 42 61.5 L 40 58.5 L 41 56 Q 43.4 57.8 49.5 57 L 49.5 56 Q 43.4 57.3 44 54.5 L 45.5 52 L 46 55 L 49.5 54 L 51 54.5 L 50 52.5 L 52 52 L 51 56.5 L 53 56.5 Q 50.8 57.8 53.5 59 L 55 55.5 L 55 53.5 L 52 50.5 L 53 48.5 L 51 47.5 Q 51.7 50.1 49 49 L 49 51.5 L 47.5 51 L 46 50.5 L 47.5 48 L 49 48.5 L 47.5 46 L 45 47.5 L 45.5 49 L 43.5 48 L 39.5 53 Q 36.5 52.1 38 56.5 L 37.5 58 L 39 58.5 L 38.5 60 Q 40.8 59.3 40 61.5 Q 43.1 63.2 41.5 65 Q 43.8 64.3 43 66.5 L 43 68.5 Q 45.3 75.2 44 85.5 Q 40.3 87.3 43.5 89 L 47.5 90 Q 58.1 84.6 65 75.5 L 67 71 L 69 71.5 L 58.5 84 Q 53.7 89.2 45.5 91 Q 34.2 85.8 27 76.5 L 19 59 L 21 58.5 L 18 56.5 L 18.5 54 L 20.5 57 L 23 55.5 L 20 53.5 L 20 51.5 L 20 22 Z M 33 23 L 33 24 Q 35 23 34 26 L 33 25 L 32 27 L 36 28 L 37 28 L 37 24 L 33 23 Z M 59 23 L 58 24 Q 55 23 56 27 L 56 28 L 59 27 L 59 29 L 62 29 L 61 26 L 60 26 L 59 24 L 61 24 L 59 23 Z M 34 30 L 33 32 L 32 35 L 34 35 L 35 33 L 34 30 Z M 27 31 L 23 36 Q 22 39 25 38 L 24 40 Q 23 42 26 41 L 25 43 L 23 42 L 22 44 L 26 45 L 26 44 L 29 42 Q 30 38 28 37 Q 24 38 25 35 L 32 32 L 27 31 Z M 63 31 L 63 32 L 67 33 L 68 37 L 64 39 Q 62 43 66 42 L 67 45 L 69 44 Q 72 45 71 43 L 70 43 L 68 43 L 70 42 L 69 41 L 71 41 L 71 39 L 70 39 L 68 39 L 70 38 L 69 34 Q 68 30 63 31 Z M 38 32 L 37 36 Q 34 35 35 38 L 38 39 Q 36 37 39 36 L 38 32 Z M 56 32 L 55 36 L 56 36 L 56 32 Z M 59 32 L 58 35 L 61 35 L 61 33 L 59 32 Z M 30 33 L 30 34 L 32 34 L 30 33 Z M 62 33 L 62 34 L 64 34 L 62 33 Z M 57 36 L 55 39 L 57 39 Q 60 38 57 36 Z M 47 37 L 45 39 L 49 41 Q 48 43 47 41 L 41 46 L 44 47 L 43 46 L 48 43 Q 50 44 48 46 L 51 47 Q 54 45 50 44 L 52 42 Q 54 43 52 45 L 54 45 L 56 45 L 57 48 L 59 47 L 47 37 Z M 31 38 L 31 40 L 29 45 L 33 47 L 23 55 L 26 56 L 27 53 L 27 56 L 25 58 L 29 59 L 29 58 L 28 55 Q 27 52 30 53 L 29 52 Q 30 49 32 51 L 35 47 L 37 48 L 36 47 Q 37 44 39 46 L 41 45 L 41 42 L 35 46 L 35 45 L 35 43 L 31 43 L 31 42 L 35 39 L 31 38 Z M 59 38 L 62 42 L 62 43 L 58 43 L 58 45 Q 59 47 61 45 L 63 46 L 63 44 L 62 40 Q 63 36 59 38 Z M 44 39 Q 39 41 43 43 L 45 40 L 44 39 Z M 40 46 L 37 49 L 40 50 Q 38 48 41 47 L 40 46 Z M 53 46 L 54 50 L 56 49 L 53 46 Z M 61 46 L 59 48 L 61 51 L 63 50 L 61 46 Z M 36 49 Q 31 51 35 53 L 37 50 L 36 49 Z M 57 49 L 59 52 L 60 52 L 57 49 Z M 64 50 L 65 54 L 67 53 L 64 50 Z M 32 52 L 29 55 L 29 57 L 31 57 Q 30 54 33 53 L 32 52 Z M 24 56 L 21 61 Q 22 69 27 75 L 31 78 Q 32 74 30 75 L 28 73 Q 25 71 27 69 Q 24 70 25 68 L 25 65 Q 22 66 23 63 L 22 62 L 25 59 L 24 56 Z M 32 64 L 32 72 L 40 72 L 40 64 L 32 64 Z M 32 78 L 31 80 L 34 81 L 32 78 Z M 36 82 L 41 87 L 42 87 L 38 84 Q 39 81 36 82 Z " /><path fill="rgb(24,24,24)" stroke="rgb(24,24,24)" stroke-width="1" opacity="0.027450980392156862" d="M 88 24 L 207.5 24 L 208 24.5 L 208 32 L 215.5 32 Q 218.3 30.8 216 29.5 Q 215.4 24.1 216.5 24 L 304 24 L 304 31 L 296 31 L 296 46 L 303.5 46 L 304 48 L 281.5 48 L 280.5 47 L 279.5 48 L 248 48 L 248 56 L 241.5 56 L 240 55.5 L 240 64 L 225.5 64 L 223.5 64 L 218.5 63 L 213.5 64 L 211.5 64 L 208 63.5 L 213 61.5 Q 213.8 57.8 211.5 57 L 209 55.5 L 209.5 53 L 212 53.5 L 211.5 55 Q 214.5 55.7 213 52 L 209.5 51 Q 206.5 51.5 207 55.5 Q 210.1 57.3 208.5 59 L 210.5 60 L 212 59.5 L 210.5 62 L 207.5 61 L 206.5 64 L 196.5 64 L 195.5 63 L 194.5 64 L 180.5 64 L 176.5 64 L 164.5 64 L 163.5 63 Q 161.8 65.8 155.5 64 L 155.5 63 Q 158.1 63.8 157 60.5 L 157 58.5 L 157.5 57 L 159.5 60 L 160.5 59 L 164.5 63 L 166 62.5 L 166 52 L 164 52.5 L 164 59.5 L 162 58.5 Q 163.1 55.2 160.5 56 Q 159.1 51.3 154 52 L 154 63.5 L 150.5 64 L 152 61.5 L 151 60.5 L 152 52 L 150 52.5 L 150 60 Q 147 59 148 62 L 145.5 62 Q 141.8 59.2 142.5 52 L 142 60.5 Q 143.5 64 149 63.5 L 144.5 64 L 142.5 64 L 128.5 64 L 127.5 63 L 122.5 64 L 120.5 64 L 104.5 64 L 103.5 63 Q 101.7 65.8 95.5 64 L 93.5 64 Q 88.1 64.6 88 63.5 L 88 24 Z M 269 29 L 266 31 L 268 31 Q 269 36 267 37 L 260 37 L 261 33 L 258 31 L 258 46 L 260 46 Q 262 45 261 40 L 268 39 L 267 46 L 270 46 L 270 44 Q 271 34 269 30 L 272 30 L 269 29 Z M 163 30 L 161 32 L 161 45 L 160 46 L 162 46 Q 164 43 164 35 Q 166 36 164 38 L 167 39 L 171 44 Q 169 45 172 46 L 174 46 L 173 45 L 173 31 L 171 33 L 171 41 L 163 30 Z M 93 31 L 93 45 L 92 46 L 100 46 L 99 45 L 102 43 L 101 38 L 101 36 L 100 33 Q 98 29 93 31 Z M 106 31 L 106 42 L 106 44 L 109 44 L 109 46 L 112 45 L 114 46 Q 116 47 115 45 L 118 43 L 117 42 L 118 40 Q 120 33 117 31 L 115 42 L 112 43 L 108 42 L 108 32 L 106 31 Z M 127 31 L 122 37 Q 122 43 126 45 L 127 46 L 134 46 L 134 44 L 134 42 L 131 43 L 129 43 L 126 42 L 126 41 L 124 40 L 124 36 L 126 36 L 125 35 L 127 35 L 133 33 L 133 35 Q 135 36 134 33 Q 132 29 127 31 Z M 139 31 L 139 46 Q 143 47 141 42 L 142 39 L 147 45 L 147 46 L 150 46 L 147 41 L 143 38 L 145 37 L 148 34 L 148 32 L 147 31 L 141 36 Q 143 30 139 31 Z M 155 31 L 153 33 Q 152 42 154 46 L 156 46 L 155 45 L 155 31 Z M 183 31 L 178 33 L 180 34 L 177 38 L 178 41 L 182 45 L 181 46 L 190 46 L 189 45 L 190 38 L 188 37 L 186 40 L 186 41 Q 189 40 188 43 L 187 42 L 185 43 L 181 42 L 180 40 Q 178 35 182 36 L 181 35 Q 182 32 184 34 L 189 33 L 189 35 Q 191 36 190 33 Q 188 29 183 31 Z M 197 31 Q 194 36 195 44 L 196 46 L 198 46 L 197 39 L 204 40 L 205 46 L 208 48 L 207 46 L 207 31 L 204 33 L 205 36 Q 206 38 199 37 Q 196 36 197 31 Z M 218 31 L 216 33 Q 217 35 215 34 L 215 36 L 210 45 L 214 46 L 213 45 Q 212 42 215 43 L 214 42 L 216 42 L 221 41 L 220 43 L 222 43 L 221 45 L 224 46 L 225 43 L 224 43 L 224 42 L 222 41 L 220 35 L 220 33 L 218 31 Z M 228 31 L 228 46 L 230 46 Q 232 44 231 39 L 232 38 L 231 35 Q 235 37 232 39 L 234 40 L 237 37 Q 239 38 238 36 L 239 36 L 239 45 L 238 46 L 241 46 L 240 45 L 241 44 L 241 31 Q 237 29 238 33 L 234 36 L 233 33 L 228 31 Z M 248 31 L 245 37 L 247 37 L 247 39 L 249 38 L 248 40 L 250 40 L 251 43 L 247 42 L 246 44 L 246 46 L 252 46 L 252 44 Q 255 45 253 40 Q 250 38 252 36 L 250 37 L 248 34 L 253 33 Q 252 30 248 31 Z M 275 31 L 275 45 L 275 46 L 277 45 L 277 32 L 275 31 Z M 281 31 L 281 45 L 283 46 L 284 46 L 284 40 L 287 39 Q 289 40 287 42 L 289 42 L 291 46 L 294 46 L 292 45 L 288 39 L 291 37 L 290 36 L 291 34 Q 288 30 281 31 Z M 93 52 L 94 63 L 95 55 L 99 60 L 98 61 L 103 63 L 103 52 Q 100 54 101 59 L 96 55 L 97 54 L 93 52 Z M 107 52 L 107 63 L 113 63 L 113 62 Q 108 63 109 60 L 113 60 L 109 59 L 113 58 L 113 57 Q 108 58 109 55 L 113 55 L 109 54 L 113 53 L 107 52 Z M 116 52 L 116 54 L 116 56 L 118 56 L 119 60 L 118 62 L 120 61 L 120 63 L 122 62 Q 121 58 124 59 L 123 58 L 126 57 L 125 59 L 127 59 L 126 62 L 128 62 L 129 63 Q 128 60 131 61 L 131 59 Q 130 55 133 56 Q 131 54 134 53 L 131 52 L 131 54 L 129 59 L 126 55 Q 127 50 123 52 L 121 59 L 119 55 L 119 53 L 116 52 Z M 169 52 L 169 63 L 171 63 L 171 53 L 169 52 Z M 175 52 L 173 54 Q 176 55 174 57 L 176 57 L 175 59 L 177 59 L 179 63 L 181 62 L 180 61 Q 179 58 182 59 L 181 58 L 183 57 L 183 55 L 183 52 L 181 53 L 181 55 L 179 59 L 177 56 L 177 54 L 175 52 Z M 185 52 L 185 63 L 193 63 L 193 62 Q 187 64 188 60 L 192 60 L 188 59 L 192 58 L 192 57 Q 187 58 188 55 L 192 55 L 188 54 L 193 53 L 185 52 Z M 196 52 L 196 63 Q 199 64 198 60 L 200 60 L 198 59 L 200 58 Q 202 59 200 61 L 202 61 L 201 63 L 204 63 L 203 60 Q 199 58 203 56 L 202 54 L 202 52 L 196 52 Z M 218 52 L 217 63 L 218 63 L 218 52 Z M 222 52 L 222 53 L 225 53 L 225 63 L 227 63 L 227 55 L 230 55 L 227 54 L 230 53 L 222 52 Z M 234 52 L 232 54 L 235 55 L 236 59 Q 234 64 238 63 L 239 56 L 243 53 L 243 52 Q 238 52 238 55 Q 235 56 236 52 L 234 52 Z M 222 54 L 222 55 L 224 55 L 222 54 Z " /><path fill="rgb(24,24,24)" stroke="rgb(24,24,24)" stroke-width="1" opacity="0.027450980392156862" d="M 287.5 33 L 288 35.5 L 286.5 37 Q 282.3 38.1 284 34 L 287.5 33 Z " /><path fill="rgb(24,24,24)" stroke="rgb(24,24,24)" stroke-width="1" opacity="0.027450980392156862" d="M 298.5 33 L 304 34 L 304 37 L 298 37 L 298.5 33 Z " /><path fill="rgb(24,24,24)" stroke="rgb(24,24,24)" stroke-width="1" opacity="0.027450980392156862" d="M 95 34 L 99 34.5 L 98 37 Q 93.5 38.5 95 34 Z " /><path fill="rgb(24,24,24)" stroke="rgb(24,24,24)" stroke-width="1" opacity="0.027450980392156862" d="M 217.5 35 L 219 39 Q 214.9 40.7 216 36.5 L 217.5 35 Z " /><path fill="rgb(24,24,24)" stroke="rgb(24,24,24)" stroke-width="1" opacity="0.027450980392156862" d="M 98.5 39 L 100 41.5 Q 98.8 44 95 43 Q 93.3 38.9 97.5 40 L 98.5 39 Z " /><path fill="rgb(24,24,24)" stroke="rgb(24,24,24)" stroke-width="1" opacity="0.027450980392156862" d="M 298.5 39 L 304 40 L 304 43 L 298 43 L 298.5 39 Z " /><path fill="rgb(24,24,24)" stroke="rgb(24,24,24)" stroke-width="1" opacity="0.027450980392156862" d="M 198 55 L 201 55.5 L 198.5 57 L 198 55 Z " /><path fill="rgb(24,24,24)" stroke="rgb(24,24,24)" stroke-width="1" opacity="0.027450980392156862" d="M 16.5 59 L 18 61.5 L 17 62.5 Q 20.1 64.3 18.5 66 L 20 66.5 Q 17.5 68 21 69.5 L 23 72.5 L 22.5 74 L 25 75.5 L 24.5 77 L 29 80.5 Q 26.3 82.3 30.5 84 Q 34.5 83.5 35 86.5 L 34.5 88 L 36.5 89 Q 37.8 86.8 39 89.5 L 39.5 91 L 41 90.5 L 40.5 92 L 42.5 91 L 45 92.5 L 44.5 94 L 49 93.5 L 48.5 92 L 50.5 93 L 50.5 91 L 53.5 89 L 56 90 L 56 95.5 L 55.5 96 L 32 96 L 32 88 L 24 88 L 24 80 L 16 80 L 16.5 59 Z " /><path fill="rgb(24,24,24)" stroke="rgb(24,24,24)" stroke-width="1" opacity="0.027450980392156862" d="M 72.5 61 L 73 62.5 L 72 66 L 70 65.5 L 72.5 61 Z " /><path fill="rgb(24,24,24)" stroke="rgb(24,24,24)" stroke-width="1" opacity="0.027450980392156862" d="M 88 72 L 92.5 73 L 95.5 72 L 97.5 72 L 102.5 73 L 107.5 72 L 109.5 72 L 116.5 72 L 117 73.5 L 117 75.5 L 117.5 80 L 118 72 L 123 72.5 L 121 73 L 121.5 78 L 124 77 L 124.5 75 L 127 76 L 127 74 Q 122.9 75.3 124 72 L 133.5 72 L 134 73.5 L 134 75.5 L 135 80.5 L 133.5 80 L 129.5 79 L 127 80.5 L 127.5 79 L 124 80.5 L 125 82.5 L 123 83.5 L 124 81 L 118.5 80 L 117 82.5 L 117.5 84 L 116 81.5 L 116.5 80 L 109.5 79 L 105.5 81 L 104 80.5 L 101.5 84 L 97.5 83 Q 95 84.2 96 88 L 88 88 L 88 72 Z M 93 73 L 93 80 Q 97 81 96 78 L 94 78 L 96 77 L 96 76 Q 93 77 94 74 L 96 74 L 93 73 Z M 104 73 L 105 74 L 106 80 L 106 74 L 108 74 L 104 73 Z M 128 73 L 128 74 Q 130 73 129 76 L 127 77 L 130 78 L 131 74 L 128 73 Z M 101 75 L 99 77 L 103 79 L 101 77 L 102 76 L 101 75 Z M 123 78 L 121 80 L 124 80 L 123 78 Z M 99 79 L 99 80 L 101 80 L 99 79 Z M 98 80 L 93 82 L 96 82 L 98 82 L 101 83 L 103 80 L 101 81 L 98 80 Z " /><path fill="rgb(24,24,24)" stroke="rgb(24,24,24)" stroke-width="1" opacity="0.027450980392156862" d="M 135.5 72 L 136 78.5 L 135 78.5 L 135.5 72 Z " /><path fill="rgb(24,24,24)" stroke="rgb(24,24,24)" stroke-width="1" opacity="0.027450980392156862" d="M 47.5 73 L 48 80.5 L 45.5 85 L 46 83.5 L 45 74 L 47.5 73 Z " /><path fill="rgb(24,24,24)" stroke="rgb(24,24,24)" stroke-width="1" opacity="0.027450980392156862" d="M 66.5 81 L 68 83.5 L 67 83.5 L 66.5 81 Z " /><path fill="rgb(24,24,24)" stroke="rgb(24,24,24)" stroke-width="1" opacity="0.027450980392156862" d="M 56.5 87 L 55.5 89 L 56.5 87 Z " /><path fill="rgb(27,27,27)" stroke="rgb(27,27,27)" stroke-width="1" opacity="0.5568627450980392" d="M 16 18 L 77 18 L 77 53.5 Q 73 76 57.5 87 L 45.5 93 Q 35.8 88.8 29 81.5 Q 19.2 71.8 16 55.5 L 16 18 Z M 18 20 L 18 57 L 21 66 L 22 66 L 21 61 L 47 41 L 72 61 L 67 72 L 68 73 L 72 66 L 75 55 L 75 20 L 18 20 Z M 47 43 L 22 62 L 31 78 L 47 89 L 55 84 Q 66 76 70 61 L 47 43 Z M 26 72 L 25 74 L 27 75 L 26 72 Z M 67 73 L 65 76 L 67 75 L 67 73 Z M 28 75 L 27 77 L 31 80 L 28 75 Z M 64 77 L 58 84 L 64 79 L 64 77 Z M 33 81 L 36 85 L 37 85 L 33 81 Z M 55 85 L 54 87 L 56 86 L 55 85 Z M 39 86 L 42 89 L 43 89 L 39 86 Z M 52 87 L 51 89 L 53 88 L 52 87 Z M 46 90 L 46 91 L 48 91 L 46 90 Z " /><path fill="rgb(27,27,27)" stroke="rgb(27,27,27)" stroke-width="1" opacity="0.5568627450980392" d="M 19 21 L 74 21 L 74 53.5 L 73 57 L 69.5 56 L 47.5 39 L 45.5 39 L 20.5 57 L 19 55.5 L 19 21 Z M 20 22 L 20 52 L 22 55 L 33 47 L 31 46 L 29 42 L 26 44 L 22 44 L 25 39 L 24 38 L 22 39 L 24 34 Q 25 30 32 31 L 33 32 L 30 27 L 33 23 L 36 24 L 37 24 L 37 28 L 35 27 Q 31 26 32 29 L 34 28 L 33 30 L 35 33 Q 33 36 32 32 Q 26 31 25 35 Q 24 38 28 37 L 30 37 L 29 39 L 30 42 L 31 40 Q 30 36 35 38 Q 38 37 37 33 L 36 30 Q 39 31 38 37 L 31 42 L 31 43 L 35 43 L 36 45 L 47 37 L 57 44 L 58 45 L 58 43 L 62 43 L 62 42 L 56 38 L 55 36 L 55 33 L 59 29 L 59 27 L 56 28 L 56 27 Q 55 23 58 24 L 57 22 L 55 23 L 52 22 L 50 22 L 48 23 L 45 22 L 43 23 L 41 22 L 39 22 L 31 22 L 30 23 L 28 22 L 26 22 L 24 23 L 20 22 Z M 59 22 L 59 23 Q 62 23 63 26 L 62 29 Q 60 33 59 30 Q 55 31 56 36 Q 57 39 62 38 L 63 44 L 63 46 L 62 46 Q 60 44 59 47 L 71 55 Q 73 56 72 50 L 73 47 L 72 43 L 73 40 L 72 36 L 73 33 L 72 29 L 73 26 L 72 23 L 71 23 L 68 22 L 66 22 L 64 23 L 59 22 Z M 33 24 L 34 26 Q 35 23 33 24 Z M 59 24 L 59 26 L 61 25 L 59 24 Z M 25 41 L 24 43 L 26 42 L 25 41 Z " /><path fill="rgb(27,27,27)" stroke="rgb(27,27,27)" stroke-width="1" opacity="0.5568627450980392" d="M 62.5 31 Q 68 30 69 33.5 L 69 36.5 L 71 40 L 69 40.5 L 71 44 L 67.5 44 L 64 42 L 63 37.5 L 65.5 37 Q 68.8 38.1 68 35.5 L 67 33 L 62.5 32 L 62.5 31 Z " /><path fill="rgb(27,27,27)" stroke="rgb(27,27,27)" stroke-width="1" opacity="0.5568627450980392" d="M 93 31 Q 98.4 29.5 100 32.5 L 101 35.5 L 100 37.5 L 102 42.5 Q 99.5 46.3 93 45 L 93 31 Z M 95 33 Q 93 39 98 37 L 99 35 L 95 33 Z M 95 39 Q 93 45 99 43 L 100 41 Q 99 38 95 39 Z " /><path fill="rgb(27,27,27)" stroke="rgb(27,27,27)" stroke-width="1" opacity="0.5568627450980392" d="M 106 31 L 108 31.5 L 108 41.5 Q 109 44 113.5 43 L 116 39.5 L 116.5 31 Q 119.8 32.8 118 39.5 L 114.5 45 Q 109.1 45.6 107 44 L 106 41.5 L 106 31 Z " /><path fill="rgb(27,27,27)" stroke="rgb(27,27,27)" stroke-width="1" opacity="0.5568627450980392" d="M 126.5 31 Q 132.5 29.5 134 32.5 L 133.5 34 Q 132.3 31.8 127.5 33 L 125 34 L 124 39.5 L 125 42 Q 127.1 43.6 132.5 43 L 134 42.5 L 132.5 45 Q 124.5 46.5 123 41.5 L 122 36.5 L 126.5 31 Z " /><path fill="rgb(27,27,27)" stroke="rgb(27,27,27)" stroke-width="1" opacity="0.5568627450980392" d="M 139 31 Q 142.7 29.6 141 35.5 L 146.5 31 L 148 31.5 L 143 37.5 L 149 45 L 141.5 39 L 141 45 L 139 44.5 L 139 31 Z " /><path fill="rgb(27,27,27)" stroke="rgb(27,27,27)" stroke-width="1" opacity="0.5568627450980392" d="M 154.5 31 L 155 44.5 L 153 43.5 L 153 32.5 L 154.5 31 Z " /><path fill="rgb(27,27,27)" stroke="rgb(27,27,27)" stroke-width="1" opacity="0.5568627450980392" d="M 161 31 L 164 32.5 L 170.5 41 L 171 32.5 L 172.5 31 L 173 45 Q 170.3 46.1 171 43.5 L 163.5 35 L 163 43.5 L 161.5 45 L 161 31 Z " /><path fill="rgb(27,27,27)" stroke="rgb(27,27,27)" stroke-width="1" opacity="0.5568627450980392" d="M 182.5 31 Q 188.5 29.5 190 32.5 L 189.5 34 Q 188 31.5 182.5 33 Q 179.4 34.4 180 39.5 L 181 42 L 188 43 L 188 40 Q 185 41 186 38 Q 192.4 35.7 190 43.5 Q 188.5 46.5 182.5 45 L 178 40.5 L 178 35.5 L 180 32 L 182.5 31 Z " /><path fill="rgb(27,27,27)" stroke="rgb(27,27,27)" stroke-width="1" opacity="0.5568627450980392" d="M 196.5 31 Q 195.9 35.6 198.5 37 L 205 37 L 205 31 L 207 31 L 207 44.5 L 205 45 L 205 39 L 197 39 L 196.5 45 L 195 43.5 L 195 35.5 L 196.5 31 Z " /><path fill="rgb(27,27,27)" stroke="rgb(27,27,27)" stroke-width="1" opacity="0.5568627450980392" d="M 217.5 31 L 224 45 Q 221.3 46.1 222 43.5 L 221 41 L 214.5 41 L 214 42.5 L 213 45 Q 210.3 46.1 211 43.5 L 217.5 31 Z M 218 35 L 216 37 Q 215 41 219 39 L 218 35 Z " /><path fill="rgb(27,27,27)" stroke="rgb(27,27,27)" stroke-width="1" opacity="0.5568627450980392" d="M 228 31 L 233 34.5 Q 232.3 36.8 234.5 36 L 238 31 L 241 31.5 L 241 43.5 L 239 44.5 L 238.5 35 L 233 39 L 230.5 35 L 230 45 L 228 44.5 L 228 31 Z " /><path fill="rgb(27,27,27)" stroke="rgb(27,27,27)" stroke-width="1" opacity="0.5568627450980392" d="M 247.5 31 Q 252 30 253 32.5 L 248 33 L 249.5 37 L 253 39.5 Q 254.9 44.9 251.5 44 L 247.5 45 L 246 42.5 L 247.5 43 Q 252.3 44.7 251 40.5 L 246 36.5 Q 245 32 247.5 31 Z " /><path fill="rgb(27,27,27)" stroke="rgb(27,27,27)" stroke-width="1" opacity="0.5568627450980392" d="M 258 31 L 260 31 L 260 37 L 266.5 37 Q 269.1 35.6 268.5 31 L 270 32.5 L 270 43.5 L 268 44.5 L 268 39 L 260 39 L 260 45 L 258 45 L 258 31 Z " /><path fill="rgb(27,27,27)" stroke="rgb(27,27,27)" stroke-width="1" opacity="0.5568627450980392" d="M 275 31 L 277 31.5 L 277 45 L 275 44.5 L 275 31 Z " /><path fill="rgb(27,27,27)" stroke="rgb(27,27,27)" stroke-width="1" opacity="0.5568627450980392" d="M 282 31 Q 288.3 29.5 290 33.5 Q 290.8 37.8 288 38.5 L 292 45 Q 289.3 46.1 290 43.5 L 286.5 39 L 284 39 L 284 45 L 282 45 L 282 31 Z M 284 33 L 284 37 L 288 36 Q 289 31 284 33 Z " /><path fill="rgb(27,27,27)" stroke="rgb(27,27,27)" stroke-width="1" opacity="0.5568627450980392" d="M 296 31 L 303.5 31 L 304 33 L 298 33 L 298 37 L 304 37 L 304 39 L 298 39 L 298 43 L 304 43 L 304 45 L 296 45 L 296 31 Z " /><path fill="rgb(27,27,27)" stroke="rgb(27,27,27)" stroke-width="1" opacity="0.5568627450980392" d="M 58.5 32 L 61 32.5 Q 58.9 35.8 58.5 32 Z " /><path fill="rgb(27,27,27)" stroke="rgb(27,27,27)" stroke-width="1" opacity="0.5568627450980392" d="M 46 46 L 49 47.5 L 49 49 Q 52.7 47.5 52 50.5 L 55 56.5 Q 52.2 58.5 53 63 Q 50.3 61.9 51 64.5 Q 47.6 72.1 49 84.5 L 47.5 86 L 44 85.5 L 44 72.5 Q 41.5 71 43 65.5 L 38 57.5 L 38 53 L 41 51.5 L 43.5 48 L 45.5 49 L 46 46 Z M 48 48 L 46 51 L 48 51 L 49 52 L 48 48 Z M 46 52 L 44 55 Q 45 58 41 56 L 41 58 Q 39 59 42 60 L 46 58 L 51 59 Q 52 61 53 59 L 50 54 L 46 55 L 46 52 Z M 51 52 L 51 55 L 52 55 Q 53 51 51 52 Z M 46 59 L 46 60 L 48 60 L 46 59 Z M 42 60 L 42 62 L 44 61 L 42 60 Z M 46 61 L 44 63 L 46 65 L 47 62 L 48 65 L 49 63 L 50 65 L 50 62 L 46 61 Z M 48 73 L 45 74 L 45 82 L 46 83 L 45 85 L 47 85 L 48 81 L 48 73 Z " /><path fill="rgb(27,27,27)" stroke="rgb(27,27,27)" stroke-width="1" opacity="0.5568627450980392" d="M 209.5 51 L 213 52 L 212.5 54 L 209 53 L 210.5 57 L 213 58.5 Q 213.8 62.3 211.5 63 Q 205.7 64.7 207 61 L 210.5 62 L 212 59 L 207 55.5 Q 206.5 51.5 209.5 51 Z " /><path fill="rgb(27,27,27)" stroke="rgb(27,27,27)" stroke-width="1" opacity="0.5568627450980392" d="M 93 52 L 96 53.5 L 100.5 59 Q 99.6 53.6 102.5 52 L 103 63 L 99 60.5 L 94.5 55 L 93.5 63 L 93 52 Z " /><path fill="rgb(27,27,27)" stroke="rgb(27,27,27)" stroke-width="1" opacity="0.5568627450980392" d="M 107 52 L 113 52.5 L 109 53 Q 106.8 58.6 112.5 57 L 112.5 58 Q 106.8 56.4 109 62 L 113 62.5 L 107 63 L 107 52 Z " /><path fill="rgb(27,27,27)" stroke="rgb(27,27,27)" stroke-width="1" opacity="0.5568627450980392" d="M 116 52 Q 118.7 50.9 118 53.5 L 120.5 59 L 123 52 Q 127.1 50.3 126 54.5 L 128.5 59 L 131 52 Q 133.7 50.9 133 53.5 L 128.5 63 L 124.5 55 L 120.5 63 L 116 52 Z " /><path fill="rgb(27,27,27)" stroke="rgb(27,27,27)" stroke-width="1" opacity="0.5568627450980392" d="M 142.5 52 Q 141.8 59.2 145.5 62 Q 149.5 62.5 150 59.5 L 150 52.5 L 152 52 Q 153.3 59.5 149.5 63 Q 143.3 64.3 142 60.5 L 142.5 52 Z " /><path fill="rgb(27,27,27)" stroke="rgb(27,27,27)" stroke-width="1" opacity="0.5568627450980392" d="M 155 52 L 162 57.5 L 163.5 60 L 164 52 L 166 52.5 L 166 63 L 158 56.5 L 157.5 55 L 157 63 L 155 62.5 L 155 52 Z " /><path fill="rgb(27,27,27)" stroke="rgb(27,27,27)" stroke-width="1" opacity="0.5568627450980392" d="M 169 52 L 171 52.5 L 171 63 L 169 62.5 L 169 52 Z " /><path fill="rgb(27,27,27)" stroke="rgb(27,27,27)" stroke-width="1" opacity="0.5568627450980392" d="M 174.5 52 L 178.5 59 L 182.5 52 L 183 54.5 L 178.5 63 L 174 54.5 L 174.5 52 Z " /><path fill="rgb(27,27,27)" stroke="rgb(27,27,27)" stroke-width="1" opacity="0.5568627450980392" d="M 186 52 L 193 52.5 L 188 53 Q 185.8 58.6 191.5 57 L 191.5 58 Q 185.8 56.4 188 62 L 193 62.5 L 186 63 L 186 52 Z " /><path fill="rgb(27,27,27)" stroke="rgb(27,27,27)" stroke-width="1" opacity="0.5568627450980392" d="M 196 52 L 201.5 52 L 202 53.5 L 203 55.5 Q 199 57.5 203 59.5 L 204 63 Q 201.3 64.1 202 61.5 L 199.5 58 L 198 58 L 198 63 L 196 63 L 196 52 Z M 198 53 L 198 57 L 200 56 Q 202 57 201 55 L 198 53 Z " /><path fill="rgb(27,27,27)" stroke="rgb(27,27,27)" stroke-width="1" opacity="0.5568627450980392" d="M 217.5 52 L 218 62.5 L 217 62.5 L 217.5 52 Z " /><path fill="rgb(27,27,27)" stroke="rgb(27,27,27)" stroke-width="1" opacity="0.5568627450980392" d="M 221.5 52 L 230 52.5 L 227 53 L 227 62.5 L 225 63 L 225 53 L 221.5 53 L 221.5 52 Z " /><path fill="rgb(27,27,27)" stroke="rgb(27,27,27)" stroke-width="1" opacity="0.5568627450980392" d="M 233 52 L 236 53.5 Q 235.3 55.8 237.5 55 L 241.5 52 L 239 55.5 L 238 63 Q 234.5 64.1 236 56.5 L 233 52 Z " /><path fill="rgb(27,27,27)" stroke="rgb(27,27,27)" stroke-width="1" opacity="0.5568627450980392" d="M 93 73 L 96 73.5 L 94 74 Q 92.9 76.7 95.5 76 L 95.5 77 Q 92.9 76.3 94 79 L 96 79.5 L 93 80 L 93 73 Z " /><path fill="rgb(27,27,27)" stroke="rgb(27,27,27)" stroke-width="1" opacity="0.5568627450980392" d="M 99.5 73 L 101 73.5 L 99 74 Q 97.9 76.7 100.5 76 L 102 78.5 L 98.5 80 L 98.5 79 L 101 78.5 L 98 74.5 L 99.5 73 Z " /><path fill="rgb(27,27,27)" stroke="rgb(27,27,27)" stroke-width="1" opacity="0.5568627450980392" d="M 103.5 73 L 108 73.5 L 106 74 L 105.5 80 L 105 74 L 103.5 73 Z " /><path fill="rgb(27,27,27)" stroke="rgb(27,27,27)" stroke-width="1" opacity="0.5568627450980392" d="M 117.5 73 L 118 79.5 L 117 79.5 L 116 74.5 L 117.5 73 Z " /><path fill="rgb(27,27,27)" stroke="rgb(27,27,27)" stroke-width="1" opacity="0.5568627450980392" d="M 121 73 L 125 74.5 L 124 76.5 L 125 78.5 L 121.5 80 Q 118.8 78.8 121 77.5 L 121 73 Z M 123 77 L 121 79 L 124 79 Q 125 76 123 77 Z " /><path fill="rgb(27,27,27)" stroke="rgb(27,27,27)" stroke-width="1" opacity="0.5568627450980392" d="M 127.5 73 Q 132.1 71.7 130 77.5 L 127 79.5 L 128.5 77 L 126 75.5 L 127.5 73 Z M 127 74 Q 126 77 129 76 Q 130 73 127 74 Z " /><path fill="rgb(27,27,27)" stroke="rgb(27,27,27)" stroke-width="1" opacity="0.5568627450980392" d="M 134.5 73 L 135 79.5 L 134 79.5 L 133 74.5 L 134.5 73 Z " /></svg>