<svg width="770" height="226" version="1.1" xmlns="http://www.w3.org/2000/svg" desc="Created with imagetracer.js version 1.2.6" ><path fill="rgb(11,64,126)" stroke="rgb(11,64,126)" stroke-width="1" opacity="0.42745098039215684" d="M 5.5 1 L 9 1.5 L 5.5 2 L 5.5 1 Z " /><path fill="rgb(11,64,126)" stroke="rgb(11,64,126)" stroke-width="1" opacity="0.42745098039215684" d="M 15.5 1 L 20 1.5 L 15 2 L 14.5 41 L 14 2.5 L 15.5 1 Z " /><path fill="rgb(11,64,126)" stroke="rgb(11,64,126)" stroke-width="1" opacity="0.42745098039215684" d="M 25.5 1 L 30 1.5 L 25.5 2 L 25.5 1 Z " /><path fill="rgb(11,64,126)" stroke="rgb(11,64,126)" stroke-width="1" opacity="0.42745098039215684" d="M 35 1 Q 39.6 -0.3 41 2.5 L 41 52.5 L 43.5 55 L 46 52.5 L 46.5 42 L 47 52.5 Q 43.5 59.5 40 52.5 L 40 2.5 L 36 2 L 35.5 53 L 35 1 Z " /><path fill="rgb(11,64,126)" stroke="rgb(11,64,126)" stroke-width="1" opacity="0.42745098039215684" d="M 46.5 1 Q 51 0 52 2.5 L 52 52.5 L 53 53.5 L 51 52.5 L 51 2.5 Q 51 1.5 46.5 2 L 46.5 1 Z " /><path fill="rgb(11,64,126)" stroke="rgb(11,64,126)" stroke-width="1" opacity="0.42745098039215684" d="M 93.5 1 L 101 1.5 L 93.5 2 L 93.5 1 Z " /><path fill="rgb(11,64,126)" stroke="rgb(11,64,126)" stroke-width="1" opacity="0.42745098039215684" d="M 89.5 2 L 90 37.5 L 89 37.5 L 89.5 2 Z " /><path fill="rgb(11,64,126)" stroke="rgb(11,64,126)" stroke-width="1" opacity="0.42745098039215684" d="M 9.5 6 L 10 52.5 L 9 52.5 L 9.5 6 Z " /><path fill="rgb(11,64,126)" stroke="rgb(11,64,126)" stroke-width="1" opacity="0.42745098039215684" d="M 149.5 21 L 150.5 23 L 149.5 21 Z " /><path fill="rgb(11,64,126)" stroke="rgb(11,64,126)" stroke-width="1" opacity="0.42745098039215684" d="M 30.5 26 L 31 52.5 L 30 52.5 L 30.5 26 Z " /><path fill="rgb(11,64,126)" stroke="rgb(11,64,126)" stroke-width="1" opacity="0.42745098039215684" d="M 161.5 33 L 162.5 35 L 161.5 33 Z " /><path fill="rgb(11,64,126)" stroke="rgb(11,64,126)" stroke-width="1" opacity="0.42745098039215684" d="M 4.5 34 L 5 52.5 L 4 52.5 L 4.5 34 Z " /><path fill="rgb(11,64,126)" stroke="rgb(11,64,126)" stroke-width="1" opacity="0.42745098039215684" d="M 20.5 53 L 22.5 55 L 25 53.5 Q 21.8 58.8 20.5 53 Z " /><path fill="rgb(11,64,126)" stroke="rgb(11,64,126)" stroke-width="1" opacity="0.42745098039215684" d="M 1.5 57 L 2 95.5 L 1 95.5 L 1.5 57 Z " /><path fill="rgb(11,64,126)" stroke="rgb(11,64,126)" stroke-width="1" opacity="0.42745098039215684" d="M 54.5 57 L 55 90.5 L 54 90.5 L 54.5 57 Z " /><path fill="rgb(11,64,126)" stroke="rgb(11,64,126)" stroke-width="1" opacity="0.42745098039215684" d="M 115.5 61 L 117.5 64 L 115.5 61 Z " /><path fill="rgb(11,64,126)" stroke="rgb(11,64,126)" stroke-width="1" opacity="0.42745098039215684" d="M 119.5 65 L 120.5 67 L 119.5 65 Z " /><path fill="rgb(11,64,126)" stroke="rgb(11,64,126)" stroke-width="1" opacity="0.42745098039215684" d="M 122.5 69 L 123.5 71 L 122.5 69 Z " /><path fill="rgb(11,64,126)" stroke="rgb(11,64,126)" stroke-width="1" opacity="0.42745098039215684" d="M 181.5 79 L 182 82.5 L 181 82.5 L 181.5 79 Z " /><path fill="rgb(11,64,126)" stroke="rgb(11,64,126)" stroke-width="1" opacity="0.42745098039215684" d="M 128.5 86 L 129 118.5 L 128 118.5 L 128.5 86 Z " /><path fill="rgb(11,64,126)" stroke="rgb(11,64,126)" stroke-width="1" opacity="0.42745098039215684" d="M 2.5 102 L 3 104.5 L 2 104.5 L 2.5 102 Z " /><path fill="rgb(11,64,126)" stroke="rgb(11,64,126)" stroke-width="1" opacity="0.42745098039215684" d="M 62.5 112 L 63.5 114 L 62.5 112 Z " /><path fill="rgb(11,64,126)" stroke="rgb(11,64,126)" stroke-width="1" opacity="0.42745098039215684" d="M 67.5 117 L 68.5 119 L 67.5 117 Z " /><path fill="rgb(11,64,126)" stroke="rgb(11,64,126)" stroke-width="1" opacity="0.42745098039215684" d="M 140.5 121 L 141.5 123 L 140.5 121 Z " /><path fill="rgb(11,64,126)" stroke="rgb(11,64,126)" stroke-width="1" opacity="0.42745098039215684" d="M 147.5 122 L 148 163.5 L 147 163.5 L 147.5 122 Z " /><path fill="rgb(11,64,126)" stroke="rgb(11,64,126)" stroke-width="1" opacity="0.42745098039215684" d="M 152.5 122 L 153 140.5 L 152 140.5 L 152.5 122 Z " /><path fill="rgb(11,64,126)" stroke="rgb(11,64,126)" stroke-width="1" opacity="0.42745098039215684" d="M 168.5 122 L 169 171.5 L 168 171.5 L 168.5 122 Z " /><path fill="rgb(11,64,126)" stroke="rgb(11,64,126)" stroke-width="1" opacity="0.42745098039215684" d="M 131.5 123 L 132 178 L 137 178.5 L 132.5 179 L 131 177.5 L 131.5 123 Z " /><path fill="rgb(11,64,126)" stroke="rgb(11,64,126)" stroke-width="1" opacity="0.42745098039215684" d="M 136.5 123 L 137 138.5 L 136 138.5 L 136.5 123 Z " /><path fill="rgb(11,64,126)" stroke="rgb(11,64,126)" stroke-width="1" opacity="0.42745098039215684" d="M 87.5 125 Q 91.9 123.5 91 126.5 L 89.5 126 Q 86.5 126.5 87.5 125 Z " /><path fill="rgb(11,64,126)" stroke="rgb(11,64,126)" stroke-width="1" opacity="0.42745098039215684" d="M 142.5 131 L 143 178 L 148 178.5 L 143.5 179 L 142 177.5 L 142.5 131 Z " /><path fill="rgb(11,64,126)" stroke="rgb(11,64,126)" stroke-width="1" opacity="0.42745098039215684" d="M 15.5 138 L 16.5 140 L 15.5 138 Z " /><path fill="rgb(11,64,126)" stroke="rgb(11,64,126)" stroke-width="1" opacity="0.42745098039215684" d="M 163.5 145 L 164 178 L 168 178.5 L 164.5 179 L 163 177.5 L 163.5 145 Z " /><path fill="rgb(11,64,126)" stroke="rgb(11,64,126)" stroke-width="1" opacity="0.42745098039215684" d="M 21.5 146 L 22.5 148 L 21.5 146 Z " /><path fill="rgb(11,64,126)" stroke="rgb(11,64,126)" stroke-width="1" opacity="0.42745098039215684" d="M 33.5 158 L 34.5 160 L 33.5 158 Z " /><path fill="rgb(11,64,126)" stroke="rgb(11,64,126)" stroke-width="1" opacity="0.42745098039215684" d="M 37.5 161 L 38.5 163 L 37.5 161 Z " /><path fill="rgb(11,64,126)" stroke="rgb(11,64,126)" stroke-width="1" opacity="0.42745098039215684" d="M 179.5 162 L 180 177.5 Q 179.3 179.8 175.5 179 L 175.5 178 L 179 177.5 L 179.5 162 Z " /><path fill="rgb(11,64,126)" stroke="rgb(11,64,126)" stroke-width="1" opacity="0.42745098039215684" d="M 153.5 178 L 158 178.5 L 153.5 179 L 153.5 178 Z " /><path fill="rgb(11,64,126)" stroke="rgb(11,64,126)" stroke-width="1" opacity="0.42745098039215684" d="M 84.5 179 L 91 179.5 L 84.5 180 L 84.5 179 Z " /><path fill="rgb(0,0,0)" stroke="rgb(0,0,0)" stroke-width="1" opacity="0.9921568627450981" d="M 751.5 1 Q 761.7 0.8 766 6.5 Q 770 10.5 770 18.5 Q 768.8 26.3 763.5 30 Q 759.4 33.9 750.5 33 Q 743.3 31.2 740 25.5 Q 737 21.5 738 13.5 Q 739.5 7 744.5 4 L 751.5 1 Z M 750 3 L 746 5 Q 740 8 739 16 L 741 25 L 747 30 L 754 32 L 763 29 L 768 22 Q 770 11 765 8 L 759 3 L 750 3 Z " /><path fill="rgb(0,0,0)" stroke="rgb(0,0,0)" stroke-width="1" opacity="0.9921568627450981" d="M 204 3 L 271.5 3 L 273 4.5 L 288 80.5 L 288 85.5 L 291 96.5 L 293 113.5 L 294.5 115 L 298 92.5 L 301 81.5 L 301 76.5 L 304 65.5 L 304 60.5 L 307 49.5 L 307 44.5 L 310 33.5 L 310 28.5 L 315 4.5 L 316.5 3 L 384 3 L 384 178 L 344.5 178 L 343 176.5 L 344 171.5 L 345 45.5 L 344 45.5 L 343 54.5 L 330 109.5 L 324 141.5 L 318 164.5 L 317 173.5 L 314.5 178 L 272.5 178 L 272 174.5 L 243.5 46 L 243 90.5 L 244 91.5 L 244 172.5 L 245 176.5 L 243.5 178 L 204 178 L 204 3 Z " /><path fill="rgb(0,0,0)" stroke="rgb(0,0,0)" stroke-width="1" opacity="0.9921568627450981" d="M 407 3 L 474.5 3 L 476 4.5 L 496.5 115 L 498 113.5 L 503 80.5 L 518 3 L 587 3 L 587 178 L 547.5 178 L 546 176.5 L 548 45.5 L 547 45.5 L 519 176.5 L 517.5 178 L 475.5 178 L 475 175.5 L 446.5 47 L 446 113.5 L 447 114.5 L 447 178 L 407.5 178 L 407 177.5 L 407 3 Z " /><path fill="rgb(0,0,0)" stroke="rgb(0,0,0)" stroke-width="1" opacity="0.9921568627450981" d="M 610.5 3 L 651.5 3 L 653 4.5 L 653 138.5 L 654 143.5 L 656.5 147 Q 660.5 150.5 669.5 149 L 676 144.5 L 677 132.5 L 678 131.5 L 678 3 L 720.5 3 L 721 3.5 L 721 148.5 L 718 160.5 L 710.5 171 L 702.5 176 L 688.5 180 Q 682.3 178.3 680.5 181 L 649.5 181 L 630.5 177 Q 621.2 173.8 616 166.5 L 611 156.5 L 610 145.5 L 609 144.5 L 609 4.5 L 610.5 3 Z " /><path fill="rgb(0,0,0)" stroke="rgb(0,0,0)" stroke-width="1" opacity="0.9921568627450981" d="M 748 6 Q 757 4.3 760 9.5 Q 761.5 15.5 758.5 17 L 756 18.5 L 762 27 Q 758.2 28 757 25.5 L 752.5 19 L 752 27 L 748 26.5 L 748 6 Z M 753 9 L 752 15 L 755 15 Q 757 14 756 10 L 753 9 Z " /><path fill="rgb(0,0,0)" stroke="rgb(0,0,0)" stroke-width="1" opacity="0.9921568627450981" d="M 14 196 L 19 196 L 19 197.5 L 26.5 218 L 35.5 196 L 40 196 L 40 207.5 L 41 208.5 L 41 223.5 L 42 224.5 L 37 225 L 37 207.5 L 35.5 204 L 28 225 L 24 223.5 L 17.5 202 L 16 225 L 12 225 L 12 217.5 L 13 216.5 L 13 203.5 L 14 202.5 L 14 196 Z " /><path fill="rgb(0,0,0)" stroke="rgb(0,0,0)" stroke-width="1" opacity="0.9921568627450981" d="M 60 196 L 64 196.5 L 64 217.5 L 66.5 221 L 72.5 222 L 76 219.5 L 77 217.5 L 77 196 L 81 196.5 L 81 217.5 L 76.5 224 L 69.5 226 L 65.5 225 L 61 220.5 L 60 217.5 L 60 196 Z " /><path fill="rgb(0,0,0)" stroke="rgb(0,0,0)" stroke-width="1" opacity="0.9921568627450981" d="M 100 196 L 104 196.5 L 104 222 L 116.5 222 L 117 225 L 100 225 L 100 196 Z " /><path fill="rgb(0,0,0)" stroke="rgb(0,0,0)" stroke-width="1" opacity="0.9921568627450981" d="M 127.5 196 L 147.5 196 L 148 200 L 139 200 L 139 224.5 L 135 225 L 135 200.5 L 134.5 200 L 127.5 200 L 126 197.5 L 127.5 196 Z " /><path fill="rgb(0,0,0)" stroke="rgb(0,0,0)" stroke-width="1" opacity="0.9921568627450981" d="M 164 196 L 168 196.5 L 168 225 L 164 224.5 L 164 196 Z " /><path fill="rgb(0,0,0)" stroke="rgb(0,0,0)" stroke-width="1" opacity="0.9921568627450981" d="M 188 196 Q 192.6 194.8 194 197.5 L 200.5 218 L 209.5 196 L 214 196 L 214 204.5 L 215 205.5 Q 213.8 217.9 216 225 Q 210.8 227.1 212 222.5 L 211 221.5 L 210.5 202 L 201.5 225 Q 198.2 226.1 199 223.5 L 191.5 202 L 191 219.5 L 190 225 Q 184 227.3 186 220.5 L 187 219.5 L 188 196 Z " /><path fill="rgb(0,0,0)" stroke="rgb(0,0,0)" stroke-width="1" opacity="0.9921568627450981" d="M 234 196 L 249.5 196 L 250 198.5 L 248.5 200 L 238 200 L 238 208 L 249 208 L 249 212 L 238 212 L 238 222 L 250.5 222 L 251 225 L 234 225 L 234 196 Z " /><path fill="rgb(0,0,0)" stroke="rgb(0,0,0)" stroke-width="1" opacity="0.9921568627450981" d="M 269.5 196 Q 283.4 194.1 289 200.5 L 291 203.5 L 292 212.5 Q 290.9 219.9 285.5 223 L 281.5 225 L 268 225 L 268 197.5 L 269.5 196 Z M 274 199 L 272 201 L 272 222 Q 280 223 284 220 L 287 216 Q 289 207 286 204 Q 283 198 274 199 Z " /><path fill="rgb(0,0,0)" stroke="rgb(0,0,0)" stroke-width="1" opacity="0.9921568627450981" d="M 309 196 L 313 196.5 L 313 225 L 309 224.5 L 309 196 Z " /><path fill="rgb(0,0,0)" stroke="rgb(0,0,0)" stroke-width="1" opacity="0.9921568627450981" d="M 340 196 L 345 196 L 345 197.5 L 354 225 L 350 225 L 350 223.5 L 346.5 216 L 337.5 216 L 337 218.5 L 335 225 L 330 224.5 L 340 196 Z M 343 201 L 338 213 L 346 213 L 343 201 Z " /><path fill="rgb(0,0,0)" stroke="rgb(0,0,0)" stroke-width="1" opacity="0.9921568627450981" d="M 394.5 196 L 398 197.5 L 398 218.5 L 401.5 222 Q 408.8 223.3 410 218.5 L 411 215.5 L 411 196 L 415 196.5 L 415 216.5 L 410.5 224 L 402.5 226 L 395 221.5 L 393 215.5 L 393 197.5 L 394.5 196 Z " /><path fill="rgb(0,0,0)" stroke="rgb(0,0,0)" stroke-width="1" opacity="0.9921568627450981" d="M 434 196 Q 438.7 195 440 198.5 L 451.5 218 L 452 196 L 456 196.5 L 456 225 L 451 225 L 451 223.5 L 438.5 204 L 438 225 L 434 224.5 L 434 196 Z " /><path fill="rgb(0,0,0)" stroke="rgb(0,0,0)" stroke-width="1" opacity="0.9921568627450981" d="M 475 196 L 479 196.5 L 479 225 L 475 224.5 L 475 196 Z " /><path fill="rgb(0,0,0)" stroke="rgb(0,0,0)" stroke-width="1" opacity="0.9921568627450981" d="M 495 196 Q 498.8 195 500 197.5 L 506.5 220 L 515.5 196 Q 519.9 194.5 519 197.5 L 509 225 L 504 225 L 504 222.5 L 495 196 Z " /><path fill="rgb(0,0,0)" stroke="rgb(0,0,0)" stroke-width="1" opacity="0.9921568627450981" d="M 535 196 L 549.5 196 L 551 197.5 L 549.5 200 L 539 200 L 539 208 L 550 208 L 550 212 L 539 212 L 539 222 L 550.5 222 L 551 225 L 535 225 L 535 196 Z " /><path fill="rgb(0,0,0)" stroke="rgb(0,0,0)" stroke-width="1" opacity="0.9921568627450981" d="M 569 196 L 580.5 196 L 586 200.5 L 587 204.5 L 582 211.5 L 585 214.5 L 587 225 Q 581.8 227.1 583 222.5 L 581 215.5 L 578.5 213 L 573 213 L 573 225 L 569 225 L 569 196 Z M 573 199 L 573 210 L 580 209 Q 583 208 582 202 Q 579 198 573 199 Z " /><path fill="rgb(0,0,0)" stroke="rgb(0,0,0)" stroke-width="1" opacity="0.9921568627450981" d="M 609.5 196 L 617.5 196 L 619 197.5 Q 620.3 201.3 616.5 200 L 611.5 199 L 608 201.5 Q 607 206 609.5 207 Q 616.9 208.1 620 213.5 L 621 218.5 L 617.5 224 L 609.5 226 L 603 224 L 604.5 220 Q 606.8 223.2 613.5 222 Q 617.5 220.3 616 214 L 608.5 211 L 604 206.5 Q 602.5 198.5 607.5 197 L 609.5 196 Z " /><path fill="rgb(0,0,0)" stroke="rgb(0,0,0)" stroke-width="1" opacity="0.9921568627450981" d="M 639.5 196 L 643 197.5 L 643 224.5 L 638 225 L 638 197.5 L 639.5 196 Z " /><path fill="rgb(0,0,0)" stroke="rgb(0,0,0)" stroke-width="1" opacity="0.9921568627450981" d="M 659.5 196 L 679.5 196 L 680 200 L 671 200 L 671 224.5 L 667 225 L 667 200.5 L 666.5 200 L 659.5 200 L 658 197.5 L 659.5 196 Z " /><path fill="rgb(0,0,0)" stroke="rgb(0,0,0)" stroke-width="1" opacity="0.9921568627450981" d="M 695 196 L 699 196 L 699 197.5 L 705.5 209 L 712 196 L 717 196.5 L 707 213.5 L 707 225 L 703 224.5 L 703 211.5 L 696 200.5 L 695 196 Z " /><path fill="rgb(0,0,0)" stroke="rgb(0,0,0)" stroke-width="1" opacity="0.011764705882352941" d="M 56 0 L 88 0 L 88 55.5 L 88.5 56 L 104 56 L 104 64 L 72 64 L 72 72 L 64.5 72 L 64 72.5 L 64 96 L 56 96 L 56 0 Z " /><path fill="rgb(0,0,0)" stroke="rgb(0,0,0)" stroke-width="1" opacity="0.011764705882352941" d="M 128 0 L 769.5 0 L 770 0.5 L 770 14.5 L 769 14.5 L 769 11.5 L 764.5 5 L 756.5 1 L 751.5 1 Q 743.9 2.9 740 8.5 Q 737 12.5 738 20.5 Q 739.8 27.7 745.5 31 Q 749.1 33.9 756.5 33 Q 763.5 31.4 767 26.5 L 769.5 19 L 770 226 L 612 225.5 L 619 222.5 L 621 215.5 L 615.5 209 L 608 205.5 Q 607 201 609.5 200 L 615.5 199 L 619 200 L 617.5 196 Q 606.7 194.2 604 200.5 Q 602.5 209.5 608.5 211 L 616 214 Q 617.5 220.3 613.5 222 Q 606.8 223.2 604.5 220 L 603 224 L 609 225.5 L 405.5 226 L 405.5 225 Q 411.7 225.7 413 221.5 L 415 216.5 L 415 196 L 411 196.5 L 411 215.5 L 406.5 222 Q 399.3 223.3 398 218.5 L 398 197.5 L 396.5 196 L 393 197.5 L 393 215.5 L 395 221.5 L 397.5 224 L 402 225.5 L 72.5 226 L 72.5 225 Q 78.1 224.6 80 220.5 L 81 217.5 L 81 196 L 77 196.5 L 77 217.5 L 74.5 221 L 68.5 222 L 65 219.5 L 64 217.5 L 64 196 L 60 196.5 L 60 217.5 L 65.5 225 L 69 225.5 L 0 226 L 0 128.5 L 0.5 128 L 8 128 L 8 144 L 16 144 L 16 152 L 24 152 L 24 160 L 32 160 L 32 168 L 40 168 L 40 176 L 63.5 176 L 64 176.5 L 64 183.5 L 64.5 184 L 96 184 L 96 120.5 L 96.5 120 L 104 120 L 104 112 L 112 112 L 112 104 L 120 104 L 120 88 L 128 88 L 128 184 L 184 184 L 184 56.5 L 183.5 56 L 176 56 L 176 40 L 168 40 L 168 32 L 160 32 L 160 24 L 152 24 L 152 16 L 144 16 L 144 8 L 128 8 L 128 0 Z M 204 3 L 204 178 L 244 178 L 245 177 L 244 173 L 244 92 L 243 91 L 244 46 L 272 175 L 273 178 L 315 178 L 317 174 L 318 165 L 324 142 L 330 110 L 343 55 L 344 46 L 345 46 L 344 172 L 343 177 L 345 178 L 384 178 L 384 3 L 317 3 L 315 5 L 310 29 L 310 34 L 307 45 L 307 50 L 304 61 L 304 66 L 301 77 L 301 82 L 298 93 L 295 115 L 293 114 L 291 97 L 288 86 L 288 81 L 273 5 L 272 3 L 204 3 Z M 407 3 L 407 178 L 408 178 L 447 178 L 447 115 L 446 114 L 447 47 L 475 176 L 476 178 L 518 178 L 519 177 L 547 46 L 548 46 L 546 177 L 548 178 L 587 178 L 587 3 L 518 3 L 503 81 L 498 114 L 497 115 L 476 5 L 475 3 L 407 3 Z M 611 3 L 609 5 L 609 145 L 610 146 L 611 157 L 616 167 Q 621 174 631 177 L 650 181 L 681 181 Q 682 178 689 180 L 703 176 L 711 171 L 718 161 L 721 149 L 721 4 L 721 3 L 678 3 L 678 132 L 677 133 L 676 145 L 670 149 Q 661 151 657 147 L 654 144 L 653 139 L 653 5 L 652 3 L 611 3 Z M 14 196 L 14 203 L 13 204 L 13 217 L 12 218 L 12 225 L 16 225 L 18 202 L 24 224 L 28 225 L 36 204 L 37 208 L 37 225 L 42 225 L 41 224 L 41 209 L 40 208 L 40 196 L 36 196 L 27 218 L 19 198 L 19 196 L 14 196 Z M 100 196 L 100 225 L 117 225 L 117 222 L 104 222 L 104 197 L 100 196 Z M 128 196 L 126 198 L 128 200 L 135 200 L 135 201 L 135 225 L 139 225 L 139 200 L 148 200 L 148 196 L 128 196 Z M 164 196 L 164 225 L 168 225 L 168 197 L 164 196 Z M 188 196 L 187 220 L 186 221 Q 184 227 190 225 L 191 220 L 192 202 L 199 224 Q 198 226 202 225 L 211 202 L 211 222 L 212 223 Q 211 227 216 225 Q 214 218 215 206 L 214 205 L 214 196 L 210 196 L 201 218 L 194 198 Q 193 195 188 196 Z M 234 196 L 234 225 L 251 225 L 251 222 L 238 222 L 238 212 L 249 212 L 249 208 L 238 208 L 238 200 L 249 200 L 250 199 L 250 196 L 234 196 Z M 270 196 L 268 198 L 268 225 L 282 225 L 286 223 Q 291 220 292 213 L 291 204 L 289 201 Q 283 194 270 196 Z M 309 196 L 309 225 L 313 225 L 313 197 L 309 196 Z M 340 196 L 330 225 L 335 225 L 337 219 L 338 216 L 347 216 L 350 224 L 350 225 L 354 225 L 345 198 L 345 196 L 340 196 Z M 434 196 L 434 225 L 438 225 L 439 204 L 451 224 L 451 225 L 456 225 L 456 197 L 452 196 L 452 218 L 440 199 Q 439 195 434 196 Z M 475 196 L 475 225 L 479 225 L 479 197 L 475 196 Z M 495 196 L 504 223 L 504 225 L 509 225 L 519 198 Q 520 194 516 196 L 507 220 L 500 198 Q 499 195 495 196 Z M 535 196 L 535 225 L 551 225 L 551 222 L 539 222 L 539 212 L 550 212 L 550 208 L 539 208 L 539 200 L 550 200 L 551 198 L 550 196 L 535 196 Z M 569 196 L 569 225 L 573 225 L 573 213 L 579 213 L 581 216 L 583 223 Q 582 227 587 225 L 585 215 L 582 212 L 587 205 L 586 201 L 581 196 L 569 196 Z M 640 196 L 638 198 L 638 225 L 643 225 L 643 198 L 640 196 Z M 660 196 L 658 198 L 660 200 L 667 200 L 667 201 L 667 225 L 671 225 L 671 200 L 680 200 L 680 196 L 660 196 Z M 695 196 L 696 201 L 703 212 L 703 225 L 707 225 L 707 214 L 717 197 L 712 196 L 706 209 L 699 198 L 699 196 L 695 196 Z " /><path fill="rgb(0,0,0)" stroke="rgb(0,0,0)" stroke-width="1" opacity="0.011764705882352941" d="M 749.5 3 L 758.5 3 L 765 7.5 Q 769.7 11.3 768 21.5 L 762.5 29 L 753.5 32 L 746.5 30 L 741 24.5 L 739 15.5 Q 740.1 8.1 745.5 5 L 749.5 3 Z M 748 6 L 748 27 L 752 27 L 753 19 L 757 26 Q 758 28 762 27 L 756 19 L 759 17 Q 762 16 760 10 Q 757 4 748 6 Z " /><path fill="rgb(0,0,0)" stroke="rgb(0,0,0)" stroke-width="1" opacity="0.011764705882352941" d="M 752.5 9 L 756 10 Q 757 13.8 754.5 15 L 752 15 L 752.5 9 Z " /><path fill="rgb(0,0,0)" stroke="rgb(0,0,0)" stroke-width="1" opacity="0.011764705882352941" d="M 72 112 L 80 112 L 80 120 L 72 120 L 72 112 Z " /><path fill="rgb(0,0,0)" stroke="rgb(0,0,0)" stroke-width="1" opacity="0.011764705882352941" d="M 273.5 199 Q 282.5 198.5 286 203.5 Q 288.7 207.3 287 215.5 L 283.5 220 Q 279.6 223.3 272 222 L 272 200.5 L 273.5 199 Z " /><path fill="rgb(0,0,0)" stroke="rgb(0,0,0)" stroke-width="1" opacity="0.011764705882352941" d="M 573 199 Q 579 198.1 582 201.5 Q 583.3 207.8 579.5 209 L 573 210 L 573 199 Z " /><path fill="rgb(0,0,0)" stroke="rgb(0,0,0)" stroke-width="1" opacity="0.011764705882352941" d="M 342.5 201 L 346 213 L 338 212.5 L 342.5 201 Z " /><path fill="rgb(17,63,116)" stroke="rgb(17,63,116)" stroke-width="1" opacity="0.7490196078431373" d="M 90.5 1 L 93 1.5 L 90.5 2 L 90.5 1 Z " /><path fill="rgb(17,63,116)" stroke="rgb(17,63,116)" stroke-width="1" opacity="0.7490196078431373" d="M 4.5 2 L 5 33.5 L 4 33.5 L 4.5 2 Z " /><path fill="rgb(17,63,116)" stroke="rgb(17,63,116)" stroke-width="1" opacity="0.7490196078431373" d="M 19.5 2 L 20 51.5 L 19 51.5 L 19.5 2 Z " /><path fill="rgb(17,63,116)" stroke="rgb(17,63,116)" stroke-width="1" opacity="0.7490196078431373" d="M 46.5 2 L 47 41.5 L 46 41.5 L 46.5 2 Z " /><path fill="rgb(17,63,116)" stroke="rgb(17,63,116)" stroke-width="1" opacity="0.7490196078431373" d="M 25.5 7 L 26 52.5 L 25 52.5 L 25.5 7 Z " /><path fill="rgb(17,63,116)" stroke="rgb(17,63,116)" stroke-width="1" opacity="0.7490196078431373" d="M 146.5 19 L 147.5 21 L 146.5 19 Z " /><path fill="rgb(17,63,116)" stroke="rgb(17,63,116)" stroke-width="1" opacity="0.7490196078431373" d="M 151.5 23 L 152.5 25 L 151.5 23 Z " /><path fill="rgb(17,63,116)" stroke="rgb(17,63,116)" stroke-width="1" opacity="0.7490196078431373" d="M 159.5 31 L 160.5 33 L 159.5 31 Z " /><path fill="rgb(17,63,116)" stroke="rgb(17,63,116)" stroke-width="1" opacity="0.7490196078431373" d="M 163.5 36 L 164.5 38 L 163.5 36 Z " /><path fill="rgb(17,63,116)" stroke="rgb(17,63,116)" stroke-width="1" opacity="0.7490196078431373" d="M 128.5 83 L 129 85.5 L 128 85.5 L 128.5 83 Z " /><path fill="rgb(17,63,116)" stroke="rgb(17,63,116)" stroke-width="1" opacity="0.7490196078431373" d="M 181.5 83 L 182 93.5 L 181 93.5 L 181.5 83 Z " /><path fill="rgb(17,63,116)" stroke="rgb(17,63,116)" stroke-width="1" opacity="0.7490196078431373" d="M 2.5 99 L 3 101.5 L 2 101.5 L 2.5 99 Z " /><path fill="rgb(17,63,116)" stroke="rgb(17,63,116)" stroke-width="1" opacity="0.7490196078431373" d="M 142.5 123 L 143 130.5 L 142 130.5 L 142.5 123 Z " /><path fill="rgb(17,63,116)" stroke="rgb(17,63,116)" stroke-width="1" opacity="0.7490196078431373" d="M 157.5 123 L 158 140.5 L 157 140.5 L 157.5 123 Z " /><path fill="rgb(17,63,116)" stroke="rgb(17,63,116)" stroke-width="1" opacity="0.7490196078431373" d="M 163.5 123 L 164 144.5 L 163 144.5 L 163.5 123 Z " /><path fill="rgb(17,63,116)" stroke="rgb(17,63,116)" stroke-width="1" opacity="0.7490196078431373" d="M 90.5 127 L 91 161.5 L 90 161.5 L 90.5 127 Z " /><path fill="rgb(17,63,116)" stroke="rgb(17,63,116)" stroke-width="1" opacity="0.7490196078431373" d="M 136.5 139 L 137 177.5 L 136 177.5 L 136.5 139 Z " /><path fill="rgb(17,63,116)" stroke="rgb(17,63,116)" stroke-width="1" opacity="0.7490196078431373" d="M 23.5 148 L 24.5 150 L 23.5 148 Z " /><path fill="rgb(17,63,116)" stroke="rgb(17,63,116)" stroke-width="1" opacity="0.7490196078431373" d="M 26.5 151 L 28.5 154 L 26.5 151 Z " /><path fill="rgb(17,63,116)" stroke="rgb(17,63,116)" stroke-width="1" opacity="0.7490196078431373" d="M 30.5 155 L 32.5 158 L 30.5 155 Z " /><path fill="rgb(17,63,116)" stroke="rgb(17,63,116)" stroke-width="1" opacity="0.7490196078431373" d="M 174.5 160 L 175 177.5 L 174 177.5 L 174.5 160 Z " /><path fill="rgb(17,63,116)" stroke="rgb(17,63,116)" stroke-width="1" opacity="0.7490196078431373" d="M 147.5 164 L 148 177.5 L 147 177.5 L 147.5 164 Z " /><path fill="rgb(17,63,116)" stroke="rgb(17,63,116)" stroke-width="1" opacity="0.7490196078431373" d="M 168.5 172 L 169 177.5 L 168 177.5 L 168.5 172 Z " /><path fill="rgb(3,66,138)" stroke="rgb(3,66,138)" stroke-width="1" opacity="0.9921568627450981" d="M 5 2 L 9 2.5 L 9 52.5 L 11 56 L 15 53.5 L 15 2.5 L 19 2 L 19 51.5 L 22.5 56 L 26 52.5 L 26 7.5 L 25 2 L 30 2.5 L 30 52.5 L 32 56 L 35 54.5 L 36 52.5 L 36 2 L 40 2.5 L 40 52.5 Q 43.5 59.5 47 52.5 L 47 2.5 L 51 2 L 51 52.5 L 54 56.5 L 54 92.5 Q 56 103.5 61 111.5 L 69.5 120 Q 77.4 126 90 126 L 90 161.5 L 91 162.5 L 91 179 L 75.5 178 L 57.5 173 L 45.5 167 L 29 155 L 26.5 151 Q 24.3 151.8 25 149.5 Q 16.4 141.6 11 130.5 L 4 111.5 L 3 99.5 L 2 98.5 L 2 56.5 L 5 52.5 L 5 2 Z " /><path fill="rgb(3,66,138)" stroke="rgb(3,66,138)" stroke-width="1" opacity="0.9921568627450981" d="M 90 2 L 103.5 2 L 118.5 5 L 138.5 14 L 154 25 Q 152.9 27.7 155.5 27 L 157 30 Q 159.7 28.9 159 31.5 L 170 45.5 L 179 66.5 L 181 76.5 L 182 116.5 L 179 122.5 L 179 178 L 175 177.5 L 175 160.5 L 174 159.5 L 174 122.5 L 171.5 119 L 168 122.5 L 168 178 L 164 177.5 L 164 123.5 L 160.5 119 L 157 123.5 L 157 140.5 L 158 141.5 L 158 178 L 153 177.5 L 153 122.5 L 149.5 120 L 147 122.5 L 147 178 L 143 177.5 L 143 123.5 L 139.5 119 L 136 123.5 L 136 178 L 132 177.5 L 132 123.5 L 129 119.5 L 129 83.5 L 128 79.5 Q 124 67 114.5 60 L 99.5 53 Q 92.7 53.9 90 52 L 90 2 Z " /><path fill="rgb(235,33,40)" stroke="rgb(235,33,40)" stroke-width="1" opacity="0.9803921568627451" d="M 89.5 64 L 99.5 65 L 110 71 L 114 76.5 L 117 84.5 L 117 94.5 L 115 100.5 L 106.5 110 L 96.5 114 L 86.5 114 Q 75.4 111.6 70 103.5 L 66 93.5 L 66 84.5 Q 68.1 75.1 74.5 70 L 83.5 65 Q 88.3 66.3 89.5 64 Z " /><path fill="rgb(54,60,68)" stroke="rgb(54,60,68)" stroke-width="1" opacity="0" d="M 0 0 L 4 0.5 L 4 52 L 2 52 Q 3.7 57.2 0 56 L 0 0 Z " /><path fill="rgb(54,60,68)" stroke="rgb(54,60,68)" stroke-width="1" opacity="0" d="M 10 0 L 14 0.5 L 14 54 L 10 51.5 L 10 0 Z " /><path fill="rgb(54,60,68)" stroke="rgb(54,60,68)" stroke-width="1" opacity="0" d="M 20 0 L 24 0.5 L 24 54 L 22 54 Q 22.8 50.9 20 51.5 L 20 0 Z " /><path fill="rgb(54,60,68)" stroke="rgb(54,60,68)" stroke-width="1" opacity="0" d="M 30 0 L 34 0.5 L 34 54 L 32 53.5 L 32 27.5 L 30 25.5 L 30 0 Z " /><path fill="rgb(54,60,68)" stroke="rgb(54,60,68)" stroke-width="1" opacity="0" d="M 42 0 L 46 0.5 L 46 51.5 L 42 54 L 42 0 Z " /><path fill="rgb(54,60,68)" stroke="rgb(54,60,68)" stroke-width="1" opacity="0" d="M 52 0 L 56 0.5 L 56 56 Q 53 57.3 54 53.5 L 52 51.5 L 52 0 Z " /><path fill="rgb(54,60,68)" stroke="rgb(54,60,68)" stroke-width="1" opacity="0" d="M 102 0 L 127.5 0 L 128 0.5 L 128 8 Q 125 9 126 6 L 122 6 L 121.5 4 Q 112.7 5.4 113.5 2 L 102.5 2 L 102 0 Z " /><path fill="rgb(54,60,68)" stroke="rgb(54,60,68)" stroke-width="1" opacity="0" d="M 131.5 8 L 144 8 L 144 16 Q 141.3 17.1 142 14.5 Q 140.7 11 136 12 Q 137.3 8.7 132.5 10 L 131.5 8 Z " /><path fill="rgb(54,60,68)" stroke="rgb(54,60,68)" stroke-width="1" opacity="0" d="M 146 16 L 152 16 L 152 22 L 150 22 L 150 20 L 148 20 L 146 16 Z " /><path fill="rgb(54,60,68)" stroke="rgb(54,60,68)" stroke-width="1" opacity="0" d="M 155.5 24 Q 162.3 21.8 160 28.5 L 158 27.5 Q 158.8 25.3 156.5 26 L 155.5 24 Z " /><path fill="rgb(54,60,68)" stroke="rgb(54,60,68)" stroke-width="1" opacity="0" d="M 162 32 L 168 32 L 168 38 L 166 38 L 166 36 L 164 36 L 162 32 Z " /><path fill="rgb(54,60,68)" stroke="rgb(54,60,68)" stroke-width="1" opacity="0" d="M 88 40 L 90 40.5 L 90 54 L 99.5 54 L 100 56 L 88 56 L 88 40 Z " /><path fill="rgb(54,60,68)" stroke="rgb(54,60,68)" stroke-width="1" opacity="0" d="M 168 40 L 176 40 L 176 52 L 174 52 L 174 48.5 Q 170.8 49.3 172 44 L 170 44 L 168 40 Z " /><path fill="rgb(54,60,68)" stroke="rgb(54,60,68)" stroke-width="1" opacity="0" d="M 104 56 Q 107 55 106 58 L 110 58 L 112 62 L 116 62 L 116 64 L 120 66 L 120 68.5 L 126 76.5 L 126 82 L 128 82 L 128 88 L 120 88 L 120 104 L 114.5 104 L 116 101.5 Q 115 96.5 118 95.5 L 118 82.5 Q 115 81.5 116 76.5 L 105.5 66 L 102 64.5 L 104 64 L 104 56 Z " /><path fill="rgb(54,60,68)" stroke="rgb(54,60,68)" stroke-width="1" opacity="0" d="M 176 56 L 183.5 56 L 184 56.5 L 184 184 L 128 184 L 128 122 L 130 122.5 L 130 179.5 L 130.5 180 L 138 180 L 138 122.5 L 139.5 122 L 142 124.5 L 142 180 L 147.5 180 L 148 179.5 L 148 122.5 L 152 122 L 152 179.5 L 152.5 180 L 158 180 L 158 124.5 Q 160.8 125.1 160 122 L 162 122 L 162 179.5 L 162.5 180 L 170 180 L 170 122.5 L 171.5 122 L 174 124.5 L 174 180 L 179.5 180 L 180 179.5 L 180 122.5 L 182 121.5 L 182 72 L 180 72 L 180 64.5 Q 176.8 65.5 178 59.5 L 176 56 Z " /><path fill="rgb(54,60,68)" stroke="rgb(54,60,68)" stroke-width="1" opacity="0" d="M 72 64 L 82 64.5 L 72.5 70 L 72 64 Z " /><path fill="rgb(54,60,68)" stroke="rgb(54,60,68)" stroke-width="1" opacity="0" d="M 64 72 L 70 72.5 L 66 78.5 L 66 99.5 L 68 103.5 L 76 111.5 L 72 112 L 72 118 L 68.5 118 L 66 114 L 62 112 L 62 108 L 60 108 Q 61.7 102.8 58 104 L 58 99.5 L 56 96 L 64 96 L 64 72 Z " /><path fill="rgb(54,60,68)" stroke="rgb(54,60,68)" stroke-width="1" opacity="0" d="M 0 98 L 2 98.5 L 2 111.5 Q 5.3 110.5 4 116.5 Q 7.5 118.2 6 124 L 8 124 L 8 128 Q 11 126.8 10 130.5 L 14 136.5 L 14 140 L 18 142.5 L 18 146 L 20 146 L 20 148 L 22 148 L 22 150 L 24 150 L 24 152 L 26 152 L 26 154 L 28 154 L 28 156 L 30 156 L 30 158 L 34 160 L 34 162 L 38 162 L 40 166 L 44 166 L 46 170 L 49.5 170 Q 51 173.3 56 172 L 56 174 Q 61.2 172.3 60 176 L 40 176 L 40 168 L 32 168 L 32 160 L 24 160 L 24 152 L 16 152 L 16 144 L 8 144 L 8 128 L 0.5 128 L 0 127.5 L 0 98 Z " /><path fill="rgb(54,60,68)" stroke="rgb(54,60,68)" stroke-width="1" opacity="0" d="M 111.5 108 L 112 112 L 106 111.5 L 111.5 108 Z " /><path fill="rgb(54,60,68)" stroke="rgb(54,60,68)" stroke-width="1" opacity="0" d="M 103.5 112 L 104 120 L 96.5 120 L 96 120.5 L 96 184 L 64 184 L 64 176.5 L 65.5 176 L 67.5 178 L 76 178 L 76.5 180 L 92 180 L 92 124.5 L 91.5 124 L 80.5 124 L 80 122 L 74 122 L 74 120 L 80 120 L 80 114 L 86.5 114 Q 87.8 117.2 93.5 116 L 95.5 114 Q 102 115.5 103.5 112 Z " /><path fill="rgb(193,50,58)" stroke="rgb(193,50,58)" stroke-width="1" opacity="0.03137254901960784" d="M 82.5 64 L 89 64.5 L 83.5 65 L 71 73.5 L 66.5 84 L 66 78.5 L 70.5 72 Q 72.8 72.8 72 70.5 L 82.5 64 Z " /><path fill="rgb(193,50,58)" stroke="rgb(193,50,58)" stroke-width="1" opacity="0.03137254901960784" d="M 94.5 64 L 101.5 64 L 105.5 66 L 116 76.5 Q 115 81.5 118 82.5 L 118 95.5 L 116 96.5 Q 118.7 92.7 117 84.5 L 114 76.5 L 110 71 L 99.5 65 L 94.5 65 L 94.5 64 Z " /><path fill="rgb(193,50,58)" stroke="rgb(193,50,58)" stroke-width="1" opacity="0.03137254901960784" d="M 66.5 94 Q 68.5 105 76.5 110 L 86 113.5 L 80 114 Q 81.3 110.7 76.5 112 L 68 103.5 L 66 99.5 L 66.5 94 Z " /><path fill="rgb(193,50,58)" stroke="rgb(193,50,58)" stroke-width="1" opacity="0.03137254901960784" d="M 115.5 98 L 116 101.5 L 112.5 104 L 115 100.5 L 115.5 98 Z " /><path fill="rgb(193,50,58)" stroke="rgb(193,50,58)" stroke-width="1" opacity="0.03137254901960784" d="M 111.5 105 L 112 107.5 L 101.5 114 L 97.5 114 L 97.5 113 Q 107.3 111.8 111.5 105 Z " /><path fill="rgb(193,50,58)" stroke="rgb(193,50,58)" stroke-width="1" opacity="0.03137254901960784" d="M 87.5 114 L 95 114.5 Q 93.8 117.3 88.5 116 L 87.5 114 Z " /><path fill="rgb(12,64,124)" stroke="rgb(12,64,124)" stroke-width="1" opacity="0.06274509803921569" d="M 4 0 L 10 0 L 10 5.5 L 9 5.5 Q 11.2 -0.8 5.5 1 L 4 1.5 L 4 0 Z " /><path fill="rgb(12,64,124)" stroke="rgb(12,64,124)" stroke-width="1" opacity="0.06274509803921569" d="M 14 0 L 20 0.5 L 14.5 2 L 14 0 Z " /><path fill="rgb(12,64,124)" stroke="rgb(12,64,124)" stroke-width="1" opacity="0.06274509803921569" d="M 24 0 L 30 0.5 L 25 1 L 24.5 53 L 24 0 Z " /><path fill="rgb(12,64,124)" stroke="rgb(12,64,124)" stroke-width="1" opacity="0.06274509803921569" d="M 34 0 L 41.5 0 L 42 0.5 L 42 52.5 L 41 52.5 L 41 2.5 L 39.5 1 Q 35 0.5 35 1.5 L 35 53.5 L 32.5 55 L 31 53.5 L 31 27.5 L 32 27.5 L 32 53.5 L 34 54 L 34 0 Z " /><path fill="rgb(12,64,124)" stroke="rgb(12,64,124)" stroke-width="1" opacity="0.06274509803921569" d="M 46.5 0 Q 52.6 -1.3 52 1.5 L 50.5 1 Q 45.5 2 46.5 0 Z " /><path fill="rgb(12,64,124)" stroke="rgb(12,64,124)" stroke-width="1" opacity="0.06274509803921569" d="M 88 0 L 101.5 0 L 102 1.5 L 100.5 1 L 90.5 1 L 89 2.5 L 89 37.5 L 90 40 L 88 39.5 L 88 0 Z " /><path fill="rgb(12,64,124)" stroke="rgb(12,64,124)" stroke-width="1" opacity="0.06274509803921569" d="M 108.5 2 Q 114.6 0.8 114 3.5 L 112.5 3 Q 107.5 4 108.5 2 Z " /><path fill="rgb(12,64,124)" stroke="rgb(12,64,124)" stroke-width="1" opacity="0.06274509803921569" d="M 117.5 4 Q 123.3 2.3 122 6 L 117.5 5 L 117.5 4 Z " /><path fill="rgb(12,64,124)" stroke="rgb(12,64,124)" stroke-width="1" opacity="0.06274509803921569" d="M 123.5 6 L 126 6.5 L 123.5 7 L 123.5 6 Z " /><path fill="rgb(12,64,124)" stroke="rgb(12,64,124)" stroke-width="1" opacity="0.06274509803921569" d="M 128.5 8 L 132 9.5 L 130.5 9 Q 127.5 9.5 128.5 8 Z " /><path fill="rgb(12,64,124)" stroke="rgb(12,64,124)" stroke-width="1" opacity="0.06274509803921569" d="M 133.5 10 Q 137.3 9 136 12 L 139.5 12 L 142 15.5 L 139.5 14 L 133.5 11 L 133.5 10 Z " /><path fill="rgb(12,64,124)" stroke="rgb(12,64,124)" stroke-width="1" opacity="0.06274509803921569" d="M 143.5 16 L 146 16 L 146 18 L 148 18 Q 146.9 20.7 149.5 20 L 149.5 21 Q 144.3 19.2 143.5 16 Z " /><path fill="rgb(12,64,124)" stroke="rgb(12,64,124)" stroke-width="1" opacity="0.06274509803921569" d="M 153.5 24 L 158 26 L 160 30.5 L 153.5 24 Z " /><path fill="rgb(12,64,124)" stroke="rgb(12,64,124)" stroke-width="1" opacity="0.06274509803921569" d="M 163.5 34 L 164 36 L 168 38 L 168 40.5 L 166 39.5 L 163 35.5 L 163.5 34 Z " /><path fill="rgb(12,64,124)" stroke="rgb(12,64,124)" stroke-width="1" opacity="0.06274509803921569" d="M 14.5 41 L 15 52.5 L 14 52.5 L 14.5 41 Z " /><path fill="rgb(12,64,124)" stroke="rgb(12,64,124)" stroke-width="1" opacity="0.06274509803921569" d="M 168.5 42 Q 171.1 41.3 170 44 L 172 44 L 172 48 L 174 48 Q 172.8 53.3 176 52.5 L 176 55.5 L 175 55.5 L 168.5 42 Z " /><path fill="rgb(12,64,124)" stroke="rgb(12,64,124)" stroke-width="1" opacity="0.06274509803921569" d="M 2 52 Q 4.7 50.9 4 53.5 L 2 54.5 L 2 52 Z " /><path fill="rgb(12,64,124)" stroke="rgb(12,64,124)" stroke-width="1" opacity="0.06274509803921569" d="M 10.5 52 L 12.5 55 L 10 53.5 L 10.5 52 Z " /><path fill="rgb(12,64,124)" stroke="rgb(12,64,124)" stroke-width="1" opacity="0.06274509803921569" d="M 20.5 52 Q 22.8 51.3 22 53.5 L 22.5 55 L 20.5 52 Z " /><path fill="rgb(12,64,124)" stroke="rgb(12,64,124)" stroke-width="1" opacity="0.06274509803921569" d="M 45.5 52 L 43.5 55 L 45.5 52 Z " /><path fill="rgb(12,64,124)" stroke="rgb(12,64,124)" stroke-width="1" opacity="0.06274509803921569" d="M 52.5 52 L 54 54.5 L 53 54.5 L 52.5 52 Z " /><path fill="rgb(12,64,124)" stroke="rgb(12,64,124)" stroke-width="1" opacity="0.06274509803921569" d="M 90.5 53 L 96 53.5 L 90.5 54 L 90.5 53 Z " /><path fill="rgb(12,64,124)" stroke="rgb(12,64,124)" stroke-width="1" opacity="0.06274509803921569" d="M 100.5 54 L 104 55.5 L 100 56 L 100.5 54 Z " /><path fill="rgb(12,64,124)" stroke="rgb(12,64,124)" stroke-width="1" opacity="0.06274509803921569" d="M 0 56 L 2 56.5 L 1 57.5 L 1 95.5 L 2 98 L 0 97.5 L 0 56 Z " /><path fill="rgb(12,64,124)" stroke="rgb(12,64,124)" stroke-width="1" opacity="0.06274509803921569" d="M 54.5 56 L 56 56.5 L 56 94.5 L 55 94.5 L 55 57.5 L 54.5 56 Z " /><path fill="rgb(12,64,124)" stroke="rgb(12,64,124)" stroke-width="1" opacity="0.06274509803921569" d="M 106.5 56 L 109 57.5 L 106 58 L 106.5 56 Z " /><path fill="rgb(12,64,124)" stroke="rgb(12,64,124)" stroke-width="1" opacity="0.06274509803921569" d="M 110.5 58 L 115 61.5 L 112 62 Q 113 59 110 60 L 110.5 58 Z " /><path fill="rgb(12,64,124)" stroke="rgb(12,64,124)" stroke-width="1" opacity="0.06274509803921569" d="M 176.5 58 L 178 61.5 L 177 61.5 L 176.5 58 Z " /><path fill="rgb(12,64,124)" stroke="rgb(12,64,124)" stroke-width="1" opacity="0.06274509803921569" d="M 178.5 64 Q 181.5 63.1 180 67.5 L 179 67.5 L 178.5 64 Z " /><path fill="rgb(12,64,124)" stroke="rgb(12,64,124)" stroke-width="1" opacity="0.06274509803921569" d="M 120.5 67 L 124 71.5 L 120 68.5 L 120.5 67 Z " /><path fill="rgb(12,64,124)" stroke="rgb(12,64,124)" stroke-width="1" opacity="0.06274509803921569" d="M 180.5 72 Q 183.5 71.5 182 78.5 L 181 78.5 L 180.5 72 Z " /><path fill="rgb(12,64,124)" stroke="rgb(12,64,124)" stroke-width="1" opacity="0.06274509803921569" d="M 124.5 73 L 126 75.5 L 124 74.5 L 124.5 73 Z " /><path fill="rgb(12,64,124)" stroke="rgb(12,64,124)" stroke-width="1" opacity="0.06274509803921569" d="M 126.5 78 L 127 81.5 L 126 81.5 L 126.5 78 Z " /><path fill="rgb(12,64,124)" stroke="rgb(12,64,124)" stroke-width="1" opacity="0.06274509803921569" d="M 56.5 98 Q 58.8 98.8 58 102.5 L 57 102.5 L 56.5 98 Z " /><path fill="rgb(12,64,124)" stroke="rgb(12,64,124)" stroke-width="1" opacity="0.06274509803921569" d="M 58.5 104 Q 61.1 103.2 60 106.5 L 59 106.5 L 58.5 104 Z " /><path fill="rgb(12,64,124)" stroke="rgb(12,64,124)" stroke-width="1" opacity="0.06274509803921569" d="M 2.5 105 L 4 112 L 2 111.5 L 2.5 105 Z " /><path fill="rgb(12,64,124)" stroke="rgb(12,64,124)" stroke-width="1" opacity="0.06274509803921569" d="M 60.5 108 Q 63.1 107.2 62 110.5 L 61 110.5 L 60.5 108 Z " /><path fill="rgb(12,64,124)" stroke="rgb(12,64,124)" stroke-width="1" opacity="0.06274509803921569" d="M 4.5 114 L 6 117.5 L 4 116.5 L 4.5 114 Z " /><path fill="rgb(12,64,124)" stroke="rgb(12,64,124)" stroke-width="1" opacity="0.06274509803921569" d="M 64.5 114 Q 66.8 113.3 66 115.5 L 66.5 117 L 64.5 114 Z " /><path fill="rgb(12,64,124)" stroke="rgb(12,64,124)" stroke-width="1" opacity="0.06274509803921569" d="M 69.5 118 L 72 118 Q 70.9 120.7 73.5 120 L 73.5 121 Q 69.5 120.5 69.5 118 Z " /><path fill="rgb(12,64,124)" stroke="rgb(12,64,124)" stroke-width="1" opacity="0.06274509803921569" d="M 128.5 119 L 131 122.5 L 131 177.5 L 132.5 179 Q 137 179.5 137 178.5 L 137 122.5 L 140 120.5 L 142 123.5 L 139.5 122 L 138 122.5 L 138 179.5 L 137.5 180 L 130 180 L 130 122.5 Q 126.8 123.3 128.5 119 Z " /><path fill="rgb(12,64,124)" stroke="rgb(12,64,124)" stroke-width="1" opacity="0.06274509803921569" d="M 6.5 120 L 8 123.5 L 6 124 L 6.5 120 Z " /><path fill="rgb(12,64,124)" stroke="rgb(12,64,124)" stroke-width="1" opacity="0.06274509803921569" d="M 160.5 120 L 163 122.5 L 163 177.5 L 164.5 179 Q 168.3 179.8 169 177.5 L 169 122.5 L 170.5 121 L 174 123.5 L 171.5 122 L 170 122.5 L 170 179.5 L 169.5 180 L 162 180 L 162 122.5 L 160 122 Q 161 125 158 124 L 160.5 120 Z " /><path fill="rgb(12,64,124)" stroke="rgb(12,64,124)" stroke-width="1" opacity="0.06274509803921569" d="M 76.5 122 Q 80.9 120.5 80 123.5 L 78.5 123 Q 75.5 123.5 76.5 122 Z " /><path fill="rgb(12,64,124)" stroke="rgb(12,64,124)" stroke-width="1" opacity="0.06274509803921569" d="M 179.5 122 L 180 161.5 L 179 161.5 L 179.5 122 Z " /><path fill="rgb(12,64,124)" stroke="rgb(12,64,124)" stroke-width="1" opacity="0.06274509803921569" d="M 83.5 124 L 91.5 124 L 92 124.5 L 92 179.5 L 91 179.5 L 91 125.5 L 90.5 125 L 83.5 125 L 83.5 124 Z " /><path fill="rgb(12,64,124)" stroke="rgb(12,64,124)" stroke-width="1" opacity="0.06274509803921569" d="M 12.5 134 L 13.5 136 L 12.5 134 Z " /><path fill="rgb(12,64,124)" stroke="rgb(12,64,124)" stroke-width="1" opacity="0.06274509803921569" d="M 14.5 137 L 18 141.5 L 15.5 140 Q 12.4 140.7 14.5 137 Z " /><path fill="rgb(12,64,124)" stroke="rgb(12,64,124)" stroke-width="1" opacity="0.06274509803921569" d="M 152.5 141 L 153 179 L 158 179.5 L 152 180 L 152.5 141 Z " /><path fill="rgb(12,64,124)" stroke="rgb(12,64,124)" stroke-width="1" opacity="0.06274509803921569" d="M 18.5 143 L 34.5 160 L 37 161.5 L 34 162 L 34 160 L 32 160 L 32 158 L 30 158 L 30 156 L 28 156 L 28 154 L 26 154 L 26 152 L 24 152 L 24 150 L 22 150 L 20 146 L 18 146 L 18.5 143 Z " /><path fill="rgb(12,64,124)" stroke="rgb(12,64,124)" stroke-width="1" opacity="0.06274509803921569" d="M 38.5 163 L 43 165.5 L 40 166 Q 41.1 163.3 38.5 164 L 38.5 163 Z " /><path fill="rgb(12,64,124)" stroke="rgb(12,64,124)" stroke-width="1" opacity="0.06274509803921569" d="M 44.5 167 L 54 171.5 L 51.5 172 Q 50.3 169 46 170 Q 47.1 167.3 44.5 168 L 44.5 167 Z " /><path fill="rgb(12,64,124)" stroke="rgb(12,64,124)" stroke-width="1" opacity="0.06274509803921569" d="M 56.5 173 L 59 173.5 L 56.5 174 L 56.5 173 Z " /><path fill="rgb(12,64,124)" stroke="rgb(12,64,124)" stroke-width="1" opacity="0.06274509803921569" d="M 60.5 174 L 64 175.5 L 60 176 L 60.5 174 Z " /><path fill="rgb(12,64,124)" stroke="rgb(12,64,124)" stroke-width="1" opacity="0.06274509803921569" d="M 66.5 176 L 72 177.5 L 67.5 178 L 66.5 176 Z " /><path fill="rgb(12,64,124)" stroke="rgb(12,64,124)" stroke-width="1" opacity="0.06274509803921569" d="M 76.5 178 L 84 179.5 L 76 180 L 76.5 178 Z " /><path fill="rgb(12,64,124)" stroke="rgb(12,64,124)" stroke-width="1" opacity="0.06274509803921569" d="M 142.5 178 L 148 179.5 L 142 180 L 142.5 178 Z " /><path fill="rgb(12,64,124)" stroke="rgb(12,64,124)" stroke-width="1" opacity="0.06274509803921569" d="M 174.5 178 L 178.5 179 L 180 178.5 L 179.5 180 L 174 180 L 174.5 178 Z " /></svg>