<svg width="278" height="413" version="1.1" xmlns="http://www.w3.org/2000/svg" desc="Created with imagetracer.js version 1.2.6" ><path fill="rgb(117,117,102)" stroke="rgb(117,117,102)" stroke-width="1" opacity="0.996078431372549" d="M 35.5 83 L 212 83.5 L 35.5 84 L 35.5 83 Z " /><path fill="rgb(117,117,102)" stroke="rgb(117,117,102)" stroke-width="1" opacity="0.996078431372549" d="M 23.5 87 L 22.5 89 L 23.5 87 Z " /><path fill="rgb(117,117,102)" stroke="rgb(117,117,102)" stroke-width="1" opacity="0.996078431372549" d="M 225.5 89 L 228.5 93 L 225.5 89 Z " /><path fill="rgb(117,117,102)" stroke="rgb(117,117,102)" stroke-width="1" opacity="0.996078431372549" d="M 17.5 93 L 16.5 95 L 17.5 93 Z " /><path fill="rgb(117,117,102)" stroke="rgb(117,117,102)" stroke-width="1" opacity="0.996078431372549" d="M 12.5 104 L 13 106.5 L 12 106.5 L 12.5 104 Z " /><path fill="rgb(117,117,102)" stroke="rgb(117,117,102)" stroke-width="1" opacity="0.996078431372549" d="M 140.5 112 L 143 112.5 L 140.5 113 L 140.5 112 Z " /><path fill="rgb(117,117,102)" stroke="rgb(117,117,102)" stroke-width="1" opacity="0.996078431372549" d="M 133.5 113 L 137 113.5 L 133.5 114 L 133.5 113 Z " /><path fill="rgb(117,117,102)" stroke="rgb(117,117,102)" stroke-width="1" opacity="0.996078431372549" d="M 146.5 113 Q 155.7 114.3 160 120.5 L 158.5 120 L 151.5 115 L 146.5 114 L 146.5 113 Z " /><path fill="rgb(117,117,102)" stroke="rgb(117,117,102)" stroke-width="1" opacity="0.996078431372549" d="M 127.5 115 L 129 115.5 L 124 118.5 L 129 121 L 128.5 123 L 121 118.5 L 123 118.5 Q 122.3 116.3 124.5 117 L 127.5 115 Z " /><path fill="rgb(117,117,102)" stroke="rgb(117,117,102)" stroke-width="1" opacity="0.996078431372549" d="M 184.5 116 L 187.5 120 L 185 119 L 184.5 116 Z " /><path fill="rgb(117,117,102)" stroke="rgb(117,117,102)" stroke-width="1" opacity="0.996078431372549" d="M 160.5 122 L 161.5 124 Q 158.7 124.7 160.5 122 Z " /><path fill="rgb(117,117,102)" stroke="rgb(117,117,102)" stroke-width="1" opacity="0.996078431372549" d="M 130.5 123 L 133 124.5 L 131.5 125 L 130.5 123 Z " /><path fill="rgb(117,117,102)" stroke="rgb(117,117,102)" stroke-width="1" opacity="0.996078431372549" d="M 181.5 123 L 182 124.5 L 179.5 126 L 181.5 123 Z " /><path fill="rgb(117,117,102)" stroke="rgb(117,117,102)" stroke-width="1" opacity="0.996078431372549" d="M 188.5 124 Q 190.8 123.3 190 125.5 L 188.5 124 Z " /><path fill="rgb(117,117,102)" stroke="rgb(117,117,102)" stroke-width="1" opacity="0.996078431372549" d="M 178.5 127 L 177.5 129 Q 175.3 128.3 176 130.5 L 167.5 137 L 165.5 134 L 168.5 135 L 178.5 127 Z " /><path fill="rgb(117,117,102)" stroke="rgb(117,117,102)" stroke-width="1" opacity="0.996078431372549" d="M 189.5 129 L 191 130.5 L 191 144.5 L 189 145.5 L 190 144.5 L 190 130.5 L 189.5 129 Z " /><path fill="rgb(117,117,102)" stroke="rgb(117,117,102)" stroke-width="1" opacity="0.996078431372549" d="M 137.5 132 L 138 136.5 L 137 136.5 L 137.5 132 Z " /><path fill="rgb(117,117,102)" stroke="rgb(117,117,102)" stroke-width="1" opacity="0.996078431372549" d="M 215.5 134 L 217 136.5 L 216 136.5 L 215.5 135 L 215 137 Q 212.3 135.9 213 138.5 Q 205.3 147.3 190.5 149 L 190.5 148 Q 207.4 145.4 215.5 134 Z " /><path fill="rgb(117,117,102)" stroke="rgb(117,117,102)" stroke-width="1" opacity="0.996078431372549" d="M 216.5 140 L 218 143.5 L 217 143.5 L 216.5 140 Z " /><path fill="rgb(117,117,102)" stroke="rgb(117,117,102)" stroke-width="1" opacity="0.996078431372549" d="M 133.5 143 L 128.5 149 L 108.5 158 L 103.5 162 L 106.5 158 L 123.5 151 L 133.5 143 Z " /><path fill="rgb(117,117,102)" stroke="rgb(117,117,102)" stroke-width="1" opacity="0.996078431372549" d="M 217.5 152 L 218 155 L 216 154.5 L 217.5 152 Z " /><path fill="rgb(117,117,102)" stroke="rgb(117,117,102)" stroke-width="1" opacity="0.996078431372549" d="M 101.5 163 L 101 164.5 Q 101.8 166.8 99.5 166 L 101.5 163 Z " /><path fill="rgb(117,117,102)" stroke="rgb(117,117,102)" stroke-width="1" opacity="0.996078431372549" d="M 212.5 167 L 210.5 170 Q 208.3 169.3 209 171.5 Q 205 177 197 178.5 L 208 179.5 L 197.5 180 Q 194.5 178.5 197.5 177 L 206 174 L 210.5 168 L 212.5 167 Z " /><path fill="rgb(117,117,102)" stroke="rgb(117,117,102)" stroke-width="1" opacity="0.996078431372549" d="M 97.5 171 L 96.5 173 L 97.5 171 Z " /><path fill="rgb(117,117,102)" stroke="rgb(117,117,102)" stroke-width="1" opacity="0.996078431372549" d="M 96.5 175 L 96 176.5 Q 94.3 182.8 97 184.5 L 95 183.5 Q 93.2 176.8 96.5 175 Z " /><path fill="rgb(117,117,102)" stroke="rgb(117,117,102)" stroke-width="1" opacity="0.996078431372549" d="M 214.5 176 Q 216.8 175.3 216 177.5 L 213.5 178 L 209.5 179 L 209.5 178 L 214.5 176 Z " /><path fill="rgb(117,117,102)" stroke="rgb(117,117,102)" stroke-width="1" opacity="0.996078431372549" d="M 211.5 186 L 210.5 188 L 209 187.5 L 211.5 186 Z " /><path fill="rgb(117,117,102)" stroke="rgb(117,117,102)" stroke-width="1" opacity="0.996078431372549" d="M 207.5 191 L 205.5 194 L 205 192 L 207.5 191 Z " /><path fill="rgb(117,117,102)" stroke="rgb(117,117,102)" stroke-width="1" opacity="0.996078431372549" d="M 149.5 194 L 154 194.5 L 147.5 197 L 147 195 L 149.5 194 Z " /><path fill="rgb(117,117,102)" stroke="rgb(117,117,102)" stroke-width="1" opacity="0.996078431372549" d="M 155.5 195 L 166 199.5 L 165.5 201 L 167.5 200 L 173 203.5 L 171.5 203 L 167.5 201 L 167 203 L 169 203.5 L 168.5 205 L 170 205.5 L 169.5 207 L 171 207.5 L 170.5 209 L 172 209.5 L 171.5 211 L 173 211.5 L 172.5 213 L 174 213.5 L 173.5 215 L 175 215.5 L 174.5 217 L 176 217.5 L 175.5 219 L 177 219.5 L 176.5 221 L 178 221.5 L 177.5 224 L 135.5 224 L 134.5 223 L 134 258 L 110.5 258 L 109.5 259 L 107.5 259 L 104 261.5 Q 103 267 106.5 268 L 141.5 268 L 144 265.5 Q 145 259 140.5 258 L 135 258 L 135 247 L 151 248.5 L 150.5 250 L 152 250.5 L 150.5 251 L 148.5 249 L 136 249 L 136 257 L 140.5 257 L 144 259.5 L 145 265.5 L 143 269.5 Q 146.3 270.8 145 276.5 L 143 279.5 L 145 283.5 L 143 282.5 L 143.5 281 L 141.5 280 L 107.5 280 L 105 281 L 104 286.5 L 106.5 290 L 140.5 290 L 143 289 Q 142 286 145 287 L 143.5 290 L 142 290.5 L 145 292.5 L 144.5 295 L 141.5 291 L 106.5 291 L 105 292.5 L 104 297.5 L 105 300 L 107.5 301 L 140.5 301 L 143 300 L 145 296 L 154.5 296 L 154.5 298 Q 157.1 297.3 156 300 Q 152.9 300.8 153.5 298 L 145.5 298 L 138.5 303 L 137.5 302 L 106.5 302 L 104 299.5 L 103 293.5 L 105 289.5 Q 102 288.5 103 283.5 L 105 279.5 Q 102.2 277.8 103 272.5 L 105 268.5 Q 102.2 266.8 103 261.5 L 105.5 258 L 108 256.5 L 107.5 255 Q 110.1 254.3 109 257 L 113 257 L 113 247.5 L 110.5 247 L 107.5 249 L 109.5 246 L 113 245.5 L 113 224 L 64 223.5 L 65.5 220 L 67 219.5 Q 64.8 218.3 67.5 217 L 69 216.5 Q 66.8 215.3 69.5 214 L 71 213.5 Q 68.8 212.3 71.5 211 L 73 210.5 Q 70.8 209.3 73.5 208 L 75 207.5 Q 72.8 206.3 75.5 205 L 77 204.5 Q 74.8 203.3 77.5 202 L 79 201.5 L 78.5 200 L 99.5 200 L 101.5 201 L 102.5 200 L 144.5 200 L 146.5 201 L 146.5 199 L 147.5 200 L 163.5 200 L 163.5 199 L 155.5 196 L 155.5 195 Z M 108 269 L 105 270 L 104 274 L 107 279 L 142 279 L 144 277 L 143 270 L 141 269 L 108 269 Z " /><path fill="rgb(117,117,102)" stroke="rgb(117,117,102)" stroke-width="1" opacity="0.996078431372549" d="M 202.5 195 L 200.5 198 Q 195.3 202.3 186.5 203 L 186.5 202 Q 197.2 201.2 202.5 195 Z " /><path fill="rgb(117,117,102)" stroke="rgb(117,117,102)" stroke-width="1" opacity="0.996078431372549" d="M 174.5 203 L 183 203.5 L 174.5 204 L 174.5 203 Z " /><path fill="rgb(117,117,102)" stroke="rgb(117,117,102)" stroke-width="1" opacity="0.996078431372549" d="M 107.5 250 L 108 253.5 L 106 252.5 L 107.5 250 Z " /><path fill="rgb(117,117,102)" stroke="rgb(117,117,102)" stroke-width="1" opacity="0.996078431372549" d="M 154.5 257 L 157 258.5 L 155.5 259 L 154.5 257 Z " /><path fill="rgb(117,117,102)" stroke="rgb(117,117,102)" stroke-width="1" opacity="0.996078431372549" d="M 156.5 260 L 159 261.5 L 158.5 263 L 160 263.5 L 158.5 264 L 157.5 261 L 156.5 260 Z " /><path fill="rgb(117,117,102)" stroke="rgb(117,117,102)" stroke-width="1" opacity="0.996078431372549" d="M 159.5 265 L 162 266.5 L 160.5 267 L 159.5 265 Z " /><path fill="rgb(117,117,102)" stroke="rgb(117,117,102)" stroke-width="1" opacity="0.996078431372549" d="M 161.5 268 L 164 269.5 L 162.5 270 L 161.5 268 Z " /><path fill="rgb(117,117,102)" stroke="rgb(117,117,102)" stroke-width="1" opacity="0.996078431372549" d="M 163.5 271 L 166 272.5 L 164.5 273 L 163.5 271 Z " /><path fill="rgb(117,117,102)" stroke="rgb(117,117,102)" stroke-width="1" opacity="0.996078431372549" d="M 165.5 274 L 168 275.5 L 166.5 276 L 165.5 274 Z " /><path fill="rgb(117,117,102)" stroke="rgb(117,117,102)" stroke-width="1" opacity="0.996078431372549" d="M 167.5 277 L 171 279.5 L 170.5 281 L 173 282.5 L 171.5 282 L 169 280.5 L 169.5 279 L 167.5 277 Z " /><path fill="rgb(117,117,102)" stroke="rgb(117,117,102)" stroke-width="1" opacity="0.996078431372549" d="M 172.5 284 L 176 286.5 L 175.5 288 L 178 289.5 L 176.5 290 Q 172.8 288 174.5 286 L 172.5 284 Z " /><path fill="rgb(117,117,102)" stroke="rgb(117,117,102)" stroke-width="1" opacity="0.996078431372549" d="M 177.5 291 L 181 293.5 L 179.5 294 L 177.5 291 Z " /><path fill="rgb(117,117,102)" stroke="rgb(117,117,102)" stroke-width="1" opacity="0.996078431372549" d="M 180.5 295 L 185 298.5 L 183.5 298 L 180.5 295 Z " /><path fill="rgb(117,117,102)" stroke="rgb(117,117,102)" stroke-width="1" opacity="0.996078431372549" d="M 184.5 300 L 189 303.5 L 187.5 303 L 184.5 300 Z " /><path fill="rgb(117,117,102)" stroke="rgb(117,117,102)" stroke-width="1" opacity="0.996078431372549" d="M 156.5 302 L 157 304 L 155 303.5 L 156.5 302 Z " /><path fill="rgb(117,117,102)" stroke="rgb(117,117,102)" stroke-width="1" opacity="0.996078431372549" d="M 107.5 303 L 106.5 305 L 105 305.5 Q 107.8 307.3 103.5 309 L 102 308.5 L 105 306.5 Q 102.8 305.3 105.5 304 L 107.5 303 Z " /><path fill="rgb(117,117,102)" stroke="rgb(117,117,102)" stroke-width="1" opacity="0.996078431372549" d="M 138.5 305 L 137.5 307 L 121 306.5 L 137.5 306 L 138.5 305 Z " /><path fill="rgb(117,117,102)" stroke="rgb(117,117,102)" stroke-width="1" opacity="0.996078431372549" d="M 157.5 305 L 158 307 L 156 306.5 L 157.5 305 Z " /><path fill="rgb(117,117,102)" stroke="rgb(117,117,102)" stroke-width="1" opacity="0.996078431372549" d="M 188.5 305 L 195 310.5 L 193.5 310 L 188.5 305 Z " /><path fill="rgb(117,117,102)" stroke="rgb(117,117,102)" stroke-width="1" opacity="0.996078431372549" d="M 140.5 306 L 144 308.5 L 142.5 309 L 140 308 L 140.5 306 Z " /><path fill="rgb(117,117,102)" stroke="rgb(117,117,102)" stroke-width="1" opacity="0.996078431372549" d="M 102.5 310 L 100.5 313 L 98.5 314 L 100.5 311 L 102.5 310 Z " /><path fill="rgb(117,117,102)" stroke="rgb(117,117,102)" stroke-width="1" opacity="0.996078431372549" d="M 143.5 310 Q 145.8 309.3 145 311.5 L 143.5 310 Z " /><path fill="rgb(117,117,102)" stroke="rgb(117,117,102)" stroke-width="1" opacity="0.996078431372549" d="M 194.5 312 L 215 331.5 L 216 333.5 L 208 326.5 L 203.5 321 L 194.5 312 Z " /><path fill="rgb(117,117,102)" stroke="rgb(117,117,102)" stroke-width="1" opacity="0.996078431372549" d="M 98.5 315 L 96.5 318 L 94 319.5 L 95 320.5 L 88.5 327 L 82.5 332 L 77.5 332 L 77.5 331 L 82.5 331 L 94 320.5 L 93 319.5 L 96.5 316 L 98.5 315 Z " /><path fill="rgb(117,117,102)" stroke="rgb(117,117,102)" stroke-width="1" opacity="0.996078431372549" d="M 143 318 Q 146 316.8 145 320.5 L 142.5 322 L 142.5 321 L 144 320.5 L 143 318 Z " /><path fill="rgb(117,117,102)" stroke="rgb(117,117,102)" stroke-width="1" opacity="0.996078431372549" d="M 143 325 Q 146 323.8 145 327.5 L 143 326.5 L 143 325 Z " /><path fill="rgb(117,117,102)" stroke="rgb(117,117,102)" stroke-width="1" opacity="0.996078431372549" d="M 166.5 327 L 169 328.5 L 167 329.5 L 167.5 328 L 166.5 327 Z " /><path fill="rgb(117,117,102)" stroke="rgb(117,117,102)" stroke-width="1" opacity="0.996078431372549" d="M 143.5 331 L 142.5 333 L 143.5 331 Z " /><path fill="rgb(117,117,102)" stroke="rgb(117,117,102)" stroke-width="1" opacity="0.996078431372549" d="M 75.5 332 L 72.5 336 L 75.5 332 Z " /><path fill="rgb(117,117,102)" stroke="rgb(117,117,102)" stroke-width="1" opacity="0.996078431372549" d="M 217.5 333 L 221 337.5 L 218 335.5 L 217.5 333 Z " /><path fill="rgb(117,117,102)" stroke="rgb(117,117,102)" stroke-width="1" opacity="0.996078431372549" d="M 170.5 334 L 173 335.5 L 172.5 337 L 174 337.5 L 172.5 338 L 171.5 335 L 170.5 334 Z " /><path fill="rgb(117,117,102)" stroke="rgb(117,117,102)" stroke-width="1" opacity="0.996078431372549" d="M 142.5 337 L 144 337.5 L 141.5 340 L 134 340 L 134.5 361 L 136.5 361 Q 142.1 361.5 144 365.5 L 144 371.5 L 140.5 375 L 131.5 378 L 119.5 378 L 109 373.5 Q 109.8 371.3 107.5 372 L 107.5 370 Q 104.5 370.7 106 367 L 108 366.5 L 107 365.5 L 110.5 362 L 113 360.5 L 113 340 L 100.5 340 L 100.5 339 L 134.5 338 L 139.5 339 L 142.5 337 Z M 115 360 L 113 362 L 115 362 L 115 360 Z " /><path fill="rgb(117,117,102)" stroke="rgb(117,117,102)" stroke-width="1" opacity="0.996078431372549" d="M 222.5 337 L 225 340.5 L 222 338.5 L 222.5 337 Z " /><path fill="rgb(117,117,102)" stroke="rgb(117,117,102)" stroke-width="1" opacity="0.996078431372549" d="M 173.5 339 L 176 340.5 L 175.5 342 L 177 342.5 L 175.5 343 L 174.5 340 L 173.5 339 Z " /><path fill="rgb(117,117,102)" stroke="rgb(117,117,102)" stroke-width="1" opacity="0.996078431372549" d="M 226.5 340 L 233 344.5 L 232.5 346 L 226 341.5 L 226.5 340 Z " /><path fill="rgb(117,117,102)" stroke="rgb(117,117,102)" stroke-width="1" opacity="0.996078431372549" d="M 68.5 344 L 68 345.5 L 64.5 350 L 63 349.5 L 60.5 353 L 56.5 356 L 56 354.5 L 63.5 348 L 65 348.5 L 68.5 344 Z " /><path fill="rgb(117,117,102)" stroke="rgb(117,117,102)" stroke-width="1" opacity="0.996078431372549" d="M 70.5 344 Q 73.5 343.1 72 347.5 L 71 347.5 L 70.5 344 Z " /><path fill="rgb(117,117,102)" stroke="rgb(117,117,102)" stroke-width="1" opacity="0.996078431372549" d="M 176.5 344 L 179 345.5 L 177.5 345 L 176.5 344 Z " /><path fill="rgb(117,117,102)" stroke="rgb(117,117,102)" stroke-width="1" opacity="0.996078431372549" d="M 179.5 349 L 182 350.5 L 180.5 350 L 179.5 349 Z " /><path fill="rgb(117,117,102)" stroke="rgb(117,117,102)" stroke-width="1" opacity="0.996078431372549" d="M 82.5 351 Q 84.1 355.9 91.5 355 L 94.5 353 L 94.5 354 Q 92.8 356.8 87.5 356 L 82.5 351 Z " /><path fill="rgb(117,117,102)" stroke="rgb(117,117,102)" stroke-width="1" opacity="0.996078431372549" d="M 181.5 352 L 184 353.5 L 182.5 353 L 181.5 352 Z " /><path fill="rgb(117,117,102)" stroke="rgb(117,117,102)" stroke-width="1" opacity="0.996078431372549" d="M 54.5 355 L 55 356.5 L 53 357.5 L 54.5 355 Z " /><path fill="rgb(117,117,102)" stroke="rgb(117,117,102)" stroke-width="1" opacity="0.996078431372549" d="M 183.5 355 L 186 356.5 L 185.5 358 L 188 359.5 L 187.5 361 L 190 362.5 L 189.5 364 L 192 365.5 L 191.5 367 L 194 368.5 L 193.5 370 L 196 371.5 L 195.5 373 L 198 374.5 L 197.5 376 L 200 377.5 L 199.5 379 L 202 380.5 L 200.5 380 L 198 378.5 L 198.5 377 L 196 375.5 L 196.5 374 L 194 372.5 L 194.5 371 L 192 369.5 L 192.5 368 L 190 366.5 L 190.5 365 L 188 363.5 L 188.5 362 L 186 360.5 L 186.5 359 L 184 357.5 L 184.5 356 L 183.5 355 Z " /><path fill="rgb(117,117,102)" stroke="rgb(117,117,102)" stroke-width="1" opacity="0.996078431372549" d="M 51.5 357 L 52 358.5 L 50 359.5 L 51.5 357 Z " /><path fill="rgb(117,117,102)" stroke="rgb(117,117,102)" stroke-width="1" opacity="0.996078431372549" d="M 75.5 358 L 76.5 360 L 75.5 358 Z " /><path fill="rgb(117,117,102)" stroke="rgb(117,117,102)" stroke-width="1" opacity="0.996078431372549" d="M 48.5 359 L 49 360.5 L 47 361.5 L 48.5 359 Z " /><path fill="rgb(117,117,102)" stroke="rgb(117,117,102)" stroke-width="1" opacity="0.996078431372549" d="M 45.5 361 L 46 362.5 L 30.5 372 L 30 370 L 45.5 361 Z " /><path fill="rgb(117,117,102)" stroke="rgb(117,117,102)" stroke-width="1" opacity="0.996078431372549" d="M 81.5 364 L 82.5 366 L 81.5 364 Z " /><path fill="rgb(117,117,102)" stroke="rgb(117,117,102)" stroke-width="1" opacity="0.996078431372549" d="M 84.5 368 L 85.5 370 L 84.5 368 Z " /><path fill="rgb(117,117,102)" stroke="rgb(117,117,102)" stroke-width="1" opacity="0.996078431372549" d="M 28.5 371 L 29 373 L 20.5 377 L 20 375 L 28.5 371 Z " /><path fill="rgb(117,117,102)" stroke="rgb(117,117,102)" stroke-width="1" opacity="0.996078431372549" d="M 82.5 372 L 84 372.5 L 81.5 374 L 82.5 372 Z " /><path fill="rgb(117,117,102)" stroke="rgb(117,117,102)" stroke-width="1" opacity="0.996078431372549" d="M 80.5 375 L 82 375.5 L 80 376.5 Q 82.3 377.8 79.5 379 L 78 379.5 Q 80.3 380.8 77.5 382 L 75.5 383 L 76.5 381 L 78 380.5 Q 75.8 379.3 78.5 378 L 80 377.5 Q 77.8 376.2 80.5 375 Z " /><path fill="rgb(117,117,102)" stroke="rgb(117,117,102)" stroke-width="1" opacity="0.996078431372549" d="M 12.5 376 L 13 378 L 18.5 376 L 19 378 L 13 380 L 12.5 376 Z " /><path fill="rgb(117,117,102)" stroke="rgb(117,117,102)" stroke-width="1" opacity="0.996078431372549" d="M 201.5 382 L 204 383.5 L 202.5 383 L 201.5 382 Z " /><path fill="rgb(117,117,102)" stroke="rgb(117,117,102)" stroke-width="1" opacity="0.996078431372549" d="M 74.5 384 L 76 384.5 L 72.5 387 L 74.5 384 Z " /><path fill="rgb(117,117,102)" stroke="rgb(117,117,102)" stroke-width="1" opacity="0.996078431372549" d="M 203.5 385 L 207 387.5 L 206.5 389 L 209 390.5 L 207.5 390 L 205 388.5 L 205.5 387 L 203.5 385 Z " /><path fill="rgb(117,117,102)" stroke="rgb(117,117,102)" stroke-width="1" opacity="0.996078431372549" d="M 71.5 388 L 73 388.5 L 69 391.5 L 70 392.5 L 65.5 397 L 64 397.5 L 212 398.5 L 64.5 399 L 63.5 398 L 61 399.5 L 69 392.5 L 68 391.5 L 71.5 388 Z " /><path fill="rgb(117,117,102)" stroke="rgb(117,117,102)" stroke-width="1" opacity="0.996078431372549" d="M 208.5 392 L 212 394.5 L 211.5 396 L 214 397.5 L 212.5 397 L 210 395.5 Q 212.3 394.3 209.5 393 L 208.5 392 Z " /><path fill="rgb(241,231,9)" stroke="rgb(241,231,9)" stroke-width="1" opacity="1" d="M 32.5 84 L 213.5 84 Q 223.6 86.4 229 93.5 L 234 104.5 L 234 344.5 L 231.5 343 Q 210.9 330.6 196 312.5 Q 169.7 283.4 151 248 Q 141.1 249 135 247 L 135 225.5 L 136.5 224 L 177.5 224 L 178 221.5 L 169 203 Q 174.9 205.4 186.5 204 Q 201.9 200.4 210 189.5 L 216 176 L 207.5 179 L 198.5 179 L 198.5 178 Q 208.3 175.3 213 167.5 L 218 154.5 L 218 140.5 L 215.5 134 Q 207 145.7 190 148 L 191 144.5 L 191 129.5 L 189 121.5 L 184.5 116 L 182 122.5 L 172.5 132 L 167.5 135 L 163 124.5 L 156.5 117 L 149.5 113 L 138.5 112 L 129.5 114 L 121 118.5 Q 130.2 122.3 136 129.5 L 137 137.5 L 130.5 146 Q 122.2 153.2 109.5 156 L 101 162.5 Q 94 169.5 95 184.5 L 97 193.5 L 100 199.5 L 78 200 L 63 223.5 L 113 224 L 113 245.5 L 108 246 L 108 247.5 L 106 252.5 L 108 256.5 L 103 260.5 Q 101.8 267.2 105 269.5 Q 101.8 270.8 103 276.5 L 105 279.5 Q 102 281.5 103 287.5 L 105 290.5 Q 102 292.5 103 298.5 L 104 301 Q 107 299.8 106 303.5 Q 95.8 318.8 82.5 331 Q 73.5 329.5 72 335.5 L 71 343 L 38.5 366 L 17.5 377 L 13 378 L 12 374.5 L 12 107.5 L 14 99.5 L 20.5 90 L 32.5 84 Z " /><path fill="rgb(241,231,9)" stroke="rgb(241,231,9)" stroke-width="1" opacity="1" d="M 150.5 195 L 153.5 195 L 164 199.5 L 147 200 L 148.5 196 L 150.5 195 Z " /><path fill="rgb(241,231,9)" stroke="rgb(241,231,9)" stroke-width="1" opacity="1" d="M 145.5 298 L 153.5 298 L 154 300.5 L 157 309.5 L 171 336.5 Q 189.6 368.9 212 397.5 L 65.5 398 L 71 391.5 L 86 368 Q 91.4 369.5 93 366.5 Q 95.7 362.7 94 354.5 L 102.5 340 L 113 340 L 113 360.5 L 107 365.5 L 106 369.5 L 110.5 375 Q 118.1 379.9 132.5 378 Q 140.3 376.8 144 371.5 L 145 367.5 L 140.5 362 L 135 360 L 135 341.5 L 136.5 340 Q 142.8 341.3 144 337.5 L 145 334.5 L 143 330.5 L 145 325.5 L 143 322.5 L 145 318.5 L 143 314.5 L 145 310.5 L 142.5 307 L 140 305.5 Q 138.5 301.1 141.5 302 L 144 301 L 145.5 298 Z " /><path fill="rgb(8,7,6)" stroke="rgb(8,7,6)" stroke-width="1" opacity="0.9137254901960784" d="M 147.5 15 Q 155.5 14 158 18.5 L 155.5 22 Q 154 18.5 147.5 20 Q 145 21.2 146 25 L 154.5 28 L 159 32.5 Q 160.3 39.8 156.5 42 Q 153.8 44.8 147.5 44 L 140 41 L 141 37 L 146.5 39 L 152.5 39 Q 154.8 38.3 154 34.5 L 142 27.5 L 141 20.5 L 143.5 17 L 147.5 15 Z " /><path fill="rgb(8,7,6)" stroke="rgb(8,7,6)" stroke-width="1" opacity="0.9137254901960784" d="M 15 16 L 20 16 L 20 25.5 L 21.5 27 L 31 27 L 31 16 L 36 16 L 36 42.5 L 31 43 L 31 31 L 21.5 31 L 20 32.5 L 20 43 L 15 42.5 L 15 16 Z " /><path fill="rgb(8,7,6)" stroke="rgb(8,7,6)" stroke-width="1" opacity="0.9137254901960784" d="M 44 16 L 49 16.5 L 49 43 L 44 42.5 L 44 16 Z " /><path fill="rgb(8,7,6)" stroke="rgb(8,7,6)" stroke-width="1" opacity="0.9137254901960784" d="M 57 16 Q 62.4 14.5 64 17.5 L 73.5 36 L 74 31.5 L 73 30.5 L 73 16 L 78 16.5 L 78 43 Q 72.5 44.3 71 40.5 L 62.5 24 L 62 43 L 57 42.5 L 57 16 Z " /><path fill="rgb(8,7,6)" stroke="rgb(8,7,6)" stroke-width="1" opacity="0.9137254901960784" d="M 85 16 L 97.5 16 L 104 20.5 Q 107.7 24.8 106 34.5 L 100.5 42 L 97.5 43 L 85 43 L 85 16 Z M 92 20 L 90 22 L 90 39 L 98 38 L 101 34 Q 102 27 100 24 Q 99 19 92 20 Z " /><path fill="rgb(8,7,6)" stroke="rgb(8,7,6)" stroke-width="1" opacity="0.9137254901960784" d="M 112 16 L 117 16.5 L 117 33.5 L 120.5 39 Q 126.8 40.3 128 36.5 L 128 16.5 L 133 16 L 133 36.5 L 129.5 42 Q 126.8 44.8 120.5 44 L 114 39.5 L 112 33.5 L 112 16 Z " /><path fill="rgb(8,7,6)" stroke="rgb(8,7,6)" stroke-width="1" opacity="0.9137254901960784" d="M 162 16 L 182.5 16 L 183 20 L 175 20 L 175 42.5 L 170 43 L 170 20.5 L 169.5 20 L 162 20 L 162 16 Z " /><path fill="rgb(8,7,6)" stroke="rgb(8,7,6)" stroke-width="1" opacity="0.9137254901960784" d="M 188 16 L 193 16 L 193 25.5 L 194.5 27 L 204 27 L 204 16 L 209 16 L 209 42.5 L 204 43 L 204 31 L 194.5 31 L 193 32.5 L 193 43 L 188 42.5 L 188 16 Z " /><path fill="rgb(8,7,6)" stroke="rgb(8,7,6)" stroke-width="1" opacity="0.9137254901960784" d="M 223.5 16 Q 229.6 14.8 229 17.5 L 237 43 L 232 43 L 232 41.5 L 229.5 36 L 221.5 36 L 221 37.5 L 218.5 43 Q 213.1 44.9 214 41.5 L 223.5 16 Z M 226 21 L 223 29 L 223 32 L 229 32 L 226 21 Z " /><path fill="rgb(8,7,6)" stroke="rgb(8,7,6)" stroke-width="1" opacity="0.9137254901960784" d="M 241 16 Q 246.4 14.5 248 17.5 L 257.5 36 L 258 31.5 L 257 30.5 L 257 16 L 262 16.5 L 262 43 Q 256.5 44.3 255 40.5 L 246.5 24 L 246 43 L 241 42.5 L 241 16 Z " /><path fill="rgb(8,7,6)" stroke="rgb(8,7,6)" stroke-width="1" opacity="0.9137254901960784" d="M 76.5 54 L 82 56.5 Q 83.1 59.8 80.5 59 L 75.5 58 Q 70.9 59.9 72 67.5 L 74.5 71 L 81.5 70 L 83 72.5 Q 81 75.5 75.5 75 L 70 71.5 Q 67.4 68.6 68 62.5 L 73.5 55 L 76.5 54 Z " /><path fill="rgb(8,7,6)" stroke="rgb(8,7,6)" stroke-width="1" opacity="0.9137254901960784" d="M 135.5 54 Q 141.9 54.7 144 59.5 L 145 65.5 L 142 73 L 134.5 75 L 129 71.5 Q 126.4 68.6 127 62.5 L 130.5 56 L 135.5 54 Z M 134 58 L 131 63 L 132 70 Q 133 72 139 71 L 141 67 Q 142 61 139 60 Q 140 57 134 58 Z " /><path fill="rgb(8,7,6)" stroke="rgb(8,7,6)" stroke-width="1" opacity="0.9137254901960784" d="M 13 55 L 24.5 55 L 25 58 L 17 58 L 17 63 L 24 63 L 24 66 L 17 66 L 17 71 L 24.5 71 L 26 72.5 L 25.5 74 L 13 74 L 13 55 Z " /><path fill="rgb(8,7,6)" stroke="rgb(8,7,6)" stroke-width="1" opacity="0.9137254901960784" d="M 30 55 L 39.5 55 L 44 58.5 Q 46.3 61.7 45 68.5 L 41.5 73 L 39.5 74 L 30 74 L 30 55 Z M 34 58 L 34 71 Q 40 72 41 69 L 40 60 Q 39 57 34 58 Z " /><path fill="rgb(8,7,6)" stroke="rgb(8,7,6)" stroke-width="1" opacity="0.9137254901960784" d="M 49 55 L 53 55.5 L 53 68.5 L 54 71 Q 58.6 72.3 60 69.5 L 60 56.5 L 61.5 55 L 64 55.5 L 64 69.5 L 60.5 74 L 55.5 75 L 50 71.5 L 49 68.5 L 49 55 Z " /><path fill="rgb(8,7,6)" stroke="rgb(8,7,6)" stroke-width="1" opacity="0.9137254901960784" d="M 91 55 L 96 55 L 96 57.5 L 101 74 L 97 72.5 L 95.5 69 Q 89.4 67.8 90 70.5 L 89 74 L 85 74 L 85 72.5 L 91 55 Z M 94 59 L 91 65 L 91 66 L 95 66 L 94 59 Z " /><path fill="rgb(8,7,6)" stroke="rgb(8,7,6)" stroke-width="1" opacity="0.9137254901960784" d="M 101 55 L 114.5 55 L 116 56.5 Q 114.6 59.3 110 58 L 110 73.5 L 106 74 L 106 58.5 L 101 58 L 101 55 Z " /><path fill="rgb(8,7,6)" stroke="rgb(8,7,6)" stroke-width="1" opacity="0.9137254901960784" d="M 119 55 L 123 55.5 L 123 74 L 119 73.5 L 119 55 Z " /><path fill="rgb(8,7,6)" stroke="rgb(8,7,6)" stroke-width="1" opacity="0.9137254901960784" d="M 149 55 Q 153.7 54 155 57.5 L 160.5 68 L 161 65.5 L 160 64.5 L 160 56.5 L 164 55 L 164 73.5 L 160.5 74 L 153.5 62 L 153 74 L 149 73.5 L 149 55 Z " /><path fill="rgb(8,7,6)" stroke="rgb(8,7,6)" stroke-width="1" opacity="0.9137254901960784" d="M 173 55 L 178 55 L 178 57.5 L 183 74 L 179 72.5 L 177.5 69 Q 171.4 67.8 172 70.5 L 171 74 L 167 74 L 167 72.5 L 173 55 Z M 176 59 L 173 65 L 173 66 L 177 66 L 176 59 Z " /><path fill="rgb(8,7,6)" stroke="rgb(8,7,6)" stroke-width="1" opacity="0.9137254901960784" d="M 186 55 L 190 55.5 L 190 71 L 198 71 L 198 74 L 186 74 L 186 55 Z " /><path fill="rgb(8,7,6)" stroke="rgb(8,7,6)" stroke-width="1" opacity="0.9137254901960784" d="M 212 55 L 217 55 L 217 57.5 L 222 74 L 218 72.5 L 216.5 69 Q 210.4 67.8 211 70.5 L 210 74 L 206 74 L 206 72.5 L 212 55 Z M 215 59 L 212 65 L 212 66 L 216 66 L 215 59 Z " /><path fill="rgb(8,7,6)" stroke="rgb(8,7,6)" stroke-width="1" opacity="0.9137254901960784" d="M 225 55 Q 229.7 54 231 57.5 L 236.5 68 L 237 65.5 L 236 64.5 L 236 56.5 L 240 55 L 240 73.5 L 236.5 74 L 229.5 62 L 229 74 L 225 73.5 L 225 55 Z " /><path fill="rgb(8,7,6)" stroke="rgb(8,7,6)" stroke-width="1" opacity="0.9137254901960784" d="M 245 55 L 254.5 55 L 259 58.5 Q 261.3 61.7 260 68.5 L 256.5 73 L 254.5 74 L 245 74 L 245 55 Z M 249 58 L 249 71 Q 255 72 256 69 L 255 60 Q 254 57 249 58 Z " /><path fill="rgb(8,7,6)" stroke="rgb(8,7,6)" stroke-width="1" opacity="0.9137254901960784" d="M 223.5 87 L 224.5 89 L 223.5 87 Z " /><path fill="rgb(8,7,6)" stroke="rgb(8,7,6)" stroke-width="1" opacity="0.9137254901960784" d="M 21.5 88 L 16.5 94 L 21.5 88 Z " /><path fill="rgb(8,7,6)" stroke="rgb(8,7,6)" stroke-width="1" opacity="0.9137254901960784" d="M 253.5 92 L 259.5 94 L 262 96.5 L 263 104.5 Q 261 109 259 105.5 L 260 99.5 Q 258.4 95.1 251.5 96 L 247 99.5 L 248 105.5 Q 246 109 244 104.5 L 243 101.5 L 244 97.5 L 248.5 93 L 253.5 92 Z " /><path fill="rgb(8,7,6)" stroke="rgb(8,7,6)" stroke-width="1" opacity="0.9137254901960784" d="M 229.5 93 L 233 98.5 L 232 98.5 L 229.5 93 Z " /><path fill="rgb(8,7,6)" stroke="rgb(8,7,6)" stroke-width="1" opacity="0.9137254901960784" d="M 15.5 95 L 15 96.5 L 13.5 100 L 13 98.5 L 15.5 95 Z " /><path fill="rgb(8,7,6)" stroke="rgb(8,7,6)" stroke-width="1" opacity="0.9137254901960784" d="M 12.5 101 L 13 103.5 L 12 103.5 L 12.5 101 Z " /><path fill="rgb(8,7,6)" stroke="rgb(8,7,6)" stroke-width="1" opacity="0.9137254901960784" d="M 234.5 103 L 235 346 L 233 345.5 L 234 344.5 L 234.5 103 Z " /><path fill="rgb(8,7,6)" stroke="rgb(8,7,6)" stroke-width="1" opacity="0.9137254901960784" d="M 11.5 105 L 12 377.5 L 13 379.5 L 12 379.5 L 11 377.5 L 11.5 105 Z " /><path fill="rgb(8,7,6)" stroke="rgb(8,7,6)" stroke-width="1" opacity="0.9137254901960784" d="M 244 111 L 262.5 111 L 263 115 L 256.5 115 L 255 116.5 L 255 122 L 263 122 L 263 126 L 244.5 126 L 244 122 L 252 122 L 252 115 L 244 115 L 244 111 Z " /><path fill="rgb(8,7,6)" stroke="rgb(8,7,6)" stroke-width="1" opacity="0.9137254901960784" d="M 186.5 119 L 189 123.5 L 188 123.5 L 186.5 119 Z " /><path fill="rgb(8,7,6)" stroke="rgb(8,7,6)" stroke-width="1" opacity="0.9137254901960784" d="M 158.5 120 L 159.5 122 L 158.5 120 Z " /><path fill="rgb(8,7,6)" stroke="rgb(8,7,6)" stroke-width="1" opacity="0.9137254901960784" d="M 133.5 125 L 138 131.5 L 137 131.5 L 133.5 125 Z " /><path fill="rgb(8,7,6)" stroke="rgb(8,7,6)" stroke-width="1" opacity="0.9137254901960784" d="M 189.5 126 L 190 128.5 L 189 128.5 L 189.5 126 Z " /><path fill="rgb(8,7,6)" stroke="rgb(8,7,6)" stroke-width="1" opacity="0.9137254901960784" d="M 244.5 128 L 263 134 Q 264 137.8 261.5 139 L 244 144 L 245.5 140 L 249 138.5 Q 250.3 132.4 247.5 133 L 244 132 L 244.5 128 Z M 252 134 L 252 138 L 258 137 L 252 134 Z " /><path fill="rgb(8,7,6)" stroke="rgb(8,7,6)" stroke-width="1" opacity="0.9137254901960784" d="M 137.5 137 L 138 138.5 L 136 139.5 L 137.5 137 Z " /><path fill="rgb(8,7,6)" stroke="rgb(8,7,6)" stroke-width="1" opacity="0.9137254901960784" d="M 216.5 137 L 217 139.5 L 216 139.5 L 216.5 137 Z " /><path fill="rgb(8,7,6)" stroke="rgb(8,7,6)" stroke-width="1" opacity="0.9137254901960784" d="M 135.5 141 L 134.5 143 L 135.5 141 Z " /><path fill="rgb(8,7,6)" stroke="rgb(8,7,6)" stroke-width="1" opacity="0.9137254901960784" d="M 217.5 144 L 218 151.5 L 217 151.5 L 217.5 144 Z " /><path fill="rgb(8,7,6)" stroke="rgb(8,7,6)" stroke-width="1" opacity="0.9137254901960784" d="M 189.5 146 L 190 148.5 L 189 148.5 L 189.5 146 Z " /><path fill="rgb(8,7,6)" stroke="rgb(8,7,6)" stroke-width="1" opacity="0.9137254901960784" d="M 244 147 L 263 147 L 263 157.5 Q 262 162 255.5 161 L 250.5 158 L 244.5 162 L 244 157 L 251 153.5 L 251 151 L 244 151 L 244 147 Z M 254 151 Q 253 156 256 157 Q 259 158 260 156 L 260 151 L 254 151 Z " /><path fill="rgb(8,7,6)" stroke="rgb(8,7,6)" stroke-width="1" opacity="0.9137254901960784" d="M 216.5 155 L 217 157.5 L 216 157.5 L 216.5 155 Z " /><path fill="rgb(8,7,6)" stroke="rgb(8,7,6)" stroke-width="1" opacity="0.9137254901960784" d="M 244 165 L 262.5 165 L 263 169 L 244.5 169 L 244 165 Z " /><path fill="rgb(8,7,6)" stroke="rgb(8,7,6)" stroke-width="1" opacity="0.9137254901960784" d="M 212.5 166 L 211.5 168 L 212.5 166 Z " /><path fill="rgb(8,7,6)" stroke="rgb(8,7,6)" stroke-width="1" opacity="0.9137254901960784" d="M 260 173 L 263 173.5 L 263 187 L 260 187 L 259.5 182 L 244 182 L 244 178 L 259.5 178 L 260 173 Z " /><path fill="rgb(8,7,6)" stroke="rgb(8,7,6)" stroke-width="1" opacity="0.9137254901960784" d="M 214.5 177 L 215 179.5 L 214 179.5 L 214.5 177 Z " /><path fill="rgb(8,7,6)" stroke="rgb(8,7,6)" stroke-width="1" opacity="0.9137254901960784" d="M 195.5 178 L 196.5 180 Q 193.7 180.7 195.5 178 Z " /><path fill="rgb(8,7,6)" stroke="rgb(8,7,6)" stroke-width="1" opacity="0.9137254901960784" d="M 96.5 185 L 97 187.5 L 96 187.5 L 96.5 185 Z " /><path fill="rgb(8,7,6)" stroke="rgb(8,7,6)" stroke-width="1" opacity="0.9137254901960784" d="M 211.5 185 L 210.5 187 L 211.5 185 Z " /><path fill="rgb(8,7,6)" stroke="rgb(8,7,6)" stroke-width="1" opacity="0.9137254901960784" d="M 244.5 187 L 263 193 Q 264 196.8 261.5 198 L 244 203 L 245.5 199 L 249 197.5 Q 250.3 191.4 247.5 192 L 244 191 L 244.5 187 Z M 252 193 L 252 197 L 258 196 L 252 193 Z " /><path fill="rgb(8,7,6)" stroke="rgb(8,7,6)" stroke-width="1" opacity="0.9137254901960784" d="M 209.5 188 L 206.5 192 L 209.5 188 Z " /><path fill="rgb(8,7,6)" stroke="rgb(8,7,6)" stroke-width="1" opacity="0.9137254901960784" d="M 204.5 193 L 203.5 195 L 204.5 193 Z " /><path fill="rgb(8,7,6)" stroke="rgb(8,7,6)" stroke-width="1" opacity="0.9137254901960784" d="M 100.5 199 L 101.5 201 Q 98.7 201.7 100.5 199 Z " /><path fill="rgb(8,7,6)" stroke="rgb(8,7,6)" stroke-width="1" opacity="0.9137254901960784" d="M 165.5 200 L 168 201.5 L 167.5 203 L 167 201 L 165.5 200 Z " /><path fill="rgb(8,7,6)" stroke="rgb(8,7,6)" stroke-width="1" opacity="0.9137254901960784" d="M 244 206 L 263 206 L 263 215.5 L 260.5 219 L 258.5 220 L 253 218 Q 254.3 221 250.5 220 L 248.5 220 L 245 218.5 L 244 216.5 L 244 206 Z M 247 210 Q 245 215 249 217 L 252 216 Q 255 207 247 210 Z M 257 210 L 255 212 L 256 216 L 260 215 Q 262 208 257 210 Z " /><path fill="rgb(8,7,6)" stroke="rgb(8,7,6)" stroke-width="1" opacity="0.9137254901960784" d="M 134.5 223 L 135 257.5 L 134 257.5 L 134.5 223 Z " /><path fill="rgb(8,7,6)" stroke="rgb(8,7,6)" stroke-width="1" opacity="0.9137254901960784" d="M 244 224 L 262.5 224 L 263 228 L 247 228 L 247 236 L 244 236 L 244 224 Z " /><path fill="rgb(8,7,6)" stroke="rgb(8,7,6)" stroke-width="1" opacity="0.9137254901960784" d="M 244 239 L 263 239 L 263 251 L 260 251 L 260 243 L 256.5 243 Q 253.5 244.6 255 250 L 252 250 L 252 243 L 247 243 L 247 251 L 244 251 L 244 239 Z " /><path fill="rgb(8,7,6)" stroke="rgb(8,7,6)" stroke-width="1" opacity="0.9137254901960784" d="M 151.5 251 L 154 254.5 L 152 253.5 L 151.5 251 Z " /><path fill="rgb(8,7,6)" stroke="rgb(8,7,6)" stroke-width="1" opacity="0.9137254901960784" d="M 154.5 256 L 155.5 258 L 154.5 256 Z " /><path fill="rgb(8,7,6)" stroke="rgb(8,7,6)" stroke-width="1" opacity="0.9137254901960784" d="M 157.5 261 L 158.5 263 L 157.5 261 Z " /><path fill="rgb(8,7,6)" stroke="rgb(8,7,6)" stroke-width="1" opacity="0.9137254901960784" d="M 260 261 L 263 261.5 L 263 275 L 260 275 L 259.5 270 L 244 270 L 244 266 L 259.5 266 L 260 261 Z " /><path fill="rgb(8,7,6)" stroke="rgb(8,7,6)" stroke-width="1" opacity="0.9137254901960784" d="M 159.5 264 L 160.5 266 L 159.5 264 Z " /><path fill="rgb(8,7,6)" stroke="rgb(8,7,6)" stroke-width="1" opacity="0.9137254901960784" d="M 161.5 267 L 162.5 269 L 161.5 267 Z " /><path fill="rgb(8,7,6)" stroke="rgb(8,7,6)" stroke-width="1" opacity="0.9137254901960784" d="M 163.5 270 L 164.5 272 L 163.5 270 Z " /><path fill="rgb(8,7,6)" stroke="rgb(8,7,6)" stroke-width="1" opacity="0.9137254901960784" d="M 165.5 273 L 166.5 275 L 165.5 273 Z " /><path fill="rgb(8,7,6)" stroke="rgb(8,7,6)" stroke-width="1" opacity="0.9137254901960784" d="M 167.5 276 L 168.5 278 L 167.5 276 Z " /><path fill="rgb(8,7,6)" stroke="rgb(8,7,6)" stroke-width="1" opacity="0.9137254901960784" d="M 244 278 L 263 278 L 263 288.5 Q 262 293 255.5 292 L 250.5 289 L 244.5 293 L 244 288 L 251 284.5 L 251 282 L 244 282 L 244 278 Z M 254 282 Q 253 287 256 288 Q 259 289 260 287 L 260 282 L 254 282 Z " /><path fill="rgb(8,7,6)" stroke="rgb(8,7,6)" stroke-width="1" opacity="0.9137254901960784" d="M 169.5 279 L 170.5 281 L 169.5 279 Z " /><path fill="rgb(8,7,6)" stroke="rgb(8,7,6)" stroke-width="1" opacity="0.9137254901960784" d="M 171.5 282 L 173.5 285 L 171.5 282 Z " /><path fill="rgb(8,7,6)" stroke="rgb(8,7,6)" stroke-width="1" opacity="0.9137254901960784" d="M 144.5 284 L 145 286.5 L 144 286.5 L 144.5 284 Z " /><path fill="rgb(8,7,6)" stroke="rgb(8,7,6)" stroke-width="1" opacity="0.9137254901960784" d="M 174.5 286 L 175.5 288 L 174.5 286 Z " /><path fill="rgb(8,7,6)" stroke="rgb(8,7,6)" stroke-width="1" opacity="0.9137254901960784" d="M 177.5 290 L 178.5 292 L 177.5 290 Z " /><path fill="rgb(8,7,6)" stroke="rgb(8,7,6)" stroke-width="1" opacity="0.9137254901960784" d="M 180.5 294 L 182.5 297 L 180.5 294 Z " /><path fill="rgb(8,7,6)" stroke="rgb(8,7,6)" stroke-width="1" opacity="0.9137254901960784" d="M 144.5 295 L 145 297.5 L 144 297.5 L 144.5 295 Z " /><path fill="rgb(8,7,6)" stroke="rgb(8,7,6)" stroke-width="1" opacity="0.9137254901960784" d="M 250.5 296 L 262.5 296 L 263 300 L 249.5 300 L 247 301 Q 245.8 305.6 248.5 307 L 262.5 307 L 263 311 L 248.5 311 L 244 307.5 Q 242.3 298.8 247.5 297 L 250.5 296 Z " /><path fill="rgb(8,7,6)" stroke="rgb(8,7,6)" stroke-width="1" opacity="0.9137254901960784" d="M 183.5 298 L 185.5 301 L 183.5 298 Z " /><path fill="rgb(8,7,6)" stroke="rgb(8,7,6)" stroke-width="1" opacity="0.9137254901960784" d="M 155.5 300 L 156 302.5 L 155 302.5 L 155.5 300 Z " /><path fill="rgb(8,7,6)" stroke="rgb(8,7,6)" stroke-width="1" opacity="0.9137254901960784" d="M 107.5 302 L 106.5 304 L 107.5 302 Z " /><path fill="rgb(8,7,6)" stroke="rgb(8,7,6)" stroke-width="1" opacity="0.9137254901960784" d="M 139.5 302 L 140 307 L 138 306.5 L 139.5 302 Z " /><path fill="rgb(8,7,6)" stroke="rgb(8,7,6)" stroke-width="1" opacity="0.9137254901960784" d="M 187.5 303 L 190.5 307 L 187.5 303 Z " /><path fill="rgb(8,7,6)" stroke="rgb(8,7,6)" stroke-width="1" opacity="0.9137254901960784" d="M 105.5 305 L 104.5 307 L 105.5 305 Z " /><path fill="rgb(8,7,6)" stroke="rgb(8,7,6)" stroke-width="1" opacity="0.9137254901960784" d="M 102.5 309 L 101.5 311 L 102.5 309 Z " /><path fill="rgb(8,7,6)" stroke="rgb(8,7,6)" stroke-width="1" opacity="0.9137254901960784" d="M 193.5 310 L 196.5 314 L 193.5 310 Z " /><path fill="rgb(8,7,6)" stroke="rgb(8,7,6)" stroke-width="1" opacity="0.9137254901960784" d="M 99.5 313 L 97.5 316 L 99.5 313 Z " /><path fill="rgb(8,7,6)" stroke="rgb(8,7,6)" stroke-width="1" opacity="0.9137254901960784" d="M 246.5 314 L 248 317.5 L 247 324 L 251 324 L 251 322.5 L 254 316 L 259.5 315 Q 264.5 316.5 263 324.5 L 262 327 L 259 325.5 L 260 319 L 256 320.5 L 251.5 328 Q 245 329 244 324.5 L 243 321.5 L 246.5 314 Z " /><path fill="rgb(8,7,6)" stroke="rgb(8,7,6)" stroke-width="1" opacity="0.9137254901960784" d="M 95.5 318 L 92.5 322 L 95.5 318 Z " /><path fill="rgb(8,7,6)" stroke="rgb(8,7,6)" stroke-width="1" opacity="0.9137254901960784" d="M 203.5 321 L 207.5 326 L 203.5 321 Z " /><path fill="rgb(8,7,6)" stroke="rgb(8,7,6)" stroke-width="1" opacity="0.9137254901960784" d="M 142.5 322 L 144 324.5 L 142 323.5 L 142.5 322 Z " /><path fill="rgb(8,7,6)" stroke="rgb(8,7,6)" stroke-width="1" opacity="0.9137254901960784" d="M 87.5 327 L 79 336.5 Q 78.3 349.7 85.5 355 L 91.5 356 L 94 354.5 Q 95.6 364.6 90.5 368 Q 86 367 85 369.5 L 83.5 372 L 84 370.5 L 85 366 L 77 360.5 L 72 350.5 L 72 344 L 68.5 346 L 71 342.5 Q 70.9 334.4 76.5 332 L 82.5 332 L 87.5 327 Z " /><path fill="rgb(8,7,6)" stroke="rgb(8,7,6)" stroke-width="1" opacity="0.9137254901960784" d="M 143.5 327 L 144 328.5 L 143 331.5 L 144 333.5 L 143 333.5 L 142 329.5 L 143.5 327 Z " /><path fill="rgb(8,7,6)" stroke="rgb(8,7,6)" stroke-width="1" opacity="0.9137254901960784" d="M 167.5 328 L 170 331.5 L 168 330.5 L 167.5 328 Z " /><path fill="rgb(8,7,6)" stroke="rgb(8,7,6)" stroke-width="1" opacity="0.9137254901960784" d="M 260 330 L 263 330.5 L 263 344 L 260 344 L 259.5 339 L 244 339 L 244 335 L 259.5 335 L 260 330 Z " /><path fill="rgb(8,7,6)" stroke="rgb(8,7,6)" stroke-width="1" opacity="0.9137254901960784" d="M 215.5 332 L 217.5 335 L 215.5 332 Z " /><path fill="rgb(8,7,6)" stroke="rgb(8,7,6)" stroke-width="1" opacity="0.9137254901960784" d="M 171.5 335 L 172.5 337 L 171.5 335 Z " /><path fill="rgb(8,7,6)" stroke="rgb(8,7,6)" stroke-width="1" opacity="0.9137254901960784" d="M 134.5 340 L 135 360.5 L 134 360.5 L 134.5 340 Z " /><path fill="rgb(8,7,6)" stroke="rgb(8,7,6)" stroke-width="1" opacity="0.9137254901960784" d="M 174.5 340 L 175.5 342 L 174.5 340 Z " /><path fill="rgb(8,7,6)" stroke="rgb(8,7,6)" stroke-width="1" opacity="0.9137254901960784" d="M 177.5 345 L 178.5 347 L 177.5 345 Z " /><path fill="rgb(8,7,6)" stroke="rgb(8,7,6)" stroke-width="1" opacity="0.9137254901960784" d="M 64.5 348 L 63.5 350 L 64.5 348 Z " /><path fill="rgb(8,7,6)" stroke="rgb(8,7,6)" stroke-width="1" opacity="0.9137254901960784" d="M 180.5 350 L 181.5 352 L 180.5 350 Z " /><path fill="rgb(8,7,6)" stroke="rgb(8,7,6)" stroke-width="1" opacity="0.9137254901960784" d="M 182.5 353 L 183.5 355 L 182.5 353 Z " /><path fill="rgb(8,7,6)" stroke="rgb(8,7,6)" stroke-width="1" opacity="0.9137254901960784" d="M 184.5 356 L 185.5 358 L 184.5 356 Z " /><path fill="rgb(8,7,6)" stroke="rgb(8,7,6)" stroke-width="1" opacity="0.9137254901960784" d="M 186.5 359 L 187.5 361 L 186.5 359 Z " /><path fill="rgb(8,7,6)" stroke="rgb(8,7,6)" stroke-width="1" opacity="0.9137254901960784" d="M 114.5 360 L 115 362 L 113 361.5 L 114.5 360 Z " /><path fill="rgb(8,7,6)" stroke="rgb(8,7,6)" stroke-width="1" opacity="0.9137254901960784" d="M 188.5 362 L 189.5 364 L 188.5 362 Z " /><path fill="rgb(8,7,6)" stroke="rgb(8,7,6)" stroke-width="1" opacity="0.9137254901960784" d="M 190.5 365 L 191.5 367 L 190.5 365 Z " /><path fill="rgb(8,7,6)" stroke="rgb(8,7,6)" stroke-width="1" opacity="0.9137254901960784" d="M 192.5 368 L 193.5 370 L 192.5 368 Z " /><path fill="rgb(8,7,6)" stroke="rgb(8,7,6)" stroke-width="1" opacity="0.9137254901960784" d="M 194.5 371 L 195.5 373 L 194.5 371 Z " /><path fill="rgb(8,7,6)" stroke="rgb(8,7,6)" stroke-width="1" opacity="0.9137254901960784" d="M 82.5 373 L 81.5 375 L 82.5 373 Z " /><path fill="rgb(8,7,6)" stroke="rgb(8,7,6)" stroke-width="1" opacity="0.9137254901960784" d="M 196.5 374 L 197.5 376 L 196.5 374 Z " /><path fill="rgb(8,7,6)" stroke="rgb(8,7,6)" stroke-width="1" opacity="0.9137254901960784" d="M 80.5 376 L 79.5 378 L 80.5 376 Z " /><path fill="rgb(8,7,6)" stroke="rgb(8,7,6)" stroke-width="1" opacity="0.9137254901960784" d="M 198.5 377 L 199.5 379 L 198.5 377 Z " /><path fill="rgb(8,7,6)" stroke="rgb(8,7,6)" stroke-width="1" opacity="0.9137254901960784" d="M 78.5 379 L 77.5 381 L 78.5 379 Z " /><path fill="rgb(8,7,6)" stroke="rgb(8,7,6)" stroke-width="1" opacity="0.9137254901960784" d="M 200.5 380 L 201.5 382 L 200.5 380 Z " /><path fill="rgb(8,7,6)" stroke="rgb(8,7,6)" stroke-width="1" opacity="0.9137254901960784" d="M 76.5 382 L 75.5 384 L 76.5 382 Z " /><path fill="rgb(8,7,6)" stroke="rgb(8,7,6)" stroke-width="1" opacity="0.9137254901960784" d="M 202.5 383 L 203.5 385 L 202.5 383 Z " /><path fill="rgb(8,7,6)" stroke="rgb(8,7,6)" stroke-width="1" opacity="0.9137254901960784" d="M 73.5 386 L 72.5 388 L 73.5 386 Z " /><path fill="rgb(8,7,6)" stroke="rgb(8,7,6)" stroke-width="1" opacity="0.9137254901960784" d="M 205.5 387 L 206.5 389 L 205.5 387 Z " /><path fill="rgb(8,7,6)" stroke="rgb(8,7,6)" stroke-width="1" opacity="0.9137254901960784" d="M 70.5 390 L 68.5 393 L 70.5 390 Z " /><path fill="rgb(8,7,6)" stroke="rgb(8,7,6)" stroke-width="1" opacity="0.9137254901960784" d="M 207.5 390 L 208.5 392 L 207.5 390 Z " /><path fill="rgb(8,7,6)" stroke="rgb(8,7,6)" stroke-width="1" opacity="0.9137254901960784" d="M 209.5 393 L 211.5 396 L 209.5 393 Z " /><path fill="rgb(8,7,6)" stroke="rgb(8,7,6)" stroke-width="1" opacity="0.9137254901960784" d="M 64.5 397 L 64.5 399 L 209 399.5 L 62.5 400 L 64.5 397 Z " /><path fill="rgb(8,7,6)" stroke="rgb(8,7,6)" stroke-width="1" opacity="0.9137254901960784" d="M 212.5 397 L 213.5 399 Q 210.7 399.7 212.5 397 Z " /><path fill="rgb(189,188,188)" stroke="rgb(189,188,188)" stroke-width="1" opacity="0.996078431372549" d="M 110.5 247 L 113 247.5 L 110.5 248 L 110.5 247 Z " /><path fill="rgb(189,188,188)" stroke="rgb(189,188,188)" stroke-width="1" opacity="0.996078431372549" d="M 136.5 249 L 149 249.5 L 136.5 250 L 136.5 249 Z " /><path fill="rgb(189,188,188)" stroke="rgb(189,188,188)" stroke-width="1" opacity="0.996078431372549" d="M 151.5 253 L 152.5 255 L 151.5 253 Z " /><path fill="rgb(189,188,188)" stroke="rgb(189,188,188)" stroke-width="1" opacity="0.996078431372549" d="M 141.5 257 L 141.5 260 L 140.5 259 L 110 258.5 L 140.5 258 L 141.5 257 Z " /><path fill="rgb(189,188,188)" stroke="rgb(189,188,188)" stroke-width="1" opacity="0.996078431372549" d="M 154.5 258 L 155.5 260 L 154.5 258 Z " /><path fill="rgb(189,188,188)" stroke="rgb(189,188,188)" stroke-width="1" opacity="0.996078431372549" d="M 144.5 260 L 144 261.5 L 145 266.5 L 143 265.5 Q 142 261 144.5 260 Z " /><path fill="rgb(189,188,188)" stroke="rgb(189,188,188)" stroke-width="1" opacity="0.996078431372549" d="M 104.5 261 L 105 265.5 L 104 265.5 L 104.5 261 Z " /><path fill="rgb(189,188,188)" stroke="rgb(189,188,188)" stroke-width="1" opacity="0.996078431372549" d="M 143.5 268 L 145 270.5 L 142 270.5 L 143.5 268 Z " /><path fill="rgb(189,188,188)" stroke="rgb(189,188,188)" stroke-width="1" opacity="0.996078431372549" d="M 107.5 269 L 141 269.5 L 107.5 270 L 107.5 269 Z " /><path fill="rgb(189,188,188)" stroke="rgb(189,188,188)" stroke-width="1" opacity="0.996078431372549" d="M 161.5 269 L 162.5 271 L 161.5 269 Z " /><path fill="rgb(189,188,188)" stroke="rgb(189,188,188)" stroke-width="1" opacity="0.996078431372549" d="M 143.5 272 L 145 277.5 L 143 276.5 L 143.5 272 Z " /><path fill="rgb(189,188,188)" stroke="rgb(189,188,188)" stroke-width="1" opacity="0.996078431372549" d="M 163.5 272 L 164.5 274 L 163.5 272 Z " /><path fill="rgb(189,188,188)" stroke="rgb(189,188,188)" stroke-width="1" opacity="0.996078431372549" d="M 104.5 273 L 105 275.5 L 104 275.5 L 104.5 273 Z " /><path fill="rgb(189,188,188)" stroke="rgb(189,188,188)" stroke-width="1" opacity="0.996078431372549" d="M 106.5 278 L 142 278.5 L 106.5 279 L 106.5 278 Z " /><path fill="rgb(189,188,188)" stroke="rgb(189,188,188)" stroke-width="1" opacity="0.996078431372549" d="M 107.5 280 L 141.5 280 L 143 281.5 L 141.5 281 L 107.5 281 L 107.5 280 Z " /><path fill="rgb(189,188,188)" stroke="rgb(189,188,188)" stroke-width="1" opacity="0.996078431372549" d="M 170.5 282 L 171.5 284 L 170.5 282 Z " /><path fill="rgb(189,188,188)" stroke="rgb(189,188,188)" stroke-width="1" opacity="0.996078431372549" d="M 104.5 283 L 105 286.5 L 104 286.5 L 104.5 283 Z " /><path fill="rgb(189,188,188)" stroke="rgb(189,188,188)" stroke-width="1" opacity="0.996078431372549" d="M 143.5 283 L 144 286.5 L 143 286.5 L 143.5 283 Z " /><path fill="rgb(189,188,188)" stroke="rgb(189,188,188)" stroke-width="1" opacity="0.996078431372549" d="M 172.5 285 L 173.5 287 L 172.5 285 Z " /><path fill="rgb(189,188,188)" stroke="rgb(189,188,188)" stroke-width="1" opacity="0.996078431372549" d="M 105.5 288 L 106.5 289 L 141 289.5 L 106.5 290 L 105.5 288 Z " /><path fill="rgb(189,188,188)" stroke="rgb(189,188,188)" stroke-width="1" opacity="0.996078431372549" d="M 175.5 289 L 176.5 291 L 175.5 289 Z " /><path fill="rgb(189,188,188)" stroke="rgb(189,188,188)" stroke-width="1" opacity="0.996078431372549" d="M 106.5 291 L 141.5 291 L 143 292.5 L 141.5 292 L 106.5 292 L 105.5 293 L 106.5 291 Z " /><path fill="rgb(189,188,188)" stroke="rgb(189,188,188)" stroke-width="1" opacity="0.996078431372549" d="M 178.5 293 L 179.5 295 L 178.5 293 Z " /><path fill="rgb(189,188,188)" stroke="rgb(189,188,188)" stroke-width="1" opacity="0.996078431372549" d="M 104.5 294 L 105 297.5 L 104 297.5 L 104.5 294 Z " /><path fill="rgb(189,188,188)" stroke="rgb(189,188,188)" stroke-width="1" opacity="0.996078431372549" d="M 143.5 294 L 144 297.5 L 143 297.5 L 143.5 294 Z " /><path fill="rgb(189,188,188)" stroke="rgb(189,188,188)" stroke-width="1" opacity="0.996078431372549" d="M 181.5 297 L 183.5 300 L 181.5 297 Z " /><path fill="rgb(189,188,188)" stroke="rgb(189,188,188)" stroke-width="1" opacity="0.996078431372549" d="M 107.5 300 L 141 300.5 L 107.5 301 L 107.5 300 Z " /><path fill="rgb(189,188,188)" stroke="rgb(189,188,188)" stroke-width="1" opacity="0.996078431372549" d="M 108.5 302 L 138 302.5 L 108.5 303 L 108.5 302 Z " /><path fill="rgb(189,188,188)" stroke="rgb(189,188,188)" stroke-width="1" opacity="0.996078431372549" d="M 185.5 302 L 187.5 305 L 185.5 302 Z " /><path fill="rgb(189,188,188)" stroke="rgb(189,188,188)" stroke-width="1" opacity="0.996078431372549" d="M 120 305 L 138 305.5 L 121 306.5 L 139.5 307 L 143 309.5 L 141.5 309 L 139.5 308 L 121.5 308 L 120 306.5 L 120 305 Z " /><path fill="rgb(189,188,188)" stroke="rgb(189,188,188)" stroke-width="1" opacity="0.996078431372549" d="M 189.5 307 L 193.5 312 L 189.5 307 Z " /><path fill="rgb(189,188,188)" stroke="rgb(189,188,188)" stroke-width="1" opacity="0.996078431372549" d="M 104.5 308 L 103.5 310 L 104.5 308 Z " /><path fill="rgb(189,188,188)" stroke="rgb(189,188,188)" stroke-width="1" opacity="0.996078431372549" d="M 101.5 312 L 99.5 315 L 101.5 312 Z " /><path fill="rgb(189,188,188)" stroke="rgb(189,188,188)" stroke-width="1" opacity="0.996078431372549" d="M 196.5 315 L 213.5 333 L 196.5 315 Z " /><path fill="rgb(189,188,188)" stroke="rgb(189,188,188)" stroke-width="1" opacity="0.996078431372549" d="M 97.5 317 L 95.5 320 L 97.5 317 Z " /><path fill="rgb(189,188,188)" stroke="rgb(189,188,188)" stroke-width="1" opacity="0.996078431372549" d="M 92.5 323 L 80.5 336 L 92.5 323 Z " /><path fill="rgb(189,188,188)" stroke="rgb(189,188,188)" stroke-width="1" opacity="0.996078431372549" d="M 141.5 329 L 142 331.5 L 141 331.5 L 141.5 329 Z " /><path fill="rgb(189,188,188)" stroke="rgb(189,188,188)" stroke-width="1" opacity="0.996078431372549" d="M 216.5 334 L 219.5 338 L 216.5 334 Z " /><path fill="rgb(189,188,188)" stroke="rgb(189,188,188)" stroke-width="1" opacity="0.996078431372549" d="M 142.5 336 L 141.5 338 L 142.5 336 Z " /><path fill="rgb(189,188,188)" stroke="rgb(189,188,188)" stroke-width="1" opacity="0.996078431372549" d="M 100.5 338 L 114 338.5 L 100.5 339 L 100.5 338 Z " /><path fill="rgb(189,188,188)" stroke="rgb(189,188,188)" stroke-width="1" opacity="0.996078431372549" d="M 135.5 338 L 140 338.5 L 135.5 339 L 135.5 338 Z " /><path fill="rgb(189,188,188)" stroke="rgb(189,188,188)" stroke-width="1" opacity="0.996078431372549" d="M 221.5 338 L 223.5 341 L 221.5 338 Z " /><path fill="rgb(189,188,188)" stroke="rgb(189,188,188)" stroke-width="1" opacity="0.996078431372549" d="M 225.5 341 L 226.5 343 L 225.5 341 Z " /><path fill="rgb(189,188,188)" stroke="rgb(189,188,188)" stroke-width="1" opacity="0.996078431372549" d="M 228.5 343 L 229.5 345 L 228.5 343 Z " /><path fill="rgb(189,188,188)" stroke="rgb(189,188,188)" stroke-width="1" opacity="0.996078431372549" d="M 69.5 345 L 65.5 350 L 69.5 345 Z " /><path fill="rgb(189,188,188)" stroke="rgb(189,188,188)" stroke-width="1" opacity="0.996078431372549" d="M 231.5 345 L 235 347.5 L 233.5 347 L 231.5 345 Z " /><path fill="rgb(189,188,188)" stroke="rgb(189,188,188)" stroke-width="1" opacity="0.996078431372549" d="M 180.5 348 L 181.5 350 L 180.5 348 Z " /><path fill="rgb(189,188,188)" stroke="rgb(189,188,188)" stroke-width="1" opacity="0.996078431372549" d="M 63.5 350 L 61.5 353 L 63.5 350 Z " /><path fill="rgb(189,188,188)" stroke="rgb(189,188,188)" stroke-width="1" opacity="0.996078431372549" d="M 82.5 350 L 83.5 352 L 82.5 350 Z " /><path fill="rgb(189,188,188)" stroke="rgb(189,188,188)" stroke-width="1" opacity="0.996078431372549" d="M 59.5 353 L 57.5 356 L 59.5 353 Z " /><path fill="rgb(189,188,188)" stroke="rgb(189,188,188)" stroke-width="1" opacity="0.996078431372549" d="M 55.5 356 L 53.5 359 L 45.5 364 L 46.5 362 L 55.5 356 Z " /><path fill="rgb(189,188,188)" stroke="rgb(189,188,188)" stroke-width="1" opacity="0.996078431372549" d="M 75.5 359 L 85 367.5 L 83.5 367 L 75.5 359 Z " /><path fill="rgb(189,188,188)" stroke="rgb(189,188,188)" stroke-width="1" opacity="0.996078431372549" d="M 43.5 364 L 42.5 366 L 43.5 364 Z " /><path fill="rgb(189,188,188)" stroke="rgb(189,188,188)" stroke-width="1" opacity="0.996078431372549" d="M 40.5 366 L 39.5 368 L 37.5 369 L 38.5 367 L 40.5 366 Z " /><path fill="rgb(189,188,188)" stroke="rgb(189,188,188)" stroke-width="1" opacity="0.996078431372549" d="M 33.5 370 L 32.5 372 L 17.5 379 L 17.5 378 L 33.5 370 Z " /><path fill="rgb(189,188,188)" stroke="rgb(189,188,188)" stroke-width="1" opacity="0.996078431372549" d="M 74.5 383 L 73.5 385 L 74.5 383 Z " /><path fill="rgb(189,188,188)" stroke="rgb(189,188,188)" stroke-width="1" opacity="0.996078431372549" d="M 204.5 384 L 205.5 386 L 204.5 384 Z " /><path fill="rgb(189,188,188)" stroke="rgb(189,188,188)" stroke-width="1" opacity="0.996078431372549" d="M 71.5 387 L 70.5 389 L 71.5 387 Z " /><path fill="rgb(189,188,188)" stroke="rgb(189,188,188)" stroke-width="1" opacity="0.996078431372549" d="M 209.5 391 L 210.5 393 L 209.5 391 Z " /><path fill="rgb(189,188,188)" stroke="rgb(189,188,188)" stroke-width="1" opacity="0.996078431372549" d="M 67.5 392 L 65.5 395 L 67.5 392 Z " /><path fill="rgb(214,85,37)" stroke="rgb(214,85,37)" stroke-width="1" opacity="0.996078431372549" d="M 138.5 112 L 142.5 113 L 144.5 112 L 148.5 114 L 150 113.5 L 149.5 115 L 155.5 118 L 157 117.5 L 156 118.5 L 159.5 122 L 161 121.5 L 160 123.5 L 163 124.5 L 162 126.5 L 164 126.5 L 163 128.5 L 165.5 135 L 167 134.5 L 166 137 L 172 133.5 L 171.5 132 L 173.5 132 L 178 128.5 Q 175.8 127.3 178.5 126 Q 180.3 128.7 182 124.5 L 184 119 L 187 120.5 L 187.5 122 L 189 121.5 L 188 124.5 L 189.5 130 L 191 129.5 L 190 130.5 Q 191.2 142.3 189 149 L 198 147.5 L 197.5 146 L 199.5 147 Q 209.5 143.5 215.5 136 L 216.5 141 L 218 140.5 L 217 141.5 L 217 153.5 L 215 161.5 Q 211.7 169.7 204.5 174 L 202 175.5 L 202.5 177 L 200.5 176 L 200.5 178 L 197.5 177 L 197.5 179 L 194 178 L 194.5 180 L 208 180 L 208.5 178 L 211.5 179 L 211.5 177 L 214 178 Q 213.4 184.4 209 188.5 Q 211.3 189.8 208.5 191 L 207.5 190 L 204 193.5 Q 206.3 194.8 203.5 196 L 201.5 196 L 197 198.5 L 197.5 200 L 195.5 199 L 195.5 201 L 193.5 200 L 190 201.5 L 190.5 203 L 186.5 202 L 186.5 204 L 184.5 203 L 182.5 203 L 174.5 203 L 173.5 204 L 170.5 202 L 168.5 203 L 168.5 202 L 170 201.5 L 160.5 197 L 159 197.5 L 159.5 196 L 157.5 197 L 157.5 195 L 154.5 196 L 154 194 L 147 195 L 146 200 L 101.5 200 L 101 198.5 L 98.5 193 L 97 193.5 L 98 190.5 L 96.5 184 L 95 184.5 Q 97.8 182.8 96 176.5 L 95.5 175 L 97 175.5 L 96 171.5 L 98 171.5 L 102 163.5 Q 99.8 162.3 102.5 161 Q 104 163.5 105.5 160 L 110 157.5 L 109.5 156 L 111.5 157 L 111.5 155 L 113.5 156 L 120 153.5 L 119.5 152 L 121.5 153 L 121.5 151 L 123.5 152 L 123.5 150 L 125.5 151 L 130 147.5 L 129.5 146 L 130.5 147 L 135 142.5 L 134.5 141 Q 135.8 143.3 137 140.5 Q 139.3 137.3 138 130.5 L 136 130.5 L 137 128.5 L 132 125.5 Q 134.3 124.3 131.5 123 L 129.5 124 L 128.5 121 L 124 118.5 L 124.5 116 L 126.5 117 L 129 116 L 129.5 114 L 131.5 115 L 136.5 114 L 138.5 112 Z " /><path fill="rgb(214,85,37)" stroke="rgb(214,85,37)" stroke-width="1" opacity="0.996078431372549" d="M 215.5 331 L 216.5 333 L 215.5 331 Z " /><path fill="rgb(214,85,37)" stroke="rgb(214,85,37)" stroke-width="1" opacity="0.996078431372549" d="M 92.5 366 L 91.5 368 L 92.5 366 Z " /><path fill="rgb(251,251,251)" stroke="rgb(251,251,251)" stroke-width="1" opacity="0.2627450980392157" d="M 232.5 384 L 233 385.5 L 231 386.5 L 232.5 384 Z " /><path fill="rgb(251,251,251)" stroke="rgb(251,251,251)" stroke-width="1" opacity="0.2627450980392157" d="M 14.5 386 L 15.5 388 L 14.5 386 Z " /><path fill="rgb(251,251,251)" stroke="rgb(251,251,251)" stroke-width="1" opacity="0.2627450980392157" d="M 230.5 388 L 229.5 390 L 230.5 388 Z " /><path fill="rgb(251,251,251)" stroke="rgb(251,251,251)" stroke-width="1" opacity="0.2627450980392157" d="M 16.5 389 L 21.5 395 L 16.5 389 Z " /><path fill="rgb(251,251,251)" stroke="rgb(251,251,251)" stroke-width="1" opacity="0.2627450980392157" d="M 225.5 393 L 223.5 396 L 225.5 393 Z " /><path fill="rgb(0,0,0)" stroke="rgb(0,0,0)" stroke-width="1" opacity="0.01568627450980392" d="M 0 0 L 278 0 L 278 413 L 0 413 L 0 0 Z M 148 15 L 145 16 Q 140 18 141 27 L 145 30 L 154 35 Q 155 38 153 39 Q 145 40 143 36 Q 140 36 140 41 L 147 44 L 156 43 L 160 37 L 158 31 L 146 24 L 148 20 Q 154 19 157 22 L 158 19 Q 155 14 148 15 Z M 15 16 L 15 43 L 17 44 Q 20 45 21 43 L 21 31 L 31 31 L 31 43 L 33 44 Q 36 45 37 43 L 37 18 L 36 16 L 31 16 L 31 27 L 21 27 L 21 18 Q 20 15 15 16 Z M 44 16 L 44 43 Q 45 45 49 44 L 50 43 L 50 18 Q 49 15 44 16 Z M 57 16 L 57 43 Q 58 45 62 44 L 63 24 L 74 44 Q 78 44 78 44 L 78 16 L 73 17 L 73 34 L 74 35 L 64 18 Q 62 15 57 16 Z M 85 16 L 85 43 L 87 44 L 94 44 L 101 42 L 106 35 Q 107 26 105 22 L 99 16 L 85 16 Z M 112 16 L 112 35 L 113 39 L 120 44 L 129 43 L 133 38 L 133 17 L 128 16 L 128 36 L 127 38 Q 126 40 121 39 L 118 37 L 117 33 L 117 17 L 112 16 Z M 162 16 L 162 20 L 170 20 L 170 21 L 170 44 L 175 44 L 175 20 L 183 20 L 183 16 L 162 16 Z M 188 16 L 188 43 L 190 44 Q 193 45 194 43 L 194 31 L 204 31 L 204 43 L 206 44 Q 209 45 210 43 L 210 18 L 209 16 L 204 16 L 204 27 L 194 27 L 194 18 Q 193 15 188 16 Z M 222 16 L 214 42 L 214 44 L 219 44 L 221 39 L 222 36 L 230 36 L 234 44 Q 237 45 238 43 L 229 18 L 229 16 L 222 16 Z M 241 16 L 241 43 Q 242 45 246 44 L 247 24 L 258 44 Q 262 44 262 44 L 262 16 L 257 17 L 257 34 L 258 35 L 248 18 Q 246 15 241 16 Z M 76 54 L 74 55 L 68 63 Q 67 69 70 72 L 75 75 Q 81 76 83 73 L 82 70 L 76 71 L 72 67 Q 71 60 76 58 L 82 59 L 83 56 L 76 54 Z M 135 54 L 132 55 L 127 63 Q 126 69 129 72 L 134 75 L 141 74 L 145 67 Q 146 60 143 58 Q 141 53 135 54 Z M 13 55 L 13 74 L 15 75 L 25 75 L 26 73 L 25 71 L 17 71 L 17 66 L 24 66 L 24 62 L 17 62 L 17 58 L 25 58 L 25 55 L 13 55 Z M 30 55 L 30 74 L 32 75 L 41 74 L 45 69 Q 46 62 44 59 L 40 55 L 30 55 Z M 49 55 L 49 69 L 50 72 Q 52 76 60 75 L 64 71 L 64 55 L 60 56 L 60 70 Q 59 72 54 71 L 53 69 L 53 56 L 49 55 Z M 92 55 L 85 73 Q 84 76 88 75 L 90 72 L 90 69 L 96 69 L 99 75 L 102 74 L 96 58 Q 97 53 92 55 Z M 102 55 L 100 57 Q 101 59 106 58 L 106 74 L 108 75 L 110 74 L 110 58 L 116 58 L 116 55 L 102 55 Z M 119 55 L 119 74 L 123 75 L 123 56 L 119 55 Z M 149 55 L 149 74 L 152 75 L 153 74 L 154 62 L 160 74 L 160 75 L 164 75 L 164 56 L 160 55 L 160 66 L 154 57 L 154 55 L 149 55 Z M 174 55 L 167 73 Q 166 76 170 75 L 172 72 L 172 69 L 178 69 L 181 75 L 184 74 L 178 58 Q 179 53 174 55 Z M 186 55 L 186 74 L 188 75 L 198 75 L 198 71 L 190 71 L 190 56 L 186 55 Z M 213 55 L 206 73 Q 205 76 209 75 L 211 72 L 211 69 L 217 69 L 220 75 L 223 74 L 217 58 Q 218 53 213 55 Z M 225 55 L 225 74 L 228 75 L 229 74 L 230 62 L 236 74 L 236 75 L 240 75 L 240 56 L 236 55 L 236 66 L 230 57 L 230 55 L 225 55 Z M 245 55 L 245 74 L 247 75 L 256 74 L 260 69 Q 261 62 259 59 L 255 55 L 245 55 Z M 33 82 L 23 86 Q 14 92 11 103 L 11 381 L 16 391 Q 21 397 30 400 L 217 400 L 224 397 Q 232 391 235 381 L 235 348 L 236 347 L 236 106 L 230 92 Q 225 84 215 82 L 33 82 Z M 252 92 L 249 93 L 243 101 L 245 106 Q 244 108 248 107 L 247 100 L 253 96 Q 258 96 260 100 L 259 104 L 261 107 Q 265 105 263 98 Q 260 92 252 92 Z M 244 111 L 244 115 L 252 115 L 252 122 L 244 122 L 245 126 L 263 126 L 263 122 L 256 122 L 256 115 L 263 115 L 263 111 L 244 111 Z M 244 128 L 244 132 L 247 133 L 249 133 L 249 139 Q 248 141 244 140 L 245 145 L 261 139 L 263 139 L 263 134 L 244 128 Z M 244 147 L 244 151 L 251 151 L 251 154 L 244 157 L 245 162 L 251 158 L 255 161 Q 260 162 262 160 L 263 158 L 263 147 L 244 147 Z M 244 165 L 245 169 L 263 169 L 263 165 L 244 165 Z M 260 173 L 260 178 L 245 178 L 244 182 L 259 182 L 260 184 Q 258 190 263 188 L 263 174 L 260 173 Z M 244 187 L 244 191 L 247 192 L 249 192 L 249 198 Q 248 200 244 199 L 245 204 L 261 198 L 263 198 L 263 193 L 244 187 Z M 244 206 L 244 217 L 245 219 L 249 221 L 255 218 L 258 220 Q 263 220 263 217 L 263 206 L 244 206 Z M 244 224 L 244 236 L 247 236 L 247 228 L 263 228 L 263 224 L 244 224 Z M 244 239 L 244 252 L 247 252 L 247 243 L 252 243 L 252 250 L 255 250 Q 258 248 256 243 L 260 245 L 260 251 L 263 251 L 263 239 L 244 239 Z M 260 261 L 260 266 L 245 266 L 244 270 L 259 270 L 260 272 Q 258 278 263 276 L 263 262 L 260 261 Z M 244 278 L 244 282 L 251 282 L 251 285 L 244 288 L 245 293 L 251 289 L 255 292 Q 260 293 262 291 L 263 289 L 263 278 L 244 278 Z M 250 296 L 245 298 L 243 303 L 244 308 L 249 311 L 263 311 L 263 307 L 249 307 Q 246 306 247 303 L 250 300 L 263 300 L 263 296 L 250 296 Z M 247 314 L 243 321 L 245 327 L 252 328 L 258 319 L 260 321 L 259 325 Q 258 329 262 327 L 263 325 Q 265 317 260 315 L 255 316 L 251 323 L 251 324 L 247 324 L 248 318 Q 251 316 247 314 Z M 260 330 L 260 335 L 245 335 L 244 339 L 259 339 L 260 341 Q 258 347 263 345 L 263 331 L 260 330 Z " /><path fill="rgb(0,0,0)" stroke="rgb(0,0,0)" stroke-width="1" opacity="0.01568627450980392" d="M 91 20 Q 97.7 18.9 100 23.5 L 101 33.5 L 97.5 38 L 91 39 L 91 20 Z " /><path fill="rgb(0,0,0)" stroke="rgb(0,0,0)" stroke-width="1" opacity="0.01568627450980392" d="M 225.5 21 L 229 31.5 L 223 32 L 225.5 21 Z " /><path fill="rgb(0,0,0)" stroke="rgb(0,0,0)" stroke-width="1" opacity="0.01568627450980392" d="M 34 58 L 40 59 Q 41.8 61.4 41 67.5 L 38.5 71 L 34 71 L 34 58 Z " /><path fill="rgb(0,0,0)" stroke="rgb(0,0,0)" stroke-width="1" opacity="0.01568627450980392" d="M 134.5 58 Q 139.3 57.3 140 60.5 L 141 65.5 L 137.5 71 Q 133 72 132 69.5 L 131 62.5 L 134.5 58 Z " /><path fill="rgb(0,0,0)" stroke="rgb(0,0,0)" stroke-width="1" opacity="0.01568627450980392" d="M 249 58 L 255 59 Q 256.8 61.4 256 67.5 L 253.5 71 L 249 71 L 249 58 Z " /><path fill="rgb(0,0,0)" stroke="rgb(0,0,0)" stroke-width="1" opacity="0.01568627450980392" d="M 93.5 60 L 95 66 L 91 65.5 L 93.5 60 Z " /><path fill="rgb(0,0,0)" stroke="rgb(0,0,0)" stroke-width="1" opacity="0.01568627450980392" d="M 175.5 60 L 177 66 L 173 65.5 L 175.5 60 Z " /><path fill="rgb(0,0,0)" stroke="rgb(0,0,0)" stroke-width="1" opacity="0.01568627450980392" d="M 214.5 60 L 216 66 L 212 65.5 L 214.5 60 Z " /><path fill="rgb(0,0,0)" stroke="rgb(0,0,0)" stroke-width="1" opacity="0.01568627450980392" d="M 252.5 134 L 258 136.5 L 252 138 L 252.5 134 Z " /><path fill="rgb(0,0,0)" stroke="rgb(0,0,0)" stroke-width="1" opacity="0.01568627450980392" d="M 255.5 151 Q 262.3 148.8 260 155.5 Q 258.8 158 255 157 L 254 152.5 L 255.5 151 Z " /><path fill="rgb(0,0,0)" stroke="rgb(0,0,0)" stroke-width="1" opacity="0.01568627450980392" d="M 252.5 193 L 258 195.5 L 252 197 L 252.5 193 Z " /><path fill="rgb(0,0,0)" stroke="rgb(0,0,0)" stroke-width="1" opacity="0.01568627450980392" d="M 247 210 Q 254.5 207.3 252 215.5 L 248.5 217 Q 245.5 215.4 247 210 Z " /><path fill="rgb(0,0,0)" stroke="rgb(0,0,0)" stroke-width="1" opacity="0.01568627450980392" d="M 256.5 210 Q 262.2 208.2 260 214.5 L 256 216 L 255 211.5 L 256.5 210 Z " /><path fill="rgb(0,0,0)" stroke="rgb(0,0,0)" stroke-width="1" opacity="0.01568627450980392" d="M 255.5 282 Q 262.3 279.8 260 286.5 Q 258.8 289 255 288 L 254 283.5 L 255.5 282 Z " /><path fill="rgb(85,85,85)" stroke="rgb(85,85,85)" stroke-width="1" opacity="0.19607843137254902" d="M 232.5 386 L 231.5 388 L 232.5 386 Z " /><path fill="rgb(85,85,85)" stroke="rgb(85,85,85)" stroke-width="1" opacity="0.19607843137254902" d="M 14.5 387 L 15.5 389 L 14.5 387 Z " /><path fill="rgb(85,85,85)" stroke="rgb(85,85,85)" stroke-width="1" opacity="0.19607843137254902" d="M 230.5 389 L 223.5 397 L 215.5 400 L 215.5 399 Q 225.8 396.8 230.5 389 Z " /><path fill="rgb(85,85,85)" stroke="rgb(85,85,85)" stroke-width="1" opacity="0.19607843137254902" d="M 16.5 390 Q 21.2 396.3 29.5 399 L 60 399.5 L 29.5 400 Q 20 397 16.5 390 Z " /><path fill="rgb(254,254,254)" stroke="rgb(254,254,254)" stroke-width="1" opacity="0.996078431372549" d="M 109 248 L 113 248 L 113 257 Q 109.2 257.8 108 254.5 L 109 248 Z " /><path fill="rgb(254,254,254)" stroke="rgb(254,254,254)" stroke-width="1" opacity="0.996078431372549" d="M 136 250 L 149.5 250 L 150 251.5 Q 176.3 297.7 213.5 333 L 235 348.5 L 235 377.5 Q 232.7 387.2 226.5 393 Q 222.7 397.7 214.5 398 L 172 334.5 L 159 309.5 L 156 300.5 L 156 296 L 145 296 L 145 292.5 L 144 289.5 Q 146.8 287.7 145 281.5 L 144 278.5 Q 146.8 276.8 145 270.5 L 144 267.5 Q 146.5 266 145 260.5 L 144 258 L 136 257 L 136 250 Z " /><path fill="rgb(254,254,254)" stroke="rgb(254,254,254)" stroke-width="1" opacity="0.996078431372549" d="M 107.5 259 L 140.5 259 L 143 260 L 143 266.5 L 141.5 267 L 140.5 268 L 107.5 268 L 105 267 L 105 260.5 L 106.5 260 L 107.5 259 Z " /><path fill="rgb(254,254,254)" stroke="rgb(254,254,254)" stroke-width="1" opacity="0.996078431372549" d="M 106.5 270 L 141.5 270 L 143 271.5 Q 143.8 277.8 142.5 278 L 105 278 L 105 271.5 L 106.5 270 Z " /><path fill="rgb(254,254,254)" stroke="rgb(254,254,254)" stroke-width="1" opacity="0.996078431372549" d="M 106.5 281 L 141.5 281 L 143 282.5 Q 144.3 287.8 141.5 289 L 106.5 289 L 105 287.5 Q 103.8 282.3 106.5 281 Z " /><path fill="rgb(254,254,254)" stroke="rgb(254,254,254)" stroke-width="1" opacity="0.996078431372549" d="M 106.5 292 L 141.5 292 L 143 293.5 Q 144.3 298.8 141.5 300 L 106.5 300 L 105 298.5 Q 103.8 293.3 106.5 292 Z " /><path fill="rgb(254,254,254)" stroke="rgb(254,254,254)" stroke-width="1" opacity="0.996078431372549" d="M 108.5 303 L 138.5 303 L 139 305 L 120.5 305 L 120 306.5 L 121.5 308 L 139.5 308 L 143 310.5 L 141 315.5 L 143 319.5 L 141 322.5 L 143 326.5 L 141 331.5 L 143 335.5 L 140.5 338 L 100 338 L 93 354 L 88.5 355 L 84 353 Q 80 347.8 79 338.5 Q 95.5 322.5 108.5 303 Z " /><path fill="rgb(254,254,254)" stroke="rgb(254,254,254)" stroke-width="1" opacity="0.996078431372549" d="M 70.5 345 Q 72 360.5 82.5 367 Q 84.8 366.3 84 368.5 Q 75 385 62.5 398 L 60.5 399 L 31.5 399 Q 21.3 396.3 16 388.5 L 13 381.5 Q 46 367.5 70.5 345 Z " /><path fill="rgb(34,32,27)" stroke="rgb(34,32,27)" stroke-width="1" opacity="0.43529411764705883" d="M 20.5 17 L 21 25.5 L 20 25.5 L 20.5 17 Z " /><path fill="rgb(34,32,27)" stroke="rgb(34,32,27)" stroke-width="1" opacity="0.43529411764705883" d="M 36.5 17 L 37 42.5 Q 36.3 44.8 32.5 44 L 32.5 43 L 36 42.5 L 36.5 17 Z " /><path fill="rgb(34,32,27)" stroke="rgb(34,32,27)" stroke-width="1" opacity="0.43529411764705883" d="M 49.5 17 L 50 42.5 Q 49.3 44.8 45.5 44 L 45.5 43 L 49 42.5 L 49.5 17 Z " /><path fill="rgb(34,32,27)" stroke="rgb(34,32,27)" stroke-width="1" opacity="0.43529411764705883" d="M 193.5 17 L 194 25.5 L 193 25.5 L 193.5 17 Z " /><path fill="rgb(34,32,27)" stroke="rgb(34,32,27)" stroke-width="1" opacity="0.43529411764705883" d="M 209.5 17 L 210 42.5 Q 209.3 44.8 205.5 44 L 205.5 43 L 209 42.5 L 209.5 17 Z " /><path fill="rgb(34,32,27)" stroke="rgb(34,32,27)" stroke-width="1" opacity="0.43529411764705883" d="M 90.5 21 L 91 38.5 L 90 38.5 L 90.5 21 Z " /><path fill="rgb(34,32,27)" stroke="rgb(34,32,27)" stroke-width="1" opacity="0.43529411764705883" d="M 156.5 29 L 157.5 31 L 156.5 29 Z " /><path fill="rgb(34,32,27)" stroke="rgb(34,32,27)" stroke-width="1" opacity="0.43529411764705883" d="M 73.5 31 L 74 33.5 L 73 33.5 L 73.5 31 Z " /><path fill="rgb(34,32,27)" stroke="rgb(34,32,27)" stroke-width="1" opacity="0.43529411764705883" d="M 257.5 31 L 258 33.5 L 257 33.5 L 257.5 31 Z " /><path fill="rgb(34,32,27)" stroke="rgb(34,32,27)" stroke-width="1" opacity="0.43529411764705883" d="M 20.5 32 L 21 42.5 Q 20.3 44.8 16.5 44 L 16.5 43 L 20 43 L 20.5 32 Z " /><path fill="rgb(34,32,27)" stroke="rgb(34,32,27)" stroke-width="1" opacity="0.43529411764705883" d="M 193.5 32 L 194 42.5 Q 193.3 44.8 189.5 44 L 189.5 43 L 193 43 L 193.5 32 Z " /><path fill="rgb(34,32,27)" stroke="rgb(34,32,27)" stroke-width="1" opacity="0.43529411764705883" d="M 159.5 34 L 160 36.5 L 159 36.5 L 159.5 34 Z " /><path fill="rgb(34,32,27)" stroke="rgb(34,32,27)" stroke-width="1" opacity="0.43529411764705883" d="M 72.5 42 L 78 43.5 L 73.5 44 L 72.5 42 Z " /><path fill="rgb(34,32,27)" stroke="rgb(34,32,27)" stroke-width="1" opacity="0.43529411764705883" d="M 237.5 42 L 236.5 44 L 233 43.5 L 237.5 42 Z " /><path fill="rgb(34,32,27)" stroke="rgb(34,32,27)" stroke-width="1" opacity="0.43529411764705883" d="M 256.5 42 L 262 43.5 L 257.5 44 L 256.5 42 Z " /><path fill="rgb(34,32,27)" stroke="rgb(34,32,27)" stroke-width="1" opacity="0.43529411764705883" d="M 58.5 43 L 62 43.5 L 58.5 44 L 58.5 43 Z " /><path fill="rgb(34,32,27)" stroke="rgb(34,32,27)" stroke-width="1" opacity="0.43529411764705883" d="M 86.5 43 L 94 43.5 L 86.5 44 L 86.5 43 Z " /><path fill="rgb(34,32,27)" stroke="rgb(34,32,27)" stroke-width="1" opacity="0.43529411764705883" d="M 170.5 43 L 175 43.5 L 170.5 44 L 170.5 43 Z " /><path fill="rgb(34,32,27)" stroke="rgb(34,32,27)" stroke-width="1" opacity="0.43529411764705883" d="M 214.5 43 L 219 43.5 L 214.5 44 L 214.5 43 Z " /><path fill="rgb(34,32,27)" stroke="rgb(34,32,27)" stroke-width="1" opacity="0.43529411764705883" d="M 242.5 43 L 246 43.5 L 242.5 44 L 242.5 43 Z " /><path fill="rgb(34,32,27)" stroke="rgb(34,32,27)" stroke-width="1" opacity="0.43529411764705883" d="M 141.5 56 L 142.5 58 L 141.5 56 Z " /><path fill="rgb(34,32,27)" stroke="rgb(34,32,27)" stroke-width="1" opacity="0.43529411764705883" d="M 133.5 58 L 132.5 60 L 133.5 58 Z " /><path fill="rgb(34,32,27)" stroke="rgb(34,32,27)" stroke-width="1" opacity="0.43529411764705883" d="M 17.5 62 L 24 62.5 L 17.5 63 L 17.5 62 Z " /><path fill="rgb(34,32,27)" stroke="rgb(34,32,27)" stroke-width="1" opacity="0.43529411764705883" d="M 160.5 65 L 161 67 L 159 66.5 L 160.5 65 Z " /><path fill="rgb(34,32,27)" stroke="rgb(34,32,27)" stroke-width="1" opacity="0.43529411764705883" d="M 236.5 65 L 237 67 L 235 66.5 L 236.5 65 Z " /><path fill="rgb(34,32,27)" stroke="rgb(34,32,27)" stroke-width="1" opacity="0.43529411764705883" d="M 73.5 69 L 74.5 71 L 73.5 69 Z " /><path fill="rgb(34,32,27)" stroke="rgb(34,32,27)" stroke-width="1" opacity="0.43529411764705883" d="M 139.5 69 L 138.5 71 L 139.5 69 Z " /><path fill="rgb(34,32,27)" stroke="rgb(34,32,27)" stroke-width="1" opacity="0.43529411764705883" d="M 97.5 73 L 100.5 74 L 102 73.5 L 98.5 75 L 97.5 73 Z " /><path fill="rgb(34,32,27)" stroke="rgb(34,32,27)" stroke-width="1" opacity="0.43529411764705883" d="M 179.5 73 L 182.5 74 L 184 73.5 L 180.5 75 L 179.5 73 Z " /><path fill="rgb(34,32,27)" stroke="rgb(34,32,27)" stroke-width="1" opacity="0.43529411764705883" d="M 218.5 73 L 221.5 74 L 223 73.5 L 219.5 75 L 218.5 73 Z " /><path fill="rgb(34,32,27)" stroke="rgb(34,32,27)" stroke-width="1" opacity="0.43529411764705883" d="M 14.5 74 L 25 74.5 L 14.5 75 L 14.5 74 Z " /><path fill="rgb(34,32,27)" stroke="rgb(34,32,27)" stroke-width="1" opacity="0.43529411764705883" d="M 31.5 74 L 37 74.5 L 31.5 75 L 31.5 74 Z " /><path fill="rgb(34,32,27)" stroke="rgb(34,32,27)" stroke-width="1" opacity="0.43529411764705883" d="M 85.5 74 L 88 74.5 L 85.5 75 L 85.5 74 Z " /><path fill="rgb(34,32,27)" stroke="rgb(34,32,27)" stroke-width="1" opacity="0.43529411764705883" d="M 120.5 74 L 123 74.5 L 120.5 75 L 120.5 74 Z " /><path fill="rgb(34,32,27)" stroke="rgb(34,32,27)" stroke-width="1" opacity="0.43529411764705883" d="M 160.5 74 L 164 74.5 L 160.5 75 L 160.5 74 Z " /><path fill="rgb(34,32,27)" stroke="rgb(34,32,27)" stroke-width="1" opacity="0.43529411764705883" d="M 167.5 74 L 170 74.5 L 167.5 75 L 167.5 74 Z " /><path fill="rgb(34,32,27)" stroke="rgb(34,32,27)" stroke-width="1" opacity="0.43529411764705883" d="M 187.5 74 L 198 74.5 L 187.5 75 L 187.5 74 Z " /><path fill="rgb(34,32,27)" stroke="rgb(34,32,27)" stroke-width="1" opacity="0.43529411764705883" d="M 206.5 74 L 209 74.5 L 206.5 75 L 206.5 74 Z " /><path fill="rgb(34,32,27)" stroke="rgb(34,32,27)" stroke-width="1" opacity="0.43529411764705883" d="M 236.5 74 L 240 74.5 L 236.5 75 L 236.5 74 Z " /><path fill="rgb(34,32,27)" stroke="rgb(34,32,27)" stroke-width="1" opacity="0.43529411764705883" d="M 246.5 74 L 252 74.5 L 246.5 75 L 246.5 74 Z " /><path fill="rgb(34,32,27)" stroke="rgb(34,32,27)" stroke-width="1" opacity="0.43529411764705883" d="M 32.5 82 L 214.5 82 Q 224.6 84.4 230 91.5 L 232 94.5 L 223.5 87 L 213.5 83 L 33.5 83 Q 21.7 85.2 16 93.5 L 13.5 98 L 13 96.5 L 22.5 86 L 32.5 82 Z " /><path fill="rgb(34,32,27)" stroke="rgb(34,32,27)" stroke-width="1" opacity="0.43529411764705883" d="M 11.5 102 L 12 104.5 L 11 104.5 L 11.5 102 Z " /><path fill="rgb(34,32,27)" stroke="rgb(34,32,27)" stroke-width="1" opacity="0.43529411764705883" d="M 235.5 105 L 236 346.5 L 235 346.5 L 235.5 105 Z " /><path fill="rgb(34,32,27)" stroke="rgb(34,32,27)" stroke-width="1" opacity="0.43529411764705883" d="M 255.5 116 L 256 121.5 L 255 121.5 L 255.5 116 Z " /><path fill="rgb(34,32,27)" stroke="rgb(34,32,27)" stroke-width="1" opacity="0.43529411764705883" d="M 260.5 187 L 263 187.5 L 260.5 188 L 260.5 187 Z " /><path fill="rgb(34,32,27)" stroke="rgb(34,32,27)" stroke-width="1" opacity="0.43529411764705883" d="M 255.5 244 L 256 248.5 L 255 248.5 L 255.5 244 Z " /><path fill="rgb(34,32,27)" stroke="rgb(34,32,27)" stroke-width="1" opacity="0.43529411764705883" d="M 244.5 251 L 247 251.5 L 244.5 252 L 244.5 251 Z " /><path fill="rgb(34,32,27)" stroke="rgb(34,32,27)" stroke-width="1" opacity="0.43529411764705883" d="M 260.5 275 L 263 275.5 L 260.5 276 L 260.5 275 Z " /><path fill="rgb(34,32,27)" stroke="rgb(34,32,27)" stroke-width="1" opacity="0.43529411764705883" d="M 243.5 302 L 244 304.5 L 243 304.5 L 243.5 302 Z " /><path fill="rgb(34,32,27)" stroke="rgb(34,32,27)" stroke-width="1" opacity="0.43529411764705883" d="M 260.5 344 L 263 344.5 L 260.5 345 L 260.5 344 Z " /><path fill="rgb(34,32,27)" stroke="rgb(34,32,27)" stroke-width="1" opacity="0.43529411764705883" d="M 11.5 378 L 12 380.5 L 11 380.5 L 11.5 378 Z " /><path fill="rgb(34,32,27)" stroke="rgb(34,32,27)" stroke-width="1" opacity="0.43529411764705883" d="M 209.5 399 L 215 399.5 L 209.5 400 L 209.5 399 Z " /></svg>