<svg width="800" height="244" version="1.1" xmlns="http://www.w3.org/2000/svg" desc="Created with imagetracer.js version 1.2.6" ><path fill="rgb(254,254,254)" stroke="rgb(254,254,254)" stroke-width="1" opacity="0" d="M 0 0 L 799.5 0 L 800 0.5 L 800 72 L 360.5 72 L 360 71.5 L 360 64 L 352 64 L 352 79.5 L 351.5 80 L 96.5 80 L 96 80.5 L 96 96 L 104 96 L 104 104 L 96 104 L 96 128 L 88 128 L 88 144 L 80 144 L 80 168 L 351.5 168 L 352 168.5 L 352 183.5 L 352.5 184 L 799.5 184 L 800 184.5 L 800 244 L 0.5 244 L 0 243.5 L 0 0 Z " /><path fill="rgb(254,254,254)" stroke="rgb(254,254,254)" stroke-width="1" opacity="0" d="M 720 144 L 799.5 144 L 800 144.5 L 800 168 L 720.5 168 L 720 167.5 L 720 144 Z " /><path fill="rgb(0,101,160)" stroke="rgb(0,101,160)" stroke-width="1" opacity="0.9803921568627451" d="M 102 83 L 134.5 83 L 136 84.5 L 159 151 Q 164.4 149.5 166 152.5 Q 167.8 159.3 164.5 161 L 136 161 L 136 151 L 141.5 151 L 142 149.5 L 137.5 140 L 108.5 140 L 108 141.5 L 104 150.5 L 111 151 L 111 161 L 84.5 161 Q 81.3 159.3 83 152.5 L 91 149.5 L 110 95.5 L 110 92 L 102 92 L 102 83 Z M 122 99 L 113 126 L 114 129 L 134 129 L 124 101 Q 125 98 122 99 Z " /><path fill="rgb(0,101,160)" stroke="rgb(0,101,160)" stroke-width="1" opacity="0.9803921568627451" d="M 168 83 L 183 83 L 183 96 L 201 96 L 201 108 L 183 108 L 183 141.5 L 188.5 149 L 196.5 150 L 205 144.5 L 201 133.5 L 201 122.5 Q 204 108.5 213.5 101 L 223.5 96 L 223 97.5 L 220 106.5 L 220 114.5 L 215 124.5 L 215 131.5 Q 217.3 142.2 225.5 147 Q 230.2 150.3 239.5 149 L 246 145.5 L 234 137.5 L 226 123.5 L 225 109.5 L 227 101.5 L 231 94 Q 241.5 92.8 248.5 96 Q 257.5 100 263 107.5 L 269 120.5 L 269 135.5 Q 265.7 148.2 256.5 155 Q 247.6 163.1 229.5 162 L 222.5 160 L 212.5 153 L 210.5 153 Q 203.5 163 185.5 162 Q 175.5 160.5 171 153.5 L 168 146.5 L 168 108 L 156 108 L 156 96 L 168 96 L 168 83 Z M 240 108 L 239 112 Q 239 121 243 127 L 252 134 L 255 134 Q 257 121 251 115 Q 248 109 240 108 Z " /><path fill="rgb(0,101,160)" stroke="rgb(0,101,160)" stroke-width="1" opacity="0.9803921568627451" d="M 292.5 83 Q 312.3 80.7 324 86.5 L 323 89.5 L 323 107 Q 318.7 105.1 311 106 L 311 96.5 L 309.5 95 L 293.5 96 L 288 100.5 L 287 105.5 L 289 109 L 298.5 114 Q 310.7 116.3 319.5 122 L 326 128.5 Q 328.9 133.1 328 141.5 Q 326.3 149.3 321.5 154 Q 310.8 163.8 288.5 162 L 272.5 158 L 267 154.5 L 273 144 L 283.5 147 L 297.5 149 L 306.5 147 L 310 145 L 312 139.5 L 308.5 134 L 279.5 122 L 274 116.5 L 272 112.5 L 271 103.5 Q 272.6 92.6 280.5 88 L 292.5 83 Z " /><path fill="rgb(0,101,160)" stroke="rgb(0,101,160)" stroke-width="1" opacity="0.9803921568627451" d="M 404.5 83 L 425.5 83 L 436 85 L 435 106 L 423 106 L 423 96.5 L 421.5 95 L 409.5 95 Q 402.9 95.9 400 100.5 L 399 104.5 L 404.5 111 L 424.5 118 L 437 126.5 Q 441.4 131.7 440 142.5 Q 438.3 150.8 432.5 155 Q 422 163.5 401.5 162 L 380 156 L 380 153.5 L 386.5 143 L 400.5 148 L 415.5 148 L 423 143.5 L 424 138.5 L 419.5 133 L 399.5 126 L 387 117.5 Q 382 112 384 99.5 Q 386.1 91.6 392.5 88 L 404.5 83 Z " /><path fill="rgb(0,101,160)" stroke="rgb(0,101,160)" stroke-width="1" opacity="0.9803921568627451" d="M 592 83 L 607 83 L 607 95 L 625 95 L 625 107 L 607 107 L 607 141.5 L 612.5 149 L 620.5 150 L 629 144.5 Q 623.8 136.2 626 120.5 Q 628.5 106 638.5 99 L 649.5 94 L 663.5 94 Q 673.9 96.1 679 103.5 L 684 115.5 L 685 128.5 L 685 130.5 L 684.5 132 L 642.5 132 Q 641.5 132 642 136.5 Q 643.5 143.4 648.5 147 L 652.5 149 L 666.5 149 L 675.5 144 L 683 144 L 683 154.5 L 681.5 155 Q 671.7 163.7 651.5 162 L 644.5 160 L 633.5 154 Q 626.6 163.1 609.5 162 Q 599.5 160.5 595 153.5 L 592 146.5 L 592 107 L 580 107 L 580 95 L 592 95 L 592 83 Z M 655 105 L 650 107 Q 643 111 642 120 L 644 121 L 669 121 L 667 111 Q 664 105 655 105 Z " /><path fill="rgb(0,101,160)" stroke="rgb(0,101,160)" stroke-width="1" opacity="0.9803921568627451" d="M 687 83 L 708.5 83 L 710 84.5 L 710 149.5 L 712.5 152 L 718 152 L 718 159.5 L 716.5 161 L 687 161 L 687 152 L 691.5 152 L 694 149.5 L 694 94.5 Q 692.5 90.8 687 92 L 687 83 Z " /><path fill="rgb(0,101,160)" stroke="rgb(0,101,160)" stroke-width="1" opacity="0.9803921568627451" d="M 556.5 94 Q 571.5 92 576 100.5 L 577 103.5 L 577 148.5 L 578 151 L 584 152 L 584 160.5 L 583.5 161 L 554.5 161 Q 551.8 159.8 554 158.5 Q 555.2 153.8 553 152.5 L 561 152 L 561 112.5 L 558.5 109 L 556.5 108 L 545.5 108 L 538 110 L 538 151.5 L 538.5 152 L 545 152 L 545 161 L 514.5 161 L 514 160.5 L 514 152 Q 519.5 153.3 521 149.5 L 521 107.5 L 518.5 105 L 513 105 L 513 95 L 534.5 95 L 537 97.5 Q 535.8 103.6 538.5 103 L 544.5 98 L 556.5 94 Z " /><path fill="rgb(0,101,160)" stroke="rgb(0,101,160)" stroke-width="1" opacity="0.9803921568627451" d="M 441 95 L 470 95 L 470 105 L 462.5 105 L 462 106.5 L 475 137 Q 478 138.3 477 134.5 L 488 109.5 L 488 105 L 481 105 L 481 95 L 509 95 L 509 105 Q 502.6 103.8 501 108.5 L 481 156.5 L 469.5 173 L 463.5 177 L 451 177 L 451 168.5 L 452.5 167 Q 461.6 165.1 466 158.5 L 468 155.5 L 449 111.5 L 444.5 105 L 441 105 L 441 95 Z " /><path fill="rgb(1,101,159)" stroke="rgb(1,101,159)" stroke-width="1" opacity="0.00784313725490196" d="M 96 80 L 352 80 L 352 168 L 83.5 168 L 82 166.5 L 82 145.5 L 83.5 144 Q 88 144.5 88 143.5 L 88 128 L 96 128 L 96 104.5 L 96.5 104 L 104 104 L 104 96 L 96 96 L 96 80 Z M 296 82 L 285 85 L 280 88 Q 273 92 271 101 Q 269 113 275 119 L 291 128 L 307 133 L 311 138 L 311 143 Q 308 147 302 148 L 286 147 L 273 143 L 273 146 L 267 156 L 286 162 L 306 162 L 319 157 Q 326 153 328 144 Q 330 132 325 127 L 316 119 L 292 110 Q 287 109 288 101 L 296 96 L 311 96 L 311 107 L 323 107 L 324 102 L 324 85 L 309 82 L 296 82 Z M 102 83 L 102 93 L 110 93 L 90 149 L 90 151 L 83 151 L 83 161 L 111 161 L 111 151 L 105 151 L 108 143 L 109 141 L 138 141 L 142 151 L 136 151 L 136 161 L 166 161 L 166 151 L 161 151 L 157 145 L 136 85 L 136 83 L 102 83 Z M 167 83 L 167 96 L 156 96 L 156 108 L 167 108 L 167 145 L 171 155 Q 175 160 184 162 L 198 162 Q 206 159 212 153 L 224 161 L 235 163 L 247 161 L 255 157 Q 267 149 270 133 Q 271 114 262 106 Q 253 93 233 93 L 229 97 L 225 107 L 225 122 L 231 135 Q 236 142 245 146 L 238 149 Q 229 149 224 145 Q 218 141 216 134 L 216 123 L 220 115 Q 220 104 224 97 L 225 95 L 216 99 Q 205 106 201 121 Q 199 137 205 145 L 198 149 Q 191 150 188 148 L 184 143 L 184 108 L 201 108 L 201 96 L 184 96 L 184 83 L 167 83 Z " /><path fill="rgb(1,101,159)" stroke="rgb(1,101,159)" stroke-width="1" opacity="0.00784313725490196" d="M 392 80 L 799.5 80 L 800 80.5 L 800 144 L 718.5 144 L 718 144.5 L 718 151 L 712.5 151 L 711 149.5 L 711 85.5 L 710 83 L 707.5 82 L 687.5 82 L 686 83.5 L 686 91.5 L 694 94.5 L 694 149.5 L 692.5 151 L 687 151 L 687 161 L 717.5 161 L 718.5 168 L 799.5 168 L 800 168.5 L 800 184 L 472.5 184 L 472 183.5 L 472 178 L 464.5 178 L 465.5 176 L 475 167.5 L 485 148.5 L 503.5 106 L 509 105 L 509 94 L 481 94 L 481 105 L 486.5 105 L 488 107.5 L 475.5 137 L 463 105 L 471 105 L 471 95.5 L 469.5 94 L 441.5 94 L 440 95.5 L 440 105 L 446 106 L 467 156.5 Q 461.6 165.1 451 167 L 451 177.5 L 448 178 L 448 168.5 L 447.5 168 L 384 168 L 384 160 L 376 160 L 376 144 L 384 144 L 384 136 L 400 136 L 400 128 L 384 128 L 384 113.5 L 385 113.5 Q 386.6 120.4 392.5 123 Q 401.8 128.7 414.5 131 L 422 135 Q 423.6 137.1 423 142.5 L 417.5 147 L 403.5 148 L 386.5 143 L 379 156 L 397.5 162 L 417.5 162 Q 430.7 159.7 437 150.5 L 440 144.5 L 441 137.5 L 438 127.5 L 432.5 122 Q 422.9 115.6 409.5 113 L 401 107.5 L 400 101.5 L 401 99 L 407.5 96 L 416.5 95 L 423 96 L 423 107 L 434.5 107 L 436 105.5 L 436 85 L 421.5 82 L 407.5 82 L 396.5 85 L 392.5 88 L 392 80 Z M 591 83 L 591 94 L 580 94 L 580 107 L 591 107 L 591 145 L 595 155 Q 599 160 607 162 L 622 162 Q 630 160 635 154 Q 640 160 650 162 Q 670 165 681 157 L 683 155 L 683 143 L 677 143 L 665 149 Q 655 150 650 147 L 644 142 L 642 134 L 644 132 L 683 132 Q 684 134 685 132 L 684 114 L 677 100 Q 671 95 662 93 L 648 94 L 637 100 Q 630 106 627 115 L 625 124 L 625 133 L 628 145 L 622 149 Q 615 150 612 148 L 608 143 L 608 107 L 625 107 L 625 94 L 608 94 L 608 83 L 591 83 Z M 561 93 L 548 96 L 539 102 L 537 97 L 535 95 L 533 95 L 516 95 L 515 94 L 513 96 L 513 105 Q 519 104 521 108 L 521 149 L 520 151 Q 515 149 513 153 L 513 161 L 514 161 L 546 161 L 546 153 L 545 151 Q 538 152 538 151 L 538 112 L 540 110 L 550 108 L 558 109 L 560 112 L 561 116 L 561 151 L 561 151 L 553 151 L 553 161 L 585 161 L 585 161 L 585 153 Q 584 150 580 151 L 578 150 L 578 106 L 575 99 L 569 94 L 561 93 Z " /><path fill="rgb(1,101,159)" stroke="rgb(1,101,159)" stroke-width="1" opacity="0.00784313725490196" d="M 384 88 L 391 88.5 L 384 97.5 L 383 109.5 L 384 112 L 376 112 L 376 96 L 384 96 L 384 88 Z " /><path fill="rgb(1,101,159)" stroke="rgb(1,101,159)" stroke-width="1" opacity="0.00784313725490196" d="M 123.5 99 L 134 127.5 L 113 128 L 123.5 99 Z " /><path fill="rgb(1,101,159)" stroke="rgb(1,101,159)" stroke-width="1" opacity="0.00784313725490196" d="M 652.5 106 Q 662.6 104.4 666 109.5 L 669 119.5 L 643 120 L 643 116.5 L 648.5 108 L 652.5 106 Z " /><path fill="rgb(1,101,159)" stroke="rgb(1,101,159)" stroke-width="1" opacity="0.00784313725490196" d="M 240 108 Q 248 109.6 252 116.5 L 255 125.5 L 255 130.5 L 253.5 134 L 244 127.5 Q 238 121.3 240 108 Z " /><path fill="rgb(2,101,159)" stroke="rgb(2,101,159)" stroke-width="1" opacity="0.48627450980392156" d="M 295.5 82 L 309 82.5 L 295.5 83 L 295.5 82 Z " /><path fill="rgb(2,101,159)" stroke="rgb(2,101,159)" stroke-width="1" opacity="0.48627450980392156" d="M 407.5 82 L 422 82.5 L 407.5 83 L 407.5 82 Z " /><path fill="rgb(2,101,159)" stroke="rgb(2,101,159)" stroke-width="1" opacity="0.48627450980392156" d="M 687.5 82 L 708 82.5 L 687 83 L 687 92 L 691.5 92 L 691.5 93 Q 687 94 686 91.5 L 686 83.5 L 687.5 82 Z " /><path fill="rgb(2,101,159)" stroke="rgb(2,101,159)" stroke-width="1" opacity="0.48627450980392156" d="M 167.5 83 L 168 95.5 L 167 95.5 L 167.5 83 Z " /><path fill="rgb(2,101,159)" stroke="rgb(2,101,159)" stroke-width="1" opacity="0.48627450980392156" d="M 183.5 83 L 184 95.5 L 183 95.5 L 183.5 83 Z " /><path fill="rgb(2,101,159)" stroke="rgb(2,101,159)" stroke-width="1" opacity="0.48627450980392156" d="M 313.5 83 L 316 83.5 L 313.5 84 L 313.5 83 Z " /><path fill="rgb(2,101,159)" stroke="rgb(2,101,159)" stroke-width="1" opacity="0.48627450980392156" d="M 426.5 83 L 429 83.5 L 426.5 84 L 426.5 83 Z " /><path fill="rgb(2,101,159)" stroke="rgb(2,101,159)" stroke-width="1" opacity="0.48627450980392156" d="M 591.5 83 L 592 95 L 580 94.5 L 591 94 L 591.5 83 Z " /><path fill="rgb(2,101,159)" stroke="rgb(2,101,159)" stroke-width="1" opacity="0.48627450980392156" d="M 607.5 83 L 608 94 L 625 94.5 L 607 95 L 607.5 83 Z " /><path fill="rgb(2,101,159)" stroke="rgb(2,101,159)" stroke-width="1" opacity="0.48627450980392156" d="M 431.5 84 L 434 84.5 L 431.5 85 L 431.5 84 Z " /><path fill="rgb(2,101,159)" stroke="rgb(2,101,159)" stroke-width="1" opacity="0.48627450980392156" d="M 710.5 85 L 711 149.5 L 712.5 151 L 718 151.5 L 712.5 152 L 710 149.5 L 710.5 85 Z " /><path fill="rgb(2,101,159)" stroke="rgb(2,101,159)" stroke-width="1" opacity="0.48627450980392156" d="M 282.5 86 L 281.5 88 L 282.5 86 Z " /><path fill="rgb(2,101,159)" stroke="rgb(2,101,159)" stroke-width="1" opacity="0.48627450980392156" d="M 394.5 86 L 393.5 88 L 394.5 86 Z " /><path fill="rgb(2,101,159)" stroke="rgb(2,101,159)" stroke-width="1" opacity="0.48627450980392156" d="M 279.5 88 L 274.5 94 L 279.5 88 Z " /><path fill="rgb(2,101,159)" stroke="rgb(2,101,159)" stroke-width="1" opacity="0.48627450980392156" d="M 391.5 88 L 387.5 93 L 391.5 88 Z " /><path fill="rgb(2,101,159)" stroke="rgb(2,101,159)" stroke-width="1" opacity="0.48627450980392156" d="M 323.5 89 L 324 101.5 L 323 101.5 L 323.5 89 Z " /><path fill="rgb(2,101,159)" stroke="rgb(2,101,159)" stroke-width="1" opacity="0.48627450980392156" d="M 102.5 92 L 110 92.5 L 102.5 93 L 102.5 92 Z " /><path fill="rgb(2,101,159)" stroke="rgb(2,101,159)" stroke-width="1" opacity="0.48627450980392156" d="M 232.5 93 L 240 93.5 L 232.5 94 L 232.5 93 Z " /><path fill="rgb(2,101,159)" stroke="rgb(2,101,159)" stroke-width="1" opacity="0.48627450980392156" d="M 560.5 93 L 564 93.5 L 560.5 94 L 560.5 93 Z " /><path fill="rgb(2,101,159)" stroke="rgb(2,101,159)" stroke-width="1" opacity="0.48627450980392156" d="M 652.5 93 L 662 93.5 L 652.5 94 L 652.5 93 Z " /><path fill="rgb(2,101,159)" stroke="rgb(2,101,159)" stroke-width="1" opacity="0.48627450980392156" d="M 435.5 94 L 436 105.5 L 434.5 107 L 423.5 107 L 423.5 106 L 435 106 L 435.5 94 Z " /><path fill="rgb(2,101,159)" stroke="rgb(2,101,159)" stroke-width="1" opacity="0.48627450980392156" d="M 441.5 94 L 469.5 94 L 471 95.5 L 470.5 105 L 470 95 L 441 95 L 441 104.5 L 440 104.5 L 440 95.5 L 441.5 94 Z " /><path fill="rgb(2,101,159)" stroke="rgb(2,101,159)" stroke-width="1" opacity="0.48627450980392156" d="M 481.5 94 L 509 94.5 L 481.5 95 L 481.5 94 Z " /><path fill="rgb(2,101,159)" stroke="rgb(2,101,159)" stroke-width="1" opacity="0.48627450980392156" d="M 553.5 94 L 556 94.5 L 553.5 95 L 553.5 94 Z " /><path fill="rgb(2,101,159)" stroke="rgb(2,101,159)" stroke-width="1" opacity="0.48627450980392156" d="M 230.5 95 L 229.5 97 L 230.5 95 Z " /><path fill="rgb(2,101,159)" stroke="rgb(2,101,159)" stroke-width="1" opacity="0.48627450980392156" d="M 297.5 95 L 310 95.5 L 297.5 96 L 297.5 95 Z " /><path fill="rgb(2,101,159)" stroke="rgb(2,101,159)" stroke-width="1" opacity="0.48627450980392156" d="M 409.5 95 L 413 95.5 L 409.5 96 L 409.5 95 Z " /><path fill="rgb(2,101,159)" stroke="rgb(2,101,159)" stroke-width="1" opacity="0.48627450980392156" d="M 417.5 95 L 422 95.5 L 417.5 96 L 417.5 95 Z " /><path fill="rgb(2,101,159)" stroke="rgb(2,101,159)" stroke-width="1" opacity="0.48627450980392156" d="M 535.5 95 L 536.5 97 L 535.5 95 Z " /><path fill="rgb(2,101,159)" stroke="rgb(2,101,159)" stroke-width="1" opacity="0.48627450980392156" d="M 572.5 96 L 574.5 99 L 572.5 96 Z " /><path fill="rgb(2,101,159)" stroke="rgb(2,101,159)" stroke-width="1" opacity="0.48627450980392156" d="M 403.5 97 L 402.5 99 L 403.5 97 Z " /><path fill="rgb(2,101,159)" stroke="rgb(2,101,159)" stroke-width="1" opacity="0.48627450980392156" d="M 215.5 99 L 214.5 101 L 215.5 99 Z " /><path fill="rgb(2,101,159)" stroke="rgb(2,101,159)" stroke-width="1" opacity="0.48627450980392156" d="M 537.5 99 L 538.5 102 L 540 101.5 L 537 103 L 537.5 99 Z " /><path fill="rgb(2,101,159)" stroke="rgb(2,101,159)" stroke-width="1" opacity="0.48627450980392156" d="M 271.5 100 L 272 102.5 L 271 102.5 L 271.5 100 Z " /><path fill="rgb(2,101,159)" stroke="rgb(2,101,159)" stroke-width="1" opacity="0.48627450980392156" d="M 636.5 100 L 634.5 103 L 636.5 100 Z " /><path fill="rgb(2,101,159)" stroke="rgb(2,101,159)" stroke-width="1" opacity="0.48627450980392156" d="M 257.5 101 L 261.5 106 L 257.5 101 Z " /><path fill="rgb(2,101,159)" stroke="rgb(2,101,159)" stroke-width="1" opacity="0.48627450980392156" d="M 383.5 101 L 384 109.5 L 383 109.5 L 383.5 101 Z " /><path fill="rgb(2,101,159)" stroke="rgb(2,101,159)" stroke-width="1" opacity="0.48627450980392156" d="M 287.5 102 L 288 105.5 L 287 105.5 L 287.5 102 Z " /><path fill="rgb(2,101,159)" stroke="rgb(2,101,159)" stroke-width="1" opacity="0.48627450980392156" d="M 399.5 102 L 400 104.5 L 399 104.5 L 399.5 102 Z " /><path fill="rgb(2,101,159)" stroke="rgb(2,101,159)" stroke-width="1" opacity="0.48627450980392156" d="M 577.5 105 L 578 148.5 L 577 148.5 L 577.5 105 Z " /><path fill="rgb(2,101,159)" stroke="rgb(2,101,159)" stroke-width="1" opacity="0.48627450980392156" d="M 654.5 105 L 659 105.5 L 654.5 106 L 654.5 105 Z " /><path fill="rgb(2,101,159)" stroke="rgb(2,101,159)" stroke-width="1" opacity="0.48627450980392156" d="M 220.5 106 L 221 108.5 L 220 108.5 L 220.5 106 Z " /><path fill="rgb(2,101,159)" stroke="rgb(2,101,159)" stroke-width="1" opacity="0.48627450980392156" d="M 225.5 106 L 226 108.5 L 225 108.5 L 225.5 106 Z " /><path fill="rgb(2,101,159)" stroke="rgb(2,101,159)" stroke-width="1" opacity="0.48627450980392156" d="M 311.5 106 L 320 106.5 L 311.5 107 L 311.5 106 Z " /><path fill="rgb(2,101,159)" stroke="rgb(2,101,159)" stroke-width="1" opacity="0.48627450980392156" d="M 591.5 107 L 592 144.5 L 591 144.5 L 591.5 107 Z " /><path fill="rgb(2,101,159)" stroke="rgb(2,101,159)" stroke-width="1" opacity="0.48627450980392156" d="M 607.5 107 L 608 141.5 L 607 141.5 L 607.5 107 Z " /><path fill="rgb(2,101,159)" stroke="rgb(2,101,159)" stroke-width="1" opacity="0.48627450980392156" d="M 167.5 108 L 168 144.5 L 167 144.5 L 167.5 108 Z " /><path fill="rgb(2,101,159)" stroke="rgb(2,101,159)" stroke-width="1" opacity="0.48627450980392156" d="M 183.5 108 L 184 141.5 L 183 141.5 L 183.5 108 Z " /><path fill="rgb(2,101,159)" stroke="rgb(2,101,159)" stroke-width="1" opacity="0.48627450980392156" d="M 263.5 108 L 264.5 110 L 263.5 108 Z " /><path fill="rgb(2,101,159)" stroke="rgb(2,101,159)" stroke-width="1" opacity="0.48627450980392156" d="M 271.5 108 L 272 110.5 L 271 110.5 L 271.5 108 Z " /><path fill="rgb(2,101,159)" stroke="rgb(2,101,159)" stroke-width="1" opacity="0.48627450980392156" d="M 545.5 108 L 549 108.5 L 545.5 109 L 545.5 108 Z " /><path fill="rgb(2,101,159)" stroke="rgb(2,101,159)" stroke-width="1" opacity="0.48627450980392156" d="M 403.5 109 L 404.5 111 L 403.5 109 Z " /><path fill="rgb(2,101,159)" stroke="rgb(2,101,159)" stroke-width="1" opacity="0.48627450980392156" d="M 558.5 109 L 559.5 111 L 558.5 109 Z " /><path fill="rgb(2,101,159)" stroke="rgb(2,101,159)" stroke-width="1" opacity="0.48627450980392156" d="M 246.5 110 L 250.5 115 L 246.5 110 Z " /><path fill="rgb(2,101,159)" stroke="rgb(2,101,159)" stroke-width="1" opacity="0.48627450980392156" d="M 239.5 111 L 240 116.5 L 239 116.5 L 239.5 111 Z " /><path fill="rgb(2,101,159)" stroke="rgb(2,101,159)" stroke-width="1" opacity="0.48627450980392156" d="M 560.5 112 L 561 114.5 L 560 114.5 L 560.5 112 Z " /><path fill="rgb(2,101,159)" stroke="rgb(2,101,159)" stroke-width="1" opacity="0.48627450980392156" d="M 668.5 116 L 669 118.5 L 668 118.5 L 668.5 116 Z " /><path fill="rgb(2,101,159)" stroke="rgb(2,101,159)" stroke-width="1" opacity="0.48627450980392156" d="M 275.5 118 L 277.5 121 L 275.5 118 Z " /><path fill="rgb(2,101,159)" stroke="rgb(2,101,159)" stroke-width="1" opacity="0.48627450980392156" d="M 642.5 118 L 643 120 L 669 120.5 L 643.5 121 L 642.5 118 Z " /><path fill="rgb(2,101,159)" stroke="rgb(2,101,159)" stroke-width="1" opacity="0.48627450980392156" d="M 684.5 118 L 685 122.5 L 684 122.5 L 684.5 118 Z " /><path fill="rgb(2,101,159)" stroke="rgb(2,101,159)" stroke-width="1" opacity="0.48627450980392156" d="M 225.5 119 L 226 121.5 L 225 121.5 L 225.5 119 Z " /><path fill="rgb(2,101,159)" stroke="rgb(2,101,159)" stroke-width="1" opacity="0.48627450980392156" d="M 314.5 119 L 317 120.5 L 315.5 120 L 314.5 119 Z " /><path fill="rgb(2,101,159)" stroke="rgb(2,101,159)" stroke-width="1" opacity="0.48627450980392156" d="M 391.5 121 L 392.5 123 L 391.5 121 Z " /><path fill="rgb(2,101,159)" stroke="rgb(2,101,159)" stroke-width="1" opacity="0.48627450980392156" d="M 254.5 122 L 255 124.5 L 254 124.5 L 254.5 122 Z " /><path fill="rgb(2,101,159)" stroke="rgb(2,101,159)" stroke-width="1" opacity="0.48627450980392156" d="M 320.5 122 L 324.5 127 L 320.5 122 Z " /><path fill="rgb(2,101,159)" stroke="rgb(2,101,159)" stroke-width="1" opacity="0.48627450980392156" d="M 269.5 123 L 270 132.5 L 269 132.5 L 269.5 123 Z " /><path fill="rgb(2,101,159)" stroke="rgb(2,101,159)" stroke-width="1" opacity="0.48627450980392156" d="M 625.5 123 L 626 132.5 L 625 132.5 L 625.5 123 Z " /><path fill="rgb(2,101,159)" stroke="rgb(2,101,159)" stroke-width="1" opacity="0.48627450980392156" d="M 215.5 124 L 216 131.5 L 215 131.5 L 215.5 124 Z " /><path fill="rgb(2,101,159)" stroke="rgb(2,101,159)" stroke-width="1" opacity="0.48627450980392156" d="M 113.5 128 L 134 128.5 L 113.5 129 L 113.5 128 Z " /><path fill="rgb(2,101,159)" stroke="rgb(2,101,159)" stroke-width="1" opacity="0.48627450980392156" d="M 229.5 131 L 230.5 133 L 229.5 131 Z " /><path fill="rgb(2,101,159)" stroke="rgb(2,101,159)" stroke-width="1" opacity="0.48627450980392156" d="M 254.5 131 L 255 133.5 L 254 133.5 L 254.5 131 Z " /><path fill="rgb(2,101,159)" stroke="rgb(2,101,159)" stroke-width="1" opacity="0.48627450980392156" d="M 419.5 133 L 420.5 135 L 419.5 133 Z " /><path fill="rgb(2,101,159)" stroke="rgb(2,101,159)" stroke-width="1" opacity="0.48627450980392156" d="M 231.5 134 L 233.5 137 L 231.5 134 Z " /><path fill="rgb(2,101,159)" stroke="rgb(2,101,159)" stroke-width="1" opacity="0.48627450980392156" d="M 308.5 134 L 310.5 137 L 308.5 134 Z " /><path fill="rgb(2,101,159)" stroke="rgb(2,101,159)" stroke-width="1" opacity="0.48627450980392156" d="M 642.5 134 L 643 136.5 L 642 136.5 L 642.5 134 Z " /><path fill="rgb(2,101,159)" stroke="rgb(2,101,159)" stroke-width="1" opacity="0.48627450980392156" d="M 423.5 138 L 424 141.5 L 423 141.5 L 423.5 138 Z " /><path fill="rgb(2,101,159)" stroke="rgb(2,101,159)" stroke-width="1" opacity="0.48627450980392156" d="M 218.5 139 L 219.5 141 L 218.5 139 Z " /><path fill="rgb(2,101,159)" stroke="rgb(2,101,159)" stroke-width="1" opacity="0.48627450980392156" d="M 236.5 139 L 238.5 142 L 236.5 139 Z " /><path fill="rgb(2,101,159)" stroke="rgb(2,101,159)" stroke-width="1" opacity="0.48627450980392156" d="M 108.5 140 L 137.5 140 L 139 141.5 L 137.5 141 L 108.5 141 L 108.5 140 Z " /><path fill="rgb(2,101,159)" stroke="rgb(2,101,159)" stroke-width="1" opacity="0.48627450980392156" d="M 240.5 142 L 241.5 144 L 240.5 142 Z " /><path fill="rgb(2,101,159)" stroke="rgb(2,101,159)" stroke-width="1" opacity="0.48627450980392156" d="M 273.5 143 L 276 143.5 L 273.5 144 L 273.5 143 Z " /><path fill="rgb(2,101,159)" stroke="rgb(2,101,159)" stroke-width="1" opacity="0.48627450980392156" d="M 422.5 143 L 420.5 146 L 422.5 143 Z " /><path fill="rgb(2,101,159)" stroke="rgb(2,101,159)" stroke-width="1" opacity="0.48627450980392156" d="M 645.5 143 L 648.5 147 L 645.5 143 Z " /><path fill="rgb(2,101,159)" stroke="rgb(2,101,159)" stroke-width="1" opacity="0.48627450980392156" d="M 676.5 143 L 683 143.5 L 676.5 144 L 676.5 143 Z " /><path fill="rgb(2,101,159)" stroke="rgb(2,101,159)" stroke-width="1" opacity="0.48627450980392156" d="M 628.5 144 L 626.5 147 L 628.5 144 Z " /><path fill="rgb(2,101,159)" stroke="rgb(2,101,159)" stroke-width="1" opacity="0.48627450980392156" d="M 203.5 145 L 202.5 147 L 203.5 145 Z " /><path fill="rgb(2,101,159)" stroke="rgb(2,101,159)" stroke-width="1" opacity="0.48627450980392156" d="M 224.5 145 L 225.5 147 L 224.5 145 Z " /><path fill="rgb(2,101,159)" stroke="rgb(2,101,159)" stroke-width="1" opacity="0.48627450980392156" d="M 245.5 145 L 244.5 147 L 245.5 145 Z " /><path fill="rgb(2,101,159)" stroke="rgb(2,101,159)" stroke-width="1" opacity="0.48627450980392156" d="M 200.5 147 L 199.5 149 L 198 148.5 L 200.5 147 Z " /><path fill="rgb(2,101,159)" stroke="rgb(2,101,159)" stroke-width="1" opacity="0.48627450980392156" d="M 263.5 147 L 262.5 149 L 263.5 147 Z " /><path fill="rgb(2,101,159)" stroke="rgb(2,101,159)" stroke-width="1" opacity="0.48627450980392156" d="M 288.5 147 L 291 147.5 L 288.5 148 L 288.5 147 Z " /><path fill="rgb(2,101,159)" stroke="rgb(2,101,159)" stroke-width="1" opacity="0.48627450980392156" d="M 400.5 147 L 403 147.5 L 400.5 148 L 400.5 147 Z " /><path fill="rgb(2,101,159)" stroke="rgb(2,101,159)" stroke-width="1" opacity="0.48627450980392156" d="M 624.5 147 L 623.5 149 L 622 148.5 L 624.5 147 Z " /><path fill="rgb(2,101,159)" stroke="rgb(2,101,159)" stroke-width="1" opacity="0.48627450980392156" d="M 230.5 148 L 233 148.5 L 230.5 149 L 230.5 148 Z " /><path fill="rgb(2,101,159)" stroke="rgb(2,101,159)" stroke-width="1" opacity="0.48627450980392156" d="M 190.5 149 L 197 149.5 L 190.5 150 L 190.5 149 Z " /><path fill="rgb(2,101,159)" stroke="rgb(2,101,159)" stroke-width="1" opacity="0.48627450980392156" d="M 614.5 149 L 621 149.5 L 614.5 150 L 614.5 149 Z " /><path fill="rgb(2,101,159)" stroke="rgb(2,101,159)" stroke-width="1" opacity="0.48627450980392156" d="M 324.5 150 L 323.5 152 L 324.5 150 Z " /><path fill="rgb(2,101,159)" stroke="rgb(2,101,159)" stroke-width="1" opacity="0.48627450980392156" d="M 514.5 151 L 519 151.5 L 514 152 L 513.5 161 L 513 152.5 L 514.5 151 Z " /><path fill="rgb(2,101,159)" stroke="rgb(2,101,159)" stroke-width="1" opacity="0.48627450980392156" d="M 538.5 151 Q 544.5 149.5 546 152.5 L 545.5 161 L 545 152 L 538.5 152 L 538.5 151 Z " /><path fill="rgb(2,101,159)" stroke="rgb(2,101,159)" stroke-width="1" opacity="0.48627450980392156" d="M 553.5 151 L 561 151.5 L 553.5 152 L 553.5 151 Z " /><path fill="rgb(2,101,159)" stroke="rgb(2,101,159)" stroke-width="1" opacity="0.48627450980392156" d="M 580.5 151 Q 584.3 150.3 585 152.5 L 584.5 161 L 584 152 Q 579.6 153 580.5 151 Z " /><path fill="rgb(2,101,159)" stroke="rgb(2,101,159)" stroke-width="1" opacity="0.48627450980392156" d="M 687.5 151 L 692 151.5 L 687.5 152 L 687.5 151 Z " /><path fill="rgb(2,101,159)" stroke="rgb(2,101,159)" stroke-width="1" opacity="0.48627450980392156" d="M 210.5 153 L 207.5 157 L 210.5 153 Z " /><path fill="rgb(2,101,159)" stroke="rgb(2,101,159)" stroke-width="1" opacity="0.48627450980392156" d="M 212.5 153 L 214.5 156 L 212.5 153 Z " /><path fill="rgb(2,101,159)" stroke="rgb(2,101,159)" stroke-width="1" opacity="0.48627450980392156" d="M 553.5 153 L 554 158.5 L 553 158.5 L 553.5 153 Z " /><path fill="rgb(2,101,159)" stroke="rgb(2,101,159)" stroke-width="1" opacity="0.48627450980392156" d="M 171.5 154 L 174.5 158 L 171.5 154 Z " /><path fill="rgb(2,101,159)" stroke="rgb(2,101,159)" stroke-width="1" opacity="0.48627450980392156" d="M 320.5 154 L 318.5 157 L 320.5 154 Z " /><path fill="rgb(2,101,159)" stroke="rgb(2,101,159)" stroke-width="1" opacity="0.48627450980392156" d="M 595.5 154 L 598.5 158 L 595.5 154 Z " /><path fill="rgb(2,101,159)" stroke="rgb(2,101,159)" stroke-width="1" opacity="0.48627450980392156" d="M 633.5 154 L 631.5 157 L 633.5 154 Z " /><path fill="rgb(2,101,159)" stroke="rgb(2,101,159)" stroke-width="1" opacity="0.48627450980392156" d="M 635.5 154 L 637.5 157 L 635.5 154 Z " /><path fill="rgb(2,101,159)" stroke="rgb(2,101,159)" stroke-width="1" opacity="0.48627450980392156" d="M 255.5 155 L 254.5 157 L 255.5 155 Z " /><path fill="rgb(2,101,159)" stroke="rgb(2,101,159)" stroke-width="1" opacity="0.48627450980392156" d="M 431.5 155 L 430.5 157 L 431.5 155 Z " /><path fill="rgb(2,101,159)" stroke="rgb(2,101,159)" stroke-width="1" opacity="0.48627450980392156" d="M 681.5 155 L 680.5 157 L 681.5 155 Z " /><path fill="rgb(2,101,159)" stroke="rgb(2,101,159)" stroke-width="1" opacity="0.48627450980392156" d="M 216.5 156 L 217.5 158 L 216.5 156 Z " /><path fill="rgb(2,101,159)" stroke="rgb(2,101,159)" stroke-width="1" opacity="0.48627450980392156" d="M 176.5 158 L 177.5 160 L 176.5 158 Z " /><path fill="rgb(2,101,159)" stroke="rgb(2,101,159)" stroke-width="1" opacity="0.48627450980392156" d="M 465.5 158 L 461.5 163 L 465.5 158 Z " /><path fill="rgb(2,101,159)" stroke="rgb(2,101,159)" stroke-width="1" opacity="0.48627450980392156" d="M 600.5 158 L 601.5 160 L 600.5 158 Z " /><path fill="rgb(2,101,159)" stroke="rgb(2,101,159)" stroke-width="1" opacity="0.48627450980392156" d="M 195.5 161 L 198 161.5 L 195.5 162 L 195.5 161 Z " /><path fill="rgb(2,101,159)" stroke="rgb(2,101,159)" stroke-width="1" opacity="0.48627450980392156" d="M 285.5 161 L 288 161.5 L 285.5 162 L 285.5 161 Z " /><path fill="rgb(2,101,159)" stroke="rgb(2,101,159)" stroke-width="1" opacity="0.48627450980392156" d="M 303.5 161 L 306 161.5 L 303.5 162 L 303.5 161 Z " /><path fill="rgb(2,101,159)" stroke="rgb(2,101,159)" stroke-width="1" opacity="0.48627450980392156" d="M 397.5 161 L 401 161.5 L 397.5 162 L 397.5 161 Z " /><path fill="rgb(2,101,159)" stroke="rgb(2,101,159)" stroke-width="1" opacity="0.48627450980392156" d="M 415.5 161 L 418 161.5 L 415.5 162 L 415.5 161 Z " /><path fill="rgb(2,101,159)" stroke="rgb(2,101,159)" stroke-width="1" opacity="0.48627450980392156" d="M 606.5 161 L 609 161.5 L 606.5 162 L 606.5 161 Z " /><path fill="rgb(2,101,159)" stroke="rgb(2,101,159)" stroke-width="1" opacity="0.48627450980392156" d="M 619.5 161 L 622 161.5 L 619.5 162 L 619.5 161 Z " /><path fill="rgb(2,101,159)" stroke="rgb(2,101,159)" stroke-width="1" opacity="0.48627450980392156" d="M 665.5 161 L 668 161.5 L 665.5 162 L 665.5 161 Z " /><path fill="rgb(2,101,159)" stroke="rgb(2,101,159)" stroke-width="1" opacity="0.48627450980392156" d="M 459.5 163 L 458.5 165 L 459.5 163 Z " /><path fill="rgb(2,101,159)" stroke="rgb(2,101,159)" stroke-width="1" opacity="0.48627450980392156" d="M 476.5 164 L 475.5 166 L 476.5 164 Z " /><path fill="rgb(2,101,159)" stroke="rgb(2,101,159)" stroke-width="1" opacity="0.48627450980392156" d="M 474.5 167 L 472.5 170 L 474.5 167 Z " /><path fill="rgb(2,101,159)" stroke="rgb(2,101,159)" stroke-width="1" opacity="0.48627450980392156" d="M 468.5 173 L 466.5 176 L 468.5 173 Z " /><path fill="rgb(2,101,159)" stroke="rgb(2,101,159)" stroke-width="1" opacity="0.48627450980392156" d="M 464.5 176 L 463.5 178 L 451 177.5 L 463.5 177 L 464.5 176 Z " /><path fill="rgb(0,0,0)" stroke="rgb(0,0,0)" stroke-width="1" opacity="1" d="M 354.5 67 L 355 177.5 L 353 176.5 L 353 68.5 L 354.5 67 Z " /><path fill="rgb(0,0,1)" stroke="rgb(0,0,1)" stroke-width="1" opacity="0.00784313725490196" d="M 352 64 L 360 64 L 360 71.5 L 360.5 72 L 799.5 72 L 800 72.5 L 800 80 L 392.5 80 L 392 80.5 L 392 88 L 384 88 L 384 96 L 376 96 L 376 112 L 384 112 L 384 128 L 400 128 L 400 136 L 384 136 L 384 144 L 376 144 L 376 160 L 384 160 L 384 167.5 L 384.5 168 L 448 168 L 448 184 L 352 184 L 352 64 Z M 355 67 L 353 69 L 353 177 L 355 178 L 355 67 Z " /><path fill="rgb(77,78,77)" stroke="rgb(77,78,77)" stroke-width="1" opacity="0" d="M 80 144 L 83 144.5 L 82 145.5 L 82 166.5 L 82.5 168 L 80 167.5 L 80 144 Z " /><path fill="rgb(77,78,77)" stroke="rgb(77,78,77)" stroke-width="1" opacity="0" d="M 718 144 L 720 144.5 L 720 168 L 718 167.5 L 718 144 Z " /><path fill="rgb(77,78,77)" stroke="rgb(77,78,77)" stroke-width="1" opacity="0" d="M 448 178 L 471.5 178 L 472 178.5 L 472 184 L 448.5 184 L 448 183.5 L 448 178 Z " /></svg>