<svg width="540" height="150" version="1.1" xmlns="http://www.w3.org/2000/svg" desc="Created with imagetracer.js version 1.2.6" ><path fill="rgb(65,142,177)" stroke="rgb(65,142,177)" stroke-width="1" opacity="0.03137254901960784" d="M 79 24 L 95.5 24 L 96 26 L 90.5 28 L 57.5 29 L 57.5 28 Q 71.3 29.7 79 25.5 L 79 24 Z " /><path fill="rgb(65,142,177)" stroke="rgb(65,142,177)" stroke-width="1" opacity="0.03137254901960784" d="M 78.5 50 L 80 50.5 L 80 56 L 88 56 L 88 64 L 74.5 64 L 73 62.5 Q 73.8 60.3 71.5 61 L 70 61.5 L 74 60 L 73 57.5 L 78.5 50 Z " /><path fill="rgb(65,142,177)" stroke="rgb(65,142,177)" stroke-width="1" opacity="0.03137254901960784" d="M 111 72 Q 119 72.2 124 76.5 L 123 80 L 119.5 81 L 122 77.5 Q 122.8 75.3 120.5 76 L 113.5 81 L 112 79.5 L 111 72 Z " /><path fill="rgb(65,142,177)" stroke="rgb(65,142,177)" stroke-width="1" opacity="0.03137254901960784" d="M 62.5 74 L 64 74 L 64.5 78 L 79.5 78 L 80.5 80 L 96 80 L 96 88 L 88 88 L 88 96 L 81.5 96 L 81 97.5 L 79.5 101 L 68 84 Q 65.3 85.1 66 82.5 L 61 75.5 L 62.5 74 Z M 75 89 L 75 90 L 78 90 L 75 89 Z " /><path fill="rgb(65,142,177)" stroke="rgb(65,142,177)" stroke-width="1" opacity="0.03137254901960784" d="M 132 80 L 136 80 L 136 88.5 L 134.5 88 L 132 86.5 L 133 83.5 L 132 80 Z " /><path fill="rgb(65,142,177)" stroke="rgb(65,142,177)" stroke-width="1" opacity="0.03137254901960784" d="M 118.5 82 L 117.5 84 L 118.5 82 Z " /><path fill="rgb(65,142,177)" stroke="rgb(65,142,177)" stroke-width="1" opacity="0.03137254901960784" d="M 116.5 85 L 115.5 87 L 116.5 85 Z " /><path fill="rgb(65,142,177)" stroke="rgb(65,142,177)" stroke-width="1" opacity="0.03137254901960784" d="M 32.5 103 Q 38.6 107.7 40 115 Q 42.7 113.9 42 116.5 L 45 120.5 L 41.5 121 L 36.5 120 L 32 116.5 L 32.5 103 Z " /><path fill="rgb(254,254,254)" stroke="rgb(254,254,254)" stroke-width="1" opacity="0" d="M 0 0 L 539.5 0 L 540 0.5 L 540 29 L 538 29.5 L 540 30 Q 541.1 33.3 537 32 L 536.5 28 L 536 32 L 339.5 32 L 336.5 31 L 333.5 32 L 332.5 31 L 112 31 L 110.5 28 Q 100.8 29.1 96 27 L 95.5 24 L 40 24 Q 41 27.8 38.5 29 L 35.5 29 L 29 33.5 L 29 41.5 L 26 48 Q 22.7 46.7 24 51.5 L 20.5 56 L 16 56 L 16 63.5 L 15 66.5 L 16 70.5 L 14.5 72 L 8 72 L 8 80 L 12.5 80 L 12 81.5 L 11 94.5 L 19 98 L 22.5 104 L 30 108.5 Q 31.5 112.9 28.5 112 Q 25.8 113.3 27 118.5 Q 27.8 120.8 31.5 120 L 34.5 123 L 37.5 123 L 40 122 L 40 127.5 L 40.5 128 L 95.5 128 L 96 129.5 L 97.5 131 L 108.5 131 L 112.5 129 L 240.5 129 L 241.5 128 L 536 128 L 536 121.5 L 537 120.5 L 537 48 L 540 48.5 L 540 119.5 L 539 121.5 L 540 122.5 L 540 150 L 0.5 150 L 0 149.5 L 0 0 Z " /><path fill="rgb(0,0,71)" stroke="rgb(0,0,71)" stroke-width="1" opacity="0.6470588235294118" d="M 346.5 35 L 344.5 38 L 346.5 35 Z " /><path fill="rgb(0,0,71)" stroke="rgb(0,0,71)" stroke-width="1" opacity="0.6470588235294118" d="M 350.5 35 L 354 37.5 L 353.5 40 L 351.5 36 L 350.5 35 Z " /><path fill="rgb(0,0,71)" stroke="rgb(0,0,71)" stroke-width="1" opacity="0.6470588235294118" d="M 529.5 35 Q 536 34 537 38.5 Q 537.6 43.6 534.5 45 L 531.5 46 L 527 43.5 L 526 38.5 L 527 36 L 529.5 35 Z M 530 36 L 530 37 L 533 37 L 530 36 Z M 529 37 L 527 40 L 528 43 L 529 43 L 529 37 Z M 534 37 L 534 39 L 533 41 L 531 40 L 531 42 Q 532 44 530 43 L 530 44 L 534 44 L 532 43 L 534 42 L 535 43 Q 536 36 534 37 Z " /><path fill="rgb(0,0,71)" stroke="rgb(0,0,71)" stroke-width="1" opacity="0.6470588235294118" d="M 507.5 39 L 508 84.5 L 507 84.5 L 507.5 39 Z " /><path fill="rgb(0,0,71)" stroke="rgb(0,0,71)" stroke-width="1" opacity="0.6470588235294118" d="M 353.5 41 L 354 42.5 L 351 44.5 L 353.5 41 Z " /><path fill="rgb(0,0,71)" stroke="rgb(0,0,71)" stroke-width="1" opacity="0.6470588235294118" d="M 159.5 50 L 164 50.5 L 159.5 51 L 159.5 50 Z " /><path fill="rgb(0,0,71)" stroke="rgb(0,0,71)" stroke-width="1" opacity="0.6470588235294118" d="M 209.5 50 L 215 50.5 L 209.5 51 L 209.5 50 Z " /><path fill="rgb(0,0,71)" stroke="rgb(0,0,71)" stroke-width="1" opacity="0.6470588235294118" d="M 261.5 50 L 267 50.5 L 261.5 51 L 261.5 50 Z " /><path fill="rgb(0,0,71)" stroke="rgb(0,0,71)" stroke-width="1" opacity="0.6470588235294118" d="M 314.5 50 L 320 50.5 L 314.5 51 L 314.5 50 Z " /><path fill="rgb(0,0,71)" stroke="rgb(0,0,71)" stroke-width="1" opacity="0.6470588235294118" d="M 424.5 50 L 430 50.5 L 424.5 51 L 424.5 50 Z " /><path fill="rgb(0,0,71)" stroke="rgb(0,0,71)" stroke-width="1" opacity="0.6470588235294118" d="M 477.5 50 L 483 50.5 L 477.5 51 L 477.5 50 Z " /><path fill="rgb(0,0,71)" stroke="rgb(0,0,71)" stroke-width="1" opacity="0.6470588235294118" d="M 256.5 51 L 259 51.5 L 256.5 52 L 256.5 51 Z " /><path fill="rgb(0,0,71)" stroke="rgb(0,0,71)" stroke-width="1" opacity="0.6470588235294118" d="M 269.5 51 L 272 51.5 L 269.5 52 L 269.5 51 Z " /><path fill="rgb(0,0,71)" stroke="rgb(0,0,71)" stroke-width="1" opacity="0.6470588235294118" d="M 281.5 51 L 288 51.5 L 281 52 L 281 57 L 279.5 57 L 277.5 54 L 280 55.5 Q 279.3 51.8 281.5 51 Z " /><path fill="rgb(0,0,71)" stroke="rgb(0,0,71)" stroke-width="1" opacity="0.6470588235294118" d="M 296.5 51 Q 302.5 49.5 304 52.5 L 305 54.5 L 303 55 L 303 52 L 296 52 L 296 96.5 L 296.5 97 L 303 97 L 303.5 68 L 304 96.5 Q 302.5 99.5 296.5 98 L 295 96.5 L 295 52.5 L 296.5 51 Z " /><path fill="rgb(0,0,71)" stroke="rgb(0,0,71)" stroke-width="1" opacity="0.6470588235294118" d="M 345.5 51 Q 351.5 49.5 353 52.5 L 353 97.5 L 352.5 98 L 345.5 98 L 345.5 97 Q 351.8 97.8 352 96.5 L 352 52 L 345.5 52 L 345.5 51 Z " /><path fill="rgb(0,0,71)" stroke="rgb(0,0,71)" stroke-width="1" opacity="0.6470588235294118" d="M 361.5 51 L 399 51.5 L 361 52 L 361 58.5 L 361.5 59 L 386.5 59 L 389 59.5 Q 387.8 62.3 386.5 60 L 361.5 60 L 360 58.5 Q 358.5 52.5 361.5 51 Z " /><path fill="rgb(0,0,71)" stroke="rgb(0,0,71)" stroke-width="1" opacity="0.6470588235294118" d="M 419.5 51 L 422 51.5 L 419.5 52 L 419.5 51 Z " /><path fill="rgb(0,0,71)" stroke="rgb(0,0,71)" stroke-width="1" opacity="0.6470588235294118" d="M 444.5 51 L 451 51.5 L 444 52 L 444 57 L 442.5 57 L 440.5 54 L 443 55.5 Q 442.3 51.8 444.5 51 Z " /><path fill="rgb(0,0,71)" stroke="rgb(0,0,71)" stroke-width="1" opacity="0.6470588235294118" d="M 459.5 51 Q 465.5 49.5 467 52.5 L 468 54.5 L 466 55 L 466 52 L 459 52 L 459 96.5 L 459.5 97 L 466 97 L 466.5 68 L 467 96.5 Q 465.5 99.5 459.5 98 L 458 96.5 L 458 52.5 L 459.5 51 Z " /><path fill="rgb(0,0,71)" stroke="rgb(0,0,71)" stroke-width="1" opacity="0.6470588235294118" d="M 515.5 51 L 525.5 51 L 527 52.5 Q 528.5 58.5 525.5 60 L 515 59.5 L 526 59 L 526 52 L 515.5 52 L 515.5 51 Z " /><path fill="rgb(0,0,71)" stroke="rgb(0,0,71)" stroke-width="1" opacity="0.6470588235294118" d="M 151.5 52 L 153 52.5 L 148.5 55 L 149.5 53 L 151.5 52 Z " /><path fill="rgb(0,0,71)" stroke="rgb(0,0,71)" stroke-width="1" opacity="0.6470588235294118" d="M 170.5 52 L 173 53.5 L 171.5 53 L 170.5 52 Z " /><path fill="rgb(0,0,71)" stroke="rgb(0,0,71)" stroke-width="1" opacity="0.6470588235294118" d="M 307.5 52 L 309 52.5 L 306.5 54 L 307.5 52 Z " /><path fill="rgb(0,0,71)" stroke="rgb(0,0,71)" stroke-width="1" opacity="0.6470588235294118" d="M 470.5 52 L 472 52.5 L 469.5 54 L 470.5 52 Z " /><path fill="rgb(0,0,71)" stroke="rgb(0,0,71)" stroke-width="1" opacity="0.6470588235294118" d="M 200.5 53 L 199.5 55 L 200.5 53 Z " /><path fill="rgb(0,0,71)" stroke="rgb(0,0,71)" stroke-width="1" opacity="0.6470588235294118" d="M 398.5 53 L 399 59.5 L 396 61.5 L 398 59.5 L 398.5 53 Z " /><path fill="rgb(0,0,71)" stroke="rgb(0,0,71)" stroke-width="1" opacity="0.6470588235294118" d="M 225.5 54 L 226.5 56 L 225.5 54 Z " /><path fill="rgb(0,0,71)" stroke="rgb(0,0,71)" stroke-width="1" opacity="0.6470588235294118" d="M 250.5 54 L 248.5 57 L 250.5 54 Z " /><path fill="rgb(0,0,71)" stroke="rgb(0,0,71)" stroke-width="1" opacity="0.6470588235294118" d="M 413.5 54 L 407.5 61 L 413.5 54 Z " /><path fill="rgb(0,0,71)" stroke="rgb(0,0,71)" stroke-width="1" opacity="0.6470588235294118" d="M 146.5 55 L 142.5 60 L 146.5 55 Z " /><path fill="rgb(0,0,71)" stroke="rgb(0,0,71)" stroke-width="1" opacity="0.6470588235294118" d="M 197.5 55 L 192.5 61 L 197.5 55 Z " /><path fill="rgb(0,0,71)" stroke="rgb(0,0,71)" stroke-width="1" opacity="0.6470588235294118" d="M 330.5 55 L 333.5 59 L 330.5 55 Z " /><path fill="rgb(0,0,71)" stroke="rgb(0,0,71)" stroke-width="1" opacity="0.6470588235294118" d="M 493.5 55 L 496.5 59 L 493.5 55 Z " /><path fill="rgb(0,0,71)" stroke="rgb(0,0,71)" stroke-width="1" opacity="0.6470588235294118" d="M 177.5 56 L 179.5 59 L 177.5 56 Z " /><path fill="rgb(0,0,71)" stroke="rgb(0,0,71)" stroke-width="1" opacity="0.6470588235294118" d="M 157.5 58 L 166 58.5 L 157.5 59 L 157.5 58 Z " /><path fill="rgb(0,0,71)" stroke="rgb(0,0,71)" stroke-width="1" opacity="0.6470588235294118" d="M 208.5 58 L 216 58.5 L 208.5 59 L 208.5 58 Z " /><path fill="rgb(0,0,71)" stroke="rgb(0,0,71)" stroke-width="1" opacity="0.6470588235294118" d="M 246.5 58 L 244.5 61 L 246.5 58 Z " /><path fill="rgb(0,0,71)" stroke="rgb(0,0,71)" stroke-width="1" opacity="0.6470588235294118" d="M 260.5 58 L 268 58.5 L 260.5 59 L 260.5 58 Z " /><path fill="rgb(0,0,71)" stroke="rgb(0,0,71)" stroke-width="1" opacity="0.6470588235294118" d="M 313.5 58 L 321 58.5 L 313.5 59 L 313.5 58 Z " /><path fill="rgb(0,0,71)" stroke="rgb(0,0,71)" stroke-width="1" opacity="0.6470588235294118" d="M 423.5 58 L 431 58.5 L 423.5 59 L 423.5 58 Z " /><path fill="rgb(0,0,71)" stroke="rgb(0,0,71)" stroke-width="1" opacity="0.6470588235294118" d="M 476.5 58 L 484 58.5 L 476.5 59 L 476.5 58 Z " /><path fill="rgb(0,0,71)" stroke="rgb(0,0,71)" stroke-width="1" opacity="0.6470588235294118" d="M 154.5 59 L 156 59.5 L 153.5 61 L 154.5 59 Z " /><path fill="rgb(0,0,71)" stroke="rgb(0,0,71)" stroke-width="1" opacity="0.6470588235294118" d="M 230.5 59 L 232.5 62 L 230.5 59 Z " /><path fill="rgb(0,0,71)" stroke="rgb(0,0,71)" stroke-width="1" opacity="0.6470588235294118" d="M 310.5 59 L 312 59.5 L 308.5 62 L 310.5 59 Z " /><path fill="rgb(0,0,71)" stroke="rgb(0,0,71)" stroke-width="1" opacity="0.6470588235294118" d="M 203.5 60 L 198.5 66 L 203.5 60 Z " /><path fill="rgb(0,0,71)" stroke="rgb(0,0,71)" stroke-width="1" opacity="0.6470588235294118" d="M 220.5 60 L 221.5 62 L 220.5 60 Z " /><path fill="rgb(0,0,71)" stroke="rgb(0,0,71)" stroke-width="1" opacity="0.6470588235294118" d="M 255.5 60 L 254.5 62 L 255.5 60 Z " /><path fill="rgb(0,0,71)" stroke="rgb(0,0,71)" stroke-width="1" opacity="0.6470588235294118" d="M 272.5 60 L 273.5 62 L 272.5 60 Z " /><path fill="rgb(0,0,71)" stroke="rgb(0,0,71)" stroke-width="1" opacity="0.6470588235294118" d="M 324.5 60 L 327.5 64 L 324.5 60 Z " /><path fill="rgb(0,0,71)" stroke="rgb(0,0,71)" stroke-width="1" opacity="0.6470588235294118" d="M 334.5 60 L 337 64.5 L 336 64.5 L 334.5 60 Z " /><path fill="rgb(0,0,71)" stroke="rgb(0,0,71)" stroke-width="1" opacity="0.6470588235294118" d="M 418.5 60 L 417.5 62 L 418.5 60 Z " /><path fill="rgb(0,0,71)" stroke="rgb(0,0,71)" stroke-width="1" opacity="0.6470588235294118" d="M 435.5 60 L 436.5 62 L 435.5 60 Z " /><path fill="rgb(0,0,71)" stroke="rgb(0,0,71)" stroke-width="1" opacity="0.6470588235294118" d="M 472.5 60 L 471.5 62 L 472.5 60 Z " /><path fill="rgb(0,0,71)" stroke="rgb(0,0,71)" stroke-width="1" opacity="0.6470588235294118" d="M 487.5 60 L 490.5 64 L 487.5 60 Z " /><path fill="rgb(0,0,71)" stroke="rgb(0,0,71)" stroke-width="1" opacity="0.6470588235294118" d="M 497.5 60 L 498.5 62 L 497.5 60 Z " /><path fill="rgb(0,0,71)" stroke="rgb(0,0,71)" stroke-width="1" opacity="0.6470588235294118" d="M 141.5 61 L 140.5 63 L 141.5 61 Z " /><path fill="rgb(0,0,71)" stroke="rgb(0,0,71)" stroke-width="1" opacity="0.6470588235294118" d="M 151.5 61 L 148.5 65 L 151.5 61 Z " /><path fill="rgb(0,0,71)" stroke="rgb(0,0,71)" stroke-width="1" opacity="0.6470588235294118" d="M 171.5 61 L 174.5 65 L 171.5 61 Z " /><path fill="rgb(0,0,71)" stroke="rgb(0,0,71)" stroke-width="1" opacity="0.6470588235294118" d="M 243.5 62 L 242.5 64 L 243.5 62 Z " /><path fill="rgb(0,0,71)" stroke="rgb(0,0,71)" stroke-width="1" opacity="0.6470588235294118" d="M 406.5 62 L 406 63.5 L 404.5 67 L 404 65.5 L 406.5 62 Z " /><path fill="rgb(0,0,71)" stroke="rgb(0,0,71)" stroke-width="1" opacity="0.6470588235294118" d="M 182.5 63 L 184 65.5 L 183 65.5 L 182.5 63 Z " /><path fill="rgb(0,0,71)" stroke="rgb(0,0,71)" stroke-width="1" opacity="0.6470588235294118" d="M 469.5 63 L 468.5 65 L 469.5 63 Z " /><path fill="rgb(0,0,71)" stroke="rgb(0,0,71)" stroke-width="1" opacity="0.6470588235294118" d="M 276.5 64 L 277.5 66 L 276.5 64 Z " /><path fill="rgb(0,0,71)" stroke="rgb(0,0,71)" stroke-width="1" opacity="0.6470588235294118" d="M 439.5 64 L 440.5 66 L 439.5 64 Z " /><path fill="rgb(0,0,71)" stroke="rgb(0,0,71)" stroke-width="1" opacity="0.6470588235294118" d="M 225.5 65 L 226.5 67 L 225.5 65 Z " /><path fill="rgb(0,0,71)" stroke="rgb(0,0,71)" stroke-width="1" opacity="0.6470588235294118" d="M 250.5 65 L 250 66.5 L 248.5 70 L 248 68.5 L 250.5 65 Z " /><path fill="rgb(0,0,71)" stroke="rgb(0,0,71)" stroke-width="1" opacity="0.6470588235294118" d="M 328.5 65 L 330 67.5 L 329 67.5 L 328.5 65 Z " /><path fill="rgb(0,0,71)" stroke="rgb(0,0,71)" stroke-width="1" opacity="0.6470588235294118" d="M 383.5 65 L 374.5 75 L 383.5 65 Z " /><path fill="rgb(0,0,71)" stroke="rgb(0,0,71)" stroke-width="1" opacity="0.6470588235294118" d="M 413.5 65 L 413 66.5 L 412.5 68 L 412 66.5 L 413.5 65 Z " /><path fill="rgb(0,0,71)" stroke="rgb(0,0,71)" stroke-width="1" opacity="0.6470588235294118" d="M 491.5 65 L 493 67.5 L 492 67.5 L 491.5 65 Z " /><path fill="rgb(0,0,71)" stroke="rgb(0,0,71)" stroke-width="1" opacity="0.6470588235294118" d="M 147.5 66 L 147 67.5 L 146.5 69 L 146 67.5 L 147.5 66 Z " /><path fill="rgb(0,0,71)" stroke="rgb(0,0,71)" stroke-width="1" opacity="0.6470588235294118" d="M 175.5 66 L 184 67.5 L 176.5 68 L 175.5 66 Z " /><path fill="rgb(0,0,71)" stroke="rgb(0,0,71)" stroke-width="1" opacity="0.6470588235294118" d="M 337.5 66 L 338 69.5 L 337 69.5 L 337.5 66 Z " /><path fill="rgb(0,0,71)" stroke="rgb(0,0,71)" stroke-width="1" opacity="0.6470588235294118" d="M 500.5 66 L 501 68.5 L 500 68.5 L 500.5 66 Z " /><path fill="rgb(0,0,71)" stroke="rgb(0,0,71)" stroke-width="1" opacity="0.6470588235294118" d="M 391.5 67 L 383.5 76 L 391.5 67 Z " /><path fill="rgb(0,0,71)" stroke="rgb(0,0,71)" stroke-width="1" opacity="0.6470588235294118" d="M 240.5 68 L 241 70.5 L 240 70.5 L 240.5 68 Z " /><path fill="rgb(0,0,71)" stroke="rgb(0,0,71)" stroke-width="1" opacity="0.6470588235294118" d="M 403.5 68 L 404 70.5 L 403 70.5 L 403.5 68 Z " /><path fill="rgb(0,0,71)" stroke="rgb(0,0,71)" stroke-width="1" opacity="0.6470588235294118" d="M 188.5 69 L 189 72.5 L 188 72.5 L 188.5 69 Z " /><path fill="rgb(0,0,71)" stroke="rgb(0,0,71)" stroke-width="1" opacity="0.6470588235294118" d="M 137.5 70 L 138 78.5 L 137 78.5 L 137.5 70 Z " /><path fill="rgb(0,0,71)" stroke="rgb(0,0,71)" stroke-width="1" opacity="0.6470588235294118" d="M 330.5 70 L 331 97 L 338 97.5 L 330 98 L 330.5 70 Z " /><path fill="rgb(0,0,71)" stroke="rgb(0,0,71)" stroke-width="1" opacity="0.6470588235294118" d="M 493.5 70 L 494 97 L 501 97.5 L 493 98 L 493.5 70 Z " /><path fill="rgb(0,0,71)" stroke="rgb(0,0,71)" stroke-width="1" opacity="0.6470588235294118" d="M 228.5 71 L 229 77.5 L 228 77.5 L 228.5 71 Z " /><path fill="rgb(0,0,71)" stroke="rgb(0,0,71)" stroke-width="1" opacity="0.6470588235294118" d="M 247.5 72 L 248 77.5 L 247 77.5 L 247.5 72 Z " /><path fill="rgb(0,0,71)" stroke="rgb(0,0,71)" stroke-width="1" opacity="0.6470588235294118" d="M 280.5 72 L 281 76.5 L 280 76.5 L 280.5 72 Z " /><path fill="rgb(0,0,71)" stroke="rgb(0,0,71)" stroke-width="1" opacity="0.6470588235294118" d="M 410.5 72 L 411 76.5 L 410 76.5 L 410.5 72 Z " /><path fill="rgb(0,0,71)" stroke="rgb(0,0,71)" stroke-width="1" opacity="0.6470588235294118" d="M 443.5 72 L 444 76.5 L 443 76.5 L 443.5 72 Z " /><path fill="rgb(0,0,71)" stroke="rgb(0,0,71)" stroke-width="1" opacity="0.6470588235294118" d="M 15.5 73 L 14.5 75 L 15.5 73 Z " /><path fill="rgb(0,0,71)" stroke="rgb(0,0,71)" stroke-width="1" opacity="0.6470588235294118" d="M 195.5 73 L 196 75.5 L 195 75.5 L 195.5 73 Z " /><path fill="rgb(0,0,71)" stroke="rgb(0,0,71)" stroke-width="1" opacity="0.6470588235294118" d="M 188.5 76 L 189 79.5 L 188 79.5 L 188.5 76 Z " /><path fill="rgb(0,0,71)" stroke="rgb(0,0,71)" stroke-width="1" opacity="0.6470588235294118" d="M 145.5 77 L 146 79.5 L 145 79.5 L 145.5 77 Z " /><path fill="rgb(0,0,71)" stroke="rgb(0,0,71)" stroke-width="1" opacity="0.6470588235294118" d="M 240.5 78 L 241 80.5 L 240 80.5 L 240.5 78 Z " /><path fill="rgb(0,0,71)" stroke="rgb(0,0,71)" stroke-width="1" opacity="0.6470588235294118" d="M 403.5 78 L 404 80.5 L 403 80.5 L 403.5 78 Z " /><path fill="rgb(0,0,71)" stroke="rgb(0,0,71)" stroke-width="1" opacity="0.6470588235294118" d="M 370.5 79 L 362.5 88 L 370.5 79 Z " /><path fill="rgb(0,0,71)" stroke="rgb(0,0,71)" stroke-width="1" opacity="0.6470588235294118" d="M 379.5 80 L 371.5 89 L 379.5 80 Z " /><path fill="rgb(0,0,71)" stroke="rgb(0,0,71)" stroke-width="1" opacity="0.6470588235294118" d="M 176.5 81 Q 183.3 79.3 185 82.5 L 183.5 85 L 183 83.5 L 183.5 82 L 176.5 82 L 176.5 81 Z " /><path fill="rgb(0,0,71)" stroke="rgb(0,0,71)" stroke-width="1" opacity="0.6470588235294118" d="M 197.5 81 L 199 83.5 L 197 82.5 L 197.5 81 Z " /><path fill="rgb(0,0,71)" stroke="rgb(0,0,71)" stroke-width="1" opacity="0.6470588235294118" d="M 189.5 82 L 191 85.5 L 190 85.5 L 189.5 82 Z " /><path fill="rgb(0,0,71)" stroke="rgb(0,0,71)" stroke-width="1" opacity="0.6470588235294118" d="M 278.5 82 L 277.5 84 L 278.5 82 Z " /><path fill="rgb(0,0,71)" stroke="rgb(0,0,71)" stroke-width="1" opacity="0.6470588235294118" d="M 147.5 83 L 148.5 85 L 147.5 83 Z " /><path fill="rgb(0,0,71)" stroke="rgb(0,0,71)" stroke-width="1" opacity="0.6470588235294118" d="M 175.5 83 L 170.5 89 L 175.5 83 Z " /><path fill="rgb(0,0,71)" stroke="rgb(0,0,71)" stroke-width="1" opacity="0.6470588235294118" d="M 225.5 84 L 222.5 88 L 225.5 84 Z " /><path fill="rgb(0,0,71)" stroke="rgb(0,0,71)" stroke-width="1" opacity="0.6470588235294118" d="M 515.5 84 L 517 86.5 L 515 85.5 L 515.5 84 Z " /><path fill="rgb(0,0,71)" stroke="rgb(0,0,71)" stroke-width="1" opacity="0.6470588235294118" d="M 199.5 85 L 200.5 87 L 199.5 85 Z " /><path fill="rgb(0,0,71)" stroke="rgb(0,0,71)" stroke-width="1" opacity="0.6470588235294118" d="M 251.5 85 L 253.5 88 L 251.5 85 Z " /><path fill="rgb(0,0,71)" stroke="rgb(0,0,71)" stroke-width="1" opacity="0.6470588235294118" d="M 276.5 85 L 274.5 88 L 276.5 85 Z " /><path fill="rgb(0,0,71)" stroke="rgb(0,0,71)" stroke-width="1" opacity="0.6470588235294118" d="M 414.5 85 L 416.5 88 L 414.5 85 Z " /><path fill="rgb(0,0,71)" stroke="rgb(0,0,71)" stroke-width="1" opacity="0.6470588235294118" d="M 439.5 85 L 437.5 88 L 439.5 85 Z " /><path fill="rgb(0,0,71)" stroke="rgb(0,0,71)" stroke-width="1" opacity="0.6470588235294118" d="M 182.5 86 L 181.5 88 L 182.5 86 Z " /><path fill="rgb(0,0,71)" stroke="rgb(0,0,71)" stroke-width="1" opacity="0.6470588235294118" d="M 151.5 87 L 152.5 89 L 151.5 87 Z " /><path fill="rgb(0,0,71)" stroke="rgb(0,0,71)" stroke-width="1" opacity="0.6470588235294118" d="M 191.5 87 L 193.5 90 L 191.5 87 Z " /><path fill="rgb(0,0,71)" stroke="rgb(0,0,71)" stroke-width="1" opacity="0.6470588235294118" d="M 243.5 87 L 244.5 89 L 243.5 87 Z " /><path fill="rgb(0,0,71)" stroke="rgb(0,0,71)" stroke-width="1" opacity="0.6470588235294118" d="M 406.5 87 L 407.5 89 L 406.5 87 Z " /><path fill="rgb(0,0,71)" stroke="rgb(0,0,71)" stroke-width="1" opacity="0.6470588235294118" d="M 508.5 87 L 515 95.5 L 509 90.5 L 508.5 87 Z " /><path fill="rgb(0,0,71)" stroke="rgb(0,0,71)" stroke-width="1" opacity="0.6470588235294118" d="M 141.5 88 L 147.5 95 L 141.5 88 Z " /><path fill="rgb(0,0,71)" stroke="rgb(0,0,71)" stroke-width="1" opacity="0.6470588235294118" d="M 203.5 88 L 206 89.5 L 204.5 90 L 203.5 88 Z " /><path fill="rgb(0,0,71)" stroke="rgb(0,0,71)" stroke-width="1" opacity="0.6470588235294118" d="M 220.5 88 L 219.5 90 L 220.5 88 Z " /><path fill="rgb(0,0,71)" stroke="rgb(0,0,71)" stroke-width="1" opacity="0.6470588235294118" d="M 255.5 88 L 258 89.5 L 256.5 90 L 255.5 88 Z " /><path fill="rgb(0,0,71)" stroke="rgb(0,0,71)" stroke-width="1" opacity="0.6470588235294118" d="M 272.5 88 L 271.5 90 L 270 89.5 L 272.5 88 Z " /><path fill="rgb(0,0,71)" stroke="rgb(0,0,71)" stroke-width="1" opacity="0.6470588235294118" d="M 418.5 88 L 423 90.5 L 421.5 91 L 418.5 88 Z " /><path fill="rgb(0,0,71)" stroke="rgb(0,0,71)" stroke-width="1" opacity="0.6470588235294118" d="M 435.5 88 L 434.5 90 L 433 89.5 L 435.5 88 Z " /><path fill="rgb(0,0,71)" stroke="rgb(0,0,71)" stroke-width="1" opacity="0.6470588235294118" d="M 518.5 88 L 521 89.5 L 519.5 90 L 518.5 88 Z " /><path fill="rgb(0,0,71)" stroke="rgb(0,0,71)" stroke-width="1" opacity="0.6470588235294118" d="M 180.5 89 L 175.5 95 L 180.5 89 Z " /><path fill="rgb(0,0,71)" stroke="rgb(0,0,71)" stroke-width="1" opacity="0.6470588235294118" d="M 230.5 90 L 227.5 94 L 230.5 90 Z " /><path fill="rgb(0,0,71)" stroke="rgb(0,0,71)" stroke-width="1" opacity="0.6470588235294118" d="M 245.5 90 L 247.5 93 L 245.5 90 Z " /><path fill="rgb(0,0,71)" stroke="rgb(0,0,71)" stroke-width="1" opacity="0.6470588235294118" d="M 360.5 90 L 361 97 L 397.5 97 Q 398.8 96.8 398 90.5 L 399 90.5 L 399 97.5 L 398.5 98 L 360 98 L 360.5 90 Z " /><path fill="rgb(0,0,71)" stroke="rgb(0,0,71)" stroke-width="1" opacity="0.6470588235294118" d="M 371.5 90 L 397 90.5 L 371.5 91 L 371.5 90 Z " /><path fill="rgb(0,0,71)" stroke="rgb(0,0,71)" stroke-width="1" opacity="0.6470588235294118" d="M 522.5 90 L 525 90.5 L 522.5 91 L 522.5 90 Z " /><path fill="rgb(0,0,71)" stroke="rgb(0,0,71)" stroke-width="1" opacity="0.6470588235294118" d="M 526.5 90 L 527 98 L 519 97.5 L 526 97 L 526.5 90 Z " /><path fill="rgb(0,0,71)" stroke="rgb(0,0,71)" stroke-width="1" opacity="0.6470588235294118" d="M 409.5 91 L 410.5 93 L 409.5 91 Z " /><path fill="rgb(0,0,71)" stroke="rgb(0,0,71)" stroke-width="1" opacity="0.6470588235294118" d="M 197.5 93 L 198.5 95 L 197.5 93 Z " /><path fill="rgb(0,0,71)" stroke="rgb(0,0,71)" stroke-width="1" opacity="0.6470588235294118" d="M 280.5 93 L 281 97.5 L 280 97.5 L 280.5 93 Z " /><path fill="rgb(0,0,71)" stroke="rgb(0,0,71)" stroke-width="1" opacity="0.6470588235294118" d="M 443.5 93 L 444 97 L 451 97.5 L 443 98 L 443.5 93 Z " /><path fill="rgb(0,0,71)" stroke="rgb(0,0,71)" stroke-width="1" opacity="0.6470588235294118" d="M 225.5 94 L 224.5 96 L 225.5 94 Z " /><path fill="rgb(0,0,71)" stroke="rgb(0,0,71)" stroke-width="1" opacity="0.6470588235294118" d="M 250.5 94 L 251.5 96 L 250.5 94 Z " /><path fill="rgb(0,0,71)" stroke="rgb(0,0,71)" stroke-width="1" opacity="0.6470588235294118" d="M 277.5 94 L 276.5 96 L 277.5 94 Z " /><path fill="rgb(0,0,71)" stroke="rgb(0,0,71)" stroke-width="1" opacity="0.6470588235294118" d="M 413.5 94 L 414.5 96 L 413.5 94 Z " /><path fill="rgb(0,0,71)" stroke="rgb(0,0,71)" stroke-width="1" opacity="0.6470588235294118" d="M 440.5 94 L 439.5 96 L 440.5 94 Z " /><path fill="rgb(0,0,71)" stroke="rgb(0,0,71)" stroke-width="1" opacity="0.6470588235294118" d="M 200.5 95 L 203 96.5 L 201.5 97 L 200.5 95 Z " /><path fill="rgb(0,0,71)" stroke="rgb(0,0,71)" stroke-width="1" opacity="0.6470588235294118" d="M 156.5 98 L 166 98.5 L 156.5 99 L 156.5 98 Z " /><path fill="rgb(0,0,71)" stroke="rgb(0,0,71)" stroke-width="1" opacity="0.6470588235294118" d="M 207.5 98 L 217 98.5 L 207.5 99 L 207.5 98 Z " /><path fill="rgb(0,0,71)" stroke="rgb(0,0,71)" stroke-width="1" opacity="0.6470588235294118" d="M 259.5 98 L 269 98.5 L 259.5 99 L 259.5 98 Z " /><path fill="rgb(0,0,71)" stroke="rgb(0,0,71)" stroke-width="1" opacity="0.6470588235294118" d="M 422.5 98 L 432 98.5 L 422.5 99 L 422.5 98 Z " /><path fill="rgb(0,0,71)" stroke="rgb(0,0,71)" stroke-width="1" opacity="0.6470588235294118" d="M 287.5 99 L 288 101.5 L 287 101.5 L 287.5 99 Z " /><path fill="rgb(0,0,71)" stroke="rgb(0,0,71)" stroke-width="1" opacity="0.6470588235294118" d="M 241 103 L 249 103.5 L 241.5 105 L 241 103 Z " /><path fill="rgb(0,0,71)" stroke="rgb(0,0,71)" stroke-width="1" opacity="0.6470588235294118" d="M 242.5 106 L 244 108.5 L 242 107.5 L 242.5 106 Z " /><path fill="rgb(0,0,71)" stroke="rgb(0,0,71)" stroke-width="1" opacity="0.6470588235294118" d="M 276.5 106 L 274.5 109 L 276.5 106 Z " /><path fill="rgb(0,0,71)" stroke="rgb(0,0,71)" stroke-width="1" opacity="0.6470588235294118" d="M 284.5 108 L 283.5 110 L 284.5 108 Z " /><path fill="rgb(0,0,71)" stroke="rgb(0,0,71)" stroke-width="1" opacity="0.6470588235294118" d="M 254.5 109 L 255.5 111 L 254.5 109 Z " /><path fill="rgb(0,0,71)" stroke="rgb(0,0,71)" stroke-width="1" opacity="0.6470588235294118" d="M 244.5 110 L 250.5 117 L 244.5 110 Z " /><path fill="rgb(0,0,71)" stroke="rgb(0,0,71)" stroke-width="1" opacity="0.6470588235294118" d="M 260.5 112 L 267 112.5 L 260.5 113 L 260.5 112 Z " /><path fill="rgb(0,0,71)" stroke="rgb(0,0,71)" stroke-width="1" opacity="0.6470588235294118" d="M 281.5 112 L 280.5 114 L 281.5 112 Z " /><path fill="rgb(0,0,71)" stroke="rgb(0,0,71)" stroke-width="1" opacity="0.6470588235294118" d="M 277.5 115 L 276.5 117 L 277.5 115 Z " /><path fill="rgb(0,0,71)" stroke="rgb(0,0,71)" stroke-width="1" opacity="0.6470588235294118" d="M 257.5 119 L 260 119.5 L 257.5 120 L 257.5 119 Z " /><path fill="rgb(0,0,71)" stroke="rgb(0,0,71)" stroke-width="1" opacity="0.6470588235294118" d="M 267.5 119 L 270 119.5 L 267.5 120 L 267.5 119 Z " /><path fill="rgb(118,182,218)" stroke="rgb(118,182,218)" stroke-width="1" opacity="0.054901960784313725" d="M 94.5 26 L 96 26 L 96 31.5 L 96.5 32 L 335.5 32 L 336 32.5 L 336 48 L 144.5 48 L 144 48.5 L 144 56 L 136 56 L 136 64 L 128 64 L 128 72 L 131 72.5 L 128 73 L 128 80 L 123 80 L 124 76.5 L 114.5 72 L 96 72 L 96 64 L 88 64 L 88 56 L 80 56 L 80 50.5 L 81.5 51 L 120 73 L 91.5 30 L 79 28.5 L 90.5 28 L 94.5 26 Z " /><path fill="rgb(118,182,218)" stroke="rgb(118,182,218)" stroke-width="1" opacity="0.054901960784313725" d="M 68.5 86 L 69.5 88 L 68.5 86 Z " /><path fill="rgb(118,182,218)" stroke="rgb(118,182,218)" stroke-width="1" opacity="0.054901960784313725" d="M 74.5 89 L 78 89.5 L 74.5 90 L 74.5 89 Z " /><path fill="rgb(118,182,218)" stroke="rgb(118,182,218)" stroke-width="1" opacity="0.054901960784313725" d="M 71.5 90 L 72.5 92 L 71.5 90 Z " /><path fill="rgb(118,182,218)" stroke="rgb(118,182,218)" stroke-width="1" opacity="0.054901960784313725" d="M 73.5 93 L 74.5 95 L 73.5 93 Z " /><path fill="rgb(118,182,218)" stroke="rgb(118,182,218)" stroke-width="1" opacity="0.054901960784313725" d="M 76.5 97 L 77.5 99 L 76.5 97 Z " /><path fill="rgb(0,0,72)" stroke="rgb(0,0,72)" stroke-width="1" opacity="0.0196078431372549" d="M 352 33 L 527.5 33 L 528 34.5 L 534.5 37 L 534.5 35 L 536.5 38 L 535 37.5 Q 536.3 42.8 533.5 44 Q 529 45 528 42.5 L 527 39.5 L 529 36.5 L 527 36 L 526 41.5 L 528.5 45 L 531.5 46 L 535.5 44 L 536 116.5 L 533.5 120 L 270 119.5 Q 277.6 117.6 282 112.5 L 288 101.5 L 288 51 L 281.5 51 L 280 52.5 L 279.5 56 Q 274 49.5 261.5 50 Q 249.5 52 244 60.5 Q 238 66.5 240 80.5 Q 242.3 88.3 247.5 93 Q 253.8 100.2 268.5 99 L 276.5 96 L 279.5 93 L 280 99.5 Q 278.2 106.7 272.5 110 Q 268.1 113.1 259.5 112 L 251 106.5 L 248.5 103 L 241.5 103 L 241 104.5 L 242 106.5 L 241 106.5 L 239.5 104 L 224.5 102 L 223.5 103 L 211.5 103 L 208.5 102 L 207.5 103 L 195.5 103 L 192.5 102 L 191.5 103 L 179.5 103 L 176.5 102 L 175.5 103 L 163.5 103 L 160.5 102 L 159.5 103 L 151.5 103 L 144 98.5 Q 145.3 93.3 142.5 92 L 140 90.5 L 139 85.5 L 140 85.5 Q 141.6 92.4 147.5 95 L 156.5 99 L 165.5 99 Q 175.9 96.9 181 89.5 L 185 82.5 L 183.5 81 L 176 81 L 169.5 89 Q 165.9 91.9 158.5 91 L 149 85.5 Q 144.8 81.2 145 72.5 Q 146.8 64.9 152.5 61 Q 156.8 57.3 166.5 59 L 175 65.5 L 176.5 68 L 184 68 L 184 64.5 L 177.5 56 Q 171.6 49.9 159.5 50 L 149.5 53 L 142 59.5 L 137.5 70 L 137 65.5 L 140 59.5 Q 137.2 57.7 141.5 56 Q 145.7 57.3 144 52.5 L 148.5 48 L 176.5 48 L 180.5 49 L 181.5 48 L 194.5 48 L 199.5 49 L 200.5 48 L 224.5 48 L 228.5 49 L 229.5 48 L 242.5 48 L 247.5 49 L 248.5 48 L 272.5 48 L 276.5 49 L 277.5 48 L 290.5 48 L 295.5 49 L 296.5 48 L 320.5 48 L 324.5 49 L 325.5 48 L 336 48 L 336 38 L 340.5 38 L 344.5 36 L 344 37.5 L 343 40.5 L 346.5 45 Q 352.8 46.3 354 42.5 L 354 37.5 Q 351.3 36.4 352 33 Z M 529 37 L 529 43 Q 532 44 531 42 L 532 42 Q 531 44 534 43 L 533 42 L 534 39 Q 533 36 529 37 Z M 507 39 L 507 85 L 509 91 Q 512 96 520 98 L 527 98 L 527 90 Q 520 91 517 88 L 515 84 L 515 60 L 526 60 L 527 59 Q 528 52 526 51 L 515 51 L 515 39 L 507 39 Z M 210 50 L 198 55 Q 190 60 188 70 Q 187 81 191 88 Q 197 96 208 99 Q 221 100 228 94 Q 233 89 236 81 Q 238 68 233 62 Q 228 54 220 51 L 210 50 Z M 315 50 L 308 52 L 306 54 Q 303 55 304 53 Q 302 50 297 51 L 295 53 L 295 97 Q 296 99 303 98 L 304 97 L 304 68 L 306 64 L 313 59 Q 320 58 324 60 L 330 69 L 330 98 L 331 98 L 338 98 L 338 67 L 334 59 L 324 51 L 315 50 Z M 425 50 L 414 54 Q 406 59 403 69 Q 401 85 409 92 Q 414 97 423 99 L 432 99 L 440 96 L 443 94 L 443 98 L 451 98 L 451 52 Q 451 50 445 51 L 443 56 Q 437 50 425 50 Z M 478 50 L 471 52 L 469 54 Q 466 55 467 53 Q 466 50 460 51 L 458 53 L 458 97 Q 460 99 466 98 L 467 97 L 467 68 L 470 62 L 476 59 Q 483 58 487 60 L 493 69 L 493 98 L 494 98 L 501 98 L 501 67 L 497 59 L 487 51 L 478 50 Z M 345 51 L 345 98 L 353 98 L 353 98 L 353 53 Q 351 49 345 51 Z M 362 51 Q 359 53 360 59 L 362 60 L 387 60 L 388 60 L 362 88 Q 358 91 360 98 L 399 98 L 399 98 L 399 90 L 371 90 L 399 60 L 399 52 L 399 51 L 362 51 Z " /><path fill="rgb(0,0,72)" stroke="rgb(0,0,72)" stroke-width="1" opacity="0.0196078431372549" d="M 24.5 54 L 25 55.5 L 24.5 57 L 26 57.5 L 16.5 71 L 16 56 L 23.5 56 L 24.5 54 Z " /><path fill="rgb(0,0,72)" stroke="rgb(0,0,72)" stroke-width="1" opacity="0.0196078431372549" d="M 207.5 59 L 217.5 59 L 225 64.5 Q 229.5 69 228 79.5 L 221.5 88 Q 218 92 209.5 91 Q 202.6 89.5 199 84.5 L 196 78.5 L 196 71.5 Q 198.1 63.6 204.5 60 L 207.5 59 Z " /><path fill="rgb(0,0,72)" stroke="rgb(0,0,72)" stroke-width="1" opacity="0.0196078431372549" d="M 258.5 59 Q 271.4 57.1 276 63.5 L 280 70.5 L 280 78.5 L 273.5 88 L 266.5 91 L 261.5 91 Q 253.8 89.2 250 83.5 Q 246.9 79.1 248 70.5 L 253.5 62 L 258.5 59 Z " /><path fill="rgb(0,0,72)" stroke="rgb(0,0,72)" stroke-width="1" opacity="0.0196078431372549" d="M 422.5 59 Q 434.7 57.3 439 63.5 L 443 70.5 L 443 78.5 Q 441.5 85 436.5 88 Q 432.4 91.9 423.5 91 Q 416.8 88.8 413 83.5 Q 409.9 79.1 411 70.5 L 416.5 62 L 422.5 59 Z " /><path fill="rgb(0,0,72)" stroke="rgb(0,0,72)" stroke-width="1" opacity="0.0196078431372549" d="M 13.5 72 L 16 72.5 L 13.5 76 L 13.5 72 Z " /><path fill="rgb(0,0,72)" stroke="rgb(0,0,72)" stroke-width="1" opacity="0.0196078431372549" d="M 242.5 108 L 250 116.5 L 245.5 117 L 242 114.5 L 242.5 108 Z " /><path fill="rgb(0,0,72)" stroke="rgb(0,0,72)" stroke-width="1" opacity="0.0196078431372549" d="M 258.5 120 L 268 120.5 L 258.5 121 L 258.5 120 Z " /><path fill="rgb(2,7,81)" stroke="rgb(2,7,81)" stroke-width="1" opacity="0.9803921568627451" d="M 347.5 35 L 353 37.5 L 354 40.5 L 350.5 45 L 345 44 L 344 38.5 L 347.5 35 Z " /><path fill="rgb(2,7,81)" stroke="rgb(2,7,81)" stroke-width="1" opacity="0.9803921568627451" d="M 532.5 38 L 533 39.5 L 532.5 42 L 530 40.5 L 532 40 L 532.5 38 Z " /><path fill="rgb(2,7,81)" stroke="rgb(2,7,81)" stroke-width="1" opacity="0.9803921568627451" d="M 39.5 39 L 40 40.5 L 39 41.5 L 39 61.5 L 38 63.5 L 39 64.5 L 39 72 L 36 72.5 L 40 73 L 39.5 75 L 15.5 75 L 16 73.5 L 39.5 39 Z " /><path fill="rgb(2,7,81)" stroke="rgb(2,7,81)" stroke-width="1" opacity="0.9803921568627451" d="M 508 39 L 515 39 L 515 52 L 526 52 L 526 59 L 515 59 L 515 85.5 Q 517.3 90.8 524.5 91 L 526 90.5 L 526 97 L 517.5 97 L 510 90.5 L 508 86.5 L 508 39 Z " /><path fill="rgb(2,7,81)" stroke="rgb(2,7,81)" stroke-width="1" opacity="0.9803921568627451" d="M 156.5 51 Q 174.8 49.7 181 60.5 L 184 66.5 L 176.5 67 L 171.5 61 L 165.5 58 L 157.5 58 L 148 64.5 Q 143.5 69 145 79.5 L 152.5 89 L 161.5 92 L 170.5 89 L 176 83.5 L 176.5 82 L 183.5 82 L 183 83.5 Q 180.9 91.4 174.5 95 Q 168.3 99.8 155.5 98 Q 145.8 95.3 141 87.5 Q 136.3 81.6 138 69.5 Q 140.1 59.6 147.5 55 L 156.5 51 Z " /><path fill="rgb(2,7,81)" stroke="rgb(2,7,81)" stroke-width="1" opacity="0.9803921568627451" d="M 207.5 51 L 217.5 51 Q 225.3 53.3 230 58.5 L 236 70.5 L 236 78.5 Q 233.9 88.9 226.5 94 Q 220.5 100 206.5 98 Q 198.8 95.8 194 90.5 L 189 81.5 L 188 73.5 Q 190.2 72.3 189 67.5 L 192 61.5 L 198.5 55 L 207.5 51 Z M 209 58 L 204 60 Q 197 64 195 74 Q 195 81 199 86 L 205 90 L 213 92 L 218 91 L 223 88 Q 227 84 229 78 Q 230 70 227 67 Q 223 57 209 58 Z " /><path fill="rgb(2,7,81)" stroke="rgb(2,7,81)" stroke-width="1" opacity="0.9803921568627451" d="M 259.5 51 L 272.5 52 L 281 57 L 281 52 L 288 52 L 288 98.5 Q 286 109.5 278.5 115 L 271.5 119 L 260.5 120 Q 248.9 118.1 244 109.5 L 242 104 L 249.5 104 L 250 105.5 Q 253.9 113.6 266.5 113 L 277 106.5 Q 281.5 101.8 281 93 L 270.5 98 L 257.5 98 Q 249.5 95.5 245 89.5 Q 239.7 83.3 240 71.5 L 242 64.5 L 247 57 L 259.5 51 Z M 261 58 L 256 60 Q 249 64 247 73 L 247 78 L 251 86 L 257 90 L 264 92 L 275 88 Q 280 84 281 77 L 281 73 L 278 66 Q 274 57 261 58 Z " /><path fill="rgb(2,7,81)" stroke="rgb(2,7,81)" stroke-width="1" opacity="0.9803921568627451" d="M 312.5 51 Q 328.7 49.8 334 59.5 L 338 70.5 L 338 97 L 331.5 97 L 331 96.5 L 331 70.5 Q 329.9 63.1 324.5 60 Q 321.2 56.8 313.5 58 Q 307.4 59.4 305 64.5 L 303 68.5 L 303 97 L 296.5 97 L 296 96.5 L 296 52 L 303 52 Q 301.5 55.8 304.5 55 L 312.5 51 Z " /><path fill="rgb(2,7,81)" stroke="rgb(2,7,81)" stroke-width="1" opacity="0.9803921568627451" d="M 422.5 51 L 435.5 52 L 444 57 L 444 52 L 451 52 L 451 96.5 L 450.5 97 L 444 97 L 444 93 L 442.5 93 Q 436.3 100.3 420.5 98 Q 412.5 95.5 408 89.5 Q 402.7 83.3 403 71.5 Q 405.6 59.6 414.5 54 L 422.5 51 Z M 424 58 L 419 60 Q 412 64 410 73 Q 410 81 414 86 L 422 91 Q 426 90 428 92 L 438 88 Q 443 84 444 77 L 444 73 L 441 66 Q 437 57 424 58 Z " /><path fill="rgb(2,7,81)" stroke="rgb(2,7,81)" stroke-width="1" opacity="0.9803921568627451" d="M 475.5 51 Q 491.7 49.8 497 59.5 L 501 69.5 L 501 97 L 494.5 97 L 494 96.5 L 494 70.5 Q 492.9 63.1 487.5 60 Q 484.2 56.8 476.5 58 L 468 64.5 L 466 68.5 L 466 97 L 459.5 97 L 459 96.5 L 459 52 L 466 52 Q 464.5 55.8 467.5 55 L 475.5 51 Z " /><path fill="rgb(2,7,81)" stroke="rgb(2,7,81)" stroke-width="1" opacity="0.9803921568627451" d="M 345 52 L 351.5 52 L 352 52.5 L 352 97 L 345.5 97 L 345 96.5 L 345 52 Z " /><path fill="rgb(2,7,81)" stroke="rgb(2,7,81)" stroke-width="1" opacity="0.9803921568627451" d="M 361 52 L 399 52.5 Q 396.5 54 398 59.5 L 396 62.5 L 371 88.5 L 371 91 L 396.5 91 L 397.5 90 L 398 97 L 361.5 97 L 361 96.5 L 361 89.5 L 389 59.5 L 361 59 L 361 52 Z " /><path fill="rgb(2,7,81)" stroke="rgb(2,7,81)" stroke-width="1" opacity="0.9803921568627451" d="M 64.5 111 L 60.5 116 L 58 114.5 L 64.5 111 Z " /><path fill="rgb(2,7,81)" stroke="rgb(2,7,81)" stroke-width="1" opacity="0.9803921568627451" d="M 56.5 115 L 57 116.5 L 56.5 119 L 54 119.5 L 60 120.5 L 49.5 121 L 50.5 119 L 56.5 115 Z " /><path fill="rgb(59,71,194)" stroke="rgb(59,71,194)" stroke-width="1" opacity="0.596078431372549" d="M 45.5 29 L 89 29.5 L 45.5 30 L 45.5 29 Z " /><path fill="rgb(59,71,194)" stroke="rgb(59,71,194)" stroke-width="1" opacity="0.596078431372549" d="M 15.5 77 L 16.5 79 L 15.5 77 Z " /><path fill="rgb(59,71,194)" stroke="rgb(59,71,194)" stroke-width="1" opacity="0.596078431372549" d="M 17.5 80 L 18.5 82 L 17.5 80 Z " /><path fill="rgb(59,71,194)" stroke="rgb(59,71,194)" stroke-width="1" opacity="0.596078431372549" d="M 19.5 83 L 20.5 85 L 19.5 83 Z " /><path fill="rgb(59,71,194)" stroke="rgb(59,71,194)" stroke-width="1" opacity="0.596078431372549" d="M 21.5 86 L 22.5 88 L 21.5 86 Z " /><path fill="rgb(59,71,194)" stroke="rgb(59,71,194)" stroke-width="1" opacity="0.596078431372549" d="M 28.5 96 L 29.5 98 L 28.5 96 Z " /><path fill="rgb(59,71,194)" stroke="rgb(59,71,194)" stroke-width="1" opacity="0.596078431372549" d="M 30.5 99 L 31.5 101 L 30.5 99 Z " /><path fill="rgb(59,71,194)" stroke="rgb(59,71,194)" stroke-width="1" opacity="0.596078431372549" d="M 39.5 112 L 40.5 114 L 39.5 112 Z " /><path fill="rgb(69,96,203)" stroke="rgb(69,96,203)" stroke-width="1" opacity="0.050980392156862744" d="M 47.5 28 L 57 28.5 L 47.5 29 L 47.5 28 Z " /><path fill="rgb(69,96,203)" stroke="rgb(69,96,203)" stroke-width="1" opacity="0.050980392156862744" d="M 15.5 78 L 33 102.5 Q 31.5 105.5 25.5 104 L 24 102.5 L 24 96 L 16 96 L 16 79.5 L 15.5 78 Z " /><path fill="rgb(24,67,139)" stroke="rgb(24,67,139)" stroke-width="1" opacity="0.48627450980392156" d="M 44 30 L 46 30.5 L 22.5 63 L 24 60.5 L 44 30 Z " /><path fill="rgb(24,67,139)" stroke="rgb(24,67,139)" stroke-width="1" opacity="0.48627450980392156" d="M 21.5 64 L 20.5 66 L 21.5 64 Z " /><path fill="rgb(24,67,139)" stroke="rgb(24,67,139)" stroke-width="1" opacity="0.48627450980392156" d="M 62.5 72 L 61.5 74 L 62.5 72 Z " /><path fill="rgb(24,67,139)" stroke="rgb(24,67,139)" stroke-width="1" opacity="0.48627450980392156" d="M 93.5 92 L 92.5 94 L 93.5 92 Z " /><path fill="rgb(24,67,139)" stroke="rgb(24,67,139)" stroke-width="1" opacity="0.48627450980392156" d="M 88.5 95 L 87.5 97 L 88.5 95 Z " /><path fill="rgb(24,67,139)" stroke="rgb(24,67,139)" stroke-width="1" opacity="0.48627450980392156" d="M 85.5 97 L 84.5 99 L 82.5 100 L 83.5 98 L 85.5 97 Z " /><path fill="rgb(24,67,139)" stroke="rgb(24,67,139)" stroke-width="1" opacity="0.48627450980392156" d="M 106.5 99 L 105.5 101 L 106.5 99 Z " /><path fill="rgb(24,67,139)" stroke="rgb(24,67,139)" stroke-width="1" opacity="0.48627450980392156" d="M 80.5 100 L 79.5 102 L 80.5 100 Z " /><path fill="rgb(24,67,139)" stroke="rgb(24,67,139)" stroke-width="1" opacity="0.48627450980392156" d="M 104.5 102 L 103.5 104 L 104.5 102 Z " /><path fill="rgb(24,67,139)" stroke="rgb(24,67,139)" stroke-width="1" opacity="0.48627450980392156" d="M 93.5 118 L 92.5 120 L 93.5 118 Z " /><path fill="rgb(3,4,54)" stroke="rgb(3,4,54)" stroke-width="1" opacity="0" d="M 536.5 29 L 537 32 L 540 32.5 L 540 48 L 537 48.5 L 537 120.5 L 536 121.5 L 536 128 L 256.5 128 L 256 127.5 L 256 120 Q 259.3 122.1 267.5 121 L 268.5 120 L 533.5 120 L 535 118.5 L 536 116.5 L 536 43.5 Q 538.3 42.2 537 37.5 Q 535.1 33.3 528 35 L 527.5 33 L 352 33 L 351.5 35 L 349.5 35 L 346.5 35 L 340.5 38 L 336 38 L 336 32.5 L 336.5 32 L 535.5 32 L 536.5 29 Z " /><path fill="rgb(3,4,54)" stroke="rgb(3,4,54)" stroke-width="1" opacity="0" d="M 144 48 L 148 48.5 L 144 51.5 L 144 48 Z " /><path fill="rgb(3,4,54)" stroke="rgb(3,4,54)" stroke-width="1" opacity="0" d="M 177.5 48 L 181 48.5 L 177.5 49 L 177.5 48 Z " /><path fill="rgb(3,4,54)" stroke="rgb(3,4,54)" stroke-width="1" opacity="0" d="M 195.5 48 L 200 48.5 L 195.5 49 L 195.5 48 Z " /><path fill="rgb(3,4,54)" stroke="rgb(3,4,54)" stroke-width="1" opacity="0" d="M 225.5 48 L 229 48.5 L 225.5 49 L 225.5 48 Z " /><path fill="rgb(3,4,54)" stroke="rgb(3,4,54)" stroke-width="1" opacity="0" d="M 243.5 48 L 248 48.5 L 243.5 49 L 243.5 48 Z " /><path fill="rgb(3,4,54)" stroke="rgb(3,4,54)" stroke-width="1" opacity="0" d="M 273.5 48 L 277 48.5 L 273.5 49 L 273.5 48 Z " /><path fill="rgb(3,4,54)" stroke="rgb(3,4,54)" stroke-width="1" opacity="0" d="M 291.5 48 L 296 48.5 L 291.5 49 L 291.5 48 Z " /><path fill="rgb(3,4,54)" stroke="rgb(3,4,54)" stroke-width="1" opacity="0" d="M 321.5 48 L 325 48.5 L 321.5 49 L 321.5 48 Z " /><path fill="rgb(3,4,54)" stroke="rgb(3,4,54)" stroke-width="1" opacity="0" d="M 136 56 L 141 56.5 L 139 60.5 L 137 65.5 L 137 78.5 L 139 88.5 L 141.5 92 L 144 93.5 L 144 96 L 136 96 L 136 72.5 L 135.5 72 L 128 72 L 128 64 L 136 64 L 136 56 Z " /><path fill="rgb(3,4,54)" stroke="rgb(3,4,54)" stroke-width="1" opacity="0" d="M 8 72 L 13 72 L 13 80 L 8 80 L 8 72 Z " /><path fill="rgb(3,4,54)" stroke="rgb(3,4,54)" stroke-width="1" opacity="0" d="M 144.5 99 Q 148.5 104.5 159.5 103 L 162.5 102 L 163.5 103 L 175.5 103 L 178.5 102 L 179.5 103 L 191.5 103 L 194.5 102 L 195.5 103 L 207.5 103 L 210.5 102 L 211.5 103 L 223.5 103 L 226.5 102 L 227.5 103 L 237 103.5 L 144 104 L 144.5 99 Z " /><path fill="rgb(3,4,54)" stroke="rgb(3,4,54)" stroke-width="1" opacity="0" d="M 240.5 105 Q 243.3 107.7 242 114.5 L 243.5 116 L 250.5 117 L 255 119.5 L 240 120 L 240.5 105 Z " /><path fill="rgb(3,4,54)" stroke="rgb(3,4,54)" stroke-width="1" opacity="0" d="M 49 123 Q 53.6 121.8 55 124.5 Q 56.6 130.2 51 128 L 51 125 Q 48 126 49 123 Z " /><path fill="rgb(47,116,137)" stroke="rgb(47,116,137)" stroke-width="1" opacity="0" d="M 40 24 L 78.5 24 L 79 25.5 L 77.5 27 Q 72.8 25.7 71.5 28 L 47.5 28 L 44 30.5 L 25.5 57 L 24 56.5 L 25 54.5 L 24 49.5 L 27.5 48 L 29.5 48 L 32 47.5 L 32 32 L 40 32 L 40 24 Z " /><path fill="rgb(47,116,137)" stroke="rgb(47,116,137)" stroke-width="1" opacity="0" d="M 73.5 58 L 74 60 L 72 59.5 L 73.5 58 Z " /><path fill="rgb(47,116,137)" stroke="rgb(47,116,137)" stroke-width="1" opacity="0" d="M 71.5 61 Q 73.8 60.3 73 62.5 L 74.5 64 L 96 64 L 96 72 L 110.5 72 L 111 75.5 L 113 80.5 L 88 95 L 88 88 L 96 88 L 96 80 L 80.5 80 L 79.5 78 L 64.5 78 L 64 74 L 62.5 74 L 61 74.5 L 71.5 61 Z " /><path fill="rgb(47,116,137)" stroke="rgb(47,116,137)" stroke-width="1" opacity="0" d="M 13.5 76 L 16 79.5 L 14.5 80 L 13 78.5 L 13.5 76 Z " /><path fill="rgb(47,116,137)" stroke="rgb(47,116,137)" stroke-width="1" opacity="0" d="M 120.5 80 L 131.5 80 L 132 82.5 L 133 84.5 L 132 86.5 L 136 89.5 L 136 96 L 144 96 L 144 103.5 L 144.5 104 L 239.5 104 L 240 104.5 L 240 120 L 256 120 L 256 128 L 55.5 128 L 55 124.5 Q 53.6 121.8 49 123 Q 48 126 51 125 L 51 128 L 40 128 L 40 120.5 L 41.5 121 L 91.5 121 L 94 118.5 L 120.5 80 Z " /><path fill="rgb(47,116,137)" stroke="rgb(47,116,137)" stroke-width="1" opacity="0" d="M 81 96 L 87 96.5 L 80 100 L 81 96 Z " /><path fill="rgb(47,116,137)" stroke="rgb(47,116,137)" stroke-width="1" opacity="0" d="M 32.5 117 L 36 119.5 L 32 120 L 32.5 117 Z " /><path fill="rgb(55,133,185)" stroke="rgb(55,133,185)" stroke-width="1" opacity="0.9882352941176471" d="M 46.5 30 L 91.5 30 L 93 31.5 L 121 73.5 L 119.5 73 L 79.5 49 L 60 75.5 L 79.5 102 L 121.5 76 L 120 78.5 L 92 121 L 60.5 121 L 54 119.5 L 57 118.5 L 57 116.5 L 56.5 115 L 48.5 121 L 45 121 L 15 75 L 39.5 75 L 40 73 L 36 72.5 L 39 72 L 38 62.5 L 39 61.5 L 39 41.5 Q 41.1 34.1 46.5 30 Z M 61 113 L 59 114 L 60 116 L 63 114 L 61 113 Z " /><path fill="rgb(241,253,254)" stroke="rgb(241,253,254)" stroke-width="1" opacity="0" d="M 96 27 Q 100.8 29.1 110.5 28 L 112 29.5 L 112.5 31 L 332.5 31 L 332.5 32 L 96.5 32 L 96 27 Z " /><path fill="rgb(241,253,254)" stroke="rgb(241,253,254)" stroke-width="1" opacity="0" d="M 39.5 28 L 40 32 L 33 31.5 L 35.5 29 L 39.5 28 Z " /><path fill="rgb(241,253,254)" stroke="rgb(241,253,254)" stroke-width="1" opacity="0" d="M 336.5 31 L 339 31.5 L 336.5 32 L 336.5 31 Z " /><path fill="rgb(241,253,254)" stroke="rgb(241,253,254)" stroke-width="1" opacity="0" d="M 30.5 32 L 32 32.5 L 32 48 L 26.5 48 L 26 46.5 L 29 41.5 L 29 33.5 L 30.5 32 Z " /><path fill="rgb(241,253,254)" stroke="rgb(241,253,254)" stroke-width="1" opacity="0" d="M 23.5 52 L 24 56 L 21 55.5 L 23.5 52 Z " /><path fill="rgb(241,253,254)" stroke="rgb(241,253,254)" stroke-width="1" opacity="0" d="M 15.5 64 L 16 66.5 L 15 66.5 L 15.5 64 Z " /><path fill="rgb(241,253,254)" stroke="rgb(241,253,254)" stroke-width="1" opacity="0" d="M 131.5 72 L 136 72 L 136 80 L 128 80 L 128 73 L 131.5 72 Z " /><path fill="rgb(241,253,254)" stroke="rgb(241,253,254)" stroke-width="1" opacity="0" d="M 13.5 80 L 16 80.5 L 16 96 L 24 96 L 24 104 L 32 104 L 32 120 L 39.5 120 L 40 122 L 34.5 123 L 31.5 120 Q 27.8 120.8 27 118.5 Q 25.8 113.3 28.5 112 Q 31.5 112.9 30 108.5 L 20 101.5 L 19 98 L 11 94.5 L 12 81.5 L 13.5 80 Z " /><path fill="rgb(241,253,254)" stroke="rgb(241,253,254)" stroke-width="1" opacity="0" d="M 96 128 L 241 128.5 L 112.5 129 Q 107.8 132.8 97.5 131 L 96 128 Z " /></svg>