<svg width="377" height="97" version="1.1" xmlns="http://www.w3.org/2000/svg" desc="Created with imagetracer.js version 1.2.6" ><path fill="rgb(253,253,252)" stroke="rgb(253,253,252)" stroke-width="1" opacity="1" d="M 0 0 L 376.5 0 L 377 0.5 L 377 97 L 0.5 97 L 0 96.5 L 0 0 Z M 4 2 L 4 86 L 6 87 L 36 87 L 37 86 L 47 86 L 58 83 L 71 75 L 78 67 L 83 55 Q 82 50 84 49 L 83 34 L 77 20 Q 68 7 50 3 Q 45 4 44 2 L 4 2 Z M 89 2 L 89 60 Q 91 69 95 76 Q 103 86 119 89 L 136 89 L 141 88 Q 150 86 155 80 L 145 64 Q 146 60 143 61 L 142 65 Q 138 71 130 72 Q 120 72 116 68 Q 110 64 109 57 L 109 2 L 89 2 Z M 185 2 Q 170 5 160 12 L 149 29 L 146 41 L 146 53 L 148 62 L 155 75 Q 162 84 174 88 L 189 91 Q 206 91 216 84 L 220 80 L 220 77 L 206 67 L 200 72 L 193 74 Q 182 74 177 70 L 170 64 L 166 55 Q 167 50 165 49 L 166 48 L 166 39 L 170 30 Q 175 22 186 19 Q 199 18 205 24 L 207 24 L 218 14 Q 220 15 219 13 Q 209 0 185 2 Z M 145 3 L 146 28 L 151 18 Q 156 9 165 6 L 165 3 L 145 3 Z M 214 3 Q 214 6 219 7 L 224 13 L 224 15 L 210 26 L 206 30 L 206 64 L 226 79 L 222 84 L 217 88 L 264 88 L 264 71 L 225 71 L 225 54 L 249 54 L 250 52 L 250 38 L 249 36 L 225 36 L 225 21 L 264 21 L 264 3 L 214 3 Z M 271 3 L 271 88 L 272 88 L 290 88 L 291 29 L 327 87 L 328 88 L 353 88 L 353 4 L 353 3 L 334 3 L 334 61 L 298 5 L 297 3 L 271 3 Z M 359 3 Q 358 5 361 4 L 362 12 L 362 4 L 365 4 L 359 3 Z M 366 3 L 366 12 L 368 12 L 369 8 L 369 11 Q 371 14 372 11 L 372 8 L 371 10 L 369 5 L 366 3 Z M 374 3 L 372 5 L 373 8 L 374 6 L 374 12 L 375 12 L 375 4 L 374 3 Z " /><path fill="rgb(253,253,252)" stroke="rgb(253,253,252)" stroke-width="1" opacity="1" d="M 23 19 L 44.5 20 Q 53.9 22.1 59 28.5 Q 64.5 35 64 47.5 Q 62.3 58.8 54.5 64 Q 43.1 71.4 23 69 L 23 19 Z " /><path fill="rgb(131,133,135)" stroke="rgb(131,133,135)" stroke-width="1" opacity="1" d="M 7.5 2 L 8 4 L 11 4 L 11 6 Q 14.1 5.3 13.5 8 L 32 8 L 32 4 Q 37.3 5.3 36.5 2 L 40.5 2 L 40.5 3 L 37 3.5 L 45.5 4 L 47.5 3 L 52 4 L 52 8 L 53.5 8 L 58.5 6 L 60 10 L 65.5 11 L 67 10.5 L 69 13.5 L 68 15.5 L 71.5 15 L 75 17.5 Q 72.5 19 76 20.5 L 76.5 22 L 78 21.5 Q 74.3 23.3 77.5 25 L 79 24.5 L 78 28 Q 81.3 26.7 80 31.5 L 82 31.5 L 81 34.5 L 81 36.5 L 82 39.5 L 80 39.5 Q 82.8 41.5 82 46 Q 79 45 80 48 L 82 48.5 L 80 52.5 L 83 51.5 L 81 54.5 L 80.5 56 L 82 56.5 Q 78.9 58.3 80.5 60 Q 77.2 58.9 78 61.5 L 76 63.5 L 77.5 66 Q 74.9 65.2 76 68.5 L 74 68.5 L 73.5 71 L 72 70.5 Q 73.1 73.8 70.5 73 L 69 76 L 65.5 78 L 63.5 78 L 62 78.5 L 62.5 80 L 60 78.5 L 61 80.5 L 59.5 80 L 58 80.5 L 58.5 82 L 54.5 80 L 52.5 81 L 50 80 L 48 84 L 39.5 84 L 38.5 85 L 8.5 85 L 7.5 86 L 6.5 84 L 4 85.5 L 5 84.5 L 5 16.5 Q 7.8 14.8 6 8.5 L 5 4 Q 7.8 5 7.5 2 Z M 8 4 L 7 84 L 8 84 L 8 4 Z M 10 12 Q 8 17 12 16 Q 14 11 10 12 Z M 64 12 L 61 13 Q 60 18 64 16 L 64 12 Z M 21 16 L 21 19 Q 24 18 21 16 Z M 45 16 L 43 18 L 24 17 L 21 21 Q 20 25 22 27 L 22 69 L 20 69 L 21 72 L 25 71 L 36 71 L 36 69 L 39 69 L 39 71 L 41 70 L 44 71 L 42 72 L 44 72 L 46 74 L 46 70 L 50 70 L 50 67 Q 53 68 52 66 L 53 66 L 52 72 Q 55 73 54 69 L 54 65 L 56 64 L 57 64 L 56 66 Q 54 67 57 68 Q 62 70 60 65 L 60 63 L 59 60 L 63 56 L 64 57 L 64 55 L 64 53 L 63 51 L 64 50 L 64 39 L 64 37 L 63 32 L 62 32 L 62 31 L 59 29 L 60 27 L 62 28 L 64 31 L 64 30 L 64 28 L 64 24 L 58 24 L 58 26 L 58 27 L 57 26 L 51 22 L 54 21 L 54 20 L 50 20 L 48 16 L 45 16 Z M 20 19 L 16 20 Q 15 23 19 22 L 20 23 L 20 19 Z M 32 72 Q 30 78 36 76 Q 38 70 32 72 Z M 61 76 L 62 78 Q 63 75 61 76 Z " /><path fill="rgb(131,133,135)" stroke="rgb(131,133,135)" stroke-width="1" opacity="1" d="M 108.5 3 L 109 51.5 Q 106.5 53 108 58.5 L 110 62.5 L 110 64 L 112 64 Q 110.9 66.7 113.5 66 L 114.5 69 Q 116.8 68.3 116 70.5 L 116 72.5 Q 114.7 77.3 118 76 L 118.5 71 L 119 73 L 131.5 72 L 132.5 71 L 132 72.5 Q 130.7 77.3 134 76 L 135.5 70 L 136.5 72 L 139 70.5 L 138 68.5 Q 140 64 142 67.5 L 139 68.5 Q 138.5 71.5 145.5 70 L 149 72 L 148 74.5 L 150.5 76 L 152 75.5 L 149.5 81 L 150 79.5 L 148.5 76 L 148 82 L 150 82.5 Q 148.3 84.8 143.5 84 L 137.5 88 L 136.5 86 L 139 85.5 L 133.5 84 Q 131 85.2 132 89 L 122.5 89 L 120 87.5 L 122 87 Q 123.3 83.7 118.5 85 L 116.5 84 L 112.5 85 L 105 83 L 104.5 80 L 102.5 80 L 99 78.5 L 99.5 77 L 97 76.5 L 99.5 76 L 101 76.5 L 102 73 L 97.5 72 L 95 73.5 L 95 71.5 L 94 69.5 L 94.5 68 Q 89.9 69.2 92 64 Q 97.6 65.9 96 61 L 92 61 L 92 59.5 L 91 56.5 L 92 54 L 96 54 L 96 45 L 92 45 L 92 38 L 96 38 L 96 28 Q 90 30 92 24 L 96 23.5 L 96 4 L 107.5 4 L 108.5 3 Z " /><path fill="rgb(131,133,135)" stroke="rgb(131,133,135)" stroke-width="1" opacity="1" d="M 373 3 L 375 3.5 L 375 10.5 L 374 10.5 Q 374.6 5.1 373 3 Z " /><path fill="rgb(131,133,135)" stroke="rgb(131,133,135)" stroke-width="1" opacity="1" d="M 146 4 L 160.5 4 L 164 5.5 L 157 7 L 156.5 9 L 156 6 Q 152.7 4.7 154 9.5 L 153 9.5 L 152.5 8 L 151 13 L 153 13.5 L 151 14 L 152 16.5 L 148.5 18 L 148.5 16 Q 145.1 15.1 147 20.5 L 146 20.5 L 146 4 Z " /><path fill="rgb(131,133,135)" stroke="rgb(131,133,135)" stroke-width="1" opacity="1" d="M 271.5 4 L 272 8 L 276 8 L 276 15.5 L 276.5 16 L 300 16 L 300.5 13 L 301.5 16 L 304 14.5 L 304 16.5 L 304.5 18 L 306 17.5 L 305 18.5 L 309 22.5 L 308 23.5 L 309.5 27 L 310.5 25 L 312 27.5 L 309 28 Q 306.9 33.2 311.5 32 L 317 35.5 L 316 39.5 L 318.5 40 L 320 40 L 320 45 L 324 47 L 324 50.5 L 327 51.5 L 330 56.5 L 330 58.5 L 329 64 Q 333.9 62.4 332 68 L 336 68 Q 337 64.2 334.5 63 L 333 63.5 L 334.5 61 L 335.5 63 L 336 60 Q 332.7 61.3 334 56.5 Q 337.5 55 335 53.5 L 335 16.5 L 334 15.5 L 334 4 L 344 4 L 344 8 L 348 8 Q 346 14 352 12 L 352.5 4 L 353 88 L 328.5 88 L 327 86.5 L 352 85.5 L 327 85 Q 328.7 80.9 324.5 82 L 324.5 81 L 326 80.5 L 324 80 L 323.5 76 L 321.5 76 L 320 75.5 L 320 73.5 L 319 71.5 L 320 70.5 L 320 64 Q 315.4 65.3 314 62.5 L 311 58.5 L 311.5 57 L 309 55.5 L 307.5 52 L 306 52.5 L 307.5 50 L 305 49.5 L 305.5 48 L 302 46.5 Q 302.5 42 299 41.5 L 299 39.5 L 300 37.5 L 297 37 L 295.5 33 L 294 33.5 L 295.5 31 L 292 30.5 Q 294.3 29.3 291.5 28 L 288 29.5 L 289 31.5 L 288 32.5 L 288 79.5 L 287 85 L 278 85 L 278 80 L 272 80 L 272 76.5 L 271 72.5 L 272 71.5 L 272 33.5 L 273.5 32 L 276 31.5 L 276 16 Q 270.4 13.8 272 19.5 L 271 19.5 L 271.5 4 Z M 336 16 L 336 24 L 342 24 L 342 16 L 336 16 Z M 294 27 L 293 29 Q 297 30 296 28 L 294 27 Z M 348 28 Q 350 33 346 32 L 344 34 L 344 47 L 346 48 L 352 48 L 352 29 L 348 28 Z " /><path fill="rgb(131,133,135)" stroke="rgb(131,133,135)" stroke-width="1" opacity="1" d="M 219 5 Q 222 4 221 7 Q 218 8 219 5 Z " /><path fill="rgb(131,133,135)" stroke="rgb(131,133,135)" stroke-width="1" opacity="1" d="M 232 6 L 260 6 L 260 15.5 Q 263.3 14.7 262 20 L 232.5 20 L 232 16 L 230 16 L 230 12 Q 227 13 228 10 L 230 10 L 232 6 Z " /><path fill="rgb(131,133,135)" stroke="rgb(131,133,135)" stroke-width="1" opacity="1" d="M 298.5 6 L 297.5 8 L 298.5 6 Z " /><path fill="rgb(131,133,135)" stroke="rgb(131,133,135)" stroke-width="1" opacity="1" d="M 361.5 6 L 362 11.5 L 361 11.5 L 361.5 6 Z " /><path fill="rgb(131,133,135)" stroke="rgb(131,133,135)" stroke-width="1" opacity="1" d="M 223.5 9 L 222.5 11 L 223.5 9 Z " /><path fill="rgb(131,133,135)" stroke="rgb(131,133,135)" stroke-width="1" opacity="1" d="M 225.5 12 L 228 13.5 L 226.5 16 L 225.5 12 Z " /><path fill="rgb(131,133,135)" stroke="rgb(131,133,135)" stroke-width="1" opacity="1" d="M 224.5 14 L 226 19.5 Q 222.5 21 225 22.5 L 224 24.5 L 224 35.5 L 224.5 37 L 223 37.5 L 248 38 L 247.5 40 L 240 40 L 240 48 L 248 48 L 248 52 L 225.5 52 L 225 53.5 L 224 56.5 L 224 66.5 L 220.5 67 L 217.5 68 L 214.5 67 Q 213.2 69.3 212 66.5 Q 212.8 64.3 210.5 65 L 209 65.5 L 209.5 64 L 207 62.5 L 207.5 61 L 206 60.5 L 206 32.5 L 206 30.5 L 206.5 29 L 208.5 32 L 220 32 L 220 22 L 218 22.5 L 218.5 24 L 216.5 24 L 215 23.5 L 217.5 20 Q 218.8 22.3 220 19.5 L 219.5 18 L 221.5 18 L 224 16.5 L 224.5 14 Z M 208 32 L 207 60 L 208 60 L 208 32 Z M 229 40 Q 227 46 232 44 Q 234 38 229 40 Z " /><path fill="rgb(131,133,135)" stroke="rgb(131,133,135)" stroke-width="1" opacity="1" d="M 312.5 29 L 314 31.5 L 312 30.5 L 312.5 29 Z " /><path fill="rgb(131,133,135)" stroke="rgb(131,133,135)" stroke-width="1" opacity="1" d="M 23.5 69 L 22.5 71 L 23.5 69 Z " /><path fill="rgb(131,133,135)" stroke="rgb(131,133,135)" stroke-width="1" opacity="1" d="M 215.5 69 L 219 69.5 L 216.5 71 L 215.5 69 Z " /><path fill="rgb(131,133,135)" stroke="rgb(131,133,135)" stroke-width="1" opacity="1" d="M 221.5 72 Q 223.8 71.3 223 73.5 L 223.5 75 L 220 73.5 L 221.5 72 Z " /><path fill="rgb(131,133,135)" stroke="rgb(131,133,135)" stroke-width="1" opacity="1" d="M 226 72 L 233 72 L 233.5 76 L 264 76 L 264 85 L 226 84.5 L 230 84 L 227 78.5 L 228 76.5 L 226 76.5 L 226 72 Z M 240 80 L 240 84 L 252 84 L 252 80 L 240 80 Z " /><path fill="rgb(131,133,135)" stroke="rgb(131,133,135)" stroke-width="1" opacity="1" d="M 220 85 Q 222.7 83.9 222 86.5 L 224.5 87 L 226.5 86 L 264 86 L 263.5 88 L 219.5 88 L 220 86.5 L 220 85 Z " /><path fill="rgb(131,133,135)" stroke="rgb(131,133,135)" stroke-width="1" opacity="1" d="M 115.5 86 L 116.5 88 L 115.5 86 Z " /><path fill="rgb(131,133,135)" stroke="rgb(131,133,135)" stroke-width="1" opacity="1" d="M 271.5 87 L 288 87.5 L 271.5 88 L 271.5 87 Z " /><path fill="rgb(160,161,162)" stroke="rgb(160,161,162)" stroke-width="1" opacity="1" d="M 4.5 2 L 5 84.5 L 4 84.5 L 4.5 2 Z " /><path fill="rgb(160,161,162)" stroke="rgb(160,161,162)" stroke-width="1" opacity="1" d="M 41.5 2 L 44 2.5 L 41.5 3 L 41.5 2 Z " /><path fill="rgb(160,161,162)" stroke="rgb(160,161,162)" stroke-width="1" opacity="1" d="M 89 2 L 109 2.5 L 90 3 L 89.5 60 L 89 2 Z " /><path fill="rgb(160,161,162)" stroke="rgb(160,161,162)" stroke-width="1" opacity="1" d="M 145 3 L 164 3.5 L 146 4 L 145.5 23 L 145 3 Z " /><path fill="rgb(160,161,162)" stroke="rgb(160,161,162)" stroke-width="1" opacity="1" d="M 213.5 3 L 264 3 L 264 21 L 225.5 21 L 224.5 22 L 225.5 20 L 263 20 L 263 4 L 215.5 4 L 214.5 5 L 213.5 3 Z " /><path fill="rgb(160,161,162)" stroke="rgb(160,161,162)" stroke-width="1" opacity="1" d="M 271.5 3 L 296.5 3 L 298 4.5 L 296.5 4 L 271.5 4 L 271.5 3 Z " /><path fill="rgb(160,161,162)" stroke="rgb(160,161,162)" stroke-width="1" opacity="1" d="M 334.5 3 L 353 3.5 L 334.5 4 L 334.5 3 Z " /><path fill="rgb(160,161,162)" stroke="rgb(160,161,162)" stroke-width="1" opacity="1" d="M 358.5 3 L 364 3.5 L 358.5 4 L 358.5 3 Z " /><path fill="rgb(160,161,162)" stroke="rgb(160,161,162)" stroke-width="1" opacity="1" d="M 366.5 3 L 367.5 5 L 369 4.5 L 368 5.5 L 369.5 8 L 368 8 L 368 12 L 366 12 L 366.5 3 Z " /><path fill="rgb(160,161,162)" stroke="rgb(160,161,162)" stroke-width="1" opacity="1" d="M 372.5 4 L 373.5 6 Q 370.7 6.7 372.5 4 Z " /><path fill="rgb(160,161,162)" stroke="rgb(160,161,162)" stroke-width="1" opacity="1" d="M 216.5 5 L 217.5 7 L 216.5 5 Z " /><path fill="rgb(160,161,162)" stroke="rgb(160,161,162)" stroke-width="1" opacity="1" d="M 162.5 6 L 161.5 8 L 162.5 6 Z " /><path fill="rgb(160,161,162)" stroke="rgb(160,161,162)" stroke-width="1" opacity="1" d="M 372.5 7 L 371.5 9 L 372.5 7 Z " /><path fill="rgb(160,161,162)" stroke="rgb(160,161,162)" stroke-width="1" opacity="1" d="M 158.5 9 L 152.5 16 L 158.5 9 Z " /><path fill="rgb(160,161,162)" stroke="rgb(160,161,162)" stroke-width="1" opacity="1" d="M 300.5 9 L 301.5 11 L 300.5 9 Z " /><path fill="rgb(160,161,162)" stroke="rgb(160,161,162)" stroke-width="1" opacity="1" d="M 68.5 11 L 69.5 13 L 68.5 11 Z " /><path fill="rgb(160,161,162)" stroke="rgb(160,161,162)" stroke-width="1" opacity="1" d="M 302.5 12 L 303.5 14 L 302.5 12 Z " /><path fill="rgb(160,161,162)" stroke="rgb(160,161,162)" stroke-width="1" opacity="1" d="M 222.5 15 L 220.5 18 L 222.5 15 Z " /><path fill="rgb(160,161,162)" stroke="rgb(160,161,162)" stroke-width="1" opacity="1" d="M 75.5 18 L 76.5 20 L 75.5 18 Z " /><path fill="rgb(160,161,162)" stroke="rgb(160,161,162)" stroke-width="1" opacity="1" d="M 40.5 19 L 43 19.5 L 40.5 20 L 40.5 19 Z " /><path fill="rgb(160,161,162)" stroke="rgb(160,161,162)" stroke-width="1" opacity="1" d="M 216.5 20 L 214.5 23 L 216.5 20 Z " /><path fill="rgb(160,161,162)" stroke="rgb(160,161,162)" stroke-width="1" opacity="1" d="M 271.5 20 L 272 71.5 L 271 71.5 L 271.5 20 Z " /><path fill="rgb(160,161,162)" stroke="rgb(160,161,162)" stroke-width="1" opacity="1" d="M 145.5 24 Q 148.3 25.3 146 26.5 L 145.5 28 L 145.5 24 Z " /><path fill="rgb(160,161,162)" stroke="rgb(160,161,162)" stroke-width="1" opacity="1" d="M 224.5 24 L 225 36 L 248.5 36 L 250 37.5 L 249.5 52 L 249 37 L 225.5 37 L 224 35.5 L 224.5 24 Z " /><path fill="rgb(160,161,162)" stroke="rgb(160,161,162)" stroke-width="1" opacity="1" d="M 209.5 26 L 207.5 29 L 209.5 26 Z " /><path fill="rgb(160,161,162)" stroke="rgb(160,161,162)" stroke-width="1" opacity="1" d="M 290.5 28 L 291.5 30 L 290.5 28 Z " /><path fill="rgb(160,161,162)" stroke="rgb(160,161,162)" stroke-width="1" opacity="1" d="M 312.5 28 L 313.5 30 L 312.5 28 Z " /><path fill="rgb(160,161,162)" stroke="rgb(160,161,162)" stroke-width="1" opacity="1" d="M 59.5 29 L 60.5 31 L 59.5 29 Z " /><path fill="rgb(160,161,162)" stroke="rgb(160,161,162)" stroke-width="1" opacity="1" d="M 292.5 31 L 293.5 33 L 292.5 31 Z " /><path fill="rgb(160,161,162)" stroke="rgb(160,161,162)" stroke-width="1" opacity="1" d="M 82.5 33 L 83 35.5 L 82 35.5 L 82.5 33 Z " /><path fill="rgb(160,161,162)" stroke="rgb(160,161,162)" stroke-width="1" opacity="1" d="M 294.5 34 L 295.5 36 L 294.5 34 Z " /><path fill="rgb(160,161,162)" stroke="rgb(160,161,162)" stroke-width="1" opacity="1" d="M 318.5 38 L 319.5 40 L 318.5 38 Z " /><path fill="rgb(160,161,162)" stroke="rgb(160,161,162)" stroke-width="1" opacity="1" d="M 297.5 39 L 298.5 41 L 297.5 39 Z " /><path fill="rgb(160,161,162)" stroke="rgb(160,161,162)" stroke-width="1" opacity="1" d="M 83.5 40 L 84 48.5 L 83 48.5 L 83.5 40 Z " /><path fill="rgb(160,161,162)" stroke="rgb(160,161,162)" stroke-width="1" opacity="1" d="M 299.5 42 L 300.5 44 L 299.5 42 Z " /><path fill="rgb(160,161,162)" stroke="rgb(160,161,162)" stroke-width="1" opacity="1" d="M 323.5 46 L 324.5 48 L 323.5 46 Z " /><path fill="rgb(160,161,162)" stroke="rgb(160,161,162)" stroke-width="1" opacity="1" d="M 225.5 53 L 249 53.5 L 225.5 54 L 224.5 55 L 225.5 53 Z " /><path fill="rgb(160,161,162)" stroke="rgb(160,161,162)" stroke-width="1" opacity="1" d="M 328.5 54 L 329.5 56 L 328.5 54 Z " /><path fill="rgb(160,161,162)" stroke="rgb(160,161,162)" stroke-width="1" opacity="1" d="M 307.5 55 L 308.5 57 L 307.5 55 Z " /><path fill="rgb(160,161,162)" stroke="rgb(160,161,162)" stroke-width="1" opacity="1" d="M 224.5 56 L 225 70.5 L 224 70.5 L 224.5 56 Z " /><path fill="rgb(160,161,162)" stroke="rgb(160,161,162)" stroke-width="1" opacity="1" d="M 330.5 57 L 331.5 59 L 330.5 57 Z " /><path fill="rgb(160,161,162)" stroke="rgb(160,161,162)" stroke-width="1" opacity="1" d="M 309.5 58 L 310.5 60 L 309.5 58 Z " /><path fill="rgb(160,161,162)" stroke="rgb(160,161,162)" stroke-width="1" opacity="1" d="M 58.5 60 L 55.5 64 L 58.5 60 Z " /><path fill="rgb(160,161,162)" stroke="rgb(160,161,162)" stroke-width="1" opacity="1" d="M 332.5 60 L 333.5 62 L 332.5 60 Z " /><path fill="rgb(160,161,162)" stroke="rgb(160,161,162)" stroke-width="1" opacity="1" d="M 90.5 62 L 91 64.5 L 90 64.5 L 90.5 62 Z " /><path fill="rgb(160,161,162)" stroke="rgb(160,161,162)" stroke-width="1" opacity="1" d="M 111.5 63 L 112.5 65 L 111.5 63 Z " /><path fill="rgb(160,161,162)" stroke="rgb(160,161,162)" stroke-width="1" opacity="1" d="M 206.5 63 L 207.5 65 L 206.5 63 Z " /><path fill="rgb(160,161,162)" stroke="rgb(160,161,162)" stroke-width="1" opacity="1" d="M 312.5 63 L 313.5 65 L 312.5 63 Z " /><path fill="rgb(160,161,162)" stroke="rgb(160,161,162)" stroke-width="1" opacity="1" d="M 77.5 66 L 76.5 68 L 77.5 66 Z " /><path fill="rgb(160,161,162)" stroke="rgb(160,161,162)" stroke-width="1" opacity="1" d="M 41.5 68 L 44 68.5 L 41.5 69 L 41.5 68 Z " /><path fill="rgb(160,161,162)" stroke="rgb(160,161,162)" stroke-width="1" opacity="1" d="M 116.5 68 L 117.5 70 L 116.5 68 Z " /><path fill="rgb(160,161,162)" stroke="rgb(160,161,162)" stroke-width="1" opacity="1" d="M 213.5 68 L 215.5 71 L 213.5 68 Z " /><path fill="rgb(160,161,162)" stroke="rgb(160,161,162)" stroke-width="1" opacity="1" d="M 24.5 69 L 36 69.5 L 24.5 70 L 24.5 69 Z " /><path fill="rgb(160,161,162)" stroke="rgb(160,161,162)" stroke-width="1" opacity="1" d="M 316.5 69 L 317.5 71 L 316.5 69 Z " /><path fill="rgb(160,161,162)" stroke="rgb(160,161,162)" stroke-width="1" opacity="1" d="M 74.5 70 L 70.5 75 L 74.5 70 Z " /><path fill="rgb(160,161,162)" stroke="rgb(160,161,162)" stroke-width="1" opacity="1" d="M 217.5 71 L 218.5 73 L 217.5 71 Z " /><path fill="rgb(160,161,162)" stroke="rgb(160,161,162)" stroke-width="1" opacity="1" d="M 149.5 72 L 150.5 74 L 149.5 72 Z " /><path fill="rgb(160,161,162)" stroke="rgb(160,161,162)" stroke-width="1" opacity="1" d="M 221.5 74 L 222.5 76 L 221.5 74 Z " /><path fill="rgb(160,161,162)" stroke="rgb(160,161,162)" stroke-width="1" opacity="1" d="M 95.5 75 L 101.5 82 L 95.5 75 Z " /><path fill="rgb(160,161,162)" stroke="rgb(160,161,162)" stroke-width="1" opacity="1" d="M 67.5 76 L 66.5 78 L 67.5 76 Z " /><path fill="rgb(160,161,162)" stroke="rgb(160,161,162)" stroke-width="1" opacity="1" d="M 152.5 76 L 154.5 79 L 152.5 76 Z " /><path fill="rgb(160,161,162)" stroke="rgb(160,161,162)" stroke-width="1" opacity="1" d="M 271.5 76 L 272 83.5 L 271 83.5 L 271.5 76 Z " /><path fill="rgb(160,161,162)" stroke="rgb(160,161,162)" stroke-width="1" opacity="1" d="M 64.5 78 L 63.5 80 L 64.5 78 Z " /><path fill="rgb(160,161,162)" stroke="rgb(160,161,162)" stroke-width="1" opacity="1" d="M 322.5 79 L 323.5 81 L 322.5 79 Z " /><path fill="rgb(160,161,162)" stroke="rgb(160,161,162)" stroke-width="1" opacity="1" d="M 153.5 80 L 151.5 83 L 153.5 80 Z " /><path fill="rgb(160,161,162)" stroke="rgb(160,161,162)" stroke-width="1" opacity="1" d="M 224.5 80 L 222.5 83 L 224.5 80 Z " /><path fill="rgb(160,161,162)" stroke="rgb(160,161,162)" stroke-width="1" opacity="1" d="M 44.5 85 L 47 85.5 L 44.5 86 L 44.5 85 Z " /><path fill="rgb(160,161,162)" stroke="rgb(160,161,162)" stroke-width="1" opacity="1" d="M 219.5 85 L 217.5 88 L 219.5 85 Z " /><path fill="rgb(160,161,162)" stroke="rgb(160,161,162)" stroke-width="1" opacity="1" d="M 5.5 86 L 36 86.5 L 5.5 87 L 5.5 86 Z " /><path fill="rgb(160,161,162)" stroke="rgb(160,161,162)" stroke-width="1" opacity="1" d="M 113.5 87 L 116 87.5 L 113.5 88 L 113.5 87 Z " /><path fill="rgb(160,161,162)" stroke="rgb(160,161,162)" stroke-width="1" opacity="1" d="M 138.5 87 L 141 87.5 L 138.5 88 L 138.5 87 Z " /><path fill="rgb(160,161,162)" stroke="rgb(160,161,162)" stroke-width="1" opacity="1" d="M 118.5 88 L 122 88.5 L 118.5 89 L 118.5 88 Z " /><path fill="rgb(160,161,162)" stroke="rgb(160,161,162)" stroke-width="1" opacity="1" d="M 132.5 88 L 136 88.5 L 132.5 89 L 132.5 88 Z " /><path fill="rgb(160,161,162)" stroke="rgb(160,161,162)" stroke-width="1" opacity="1" d="M 188.5 90 L 196 90.5 L 188.5 91 L 188.5 90 Z " /><path fill="rgb(129,131,134)" stroke="rgb(129,131,134)" stroke-width="1" opacity="1" d="M 32.5 2 Q 37.3 0.7 36 4 L 28 3.5 L 32.5 2 Z " /><path fill="rgb(129,131,134)" stroke="rgb(129,131,134)" stroke-width="1" opacity="1" d="M 90.5 3 L 91 7.5 L 90 7.5 L 90.5 3 Z " /><path fill="rgb(129,131,134)" stroke="rgb(129,131,134)" stroke-width="1" opacity="1" d="M 92 4 L 96 4 L 96 16 L 92 16 L 92 4 Z " /><path fill="rgb(129,131,134)" stroke="rgb(129,131,134)" stroke-width="1" opacity="1" d="M 234.5 4 L 262.5 4 L 263 8 Q 258.9 9.3 260 6 L 256.5 6 Q 254.8 3.2 248.5 5 Q 246.8 7.8 240.5 6 Q 239.2 3.7 234.5 5 L 234.5 4 Z " /><path fill="rgb(129,131,134)" stroke="rgb(129,131,134)" stroke-width="1" opacity="1" d="M 280 4 L 288 4 L 288 6.5 L 288.5 8 L 280 8 L 280 4 Z " /><path fill="rgb(129,131,134)" stroke="rgb(129,131,134)" stroke-width="1" opacity="1" d="M 53.5 5 L 56 6.5 L 52.5 8 L 52.5 7 L 54 6.5 L 53.5 5 Z " /><path fill="rgb(129,131,134)" stroke="rgb(129,131,134)" stroke-width="1" opacity="1" d="M 13 6 L 17 7.5 L 13 8 L 13 6 Z " /><path fill="rgb(129,131,134)" stroke="rgb(129,131,134)" stroke-width="1" opacity="1" d="M 20 6 L 31.5 6 L 32 8 L 20.5 8 L 20 6 Z " /><path fill="rgb(129,131,134)" stroke="rgb(129,131,134)" stroke-width="1" opacity="1" d="M 7.5 8 L 8 83.5 L 7 83.5 L 7.5 8 Z " /><path fill="rgb(129,131,134)" stroke="rgb(129,131,134)" stroke-width="1" opacity="1" d="M 60.5 9 L 63 9.5 L 60.5 10 L 60.5 9 Z " /><path fill="rgb(129,131,134)" stroke="rgb(129,131,134)" stroke-width="1" opacity="1" d="M 10 12 Q 13.7 10.8 12 16 Q 8.3 17.2 10 12 Z " /><path fill="rgb(129,131,134)" stroke="rgb(129,131,134)" stroke-width="1" opacity="1" d="M 68.5 12 L 69.5 14 L 68.5 12 Z " /><path fill="rgb(129,131,134)" stroke="rgb(129,131,134)" stroke-width="1" opacity="1" d="M 303.5 15 L 307 19.5 L 304 17.5 L 303.5 15 Z " /><path fill="rgb(129,131,134)" stroke="rgb(129,131,134)" stroke-width="1" opacity="1" d="M 22.5 16 L 22.5 19 Q 19.5 17.5 22.5 16 Z " /><path fill="rgb(129,131,134)" stroke="rgb(129,131,134)" stroke-width="1" opacity="1" d="M 44.5 16 Q 50.2 14.2 48 20.5 L 46.5 20 L 40 18.5 L 44.5 16 Z " /><path fill="rgb(129,131,134)" stroke="rgb(129,131,134)" stroke-width="1" opacity="1" d="M 90.5 16 L 92 23.5 L 91 23.5 L 90.5 16 Z " /><path fill="rgb(129,131,134)" stroke="rgb(129,131,134)" stroke-width="1" opacity="1" d="M 262.5 16 L 263 19.5 L 262 19.5 L 262.5 16 Z " /><path fill="rgb(129,131,134)" stroke="rgb(129,131,134)" stroke-width="1" opacity="1" d="M 24 17 L 37 17.5 Q 36.3 19.8 32.5 19 Q 31.3 16.8 26.5 18 L 24 19 L 24 17 Z " /><path fill="rgb(129,131,134)" stroke="rgb(129,131,134)" stroke-width="1" opacity="1" d="M 74.5 18 L 77 21.5 L 76 21.5 L 74.5 18 Z " /><path fill="rgb(129,131,134)" stroke="rgb(129,131,134)" stroke-width="1" opacity="1" d="M 77 23 L 79 23.5 L 77 24.5 L 77 23 Z " /><path fill="rgb(129,131,134)" stroke="rgb(129,131,134)" stroke-width="1" opacity="1" d="M 60 24 Q 66 22 64 28 Q 58 30 60 24 Z " /><path fill="rgb(129,131,134)" stroke="rgb(129,131,134)" stroke-width="1" opacity="1" d="M 214 24 Q 217.7 22.8 216 28 Q 210.8 29.7 212 26 Q 215 27 214 24 Z " /><path fill="rgb(129,131,134)" stroke="rgb(129,131,134)" stroke-width="1" opacity="1" d="M 308.5 24 L 309.5 26 L 308.5 24 Z " /><path fill="rgb(129,131,134)" stroke="rgb(129,131,134)" stroke-width="1" opacity="1" d="M 309.5 28 L 310 31.5 L 309 31.5 L 309.5 28 Z " /><path fill="rgb(129,131,134)" stroke="rgb(129,131,134)" stroke-width="1" opacity="1" d="M 62.5 29 Q 64.8 28.3 64 30.5 Q 62.5 33.5 61 30.5 L 62.5 29 Z " /><path fill="rgb(129,131,134)" stroke="rgb(129,131,134)" stroke-width="1" opacity="1" d="M 91.5 32 L 92 39.5 L 91 40.5 L 91 48 L 96 48 L 96 54 L 92 54 L 92 55.5 L 90 56.5 L 90 40.5 L 91.5 32 Z " /><path fill="rgb(129,131,134)" stroke="rgb(129,131,134)" stroke-width="1" opacity="1" d="M 288 32 L 290 32.5 L 290 39.5 Q 287.3 41.3 289 47.5 L 290 48.5 L 290 64 L 288 63.5 L 288 32 Z " /><path fill="rgb(129,131,134)" stroke="rgb(129,131,134)" stroke-width="1" opacity="1" d="M 229 40 Q 233.9 38.4 232 44 Q 227.1 45.6 229 40 Z " /><path fill="rgb(129,131,134)" stroke="rgb(129,131,134)" stroke-width="1" opacity="1" d="M 81.5 41 L 82.5 43 L 81.5 41 Z " /><path fill="rgb(129,131,134)" stroke="rgb(129,131,134)" stroke-width="1" opacity="1" d="M 334.5 48 L 336 54.5 L 334 55.5 L 334 53.5 L 334.5 48 Z " /><path fill="rgb(129,131,134)" stroke="rgb(129,131,134)" stroke-width="1" opacity="1" d="M 81.5 49 L 82.5 51 L 81.5 49 Z " /><path fill="rgb(129,131,134)" stroke="rgb(129,131,134)" stroke-width="1" opacity="1" d="M 108.5 52 L 109 55.5 L 108 55.5 L 108.5 52 Z " /><path fill="rgb(129,131,134)" stroke="rgb(129,131,134)" stroke-width="1" opacity="1" d="M 227.5 52 L 240 52.5 L 227.5 53 L 227.5 52 Z " /><path fill="rgb(129,131,134)" stroke="rgb(129,131,134)" stroke-width="1" opacity="1" d="M 307.5 52 L 309 55.5 L 307 54.5 L 307.5 52 Z " /><path fill="rgb(129,131,134)" stroke="rgb(129,131,134)" stroke-width="1" opacity="1" d="M 90.5 58 L 92 61 Q 97.6 59.1 96 64 L 91 64 L 91 60.5 L 90.5 58 Z " /><path fill="rgb(129,131,134)" stroke="rgb(129,131,134)" stroke-width="1" opacity="1" d="M 108.5 58 L 109.5 60 L 108.5 58 Z " /><path fill="rgb(129,131,134)" stroke="rgb(129,131,134)" stroke-width="1" opacity="1" d="M 330.5 59 L 333 62.5 L 332.5 64 Q 338.2 62.4 336 68 L 332 68 L 332 64 Q 327.5 65.8 329 60.5 L 330.5 59 Z " /><path fill="rgb(129,131,134)" stroke="rgb(129,131,134)" stroke-width="1" opacity="1" d="M 312.5 60 L 315 63.5 L 313 64 L 312.5 60 Z " /><path fill="rgb(129,131,134)" stroke="rgb(129,131,134)" stroke-width="1" opacity="1" d="M 56 64 Q 62 62 60 68 Q 55.3 69 54 65.5 L 56 65.5 L 56 64 Z " /><path fill="rgb(129,131,134)" stroke="rgb(129,131,134)" stroke-width="1" opacity="1" d="M 144 65 L 146 65.5 L 144 66.5 L 144 65 Z " /><path fill="rgb(129,131,134)" stroke="rgb(129,131,134)" stroke-width="1" opacity="1" d="M 218.5 67 L 219 69 L 217 68.5 L 218.5 67 Z " /><path fill="rgb(129,131,134)" stroke="rgb(129,131,134)" stroke-width="1" opacity="1" d="M 220 67 Q 225.6 64.8 224 70.5 L 227 71.5 L 225.5 76 L 224 72 Q 217.6 74.1 220 67 Z " /><path fill="rgb(129,131,134)" stroke="rgb(129,131,134)" stroke-width="1" opacity="1" d="M 20.5 68 Q 22.8 70.8 28 70.5 L 21.5 72 L 21.5 71 L 23 70.5 L 20.5 68 Z " /><path fill="rgb(129,131,134)" stroke="rgb(129,131,134)" stroke-width="1" opacity="1" d="M 144.5 68 L 147 69.5 L 145.5 69 L 144.5 68 Z " /><path fill="rgb(129,131,134)" stroke="rgb(129,131,134)" stroke-width="1" opacity="1" d="M 44 69 Q 47.7 67.7 46 73.5 L 44 72.5 L 44 69 Z " /><path fill="rgb(129,131,134)" stroke="rgb(129,131,134)" stroke-width="1" opacity="1" d="M 94.5 70 L 96.5 73 L 98.5 73 Q 102.9 71.5 102 74.5 L 100.5 77 L 96 76 Q 97.3 71.9 94 73 L 94.5 70 Z " /><path fill="rgb(129,131,134)" stroke="rgb(129,131,134)" stroke-width="1" opacity="1" d="M 236.5 71 Q 246.1 69.6 250 72 L 250 76 L 240 76 Q 242.2 70.4 236.5 72 L 236.5 71 Z " /><path fill="rgb(129,131,134)" stroke="rgb(129,131,134)" stroke-width="1" opacity="1" d="M 119.5 72 L 124 72.5 L 119.5 73 L 119.5 72 Z " /><path fill="rgb(129,131,134)" stroke="rgb(129,131,134)" stroke-width="1" opacity="1" d="M 233.5 72 L 234 75.5 L 233 75.5 L 233.5 72 Z " /><path fill="rgb(129,131,134)" stroke="rgb(129,131,134)" stroke-width="1" opacity="1" d="M 288.5 72 L 289 79.5 L 287.5 85 L 287 80.5 L 288.5 72 Z " /><path fill="rgb(129,131,134)" stroke="rgb(129,131,134)" stroke-width="1" opacity="1" d="M 101.5 78 L 100.5 80 L 101.5 78 Z " /><path fill="rgb(129,131,134)" stroke="rgb(129,131,134)" stroke-width="1" opacity="1" d="M 50 80 Q 53.7 78.8 52 84 Q 46.8 85.7 48 82 Q 51 83 50 80 Z " /><path fill="rgb(129,131,134)" stroke="rgb(129,131,134)" stroke-width="1" opacity="1" d="M 39.5 84 L 45 84.5 L 39.5 85 L 39.5 84 Z " /><path fill="rgb(129,131,134)" stroke="rgb(129,131,134)" stroke-width="1" opacity="1" d="M 111.5 84 L 115.5 85 L 117.5 84 L 122 85 Q 123.1 87.7 120.5 87 L 117.5 88 Q 116 84.5 114.5 87 Q 111.2 88.1 112 85.5 L 111.5 84 Z " /><path fill="rgb(129,131,134)" stroke="rgb(129,131,134)" stroke-width="1" opacity="1" d="M 133.5 84 Q 138.1 82.8 136 88 Q 130.8 90.1 132 85.5 L 133.5 84 Z " /><path fill="rgb(129,131,134)" stroke="rgb(129,131,134)" stroke-width="1" opacity="1" d="M 8.5 85 L 16 85.5 L 8.5 86 L 8.5 85 Z " /><path fill="rgb(129,131,134)" stroke="rgb(129,131,134)" stroke-width="1" opacity="1" d="M 28.5 85 L 36 85.5 L 28.5 86 L 28.5 85 Z " /><path fill="rgb(129,131,134)" stroke="rgb(129,131,134)" stroke-width="1" opacity="1" d="M 138.5 85 L 139.5 87 L 138.5 85 Z " /><path fill="rgb(129,131,134)" stroke="rgb(129,131,134)" stroke-width="1" opacity="1" d="M 240.5 85 L 256 85.5 L 240.5 86 L 240.5 85 Z " /><path fill="rgb(129,131,134)" stroke="rgb(129,131,134)" stroke-width="1" opacity="1" d="M 278.5 86 L 282 86.5 L 278.5 87 L 278.5 86 Z " /><path fill="rgb(127,128,129)" stroke="rgb(127,128,129)" stroke-width="1" opacity="1" d="M 5.5 2 L 6.5 4 Q 3.7 4.7 5.5 2 Z " /><path fill="rgb(127,128,129)" stroke="rgb(127,128,129)" stroke-width="1" opacity="1" d="M 8.5 3 L 28 3.5 L 8.5 4 L 8.5 3 Z " /><path fill="rgb(127,128,129)" stroke="rgb(127,128,129)" stroke-width="1" opacity="1" d="M 38.5 3 L 41 3.5 L 38.5 4 L 38.5 3 Z " /><path fill="rgb(127,128,129)" stroke="rgb(127,128,129)" stroke-width="1" opacity="1" d="M 91 3 L 108 3.5 L 92 4 L 91.5 20 Q 89.1 15.9 90 8.5 L 91 3 Z " /><path fill="rgb(127,128,129)" stroke="rgb(127,128,129)" stroke-width="1" opacity="1" d="M 215.5 4 L 217.5 5 L 219 4.5 L 218 5.5 L 219.5 8 L 215.5 4 Z " /><path fill="rgb(127,128,129)" stroke="rgb(127,128,129)" stroke-width="1" opacity="1" d="M 223 4 L 226 4.5 L 223 6 L 223 4 Z " /><path fill="rgb(127,128,129)" stroke="rgb(127,128,129)" stroke-width="1" opacity="1" d="M 296.5 4 L 299 7.5 L 296 7.5 L 296 5.5 L 296.5 4 Z " /><path fill="rgb(127,128,129)" stroke="rgb(127,128,129)" stroke-width="1" opacity="1" d="M 52.5 5 L 53.5 7 Q 50.7 7.7 52.5 5 Z " /><path fill="rgb(127,128,129)" stroke="rgb(127,128,129)" stroke-width="1" opacity="1" d="M 161.5 6 L 160.5 8 L 161.5 6 Z " /><path fill="rgb(127,128,129)" stroke="rgb(127,128,129)" stroke-width="1" opacity="1" d="M 60.5 7 L 61.5 9 Q 58.7 9.7 60.5 7 Z " /><path fill="rgb(127,128,129)" stroke="rgb(127,128,129)" stroke-width="1" opacity="1" d="M 63.5 9 L 66 10.5 L 64.5 10 L 63.5 9 Z " /><path fill="rgb(127,128,129)" stroke="rgb(127,128,129)" stroke-width="1" opacity="1" d="M 300.5 10 L 303 13.5 L 301 14.5 L 300.5 10 Z " /><path fill="rgb(127,128,129)" stroke="rgb(127,128,129)" stroke-width="1" opacity="1" d="M 224.5 12 L 225.5 14 L 224.5 12 Z " /><path fill="rgb(127,128,129)" stroke="rgb(127,128,129)" stroke-width="1" opacity="1" d="M 68 14 Q 71.7 12.5 71 15.5 L 68 15.5 L 68 14 Z " /><path fill="rgb(127,128,129)" stroke="rgb(127,128,129)" stroke-width="1" opacity="1" d="M 20.5 16 L 21 18.5 L 20 18.5 L 20.5 16 Z " /><path fill="rgb(127,128,129)" stroke="rgb(127,128,129)" stroke-width="1" opacity="1" d="M 148.5 16 L 151 17.5 L 149 18.5 L 148.5 16 Z " /><path fill="rgb(127,128,129)" stroke="rgb(127,128,129)" stroke-width="1" opacity="1" d="M 36.5 18 L 40 18.5 L 36.5 19 L 36.5 18 Z " /><path fill="rgb(127,128,129)" stroke="rgb(127,128,129)" stroke-width="1" opacity="1" d="M 219.5 19 L 218.5 21 L 219.5 19 Z " /><path fill="rgb(127,128,129)" stroke="rgb(127,128,129)" stroke-width="1" opacity="1" d="M 22.5 20 L 23 68.5 L 22 68.5 L 22.5 20 Z " /><path fill="rgb(127,128,129)" stroke="rgb(127,128,129)" stroke-width="1" opacity="1" d="M 51.5 20 L 50.5 22 L 51.5 20 Z " /><path fill="rgb(127,128,129)" stroke="rgb(127,128,129)" stroke-width="1" opacity="1" d="M 53.5 20 L 55.5 23 L 53.5 20 Z " /><path fill="rgb(127,128,129)" stroke="rgb(127,128,129)" stroke-width="1" opacity="1" d="M 216.5 21 L 214.5 24 L 216.5 21 Z " /><path fill="rgb(127,128,129)" stroke="rgb(127,128,129)" stroke-width="1" opacity="1" d="M 77.5 22 L 76.5 24 L 77.5 22 Z " /><path fill="rgb(127,128,129)" stroke="rgb(127,128,129)" stroke-width="1" opacity="1" d="M 218.5 22 L 220 22.5 L 217.5 24 L 218.5 22 Z " /><path fill="rgb(127,128,129)" stroke="rgb(127,128,129)" stroke-width="1" opacity="1" d="M 308.5 23 L 309.5 25 L 308.5 23 Z " /><path fill="rgb(127,128,129)" stroke="rgb(127,128,129)" stroke-width="1" opacity="1" d="M 55.5 24 L 56.5 26 L 55.5 24 Z " /><path fill="rgb(127,128,129)" stroke="rgb(127,128,129)" stroke-width="1" opacity="1" d="M 58 24 L 60 24.5 L 59.5 27 L 58 24 Z " /><path fill="rgb(127,128,129)" stroke="rgb(127,128,129)" stroke-width="1" opacity="1" d="M 78.5 25 Q 81.1 24.2 80 27.5 L 81 30.5 L 80 30.5 L 78.5 25 Z " /><path fill="rgb(127,128,129)" stroke="rgb(127,128,129)" stroke-width="1" opacity="1" d="M 211.5 25 L 211 26.5 L 210.5 28 L 210 26.5 L 211.5 25 Z " /><path fill="rgb(127,128,129)" stroke="rgb(127,128,129)" stroke-width="1" opacity="1" d="M 309.5 26 L 308.5 28 L 309.5 26 Z " /><path fill="rgb(127,128,129)" stroke="rgb(127,128,129)" stroke-width="1" opacity="1" d="M 289.5 28 L 290 30 L 288 29.5 L 289.5 28 Z " /><path fill="rgb(127,128,129)" stroke="rgb(127,128,129)" stroke-width="1" opacity="1" d="M 291.5 28 L 292.5 30 L 291.5 28 Z " /><path fill="rgb(127,128,129)" stroke="rgb(127,128,129)" stroke-width="1" opacity="1" d="M 294.5 31 L 299 39.5 L 298 39.5 L 294 32.5 L 294.5 31 Z " /><path fill="rgb(127,128,129)" stroke="rgb(127,128,129)" stroke-width="1" opacity="1" d="M 312.5 32 Q 315.8 30.9 315 33.5 L 315.5 35 L 312.5 32 Z " /><path fill="rgb(127,128,129)" stroke="rgb(127,128,129)" stroke-width="1" opacity="1" d="M 62.5 33 L 63.5 35 L 62.5 33 Z " /><path fill="rgb(127,128,129)" stroke="rgb(127,128,129)" stroke-width="1" opacity="1" d="M 316.5 36 L 318 38.5 L 316 39 L 316.5 36 Z " /><path fill="rgb(127,128,129)" stroke="rgb(127,128,129)" stroke-width="1" opacity="1" d="M 224.5 37 L 247.5 37 L 249 38.5 L 248.5 53 L 248 38 L 224.5 38 L 224.5 37 Z " /><path fill="rgb(127,128,129)" stroke="rgb(127,128,129)" stroke-width="1" opacity="1" d="M 82.5 38 L 83 41.5 L 81 40.5 L 82.5 38 Z " /><path fill="rgb(127,128,129)" stroke="rgb(127,128,129)" stroke-width="1" opacity="1" d="M 91.5 40 L 92 47.5 L 91 47.5 L 91.5 40 Z " /><path fill="rgb(127,128,129)" stroke="rgb(127,128,129)" stroke-width="1" opacity="1" d="M 320.5 42 L 321 44.5 L 320 44.5 L 320.5 42 Z " /><path fill="rgb(127,128,129)" stroke="rgb(127,128,129)" stroke-width="1" opacity="1" d="M 82.5 43 L 83 45.5 L 82 45.5 L 82.5 43 Z " /><path fill="rgb(127,128,129)" stroke="rgb(127,128,129)" stroke-width="1" opacity="1" d="M 82.5 47 L 83 49.5 L 81 52.5 L 82 54.5 L 81 54.5 L 80 52.5 L 82.5 47 Z " /><path fill="rgb(127,128,129)" stroke="rgb(127,128,129)" stroke-width="1" opacity="1" d="M 324.5 49 L 325.5 51 Q 322.7 51.7 324.5 49 Z " /><path fill="rgb(127,128,129)" stroke="rgb(127,128,129)" stroke-width="1" opacity="1" d="M 305.5 50 Q 307.8 49.3 307 51.5 L 305.5 50 Z " /><path fill="rgb(127,128,129)" stroke="rgb(127,128,129)" stroke-width="1" opacity="1" d="M 62 54 L 64 54.5 L 63.5 57 L 61 56.5 L 62 54 Z " /><path fill="rgb(127,128,129)" stroke="rgb(127,128,129)" stroke-width="1" opacity="1" d="M 309.5 56 L 312 60.5 L 311 60.5 L 309.5 56 Z " /><path fill="rgb(127,128,129)" stroke="rgb(127,128,129)" stroke-width="1" opacity="1" d="M 329.5 57 L 330.5 59 L 329.5 57 Z " /><path fill="rgb(127,128,129)" stroke="rgb(127,128,129)" stroke-width="1" opacity="1" d="M 78.5 60 Q 80.8 59.3 80 61.5 L 79 64 L 76 63.5 L 79 61.5 L 78.5 60 Z " /><path fill="rgb(127,128,129)" stroke="rgb(127,128,129)" stroke-width="1" opacity="1" d="M 108.5 60 Q 110.8 59.3 110 61.5 L 110.5 63 L 108.5 60 Z " /><path fill="rgb(127,128,129)" stroke="rgb(127,128,129)" stroke-width="1" opacity="1" d="M 334.5 60 L 335.5 62 L 334.5 60 Z " /><path fill="rgb(127,128,129)" stroke="rgb(127,128,129)" stroke-width="1" opacity="1" d="M 58.5 61 Q 61.5 62.5 58.5 64 Q 55.5 62.5 58.5 61 Z " /><path fill="rgb(127,128,129)" stroke="rgb(127,128,129)" stroke-width="1" opacity="1" d="M 206 61 L 208 61.5 L 207.5 64 L 206 61 Z " /><path fill="rgb(127,128,129)" stroke="rgb(127,128,129)" stroke-width="1" opacity="1" d="M 143.5 63 Q 145.8 62.3 145 64.5 L 143.5 66 L 141 65.5 L 143.5 63 Z " /><path fill="rgb(127,128,129)" stroke="rgb(127,128,129)" stroke-width="1" opacity="1" d="M 288.5 64 L 289 71.5 L 288 71.5 L 288.5 64 Z " /><path fill="rgb(127,128,129)" stroke="rgb(127,128,129)" stroke-width="1" opacity="1" d="M 314.5 64 L 315.5 66 Q 312.7 66.7 314.5 64 Z " /><path fill="rgb(127,128,129)" stroke="rgb(127,128,129)" stroke-width="1" opacity="1" d="M 145.5 66 L 144.5 68 L 145.5 66 Z " /><path fill="rgb(127,128,129)" stroke="rgb(127,128,129)" stroke-width="1" opacity="1" d="M 140.5 67 L 139.5 69 L 140.5 67 Z " /><path fill="rgb(127,128,129)" stroke="rgb(127,128,129)" stroke-width="1" opacity="1" d="M 92.5 68 L 95 68.5 L 93.5 71 L 92.5 68 Z " /><path fill="rgb(127,128,129)" stroke="rgb(127,128,129)" stroke-width="1" opacity="1" d="M 219.5 68 L 220 70.5 L 219.5 72 L 221 72.5 L 219.5 73 L 217.5 70 L 219 70.5 L 219.5 68 Z " /><path fill="rgb(127,128,129)" stroke="rgb(127,128,129)" stroke-width="1" opacity="1" d="M 316.5 68 L 317.5 70 L 316.5 68 Z " /><path fill="rgb(127,128,129)" stroke="rgb(127,128,129)" stroke-width="1" opacity="1" d="M 20.5 69 L 21.5 71 L 20.5 69 Z " /><path fill="rgb(127,128,129)" stroke="rgb(127,128,129)" stroke-width="1" opacity="1" d="M 39.5 69 L 44 69.5 L 39.5 70 L 39.5 69 Z " /><path fill="rgb(127,128,129)" stroke="rgb(127,128,129)" stroke-width="1" opacity="1" d="M 116.5 69 L 117.5 71 Q 114.7 71.7 116.5 69 Z " /><path fill="rgb(127,128,129)" stroke="rgb(127,128,129)" stroke-width="1" opacity="1" d="M 28.5 70 L 35 70.5 L 28.5 71 L 28.5 70 Z " /><path fill="rgb(127,128,129)" stroke="rgb(127,128,129)" stroke-width="1" opacity="1" d="M 136.5 70 L 139 70.5 L 136.5 71 L 136.5 70 Z " /><path fill="rgb(127,128,129)" stroke="rgb(127,128,129)" stroke-width="1" opacity="1" d="M 147.5 70 L 148.5 72 L 147.5 70 Z " /><path fill="rgb(127,128,129)" stroke="rgb(127,128,129)" stroke-width="1" opacity="1" d="M 230.5 71 L 236 71.5 L 230.5 72 L 230.5 71 Z " /><path fill="rgb(127,128,129)" stroke="rgb(127,128,129)" stroke-width="1" opacity="1" d="M 248.5 71 L 264 71.5 L 248.5 72 L 248.5 71 Z " /><path fill="rgb(127,128,129)" stroke="rgb(127,128,129)" stroke-width="1" opacity="1" d="M 223.5 72 L 224 73.5 L 223.5 76 Q 220.8 74.8 223 73.5 L 223.5 72 Z " /><path fill="rgb(127,128,129)" stroke="rgb(127,128,129)" stroke-width="1" opacity="1" d="M 70.5 73 L 69.5 75 L 70.5 73 Z " /><path fill="rgb(127,128,129)" stroke="rgb(127,128,129)" stroke-width="1" opacity="1" d="M 148.5 74 L 151 74.5 Q 148.9 77.8 148.5 74 Z " /><path fill="rgb(127,128,129)" stroke="rgb(127,128,129)" stroke-width="1" opacity="1" d="M 225.5 76 L 228 77.5 L 226 78.5 L 225.5 76 Z " /><path fill="rgb(127,128,129)" stroke="rgb(127,128,129)" stroke-width="1" opacity="1" d="M 323.5 76 L 325 80.5 L 323 79.5 L 323.5 76 Z " /><path fill="rgb(127,128,129)" stroke="rgb(127,128,129)" stroke-width="1" opacity="1" d="M 64.5 77 L 63.5 79 L 64.5 77 Z " /><path fill="rgb(127,128,129)" stroke="rgb(127,128,129)" stroke-width="1" opacity="1" d="M 60.5 78 L 61.5 80 L 57.5 82 L 56.5 80 L 58.5 80 Q 61 80.7 60.5 78 Z " /><path fill="rgb(127,128,129)" stroke="rgb(127,128,129)" stroke-width="1" opacity="1" d="M 153.5 79 L 151.5 82 L 150.5 80 Q 152 82.5 153.5 79 Z " /><path fill="rgb(127,128,129)" stroke="rgb(127,128,129)" stroke-width="1" opacity="1" d="M 288 80 Q 291.3 78.7 290 83.5 L 288.5 88 L 288 86 L 272 85.5 L 288 85 L 288 80 Z " /><path fill="rgb(127,128,129)" stroke="rgb(127,128,129)" stroke-width="1" opacity="1" d="M 52 81 L 56 82.5 L 52.5 84 L 52 81 Z " /><path fill="rgb(127,128,129)" stroke="rgb(127,128,129)" stroke-width="1" opacity="1" d="M 102.5 81 L 105 81.5 Q 104.3 83.8 106.5 83 L 110 84.5 L 107.5 85 Q 102.9 83.8 102.5 81 Z " /><path fill="rgb(127,128,129)" stroke="rgb(127,128,129)" stroke-width="1" opacity="1" d="M 325.5 82 L 327 82 L 327.5 85 L 351.5 85 L 351.5 86 L 327.5 86 L 326 84.5 L 325.5 82 Z " /><path fill="rgb(127,128,129)" stroke="rgb(127,128,129)" stroke-width="1" opacity="1" d="M 145.5 84 L 144.5 86 L 140.5 87 L 140.5 86 L 145.5 84 Z " /><path fill="rgb(127,128,129)" stroke="rgb(127,128,129)" stroke-width="1" opacity="1" d="M 221.5 84 L 224.5 85 L 240 85.5 L 224.5 86 L 223 85.5 L 222.5 87 L 221.5 84 Z " /><path fill="rgb(127,128,129)" stroke="rgb(127,128,129)" stroke-width="1" opacity="1" d="M 36.5 85 L 42 85.5 L 36.5 86 L 36.5 85 Z " /><path fill="rgb(127,128,129)" stroke="rgb(127,128,129)" stroke-width="1" opacity="1" d="M 256.5 85 L 264 85.5 L 256.5 86 L 256.5 85 Z " /><path fill="rgb(131,132,132)" stroke="rgb(131,132,132)" stroke-width="1" opacity="1" d="M 8.5 2 L 32 2.5 L 8.5 3 L 8.5 2 Z " /><path fill="rgb(131,132,132)" stroke="rgb(131,132,132)" stroke-width="1" opacity="1" d="M 7.5 4 L 8 7.5 L 7 7.5 L 7.5 4 Z " /><path fill="rgb(131,132,132)" stroke="rgb(131,132,132)" stroke-width="1" opacity="1" d="M 16 4 Q 22 2 20 8 L 16 6.5 L 16 4 Z " /><path fill="rgb(131,132,132)" stroke="rgb(131,132,132)" stroke-width="1" opacity="1" d="M 217.5 4 L 220 4.5 Q 217.9 7.8 217.5 4 Z " /><path fill="rgb(131,132,132)" stroke="rgb(131,132,132)" stroke-width="1" opacity="1" d="M 222.5 4 L 223 6 L 226.5 4 L 233.5 4 L 240 5.5 L 232.5 6 L 226 5 L 224.5 8 L 223 7.5 Q 224.1 10.8 221.5 10 L 220 7.5 L 222.5 4 Z " /><path fill="rgb(131,132,132)" stroke="rgb(131,132,132)" stroke-width="1" opacity="1" d="M 272 4 L 280 4 L 280 8 L 272 8 L 272 4 Z " /><path fill="rgb(131,132,132)" stroke="rgb(131,132,132)" stroke-width="1" opacity="1" d="M 288 4 L 296 4 L 296 7.5 L 296.5 9 Q 295 6.5 289.5 8 L 288 6.5 L 288 4 Z " /><path fill="rgb(131,132,132)" stroke="rgb(131,132,132)" stroke-width="1" opacity="1" d="M 248.5 5 L 256 5.5 L 248.5 6 L 248.5 5 Z " /><path fill="rgb(131,132,132)" stroke="rgb(131,132,132)" stroke-width="1" opacity="1" d="M 154 6 Q 157.3 4.7 156 9.5 Q 158.7 11.3 154.5 13 Q 150.1 14.5 151 11.5 L 154 10 L 154 6 Z " /><path fill="rgb(131,132,132)" stroke="rgb(131,132,132)" stroke-width="1" opacity="1" d="M 63.5 12 L 64 16 Q 59.5 17.5 61 13 L 63.5 12 Z " /><path fill="rgb(131,132,132)" stroke="rgb(131,132,132)" stroke-width="1" opacity="1" d="M 223.5 15 L 224 17 L 222 16.5 L 223.5 15 Z " /><path fill="rgb(131,132,132)" stroke="rgb(131,132,132)" stroke-width="1" opacity="1" d="M 147.5 16 L 149 18.5 L 147.5 22 L 146 21.5 L 147.5 16 Z " /><path fill="rgb(131,132,132)" stroke="rgb(131,132,132)" stroke-width="1" opacity="1" d="M 334.5 16 L 335 47.5 L 334 47.5 L 334.5 16 Z " /><path fill="rgb(131,132,132)" stroke="rgb(131,132,132)" stroke-width="1" opacity="1" d="M 26.5 18 L 32 18.5 L 26.5 19 L 26.5 18 Z " /><path fill="rgb(131,132,132)" stroke="rgb(131,132,132)" stroke-width="1" opacity="1" d="M 48 18 Q 50.7 16.9 50 19.5 L 50.5 21 L 48 19.5 L 48 18 Z " /><path fill="rgb(131,132,132)" stroke="rgb(131,132,132)" stroke-width="1" opacity="1" d="M 90.5 20 Q 93 24.7 92 32 L 96 32 L 96 38 Q 89.6 40.3 92 32.5 L 91 32.5 L 90.5 40 L 90 32.5 Q 92.8 30.8 91 24.5 L 90.5 20 Z " /><path fill="rgb(131,132,132)" stroke="rgb(131,132,132)" stroke-width="1" opacity="1" d="M 212 24 Q 215 23 214 26 Q 211 25 212 28 L 216 28 Q 214 22 220 24 L 220 32 L 208.5 32 L 208 32.5 L 208 59.5 L 207 59.5 L 207 32.5 L 206 31.5 L 208 28 Q 211.8 29.5 211 26.5 L 212 24 Z " /><path fill="rgb(131,132,132)" stroke="rgb(131,132,132)" stroke-width="1" opacity="1" d="M 310 28 Q 313 26.8 312 30.5 L 312.5 32 Q 307.9 33.2 310 28 Z " /><path fill="rgb(131,132,132)" stroke="rgb(131,132,132)" stroke-width="1" opacity="1" d="M 289.5 40 L 290 47.5 L 289 47.5 L 289.5 40 Z " /><path fill="rgb(131,132,132)" stroke="rgb(131,132,132)" stroke-width="1" opacity="1" d="M 92 45 Q 97.6 43.1 96 48 Q 90.4 49.9 92 45 Z " /><path fill="rgb(131,132,132)" stroke="rgb(131,132,132)" stroke-width="1" opacity="1" d="M 289.5 64 L 290 79.5 L 289 79.5 L 289.5 64 Z " /><path fill="rgb(131,132,132)" stroke="rgb(131,132,132)" stroke-width="1" opacity="1" d="M 142.5 65 L 143 67.5 L 141 66.5 L 142.5 65 Z " /><path fill="rgb(131,132,132)" stroke="rgb(131,132,132)" stroke-width="1" opacity="1" d="M 214.5 67 Q 216.8 66.3 216 68.5 L 214.5 67 Z " /><path fill="rgb(131,132,132)" stroke="rgb(131,132,132)" stroke-width="1" opacity="1" d="M 146.5 68 L 148 69.5 L 147.5 72 Q 143 70 146.5 68 Z " /><path fill="rgb(131,132,132)" stroke="rgb(131,132,132)" stroke-width="1" opacity="1" d="M 319.5 68 L 320 70.5 L 318.5 72 L 318 69.5 L 319.5 68 Z " /><path fill="rgb(131,132,132)" stroke="rgb(131,132,132)" stroke-width="1" opacity="1" d="M 234 72 L 240 72 L 240 76 L 234 76 L 234 72 Z " /><path fill="rgb(131,132,132)" stroke="rgb(131,132,132)" stroke-width="1" opacity="1" d="M 250 72 L 263.5 72 L 264 76 L 250.5 76 L 250 72 Z " /><path fill="rgb(131,132,132)" stroke="rgb(131,132,132)" stroke-width="1" opacity="1" d="M 149.5 73 L 151 75.5 L 149 74.5 L 149.5 73 Z " /><path fill="rgb(131,132,132)" stroke="rgb(131,132,132)" stroke-width="1" opacity="1" d="M 61.5 77 L 62.5 79 L 61.5 77 Z " /><path fill="rgb(131,132,132)" stroke="rgb(131,132,132)" stroke-width="1" opacity="1" d="M 152.5 77 Q 156.2 79.2 151 81.5 L 150.5 83 L 150 81.5 L 152.5 77 Z " /><path fill="rgb(131,132,132)" stroke="rgb(131,132,132)" stroke-width="1" opacity="1" d="M 101.5 80 L 103.5 81 L 105 80.5 Q 103.8 83.2 102.5 81 L 101.5 80 Z " /><path fill="rgb(131,132,132)" stroke="rgb(131,132,132)" stroke-width="1" opacity="1" d="M 225.5 80 Q 229.5 79.5 230 82.5 Q 230.9 85.5 226.5 84 L 224 83.5 L 225.5 80 Z " /><path fill="rgb(131,132,132)" stroke="rgb(131,132,132)" stroke-width="1" opacity="1" d="M 289.5 84 L 290 87.5 L 289 87.5 L 289.5 84 Z " /><path fill="rgb(131,132,132)" stroke="rgb(131,132,132)" stroke-width="1" opacity="1" d="M 16.5 85 L 28 85.5 L 16.5 86 L 16.5 85 Z " /><path fill="rgb(131,132,132)" stroke="rgb(131,132,132)" stroke-width="1" opacity="1" d="M 282.5 86 L 287 86.5 L 282.5 87 L 282.5 86 Z " /><path fill="rgb(192,214,55)" stroke="rgb(192,214,55)" stroke-width="1" opacity="1" d="M 184.5 2 Q 209.2 -0.2 219 12.5 L 206.5 24 L 204.5 24 Q 198.9 17.6 185.5 19 Q 175.3 21.8 170 29.5 L 166 38.5 L 166 47.5 L 165 48.5 Q 167.3 49.7 166 54.5 L 170 63.5 L 176.5 70 L 186.5 74 L 193.5 74 Q 201.4 72.4 205.5 67 L 220 77 L 220 79.5 L 215.5 84 L 201.5 90 L 180.5 90 Q 163.9 86.1 155 74.5 L 148 61.5 L 146 52.5 L 146 40.5 Q 148.6 37.6 148 31.5 L 152 22.5 L 163.5 10 Q 172.3 4.3 184.5 2 Z " /><path fill="rgb(132,131,135)" stroke="rgb(132,131,135)" stroke-width="1" opacity="1" d="M 11 4 L 16 4 L 16 6 L 11 6 L 11 4 Z " /><path fill="rgb(132,131,135)" stroke="rgb(132,131,135)" stroke-width="1" opacity="1" d="M 20 4 L 31.5 4 L 32 6 L 20.5 6 L 20 4 Z " /><path fill="rgb(132,131,135)" stroke="rgb(132,131,135)" stroke-width="1" opacity="1" d="M 161.5 4 L 164 4.5 L 161.5 5 L 161.5 4 Z " /><path fill="rgb(132,131,135)" stroke="rgb(132,131,135)" stroke-width="1" opacity="1" d="M 344 4 L 352 4 L 352 12 L 348 12 L 348 8 Q 342 10 344 4 Z " /><path fill="rgb(132,131,135)" stroke="rgb(132,131,135)" stroke-width="1" opacity="1" d="M 226 5 L 232 5 L 232 8 L 230 8 L 228 12 L 230 12 Q 228.8 17.3 232 16.5 L 232 20 L 226 20 L 226 17.5 L 225.5 16 Q 227.8 16.8 227 14.5 Q 229.3 13.3 226.5 12 Q 222.8 13.3 224 9.5 L 223.5 8 L 226 6.5 L 226 5 Z " /><path fill="rgb(132,131,135)" stroke="rgb(132,131,135)" stroke-width="1" opacity="1" d="M 157 7 L 160 7.5 L 157.5 9 L 157 7 Z " /><path fill="rgb(132,131,135)" stroke="rgb(132,131,135)" stroke-width="1" opacity="1" d="M 5.5 8 L 6 15.5 L 5 15.5 L 5.5 8 Z " /><path fill="rgb(132,131,135)" stroke="rgb(132,131,135)" stroke-width="1" opacity="1" d="M 260 8 L 263 8 L 263 16 L 260 16 L 260 8 Z " /><path fill="rgb(132,131,135)" stroke="rgb(132,131,135)" stroke-width="1" opacity="1" d="M 276 8 L 295.5 8 L 296.5 9 L 300 8 L 300 16 L 276 16 L 276 31.5 L 273.5 32 L 272 32.5 L 272 16.5 L 276 16 L 276 8 Z " /><path fill="rgb(132,131,135)" stroke="rgb(132,131,135)" stroke-width="1" opacity="1" d="M 302.5 14 L 301.5 16 L 302.5 14 Z " /><path fill="rgb(132,131,135)" stroke="rgb(132,131,135)" stroke-width="1" opacity="1" d="M 92 16 L 96 16 L 96 24 L 92 24 L 92 16 Z " /><path fill="rgb(132,131,135)" stroke="rgb(132,131,135)" stroke-width="1" opacity="1" d="M 336 16 L 342 16 L 342 24 L 336 24 L 336 16 Z " /><path fill="rgb(132,131,135)" stroke="rgb(132,131,135)" stroke-width="1" opacity="1" d="M 19.5 19 L 20 22.5 L 18.5 22 Q 14.8 23 16 20 L 19.5 19 Z " /><path fill="rgb(132,131,135)" stroke="rgb(132,131,135)" stroke-width="1" opacity="1" d="M 21.5 20 L 22 25.5 L 21 25.5 L 21.5 20 Z " /><path fill="rgb(132,131,135)" stroke="rgb(132,131,135)" stroke-width="1" opacity="1" d="M 90.5 24 L 91 31.5 L 90 31.5 L 90.5 24 Z " /><path fill="rgb(132,131,135)" stroke="rgb(132,131,135)" stroke-width="1" opacity="1" d="M 92 28 Q 98 26 96 32 Q 90 34 92 28 Z " /><path fill="rgb(132,131,135)" stroke="rgb(132,131,135)" stroke-width="1" opacity="1" d="M 348 28 L 352 28.5 L 352 48 L 345.5 48 L 344 46.5 L 344 33.5 L 345.5 32 Q 350.1 33.2 348 28 Z " /><path fill="rgb(132,131,135)" stroke="rgb(132,131,135)" stroke-width="1" opacity="1" d="M 240 40 L 248 40 L 248 48 L 240 48 L 240 40 Z " /><path fill="rgb(132,131,135)" stroke="rgb(132,131,135)" stroke-width="1" opacity="1" d="M 240.5 52 L 248 52.5 L 240.5 53 L 240.5 52 Z " /><path fill="rgb(132,131,135)" stroke="rgb(132,131,135)" stroke-width="1" opacity="1" d="M 316 64 Q 321.6 61.8 320 67.5 L 317.5 69 Q 315 67.8 316 64 Z " /><path fill="rgb(132,131,135)" stroke="rgb(132,131,135)" stroke-width="1" opacity="1" d="M 53.5 66 L 54 72 Q 50.7 73.3 52 68.5 L 53.5 66 Z " /><path fill="rgb(132,131,135)" stroke="rgb(132,131,135)" stroke-width="1" opacity="1" d="M 211.5 66 L 212.5 68 L 211.5 66 Z " /><path fill="rgb(132,131,135)" stroke="rgb(132,131,135)" stroke-width="1" opacity="1" d="M 143.5 67 L 145 69.5 L 139.5 70 L 140.5 68 L 143.5 67 Z " /><path fill="rgb(132,131,135)" stroke="rgb(132,131,135)" stroke-width="1" opacity="1" d="M 46 68 Q 51.2 66.3 50 70 Q 44.8 71.7 46 68 Z " /><path fill="rgb(132,131,135)" stroke="rgb(132,131,135)" stroke-width="1" opacity="1" d="M 117.5 71 L 118 76 Q 114.7 77.3 116 72.5 L 117.5 71 Z " /><path fill="rgb(132,131,135)" stroke="rgb(132,131,135)" stroke-width="1" opacity="1" d="M 32 72 Q 38 70 36 76 Q 30 78 32 72 Z " /><path fill="rgb(132,131,135)" stroke="rgb(132,131,135)" stroke-width="1" opacity="1" d="M 132 72 Q 135.7 70.8 134 76 Q 130.3 77.2 132 72 Z " /><path fill="rgb(132,131,135)" stroke="rgb(132,131,135)" stroke-width="1" opacity="1" d="M 148.5 76 L 150 80 Q 146.2 81.2 148.5 76 Z " /><path fill="rgb(132,131,135)" stroke="rgb(132,131,135)" stroke-width="1" opacity="1" d="M 54.5 80 L 57 81.5 L 55.5 82 L 54.5 80 Z " /><path fill="rgb(132,131,135)" stroke="rgb(132,131,135)" stroke-width="1" opacity="1" d="M 240 80 L 252 80 L 252 84 L 240 84 L 240 80 Z " /><path fill="rgb(132,131,135)" stroke="rgb(132,131,135)" stroke-width="1" opacity="1" d="M 272 80 L 278 80 L 278 85 L 272 85 L 272 80 Z " /><path fill="rgb(132,131,135)" stroke="rgb(132,131,135)" stroke-width="1" opacity="1" d="M 222.5 84 L 224.5 84 L 226 84.5 L 223.5 86 L 222.5 84 Z " /><path fill="rgb(132,131,135)" stroke="rgb(132,131,135)" stroke-width="1" opacity="1" d="M 272.5 86 L 278 86.5 L 272.5 87 L 272.5 86 Z " /></svg>