<svg width="1210" height="422" version="1.1" xmlns="http://www.w3.org/2000/svg" desc="Created with imagetracer.js version 1.2.6" ><path fill="rgb(0,0,0)" stroke="rgb(0,0,0)" stroke-width="1" opacity="0.08235294117647059" d="M 0 0 L 1210 0 L 1210 422 L 0 422 L 0 0 Z M 168 104 L 168 112 L 152 112 L 152 120 L 144 120 L 144 128 L 128 128 L 128 144 L 120 144 L 120 152 L 112 152 L 112 168 L 104 168 L 104 256 L 112 256 L 112 272 L 120 272 L 120 280 L 128 280 L 128 288 L 136 288 L 136 296 L 144 296 L 144 304 L 160 304 L 160 312 L 161 312 L 176 312 L 176 320 L 240 320 L 240 320 L 240 313 L 241 312 L 264 312 L 264 304 L 272 304 L 272 296 L 288 296 L 288 288 L 296 288 L 296 272 L 304 272 L 304 264 L 312 264 L 312 240 L 320 240 L 320 177 L 320 176 L 312 176 L 312 160 L 305 160 L 304 160 L 304 144 L 296 144 L 296 136 L 288 136 L 288 128 L 280 128 L 280 120 L 264 120 L 264 112 L 248 112 L 248 105 L 248 104 L 168 104 Z " /><path fill="rgb(0,0,0)" stroke="rgb(0,0,0)" stroke-width="1" opacity="0.08235294117647059" d="M 192 136 L 231.5 136 L 232 136.5 L 232 144 L 248 144 L 248 152 L 240 152 L 240 168 L 232 168 L 232 191.5 L 231.5 192 L 224 192 L 224 208 L 216 208 L 216 224 L 208 224 L 208 216 L 200 216 L 200 200 L 208 200 L 208 184 L 215.5 184 L 216 183.5 L 216 160.5 L 216.5 160 L 224 160 L 224 152 L 192.5 152 L 192 152.5 L 192 160 L 176 160 L 176 168 L 168 168 L 168 176 L 160 176 L 160 192 L 152 192 L 152 224 L 160 224 L 160 248 L 168 248 L 168 256 L 184 256 L 184 264 L 240 264 L 240 256 L 248 256 L 248 248 L 256 248 L 256 240 L 264 240 L 264 184.5 L 264.5 184 L 272 184 L 272 176 L 280 176 L 280 199.5 L 280.5 200 L 288 200 L 288 216 L 280 216 L 280 240 L 272 240 L 272 256 L 264 256 L 264 264 L 256 264 L 256 272 L 240 272 L 240 280 L 224 280 L 224 287.5 L 223.5 288 L 200 288 L 200 280 L 176 280 L 176 272 L 168 272 L 168 264 L 160 264 L 160 256 L 152 256 L 152 248 L 144 248 L 144 232 L 136.5 232 L 136 231.5 L 136 184 L 144 184 L 144 168 L 152 168 L 152 160 L 160 160 L 160 152 L 168 152 L 168 144 L 192 144 L 192 136 Z " /><path fill="rgb(98,39,111)" stroke="rgb(98,39,111)" stroke-width="1" opacity="0.027450980392156862" d="M 197.5 104 L 222.5 104 L 224 105.5 L 221.5 106 L 220.5 105 L 199.5 105 L 196.5 106 L 197.5 104 Z " /><path fill="rgb(98,39,111)" stroke="rgb(98,39,111)" stroke-width="1" opacity="0.027450980392156862" d="M 188.5 106 L 191 106.5 L 188.5 107 L 188.5 106 Z " /><path fill="rgb(98,39,111)" stroke="rgb(98,39,111)" stroke-width="1" opacity="0.027450980392156862" d="M 229.5 106 Q 235.5 104.5 237 107.5 L 234.5 108 L 229.5 107 L 229.5 106 Z " /><path fill="rgb(98,39,111)" stroke="rgb(98,39,111)" stroke-width="1" opacity="0.027450980392156862" d="M 179.5 108 L 183 108.5 L 178.5 110 L 179.5 108 Z " /><path fill="rgb(98,39,111)" stroke="rgb(98,39,111)" stroke-width="1" opacity="0.027450980392156862" d="M 238.5 108 Q 242.3 107.3 243 109.5 L 241.5 110 L 238.5 109 L 238.5 108 Z " /><path fill="rgb(98,39,111)" stroke="rgb(98,39,111)" stroke-width="1" opacity="0.027450980392156862" d="M 173.5 110 L 176 110.5 L 172.5 112 L 173.5 110 Z " /><path fill="rgb(98,39,111)" stroke="rgb(98,39,111)" stroke-width="1" opacity="0.027450980392156862" d="M 244.5 110 L 248 111.5 L 246.5 111 Q 243.5 111.5 244.5 110 Z " /><path fill="rgb(98,39,111)" stroke="rgb(98,39,111)" stroke-width="1" opacity="0.027450980392156862" d="M 250.5 112 L 264 118.5 L 262.5 119 L 250.5 113 L 250.5 112 Z " /><path fill="rgb(98,39,111)" stroke="rgb(98,39,111)" stroke-width="1" opacity="0.027450980392156862" d="M 163.5 114 L 166 114.5 L 157.5 119 L 159.5 116 L 163.5 114 Z " /><path fill="rgb(98,39,111)" stroke="rgb(98,39,111)" stroke-width="1" opacity="0.027450980392156862" d="M 153.5 120 L 155 120.5 L 151.5 123 L 153.5 120 Z " /><path fill="rgb(98,39,111)" stroke="rgb(98,39,111)" stroke-width="1" opacity="0.027450980392156862" d="M 266.5 120 L 267.5 122 L 266.5 120 Z " /><path fill="rgb(98,39,111)" stroke="rgb(98,39,111)" stroke-width="1" opacity="0.027450980392156862" d="M 269.5 122 L 273 124.5 L 271.5 124 L 269.5 122 Z " /><path fill="rgb(98,39,111)" stroke="rgb(98,39,111)" stroke-width="1" opacity="0.027450980392156862" d="M 147.5 124 L 149 124.5 L 143.5 129 L 144 127.5 Q 143.3 125.3 145.5 126 L 147.5 124 Z " /><path fill="rgb(98,39,111)" stroke="rgb(98,39,111)" stroke-width="1" opacity="0.027450980392156862" d="M 277.5 128 L 292 141.5 L 291.5 143 L 282.5 133 L 277.5 128 Z " /><path fill="rgb(98,39,111)" stroke="rgb(98,39,111)" stroke-width="1" opacity="0.027450980392156862" d="M 137.5 132 L 139 132.5 L 132 138.5 L 137.5 132 Z " /><path fill="rgb(98,39,111)" stroke="rgb(98,39,111)" stroke-width="1" opacity="0.027450980392156862" d="M 201.5 132 L 204 132.5 Q 202.3 135.8 195.5 134 L 195.5 133 Q 200.3 134.2 201.5 132 Z " /><path fill="rgb(98,39,111)" stroke="rgb(98,39,111)" stroke-width="1" opacity="0.027450980392156862" d="M 216.5 132 L 225 133.5 L 217.5 134 L 216.5 132 Z " /><path fill="rgb(98,39,111)" stroke="rgb(98,39,111)" stroke-width="1" opacity="0.027450980392156862" d="M 191.5 134 L 190.5 136 L 187 135.5 L 191.5 134 Z " /><path fill="rgb(98,39,111)" stroke="rgb(98,39,111)" stroke-width="1" opacity="0.027450980392156862" d="M 228.5 134 L 233 135.5 L 229.5 136 L 228.5 134 Z " /><path fill="rgb(98,39,111)" stroke="rgb(98,39,111)" stroke-width="1" opacity="0.027450980392156862" d="M 184.5 136 Q 187.1 135.3 186 138 L 181 137.5 L 184.5 136 Z " /><path fill="rgb(98,39,111)" stroke="rgb(98,39,111)" stroke-width="1" opacity="0.027450980392156862" d="M 179.5 138 L 178.5 140 L 177 139.5 L 179.5 138 Z " /><path fill="rgb(98,39,111)" stroke="rgb(98,39,111)" stroke-width="1" opacity="0.027450980392156862" d="M 240.5 138 L 251 143 L 250.5 146 L 247.5 142 L 241.5 140 L 240.5 138 Z " /><path fill="rgb(98,39,111)" stroke="rgb(98,39,111)" stroke-width="1" opacity="0.027450980392156862" d="M 175.5 140 L 176 142 L 173 141.5 L 175.5 140 Z " /><path fill="rgb(98,39,111)" stroke="rgb(98,39,111)" stroke-width="1" opacity="0.027450980392156862" d="M 171.5 142 L 170.5 144 L 169 143.5 L 171.5 142 Z " /><path fill="rgb(98,39,111)" stroke="rgb(98,39,111)" stroke-width="1" opacity="0.027450980392156862" d="M 128.5 143 L 125 147.5 L 124.5 149 L 124 147.5 L 126 144 L 128.5 143 Z " /><path fill="rgb(98,39,111)" stroke="rgb(98,39,111)" stroke-width="1" opacity="0.027450980392156862" d="M 166.5 145 L 168 145.5 L 166 146 Q 167.3 149 163.5 148 L 161 149.5 L 166.5 145 Z " /><path fill="rgb(98,39,111)" stroke="rgb(98,39,111)" stroke-width="1" opacity="0.027450980392156862" d="M 293.5 145 L 298 150.5 L 296 149.5 L 293.5 145 Z " /><path fill="rgb(98,39,111)" stroke="rgb(98,39,111)" stroke-width="1" opacity="0.027450980392156862" d="M 122.5 151 L 121 153.5 L 120.5 155 L 120 153.5 L 122.5 151 Z " /><path fill="rgb(98,39,111)" stroke="rgb(98,39,111)" stroke-width="1" opacity="0.027450980392156862" d="M 158.5 151 L 160 151.5 L 150.5 160 L 158.5 151 Z " /><path fill="rgb(98,39,111)" stroke="rgb(98,39,111)" stroke-width="1" opacity="0.027450980392156862" d="M 247.5 152 L 247 153.5 L 246.5 156 L 246 153.5 L 247.5 152 Z " /><path fill="rgb(98,39,111)" stroke="rgb(98,39,111)" stroke-width="1" opacity="0.027450980392156862" d="M 299.5 152 L 304 160.5 L 303 160.5 L 299 153.5 L 299.5 152 Z " /><path fill="rgb(98,39,111)" stroke="rgb(98,39,111)" stroke-width="1" opacity="0.027450980392156862" d="M 118.5 157 L 118 158.5 L 112.5 170 L 112 166.5 L 118.5 157 Z " /><path fill="rgb(98,39,111)" stroke="rgb(98,39,111)" stroke-width="1" opacity="0.027450980392156862" d="M 245.5 157 L 245 158.5 L 244.5 161 L 244 158.5 L 245.5 157 Z " /><path fill="rgb(98,39,111)" stroke="rgb(98,39,111)" stroke-width="1" opacity="0.027450980392156862" d="M 197.5 158 L 203 158.5 L 196.5 160 L 197.5 158 Z " /><path fill="rgb(98,39,111)" stroke="rgb(98,39,111)" stroke-width="1" opacity="0.027450980392156862" d="M 191.5 160 L 194 160.5 L 190.5 162 L 191.5 160 Z " /><path fill="rgb(98,39,111)" stroke="rgb(98,39,111)" stroke-width="1" opacity="0.027450980392156862" d="M 271.5 161 L 276 167.5 L 271.5 164 L 270 163.5 L 271.5 161 Z " /><path fill="rgb(98,39,111)" stroke="rgb(98,39,111)" stroke-width="1" opacity="0.027450980392156862" d="M 187.5 162 L 189 162.5 L 186.5 164 L 187.5 162 Z " /><path fill="rgb(98,39,111)" stroke="rgb(98,39,111)" stroke-width="1" opacity="0.027450980392156862" d="M 243.5 162 L 243 163.5 L 240.5 171 L 240 167.5 L 243.5 162 Z " /><path fill="rgb(98,39,111)" stroke="rgb(98,39,111)" stroke-width="1" opacity="0.027450980392156862" d="M 304.5 162 L 306 164.5 L 305 164.5 L 304.5 162 Z " /><path fill="rgb(98,39,111)" stroke="rgb(98,39,111)" stroke-width="1" opacity="0.027450980392156862" d="M 147.5 163 L 148 164.5 L 146 168 L 144 167.5 L 147.5 163 Z " /><path fill="rgb(98,39,111)" stroke="rgb(98,39,111)" stroke-width="1" opacity="0.027450980392156862" d="M 183.5 164 L 185 164.5 L 181.5 167 L 183.5 164 Z " /><path fill="rgb(98,39,111)" stroke="rgb(98,39,111)" stroke-width="1" opacity="0.027450980392156862" d="M 269.5 166 L 270 168.5 L 268 169.5 L 269.5 166 Z " /><path fill="rgb(98,39,111)" stroke="rgb(98,39,111)" stroke-width="1" opacity="0.027450980392156862" d="M 306.5 166 L 308 168.5 L 307 168.5 L 306.5 166 Z " /><path fill="rgb(98,39,111)" stroke="rgb(98,39,111)" stroke-width="1" opacity="0.027450980392156862" d="M 177.5 168 L 179 168.5 L 169 177.5 L 164.5 185 L 164 183.5 L 166 179.5 L 177.5 168 Z " /><path fill="rgb(98,39,111)" stroke="rgb(98,39,111)" stroke-width="1" opacity="0.027450980392156862" d="M 143.5 169 L 144 170.5 L 142 171.5 L 143.5 169 Z " /><path fill="rgb(98,39,111)" stroke="rgb(98,39,111)" stroke-width="1" opacity="0.027450980392156862" d="M 276.5 169 L 279 172.5 L 277.5 172 Q 274.4 172.7 276.5 169 Z " /><path fill="rgb(98,39,111)" stroke="rgb(98,39,111)" stroke-width="1" opacity="0.027450980392156862" d="M 267.5 171 L 268 174 L 266 173.5 L 267.5 171 Z " /><path fill="rgb(98,39,111)" stroke="rgb(98,39,111)" stroke-width="1" opacity="0.027450980392156862" d="M 308.5 171 L 310 174.5 L 309 174.5 L 308.5 171 Z " /><path fill="rgb(98,39,111)" stroke="rgb(98,39,111)" stroke-width="1" opacity="0.027450980392156862" d="M 111.5 172 L 111 173.5 L 110.5 176 L 110 173.5 L 111.5 172 Z " /><path fill="rgb(98,39,111)" stroke="rgb(98,39,111)" stroke-width="1" opacity="0.027450980392156862" d="M 211.5 172 L 212 174.5 L 210 175.5 L 211.5 172 Z " /><path fill="rgb(98,39,111)" stroke="rgb(98,39,111)" stroke-width="1" opacity="0.027450980392156862" d="M 239.5 172 L 239 173.5 L 236.5 180 L 236 177.5 L 239.5 172 Z " /><path fill="rgb(98,39,111)" stroke="rgb(98,39,111)" stroke-width="1" opacity="0.027450980392156862" d="M 141.5 173 L 142 175.5 L 138.5 180 L 139 178.5 L 141.5 173 Z " /><path fill="rgb(98,39,111)" stroke="rgb(98,39,111)" stroke-width="1" opacity="0.027450980392156862" d="M 265.5 176 L 266 178.5 L 264 179.5 L 265.5 176 Z " /><path fill="rgb(98,39,111)" stroke="rgb(98,39,111)" stroke-width="1" opacity="0.027450980392156862" d="M 310.5 176 L 314 182.5 L 314 187.5 L 313 187.5 L 310.5 176 Z " /><path fill="rgb(98,39,111)" stroke="rgb(98,39,111)" stroke-width="1" opacity="0.027450980392156862" d="M 209.5 177 L 210 178.5 L 208 179.5 L 209.5 177 Z " /><path fill="rgb(98,39,111)" stroke="rgb(98,39,111)" stroke-width="1" opacity="0.027450980392156862" d="M 109.5 178 L 109 179.5 L 108.5 182 L 108 179.5 L 109.5 178 Z " /><path fill="rgb(98,39,111)" stroke="rgb(98,39,111)" stroke-width="1" opacity="0.027450980392156862" d="M 282.5 180 L 284 183.5 L 282 182.5 L 282.5 180 Z " /><path fill="rgb(98,39,111)" stroke="rgb(98,39,111)" stroke-width="1" opacity="0.027450980392156862" d="M 137.5 181 L 138 183.5 L 137 183.5 L 137.5 181 Z " /><path fill="rgb(98,39,111)" stroke="rgb(98,39,111)" stroke-width="1" opacity="0.027450980392156862" d="M 263.5 181 L 264 182.5 L 262 183.5 L 263.5 181 Z " /><path fill="rgb(98,39,111)" stroke="rgb(98,39,111)" stroke-width="1" opacity="0.027450980392156862" d="M 207.5 182 L 208 184.5 L 206 185.5 L 207.5 182 Z " /><path fill="rgb(98,39,111)" stroke="rgb(98,39,111)" stroke-width="1" opacity="0.027450980392156862" d="M 106 184 Q 108.7 182.9 108 185.5 L 106.5 190 L 106 184 Z " /><path fill="rgb(98,39,111)" stroke="rgb(98,39,111)" stroke-width="1" opacity="0.027450980392156862" d="M 284.5 185 L 285 187.5 L 284 187.5 L 284.5 185 Z " /><path fill="rgb(98,39,111)" stroke="rgb(98,39,111)" stroke-width="1" opacity="0.027450980392156862" d="M 135.5 186 L 136 190.5 L 134 191.5 L 135.5 186 Z " /><path fill="rgb(98,39,111)" stroke="rgb(98,39,111)" stroke-width="1" opacity="0.027450980392156862" d="M 163.5 186 L 163 187.5 L 162.5 189 L 162 187.5 L 163.5 186 Z " /><path fill="rgb(98,39,111)" stroke="rgb(98,39,111)" stroke-width="1" opacity="0.027450980392156862" d="M 233.5 186 L 234 187.5 L 232.5 190 L 232 187.5 L 233.5 186 Z " /><path fill="rgb(98,39,111)" stroke="rgb(98,39,111)" stroke-width="1" opacity="0.027450980392156862" d="M 261.5 186 L 262 187.5 L 260 188.5 L 261.5 186 Z " /><path fill="rgb(98,39,111)" stroke="rgb(98,39,111)" stroke-width="1" opacity="0.027450980392156862" d="M 205.5 187 L 206 188.5 L 204 189.5 L 205.5 187 Z " /><path fill="rgb(98,39,111)" stroke="rgb(98,39,111)" stroke-width="1" opacity="0.027450980392156862" d="M 161.5 190 L 161 191.5 L 160.5 194 L 160 191.5 L 161.5 190 Z " /><path fill="rgb(98,39,111)" stroke="rgb(98,39,111)" stroke-width="1" opacity="0.027450980392156862" d="M 203.5 192 L 204 194.5 L 202 195.5 L 203.5 192 Z " /><path fill="rgb(98,39,111)" stroke="rgb(98,39,111)" stroke-width="1" opacity="0.027450980392156862" d="M 230 192 L 232 192.5 L 230.5 195 L 230 192 Z " /><path fill="rgb(98,39,111)" stroke="rgb(98,39,111)" stroke-width="1" opacity="0.027450980392156862" d="M 286.5 192 L 287 195.5 L 286 195.5 L 286.5 192 Z " /><path fill="rgb(98,39,111)" stroke="rgb(98,39,111)" stroke-width="1" opacity="0.027450980392156862" d="M 314.5 192 L 316 193.5 L 316 201.5 L 315 201.5 Q 315.4 194.7 314.5 192 Z " /><path fill="rgb(98,39,111)" stroke="rgb(98,39,111)" stroke-width="1" opacity="0.027450980392156862" d="M 105.5 194 L 106 196.5 L 105 197.5 L 104.5 210 L 104 195.5 L 105.5 194 Z " /><path fill="rgb(98,39,111)" stroke="rgb(98,39,111)" stroke-width="1" opacity="0.027450980392156862" d="M 133.5 194 L 134 200.5 L 132 201.5 L 133.5 194 Z " /><path fill="rgb(98,39,111)" stroke="rgb(98,39,111)" stroke-width="1" opacity="0.027450980392156862" d="M 159.5 196 L 159 197.5 L 158.5 201 L 158 197.5 L 159.5 196 Z " /><path fill="rgb(98,39,111)" stroke="rgb(98,39,111)" stroke-width="1" opacity="0.027450980392156862" d="M 229.5 196 L 230 197.5 L 228.5 200 L 228 197.5 L 229.5 196 Z " /><path fill="rgb(98,39,111)" stroke="rgb(98,39,111)" stroke-width="1" opacity="0.027450980392156862" d="M 201.5 197 L 202 200 L 200 199.5 L 201.5 197 Z " /><path fill="rgb(98,39,111)" stroke="rgb(98,39,111)" stroke-width="1" opacity="0.027450980392156862" d="M 261.5 197 L 262 199.5 L 261 199.5 L 261.5 197 Z " /><path fill="rgb(98,39,111)" stroke="rgb(98,39,111)" stroke-width="1" opacity="0.027450980392156862" d="M 199.5 202 L 200 203.5 L 198 204.5 L 199.5 202 Z " /><path fill="rgb(98,39,111)" stroke="rgb(98,39,111)" stroke-width="1" opacity="0.027450980392156862" d="M 227.5 202 L 227 203.5 L 226.5 205 L 226 203.5 L 227.5 202 Z " /><path fill="rgb(98,39,111)" stroke="rgb(98,39,111)" stroke-width="1" opacity="0.027450980392156862" d="M 225.5 206 L 226 207.5 L 224.5 210 L 224 207.5 L 225.5 206 Z " /><path fill="rgb(98,39,111)" stroke="rgb(98,39,111)" stroke-width="1" opacity="0.027450980392156862" d="M 262 207 L 264 207.5 L 264 216 L 262 215.5 L 262 207 Z " /><path fill="rgb(98,39,111)" stroke="rgb(98,39,111)" stroke-width="1" opacity="0.027450980392156862" d="M 288.5 208 L 289 212.5 L 288 212.5 L 288.5 208 Z " /><path fill="rgb(98,39,111)" stroke="rgb(98,39,111)" stroke-width="1" opacity="0.027450980392156862" d="M 104.5 211 L 106 226.5 L 104 225.5 L 104.5 211 Z " /><path fill="rgb(98,39,111)" stroke="rgb(98,39,111)" stroke-width="1" opacity="0.027450980392156862" d="M 195.5 212 L 196 213.5 L 194.5 216 L 194 214.5 L 195.5 212 Z " /><path fill="rgb(98,39,111)" stroke="rgb(98,39,111)" stroke-width="1" opacity="0.027450980392156862" d="M 223.5 212 L 223 213.5 L 222.5 215 L 222 213.5 L 223.5 212 Z " /><path fill="rgb(98,39,111)" stroke="rgb(98,39,111)" stroke-width="1" opacity="0.027450980392156862" d="M 221.5 216 L 222 217.5 L 220.5 220 L 220 217.5 L 221.5 216 Z " /><path fill="rgb(98,39,111)" stroke="rgb(98,39,111)" stroke-width="1" opacity="0.027450980392156862" d="M 193.5 217 L 194.5 219 Q 191.7 219.7 193.5 217 Z " /><path fill="rgb(98,39,111)" stroke="rgb(98,39,111)" stroke-width="1" opacity="0.027450980392156862" d="M 158.5 219 L 159 222.5 L 158 222.5 L 158.5 219 Z " /><path fill="rgb(98,39,111)" stroke="rgb(98,39,111)" stroke-width="1" opacity="0.027450980392156862" d="M 315.5 219 L 316 226.5 L 314 227.5 L 315.5 219 Z " /><path fill="rgb(98,39,111)" stroke="rgb(98,39,111)" stroke-width="1" opacity="0.027450980392156862" d="M 132.5 220 Q 134.8 221.8 134 226.5 L 133 226.5 L 132.5 220 Z " /><path fill="rgb(98,39,111)" stroke="rgb(98,39,111)" stroke-width="1" opacity="0.027450980392156862" d="M 198.5 220 L 202 221.5 L 200.5 221 Q 197.5 221.5 198.5 220 Z " /><path fill="rgb(98,39,111)" stroke="rgb(98,39,111)" stroke-width="1" opacity="0.027450980392156862" d="M 261.5 221 L 262 224.5 L 260 225.5 L 261.5 221 Z " /><path fill="rgb(98,39,111)" stroke="rgb(98,39,111)" stroke-width="1" opacity="0.027450980392156862" d="M 287.5 222 L 288 223.5 L 286.5 228 L 286 223.5 L 287.5 222 Z " /><path fill="rgb(98,39,111)" stroke="rgb(98,39,111)" stroke-width="1" opacity="0.027450980392156862" d="M 208.5 224 L 212 225.5 L 210.5 226 L 208.5 224 Z " /><path fill="rgb(98,39,111)" stroke="rgb(98,39,111)" stroke-width="1" opacity="0.027450980392156862" d="M 213.5 226 Q 219.3 224.3 218 228 Q 212.8 228.3 213.5 226 Z " /><path fill="rgb(98,39,111)" stroke="rgb(98,39,111)" stroke-width="1" opacity="0.027450980392156862" d="M 259.5 228 L 260 230.5 L 258 231.5 L 259.5 228 Z " /><path fill="rgb(98,39,111)" stroke="rgb(98,39,111)" stroke-width="1" opacity="0.027450980392156862" d="M 106.5 230 L 108 235.5 L 106 234.5 L 106.5 230 Z " /><path fill="rgb(98,39,111)" stroke="rgb(98,39,111)" stroke-width="1" opacity="0.027450980392156862" d="M 134.5 230 L 136 233.5 L 135 233.5 L 134.5 230 Z " /><path fill="rgb(98,39,111)" stroke="rgb(98,39,111)" stroke-width="1" opacity="0.027450980392156862" d="M 313.5 232 L 314 235.5 L 313 235.5 L 313.5 232 Z " /><path fill="rgb(98,39,111)" stroke="rgb(98,39,111)" stroke-width="1" opacity="0.027450980392156862" d="M 257.5 233 L 258 234.5 L 256 235.5 L 257.5 233 Z " /><path fill="rgb(98,39,111)" stroke="rgb(98,39,111)" stroke-width="1" opacity="0.027450980392156862" d="M 284.5 233 L 285 235.5 L 284 235.5 L 284.5 233 Z " /><path fill="rgb(98,39,111)" stroke="rgb(98,39,111)" stroke-width="1" opacity="0.027450980392156862" d="M 136.5 236 L 138 239.5 L 137 239.5 L 136.5 236 Z " /><path fill="rgb(98,39,111)" stroke="rgb(98,39,111)" stroke-width="1" opacity="0.027450980392156862" d="M 255.5 237 L 256 238.5 L 252 241.5 L 255.5 237 Z " /><path fill="rgb(98,39,111)" stroke="rgb(98,39,111)" stroke-width="1" opacity="0.027450980392156862" d="M 108.5 239 L 110 243.5 L 108 242.5 L 108.5 239 Z " /><path fill="rgb(98,39,111)" stroke="rgb(98,39,111)" stroke-width="1" opacity="0.027450980392156862" d="M 166.5 239 L 170 243.5 L 167.5 242 Q 164.4 242.7 166.5 239 Z " /><path fill="rgb(98,39,111)" stroke="rgb(98,39,111)" stroke-width="1" opacity="0.027450980392156862" d="M 311.5 240 L 312 242.5 L 310 243.5 L 311.5 240 Z " /><path fill="rgb(98,39,111)" stroke="rgb(98,39,111)" stroke-width="1" opacity="0.027450980392156862" d="M 281.5 242 L 281 243.5 L 280.5 245 L 280 243.5 L 281.5 242 Z " /><path fill="rgb(98,39,111)" stroke="rgb(98,39,111)" stroke-width="1" opacity="0.027450980392156862" d="M 251.5 243 L 250 245.5 L 246.5 250 L 243.5 252 L 251.5 243 Z " /><path fill="rgb(98,39,111)" stroke="rgb(98,39,111)" stroke-width="1" opacity="0.027450980392156862" d="M 110.5 245 L 113 251.5 L 110 249.5 L 110.5 245 Z " /><path fill="rgb(98,39,111)" stroke="rgb(98,39,111)" stroke-width="1" opacity="0.027450980392156862" d="M 279.5 246 L 279 247.5 L 278.5 249 L 278 247.5 L 279.5 246 Z " /><path fill="rgb(98,39,111)" stroke="rgb(98,39,111)" stroke-width="1" opacity="0.027450980392156862" d="M 309.5 246 L 310 248.5 L 308 249.5 L 309.5 246 Z " /><path fill="rgb(98,39,111)" stroke="rgb(98,39,111)" stroke-width="1" opacity="0.027450980392156862" d="M 141.5 247 L 146 254.5 L 145 254.5 L 141.5 247 Z " /><path fill="rgb(98,39,111)" stroke="rgb(98,39,111)" stroke-width="1" opacity="0.027450980392156862" d="M 174.5 249 L 187 257.5 L 184 258 Q 185.3 255 181.5 256 L 178 254 Q 179.1 251.3 176.5 252 L 174.5 249 Z " /><path fill="rgb(98,39,111)" stroke="rgb(98,39,111)" stroke-width="1" opacity="0.027450980392156862" d="M 277.5 250 L 276.5 252 L 277.5 250 Z " /><path fill="rgb(98,39,111)" stroke="rgb(98,39,111)" stroke-width="1" opacity="0.027450980392156862" d="M 241.5 252 L 238.5 256 L 237 255.5 L 241.5 252 Z " /><path fill="rgb(98,39,111)" stroke="rgb(98,39,111)" stroke-width="1" opacity="0.027450980392156862" d="M 114.5 255 L 118 261.5 L 116 260.5 L 114.5 255 Z " /><path fill="rgb(98,39,111)" stroke="rgb(98,39,111)" stroke-width="1" opacity="0.027450980392156862" d="M 235.5 256 L 234.5 258 L 233 257.5 L 235.5 256 Z " /><path fill="rgb(98,39,111)" stroke="rgb(98,39,111)" stroke-width="1" opacity="0.027450980392156862" d="M 272 256 L 274 256.5 L 268.5 263 L 268 261.5 L 272 256 Z " /><path fill="rgb(98,39,111)" stroke="rgb(98,39,111)" stroke-width="1" opacity="0.027450980392156862" d="M 305.5 256 L 306 257.5 L 304 258.5 L 305.5 256 Z " /><path fill="rgb(98,39,111)" stroke="rgb(98,39,111)" stroke-width="1" opacity="0.027450980392156862" d="M 147.5 257 L 150 258 Q 148.9 260.7 151.5 260 L 158.5 268 L 160 268 L 160 270 Q 162.7 268.9 162 271.5 L 162.5 273 L 152 263.5 L 147.5 257 Z " /><path fill="rgb(98,39,111)" stroke="rgb(98,39,111)" stroke-width="1" opacity="0.027450980392156862" d="M 188.5 258 L 192 259.5 L 189.5 260 L 188.5 258 Z " /><path fill="rgb(98,39,111)" stroke="rgb(98,39,111)" stroke-width="1" opacity="0.027450980392156862" d="M 222.5 261 L 225 261.5 L 222.5 262 L 222.5 261 Z " /><path fill="rgb(98,39,111)" stroke="rgb(98,39,111)" stroke-width="1" opacity="0.027450980392156862" d="M 202.5 262 L 214.5 263 L 218.5 262 L 218.5 263 L 216.5 264 L 203.5 264 L 202.5 262 Z " /><path fill="rgb(98,39,111)" stroke="rgb(98,39,111)" stroke-width="1" opacity="0.027450980392156862" d="M 118.5 263 L 121 266.5 L 119.5 267 Q 117 266 118.5 263 Z " /><path fill="rgb(98,39,111)" stroke="rgb(98,39,111)" stroke-width="1" opacity="0.027450980392156862" d="M 301.5 263 L 302 266 L 300 265.5 L 301.5 263 Z " /><path fill="rgb(98,39,111)" stroke="rgb(98,39,111)" stroke-width="1" opacity="0.027450980392156862" d="M 299.5 267 L 300 270 L 296.5 272 L 298 269.5 L 299.5 267 Z " /><path fill="rgb(98,39,111)" stroke="rgb(98,39,111)" stroke-width="1" opacity="0.027450980392156862" d="M 261.5 268 L 263 268.5 L 256.5 274 L 256 272 L 261.5 268 Z " /><path fill="rgb(98,39,111)" stroke="rgb(98,39,111)" stroke-width="1" opacity="0.027450980392156862" d="M 122.5 269 L 126 273.5 L 122 270.5 L 122.5 269 Z " /><path fill="rgb(98,39,111)" stroke="rgb(98,39,111)" stroke-width="1" opacity="0.027450980392156862" d="M 165.5 274 L 169 276.5 L 167.5 276 L 165.5 274 Z " /><path fill="rgb(98,39,111)" stroke="rgb(98,39,111)" stroke-width="1" opacity="0.027450980392156862" d="M 126.5 275 L 141.5 291 L 144 292.5 L 143.5 294 L 134 286 L 126 276.5 L 126.5 275 Z " /><path fill="rgb(98,39,111)" stroke="rgb(98,39,111)" stroke-width="1" opacity="0.027450980392156862" d="M 293.5 275 L 294 276.5 L 288.5 283 L 286 284.5 Q 286.8 286.8 284.5 286 L 279.5 292 L 273.5 296 L 275.5 293 L 292 277.5 L 293.5 275 Z " /><path fill="rgb(98,39,111)" stroke="rgb(98,39,111)" stroke-width="1" opacity="0.027450980392156862" d="M 251.5 276 L 250.5 278 L 251.5 276 Z " /><path fill="rgb(98,39,111)" stroke="rgb(98,39,111)" stroke-width="1" opacity="0.027450980392156862" d="M 171.5 278 L 174 279.5 L 172.5 279 L 171.5 278 Z " /><path fill="rgb(98,39,111)" stroke="rgb(98,39,111)" stroke-width="1" opacity="0.027450980392156862" d="M 247.5 278 L 249 278.5 L 246.5 280 L 247.5 278 Z " /><path fill="rgb(98,39,111)" stroke="rgb(98,39,111)" stroke-width="1" opacity="0.027450980392156862" d="M 175.5 280 L 178 281.5 L 176.5 281 L 175.5 280 Z " /><path fill="rgb(98,39,111)" stroke="rgb(98,39,111)" stroke-width="1" opacity="0.027450980392156862" d="M 243.5 280 L 245 280.5 L 242.5 282 L 243.5 280 Z " /><path fill="rgb(98,39,111)" stroke="rgb(98,39,111)" stroke-width="1" opacity="0.027450980392156862" d="M 233.5 284 L 236 284.5 L 232.5 286 L 233.5 284 Z " /><path fill="rgb(98,39,111)" stroke="rgb(98,39,111)" stroke-width="1" opacity="0.027450980392156862" d="M 191.5 286 Q 196.8 284.8 198 287.5 L 195.5 288 L 191.5 287 L 191.5 286 Z " /><path fill="rgb(98,39,111)" stroke="rgb(98,39,111)" stroke-width="1" opacity="0.027450980392156862" d="M 225.5 286 L 229 286.5 L 225.5 287 L 225.5 286 Z " /><path fill="rgb(98,39,111)" stroke="rgb(98,39,111)" stroke-width="1" opacity="0.027450980392156862" d="M 204.5 288 L 217 288.5 L 204.5 289 L 204.5 288 Z " /><path fill="rgb(98,39,111)" stroke="rgb(98,39,111)" stroke-width="1" opacity="0.027450980392156862" d="M 147.5 295 L 157 301.5 L 155.5 302 L 151.5 300 L 147.5 295 Z " /><path fill="rgb(98,39,111)" stroke="rgb(98,39,111)" stroke-width="1" opacity="0.027450980392156862" d="M 271.5 296 L 270 298.5 Q 270.8 301.1 267.5 300 L 268.5 298 L 271.5 296 Z " /><path fill="rgb(98,39,111)" stroke="rgb(98,39,111)" stroke-width="1" opacity="0.027450980392156862" d="M 265.5 300 L 266 302 L 264 301.5 L 265.5 300 Z " /><path fill="rgb(98,39,111)" stroke="rgb(98,39,111)" stroke-width="1" opacity="0.027450980392156862" d="M 158.5 302 L 159.5 304 L 158.5 302 Z " /><path fill="rgb(98,39,111)" stroke="rgb(98,39,111)" stroke-width="1" opacity="0.027450980392156862" d="M 260.5 303 L 258.5 306 L 252.5 308 L 252.5 307 L 260.5 303 Z " /><path fill="rgb(98,39,111)" stroke="rgb(98,39,111)" stroke-width="1" opacity="0.027450980392156862" d="M 249.5 308 L 248.5 310 L 247 309.5 L 249.5 308 Z " /><path fill="rgb(98,39,111)" stroke="rgb(98,39,111)" stroke-width="1" opacity="0.027450980392156862" d="M 176.5 310 L 180 311.5 L 177.5 312 L 176.5 310 Z " /><path fill="rgb(98,39,111)" stroke="rgb(98,39,111)" stroke-width="1" opacity="0.027450980392156862" d="M 182.5 312 L 187 313.5 L 182 314 L 182.5 312 Z " /><path fill="rgb(98,39,111)" stroke="rgb(98,39,111)" stroke-width="1" opacity="0.027450980392156862" d="M 233.5 313 L 236 313.5 L 233.5 314 L 233.5 313 Z " /><path fill="rgb(98,39,111)" stroke="rgb(98,39,111)" stroke-width="1" opacity="0.027450980392156862" d="M 227.5 314 L 230 314.5 Q 228.3 317.8 221.5 316 L 221.5 315 Q 226.3 316.2 227.5 314 Z " /><path fill="rgb(98,39,111)" stroke="rgb(98,39,111)" stroke-width="1" opacity="0.027450980392156862" d="M 193.5 315 L 199 315.5 L 193.5 316 L 193.5 315 Z " /><path fill="rgb(71,60,74)" stroke="rgb(71,60,74)" stroke-width="1" opacity="0.00392156862745098" d="M 168 104 L 197 104.5 L 195.5 106 L 188.5 106 Q 186.2 109.2 179.5 108 L 167.5 114 L 163.5 114 L 149.5 124 L 144 126 L 144 120 L 152 120 L 152 112 L 168 112 L 168 104 Z " /><path fill="rgb(71,60,74)" stroke="rgb(71,60,74)" stroke-width="1" opacity="0.00392156862745098" d="M 223.5 104 L 247.5 104 Q 248.8 104.3 248 110.5 L 246.5 110 Q 242.3 110.8 241.5 108 L 237.5 108 L 235.5 106 L 224.5 106 L 223.5 104 Z " /><path fill="rgb(71,60,74)" stroke="rgb(71,60,74)" stroke-width="1" opacity="0.00392156862745098" d="M 253.5 112 L 264 112 L 264 118 L 254.5 114 L 253.5 112 Z " /><path fill="rgb(71,60,74)" stroke="rgb(71,60,74)" stroke-width="1" opacity="0.00392156862745098" d="M 267.5 120 L 280 120 L 280 128 L 288 128 L 288 136 L 296 136 L 296 144 L 304 144 L 304 158.5 L 302 157.5 L 300 152 Q 297 153.3 298 149.5 L 278.5 128 L 273 126 L 270.5 122 Q 266.7 122.5 267.5 120 Z " /><path fill="rgb(71,60,74)" stroke="rgb(71,60,74)" stroke-width="1" opacity="0.00392156862745098" d="M 128 128 L 143 128.5 L 132 137.5 Q 132.5 142.5 128.5 143 L 128 128 Z " /><path fill="rgb(71,60,74)" stroke="rgb(71,60,74)" stroke-width="1" opacity="0.00392156862745098" d="M 204.5 132 L 215.5 132 L 217.5 134 L 227.5 134 L 229 135.5 L 192 136 L 192 144 L 171.5 144 L 172.5 142 L 176 142 Q 174.8 139 178.5 140 Q 180.2 136.5 186 138 Q 184.7 134.3 190.5 136 L 192.5 134 L 202.5 134 L 204.5 132 Z " /><path fill="rgb(71,60,74)" stroke="rgb(71,60,74)" stroke-width="1" opacity="0.00392156862745098" d="M 232 136 L 235.5 136 L 250 144.5 Q 250.8 148.3 248.5 149 L 248 144 L 232 144 L 232 136 Z " /><path fill="rgb(71,60,74)" stroke="rgb(71,60,74)" stroke-width="1" opacity="0.00392156862745098" d="M 120 144 L 125.5 144 L 126 145.5 L 112.5 166 L 112 152 L 120 152 L 120 144 Z " /><path fill="rgb(71,60,74)" stroke="rgb(71,60,74)" stroke-width="1" opacity="0.00392156862745098" d="M 166 146 L 168 146 L 168 152 L 160 152 L 160 160 L 152 160 L 152 168 L 146 168 L 148 162.5 L 158.5 152 L 161.5 150 Q 162.6 147.3 166 148 L 166 146 Z " /><path fill="rgb(71,60,74)" stroke="rgb(71,60,74)" stroke-width="1" opacity="0.00392156862745098" d="M 192 152 L 223.5 152 L 224 152.5 L 224 160 L 217.5 160 L 216.5 158 L 197.5 158 Q 196.3 161 192 160 L 192 152 Z " /><path fill="rgb(71,60,74)" stroke="rgb(71,60,74)" stroke-width="1" opacity="0.00392156862745098" d="M 240 152 L 247 152.5 L 244 158.5 L 244 161.5 L 240.5 167 L 240 152 Z " /><path fill="rgb(71,60,74)" stroke="rgb(71,60,74)" stroke-width="1" opacity="0.00392156862745098" d="M 176 160 L 191 160.5 L 183.5 164 L 179.5 168 L 177.5 168 L 166 179.5 L 160.5 191 L 160 176 L 168 176 L 168 168 L 176 168 L 176 160 Z " /><path fill="rgb(71,60,74)" stroke="rgb(71,60,74)" stroke-width="1" opacity="0.00392156862745098" d="M 304 160 L 312 160 L 312 176 L 319.5 176 L 320 176.5 L 320 240 L 312.5 240 L 312 238.5 Q 315.4 235.9 314 228.5 L 316 226.5 L 316 193.5 L 314 191.5 L 314 182.5 L 312 180.5 L 312 177.5 L 310 175.5 L 310 172.5 L 304 160 Z " /><path fill="rgb(71,60,74)" stroke="rgb(71,60,74)" stroke-width="1" opacity="0.00392156862745098" d="M 215.5 164 L 216 184 L 208 184 L 208 180.5 L 212 174.5 L 212 170.5 L 215.5 164 Z " /><path fill="rgb(71,60,74)" stroke="rgb(71,60,74)" stroke-width="1" opacity="0.00392156862745098" d="M 270 164 L 276 168.5 Q 274.5 172.9 277.5 172 L 280 176 L 272 176 L 272 184 L 264 184 L 264 206.5 L 262 205.5 L 262 197.5 Q 259 195.5 260 189.5 L 266 178.5 L 266 174 Q 269.3 175.3 268 170.5 Q 271.3 169 270 164 Z " /><path fill="rgb(71,60,74)" stroke="rgb(71,60,74)" stroke-width="1" opacity="0.00392156862745098" d="M 104 168 L 112 168 L 112 171.5 L 108 179.5 L 108 184 L 106 184.5 L 106 193.5 L 104 194.5 L 104 168 Z " /><path fill="rgb(71,60,74)" stroke="rgb(71,60,74)" stroke-width="1" opacity="0.00392156862745098" d="M 232 168 L 240 168 L 240 171.5 L 236 177.5 Q 236.8 184.8 232.5 187 L 232 168 Z " /><path fill="rgb(71,60,74)" stroke="rgb(71,60,74)" stroke-width="1" opacity="0.00392156862745098" d="M 143.5 171 L 144 184 L 138 184 L 138 180.5 L 143.5 171 Z " /><path fill="rgb(71,60,74)" stroke="rgb(71,60,74)" stroke-width="1" opacity="0.00392156862745098" d="M 280.5 177 L 286 190.5 Q 285.3 197.4 288 200 L 280 200 L 280.5 177 Z " /><path fill="rgb(71,60,74)" stroke="rgb(71,60,74)" stroke-width="1" opacity="0.00392156862745098" d="M 207.5 185 L 208 200 L 202 200 L 202 196.5 L 207.5 185 Z " /><path fill="rgb(71,60,74)" stroke="rgb(71,60,74)" stroke-width="1" opacity="0.00392156862745098" d="M 135.5 191 L 136 230.5 L 134 229.5 Q 135.4 222.1 132 219.5 L 132 202.5 L 134 200.5 L 134 192.5 L 135.5 191 Z " /><path fill="rgb(71,60,74)" stroke="rgb(71,60,74)" stroke-width="1" opacity="0.00392156862745098" d="M 152 192 L 160 192 L 160 195.5 L 158 197.5 L 158 222.5 L 158.5 224 Q 152.3 224.8 152 223.5 L 152 192 Z " /><path fill="rgb(71,60,74)" stroke="rgb(71,60,74)" stroke-width="1" opacity="0.00392156862745098" d="M 224 192 L 230 192 L 230 195.5 L 224.5 207 L 224 192 Z " /><path fill="rgb(71,60,74)" stroke="rgb(71,60,74)" stroke-width="1" opacity="0.00392156862745098" d="M 199.5 204 L 200 216 L 208 216 L 208 224 L 200.5 220 L 196.5 220 L 194 217.5 L 197 207.5 L 199.5 204 Z " /><path fill="rgb(71,60,74)" stroke="rgb(71,60,74)" stroke-width="1" opacity="0.00392156862745098" d="M 216 208 L 224 208 L 224 211.5 L 220 217.5 L 220 221.5 Q 217.3 222.6 218 226 Q 212.6 227.5 211 224.5 L 216 224 L 216 208 Z " /><path fill="rgb(71,60,74)" stroke="rgb(71,60,74)" stroke-width="1" opacity="0.00392156862745098" d="M 262 216 L 264 216.5 L 264 240 L 256 240 L 256 248 L 249.5 248 L 250 246.5 L 260 230.5 Q 259 225.5 262 224.5 L 262 216 Z " /><path fill="rgb(71,60,74)" stroke="rgb(71,60,74)" stroke-width="1" opacity="0.00392156862745098" d="M 280 216 L 288 216 L 288 221.5 L 286 223.5 L 286 231.5 L 284 233.5 L 283 239.5 L 273.5 256 Q 271.3 255.3 272 257.5 L 263.5 268 L 261.5 268 L 256 272 L 254.5 275 L 237.5 284 L 233.5 284 L 231.5 286 Q 226 284.5 224.5 287 L 224 280 L 239.5 280 L 240 279.5 L 240 272 L 256 272 L 256 264 L 264 264 L 264 256 L 272 256 L 272 240 L 279.5 240 L 280 239.5 L 280 216 Z " /><path fill="rgb(71,60,74)" stroke="rgb(71,60,74)" stroke-width="1" opacity="0.00392156862745098" d="M 104.5 226 Q 107.8 227.8 106 234.5 L 108 236.5 L 108 242.5 L 110 244.5 L 110 249.5 L 113 252.5 L 119.5 267 L 122 268.5 L 126 276.5 L 134 286 L 143.5 294 L 144.5 293 L 151.5 300 L 159 303.5 L 144 304 L 144 296 L 136 296 L 136 288 L 128 288 L 128 280 L 120 280 L 120 272 L 112 272 L 112 256 L 104.5 256 L 104 255.5 L 104.5 226 Z " /><path fill="rgb(71,60,74)" stroke="rgb(71,60,74)" stroke-width="1" opacity="0.00392156862745098" d="M 160.5 229 L 166 238.5 L 166 242 L 174 248.5 L 176.5 252 L 179.5 254 L 180.5 256 L 168 256 L 168 248 L 160 248 L 160.5 229 Z " /><path fill="rgb(71,60,74)" stroke="rgb(71,60,74)" stroke-width="1" opacity="0.00392156862745098" d="M 136 232 L 144 232 L 144 248 L 152 248 L 152 256 L 160 256 L 160 264 L 168 264 L 168 272 L 176 272 L 176 280 L 170.5 278 L 162 271.5 L 162 270 L 160 270 Q 161.1 267.3 158.5 268 L 151.5 260 L 148.5 258 L 138 241.5 L 138 237.5 Q 135 236.3 136 232 Z " /><path fill="rgb(71,60,74)" stroke="rgb(71,60,74)" stroke-width="1" opacity="0.00392156862745098" d="M 311.5 243 L 312 264 L 304 264 L 304 272 L 297.5 272 L 298.5 270 L 300 270 L 300 266 L 302 266 L 302 262.5 L 306 257.5 L 306 254.5 L 310 248.5 Q 309 244 311.5 243 Z " /><path fill="rgb(71,60,74)" stroke="rgb(71,60,74)" stroke-width="1" opacity="0.00392156862745098" d="M 247.5 249 L 248 256 L 240 256 L 240 263.5 L 239.5 264 L 217.5 264 L 217.5 263 L 224.5 262 L 226.5 260 L 234.5 258 L 247.5 249 Z " /><path fill="rgb(71,60,74)" stroke="rgb(71,60,74)" stroke-width="1" opacity="0.00392156862745098" d="M 184 258 L 187.5 258 L 189.5 260 Q 195.2 259.3 197.5 262 L 201.5 262 L 203 263.5 L 184 264 L 184 258 Z " /><path fill="rgb(71,60,74)" stroke="rgb(71,60,74)" stroke-width="1" opacity="0.00392156862745098" d="M 295.5 273 L 296 288 L 288 288 L 288 296 L 275.5 296 L 278.5 292 L 282 289.5 L 284.5 286 Q 286.8 286.8 286 284.5 L 292 279.5 L 295.5 273 Z " /><path fill="rgb(71,60,74)" stroke="rgb(71,60,74)" stroke-width="1" opacity="0.00392156862745098" d="M 177.5 280 L 200 280 L 200 288 L 196.5 286 L 188.5 286 Q 187.5 283 182.5 284 L 178.5 282 L 177.5 280 Z " /><path fill="rgb(71,60,74)" stroke="rgb(71,60,74)" stroke-width="1" opacity="0.00392156862745098" d="M 271.5 297 L 272 304 L 264 304 L 264 311.5 L 263.5 312 L 243.5 312 L 244.5 310 L 248.5 310 L 250.5 308 L 258.5 306 L 262.5 302 L 266 302 L 266 300 L 270 300 L 270 298.5 L 271.5 297 Z " /><path fill="rgb(71,60,74)" stroke="rgb(71,60,74)" stroke-width="1" opacity="0.00392156862745098" d="M 160 304 L 172.5 310 L 175.5 310 L 177.5 312 L 182 312 L 182.5 314 L 191.5 314 L 193.5 316 L 228.5 316 L 230.5 314 Q 237.4 314.7 240 312 L 240 319.5 L 239.5 320 L 176 320 L 176 312 L 160 312 L 160 304 Z " /><path fill="rgb(100,37,115)" stroke="rgb(100,37,115)" stroke-width="1" opacity="0.996078431372549" d="M 203.5 105 L 217.5 105 L 218.5 106 L 231.5 107 L 250.5 113 Q 275.1 123.4 291 142.5 Q 305.1 158.9 312 182.5 L 315 197.5 L 315 223.5 Q 307.4 266.9 279.5 290 Q 262.8 304.8 238.5 312 L 224.5 315 L 195.5 315 Q 150.8 306.7 128 276.5 Q 115.6 261.4 109 240.5 L 105 219.5 L 105 200.5 L 109 180.5 L 113 169.5 Q 122.3 147.8 138.5 133 Q 151.6 120.6 169.5 113 L 184.5 108 L 202.5 106 L 203.5 105 Z M 207 131 L 206 132 L 194 133 L 181 137 L 162 148 L 143 169 L 136 183 L 131 204 L 131 218 L 134 233 Q 139 248 148 260 Q 165 282 199 289 L 222 289 L 231 287 Q 250 281 264 269 Q 283 252 289 221 L 289 201 L 287 191 Q 282 173 272 161 L 259 190 L 262 204 L 262 218 L 260 227 Q 256 238 249 246 Q 238 258 219 262 L 202 262 L 194 260 L 179 252 L 165 237 L 159 222 Q 161 215 158 214 L 160 196 L 168 180 Q 177 168 191 162 Q 200 157 216 159 L 192 219 L 215 228 L 218 228 L 252 143 L 232 134 L 222 132 L 215 132 L 214 131 L 207 131 Z " /><path fill="rgb(95,41,109)" stroke="rgb(95,41,109)" stroke-width="1" opacity="0.49019607843137253" d="M 199.5 105 L 203 105.5 L 199.5 106 L 199.5 105 Z " /><path fill="rgb(95,41,109)" stroke="rgb(95,41,109)" stroke-width="1" opacity="0.49019607843137253" d="M 218.5 105 L 221 105.5 L 218.5 106 L 218.5 105 Z " /><path fill="rgb(95,41,109)" stroke="rgb(95,41,109)" stroke-width="1" opacity="0.49019607843137253" d="M 191.5 106 L 195 106.5 L 191.5 107 L 191.5 106 Z " /><path fill="rgb(95,41,109)" stroke="rgb(95,41,109)" stroke-width="1" opacity="0.49019607843137253" d="M 226.5 106 L 229 106.5 L 226.5 107 L 226.5 106 Z " /><path fill="rgb(95,41,109)" stroke="rgb(95,41,109)" stroke-width="1" opacity="0.49019607843137253" d="M 186.5 107 L 189 107.5 L 186.5 108 L 186.5 107 Z " /><path fill="rgb(95,41,109)" stroke="rgb(95,41,109)" stroke-width="1" opacity="0.49019607843137253" d="M 156.5 119 L 155.5 121 L 156.5 119 Z " /><path fill="rgb(95,41,109)" stroke="rgb(95,41,109)" stroke-width="1" opacity="0.49019607843137253" d="M 265.5 120 L 266.5 122 L 265.5 120 Z " /><path fill="rgb(95,41,109)" stroke="rgb(95,41,109)" stroke-width="1" opacity="0.49019607843137253" d="M 268.5 122 L 269.5 124 L 268.5 122 Z " /><path fill="rgb(95,41,109)" stroke="rgb(95,41,109)" stroke-width="1" opacity="0.49019607843137253" d="M 150.5 123 L 149.5 125 L 150.5 123 Z " /><path fill="rgb(95,41,109)" stroke="rgb(95,41,109)" stroke-width="1" opacity="0.49019607843137253" d="M 271.5 124 L 272.5 126 L 271.5 124 Z " /><path fill="rgb(95,41,109)" stroke="rgb(95,41,109)" stroke-width="1" opacity="0.49019607843137253" d="M 275.5 127 L 277.5 130 L 275.5 127 Z " /><path fill="rgb(95,41,109)" stroke="rgb(95,41,109)" stroke-width="1" opacity="0.49019607843137253" d="M 142.5 129 L 139.5 133 L 142.5 129 Z " /><path fill="rgb(95,41,109)" stroke="rgb(95,41,109)" stroke-width="1" opacity="0.49019607843137253" d="M 206.5 131 L 214 131.5 L 206.5 132 L 206.5 131 Z " /><path fill="rgb(95,41,109)" stroke="rgb(95,41,109)" stroke-width="1" opacity="0.49019607843137253" d="M 198.5 132 L 201 132.5 L 198.5 133 L 198.5 132 Z " /><path fill="rgb(95,41,109)" stroke="rgb(95,41,109)" stroke-width="1" opacity="0.49019607843137253" d="M 225.5 133 L 228 133.5 L 225.5 134 L 225.5 133 Z " /><path fill="rgb(95,41,109)" stroke="rgb(95,41,109)" stroke-width="1" opacity="0.49019607843137253" d="M 282.5 133 L 286.5 138 L 282.5 133 Z " /><path fill="rgb(95,41,109)" stroke="rgb(95,41,109)" stroke-width="1" opacity="0.49019607843137253" d="M 131.5 140 L 129.5 143 L 131.5 140 Z " /><path fill="rgb(95,41,109)" stroke="rgb(95,41,109)" stroke-width="1" opacity="0.49019607843137253" d="M 168.5 143 L 167.5 145 L 168.5 143 Z " /><path fill="rgb(95,41,109)" stroke="rgb(95,41,109)" stroke-width="1" opacity="0.49019607843137253" d="M 291.5 143 L 292.5 145 L 291.5 143 Z " /><path fill="rgb(95,41,109)" stroke="rgb(95,41,109)" stroke-width="1" opacity="0.49019607843137253" d="M 165.5 145 L 164.5 147 L 165.5 145 Z " /><path fill="rgb(95,41,109)" stroke="rgb(95,41,109)" stroke-width="1" opacity="0.49019607843137253" d="M 126.5 146 L 125.5 148 L 126.5 146 Z " /><path fill="rgb(95,41,109)" stroke="rgb(95,41,109)" stroke-width="1" opacity="0.49019607843137253" d="M 294.5 147 L 295.5 149 L 294.5 147 Z " /><path fill="rgb(95,41,109)" stroke="rgb(95,41,109)" stroke-width="1" opacity="0.49019607843137253" d="M 161.5 148 L 159.5 151 L 161.5 148 Z " /><path fill="rgb(95,41,109)" stroke="rgb(95,41,109)" stroke-width="1" opacity="0.49019607843137253" d="M 297.5 151 L 298.5 153 L 297.5 151 Z " /><path fill="rgb(95,41,109)" stroke="rgb(95,41,109)" stroke-width="1" opacity="0.49019607843137253" d="M 120.5 155 L 119.5 157 L 120.5 155 Z " /><path fill="rgb(95,41,109)" stroke="rgb(95,41,109)" stroke-width="1" opacity="0.49019607843137253" d="M 203.5 158 L 215.5 158 L 217 159.5 L 215.5 159 L 203.5 159 L 203.5 158 Z " /><path fill="rgb(95,41,109)" stroke="rgb(95,41,109)" stroke-width="1" opacity="0.49019607843137253" d="M 149.5 160 L 148.5 162 L 149.5 160 Z " /><path fill="rgb(95,41,109)" stroke="rgb(95,41,109)" stroke-width="1" opacity="0.49019607843137253" d="M 272.5 162 L 273.5 164 L 272.5 162 Z " /><path fill="rgb(95,41,109)" stroke="rgb(95,41,109)" stroke-width="1" opacity="0.49019607843137253" d="M 146.5 164 L 145.5 166 L 146.5 164 Z " /><path fill="rgb(95,41,109)" stroke="rgb(95,41,109)" stroke-width="1" opacity="0.49019607843137253" d="M 274.5 165 L 275.5 167 L 274.5 165 Z " /><path fill="rgb(95,41,109)" stroke="rgb(95,41,109)" stroke-width="1" opacity="0.49019607843137253" d="M 180.5 167 L 179.5 169 L 180.5 167 Z " /><path fill="rgb(95,41,109)" stroke="rgb(95,41,109)" stroke-width="1" opacity="0.49019607843137253" d="M 276.5 168 L 277.5 170 L 276.5 168 Z " /><path fill="rgb(95,41,109)" stroke="rgb(95,41,109)" stroke-width="1" opacity="0.49019607843137253" d="M 176.5 170 L 169.5 178 L 176.5 170 Z " /><path fill="rgb(95,41,109)" stroke="rgb(95,41,109)" stroke-width="1" opacity="0.49019607843137253" d="M 313.5 188 L 314 190.5 L 313 190.5 L 313.5 188 Z " /><path fill="rgb(95,41,109)" stroke="rgb(95,41,109)" stroke-width="1" opacity="0.49019607843137253" d="M 106.5 190 L 107 193.5 L 106 193.5 L 106.5 190 Z " /><path fill="rgb(95,41,109)" stroke="rgb(95,41,109)" stroke-width="1" opacity="0.49019607843137253" d="M 314.5 194 L 315 196.5 L 314 196.5 L 314.5 194 Z " /><path fill="rgb(95,41,109)" stroke="rgb(95,41,109)" stroke-width="1" opacity="0.49019607843137253" d="M 105.5 197 L 106 199.5 L 105 199.5 L 105.5 197 Z " /><path fill="rgb(95,41,109)" stroke="rgb(95,41,109)" stroke-width="1" opacity="0.49019607843137253" d="M 261.5 200 L 262 202.5 L 261 202.5 L 261.5 200 Z " /><path fill="rgb(95,41,109)" stroke="rgb(95,41,109)" stroke-width="1" opacity="0.49019607843137253" d="M 288.5 200 L 289 207.5 L 288 207.5 L 288.5 200 Z " /><path fill="rgb(95,41,109)" stroke="rgb(95,41,109)" stroke-width="1" opacity="0.49019607843137253" d="M 158.5 201 L 159 206.5 L 158 206.5 L 158.5 201 Z " /><path fill="rgb(95,41,109)" stroke="rgb(95,41,109)" stroke-width="1" opacity="0.49019607843137253" d="M 315.5 202 L 316 218.5 L 315 218.5 L 315.5 202 Z " /><path fill="rgb(95,41,109)" stroke="rgb(95,41,109)" stroke-width="1" opacity="0.49019607843137253" d="M 131.5 203 L 132 217.5 L 131 217.5 L 131.5 203 Z " /><path fill="rgb(95,41,109)" stroke="rgb(95,41,109)" stroke-width="1" opacity="0.49019607843137253" d="M 288.5 213 L 289 220.5 L 288 220.5 L 288.5 213 Z " /><path fill="rgb(95,41,109)" stroke="rgb(95,41,109)" stroke-width="1" opacity="0.49019607843137253" d="M 158.5 214 L 159 218.5 L 158 218.5 L 158.5 214 Z " /><path fill="rgb(95,41,109)" stroke="rgb(95,41,109)" stroke-width="1" opacity="0.49019607843137253" d="M 261.5 218 L 262 220.5 L 261 220.5 L 261.5 218 Z " /><path fill="rgb(95,41,109)" stroke="rgb(95,41,109)" stroke-width="1" opacity="0.49019607843137253" d="M 105.5 220 L 106 222.5 L 105 222.5 L 105.5 220 Z " /><path fill="rgb(95,41,109)" stroke="rgb(95,41,109)" stroke-width="1" opacity="0.49019607843137253" d="M 106.5 227 L 107 229.5 L 106 229.5 L 106.5 227 Z " /><path fill="rgb(95,41,109)" stroke="rgb(95,41,109)" stroke-width="1" opacity="0.49019607843137253" d="M 286.5 228 L 287 230.5 L 286 230.5 L 286.5 228 Z " /><path fill="rgb(95,41,109)" stroke="rgb(95,41,109)" stroke-width="1" opacity="0.49019607843137253" d="M 313.5 229 L 314 231.5 L 313 231.5 L 313.5 229 Z " /><path fill="rgb(95,41,109)" stroke="rgb(95,41,109)" stroke-width="1" opacity="0.49019607843137253" d="M 165.5 237 L 166.5 239 L 165.5 237 Z " /><path fill="rgb(95,41,109)" stroke="rgb(95,41,109)" stroke-width="1" opacity="0.49019607843137253" d="M 167.5 240 L 168.5 242 L 167.5 240 Z " /><path fill="rgb(95,41,109)" stroke="rgb(95,41,109)" stroke-width="1" opacity="0.49019607843137253" d="M 251.5 242 L 249.5 245 L 251.5 242 Z " /><path fill="rgb(95,41,109)" stroke="rgb(95,41,109)" stroke-width="1" opacity="0.49019607843137253" d="M 139.5 244 L 141 246.5 L 139 245.5 L 139.5 244 Z " /><path fill="rgb(95,41,109)" stroke="rgb(95,41,109)" stroke-width="1" opacity="0.49019607843137253" d="M 170.5 244 L 176.5 251 L 170.5 244 Z " /><path fill="rgb(95,41,109)" stroke="rgb(95,41,109)" stroke-width="1" opacity="0.49019607843137253" d="M 244.5 249 L 242.5 252 L 244.5 249 Z " /><path fill="rgb(95,41,109)" stroke="rgb(95,41,109)" stroke-width="1" opacity="0.49019607843137253" d="M 179.5 252 L 180.5 254 L 179.5 252 Z " /><path fill="rgb(95,41,109)" stroke="rgb(95,41,109)" stroke-width="1" opacity="0.49019607843137253" d="M 275.5 254 L 274.5 256 L 275.5 254 Z " /><path fill="rgb(95,41,109)" stroke="rgb(95,41,109)" stroke-width="1" opacity="0.49019607843137253" d="M 145.5 255 L 146.5 257 L 145.5 255 Z " /><path fill="rgb(95,41,109)" stroke="rgb(95,41,109)" stroke-width="1" opacity="0.49019607843137253" d="M 272.5 258 L 271.5 260 L 272.5 258 Z " /><path fill="rgb(95,41,109)" stroke="rgb(95,41,109)" stroke-width="1" opacity="0.49019607843137253" d="M 148.5 259 L 151.5 263 L 148.5 259 Z " /><path fill="rgb(95,41,109)" stroke="rgb(95,41,109)" stroke-width="1" opacity="0.49019607843137253" d="M 198.5 261 L 201 261.5 L 198.5 262 L 198.5 261 Z " /><path fill="rgb(95,41,109)" stroke="rgb(95,41,109)" stroke-width="1" opacity="0.49019607843137253" d="M 219.5 261 L 222 261.5 L 219.5 262 L 219.5 261 Z " /><path fill="rgb(95,41,109)" stroke="rgb(95,41,109)" stroke-width="1" opacity="0.49019607843137253" d="M 302.5 261 L 301.5 263 L 302.5 261 Z " /><path fill="rgb(95,41,109)" stroke="rgb(95,41,109)" stroke-width="1" opacity="0.49019607843137253" d="M 206.5 262 L 215 262.5 L 206.5 263 L 206.5 262 Z " /><path fill="rgb(95,41,109)" stroke="rgb(95,41,109)" stroke-width="1" opacity="0.49019607843137253" d="M 267.5 264 L 263.5 269 L 267.5 264 Z " /><path fill="rgb(95,41,109)" stroke="rgb(95,41,109)" stroke-width="1" opacity="0.49019607843137253" d="M 121.5 267 L 122.5 269 L 121.5 267 Z " /><path fill="rgb(95,41,109)" stroke="rgb(95,41,109)" stroke-width="1" opacity="0.49019607843137253" d="M 158.5 269 L 160.5 272 L 158.5 269 Z " /><path fill="rgb(95,41,109)" stroke="rgb(95,41,109)" stroke-width="1" opacity="0.49019607843137253" d="M 123.5 270 L 124.5 272 L 123.5 270 Z " /><path fill="rgb(95,41,109)" stroke="rgb(95,41,109)" stroke-width="1" opacity="0.49019607843137253" d="M 259.5 271 L 258.5 273 L 259.5 271 Z " /><path fill="rgb(95,41,109)" stroke="rgb(95,41,109)" stroke-width="1" opacity="0.49019607843137253" d="M 295.5 272 L 294.5 274 L 295.5 272 Z " /><path fill="rgb(95,41,109)" stroke="rgb(95,41,109)" stroke-width="1" opacity="0.49019607843137253" d="M 163.5 273 L 164.5 275 L 163.5 273 Z " /><path fill="rgb(95,41,109)" stroke="rgb(95,41,109)" stroke-width="1" opacity="0.49019607843137253" d="M 126.5 274 L 127.5 276 L 126.5 274 Z " /><path fill="rgb(95,41,109)" stroke="rgb(95,41,109)" stroke-width="1" opacity="0.49019607843137253" d="M 255.5 274 L 254.5 276 L 255.5 274 Z " /><path fill="rgb(95,41,109)" stroke="rgb(95,41,109)" stroke-width="1" opacity="0.49019607843137253" d="M 252.5 276 L 251.5 278 L 252.5 276 Z " /><path fill="rgb(95,41,109)" stroke="rgb(95,41,109)" stroke-width="1" opacity="0.49019607843137253" d="M 169.5 277 L 170.5 279 L 169.5 277 Z " /><path fill="rgb(95,41,109)" stroke="rgb(95,41,109)" stroke-width="1" opacity="0.49019607843137253" d="M 291.5 277 L 290.5 279 L 291.5 277 Z " /><path fill="rgb(95,41,109)" stroke="rgb(95,41,109)" stroke-width="1" opacity="0.49019607843137253" d="M 130.5 279 L 141.5 291 L 130.5 279 Z " /><path fill="rgb(95,41,109)" stroke="rgb(95,41,109)" stroke-width="1" opacity="0.49019607843137253" d="M 224.5 287 L 227 287.5 L 224.5 288 L 224.5 287 Z " /><path fill="rgb(95,41,109)" stroke="rgb(95,41,109)" stroke-width="1" opacity="0.49019607843137253" d="M 198.5 288 L 204 288.5 L 198.5 289 L 198.5 288 Z " /><path fill="rgb(95,41,109)" stroke="rgb(95,41,109)" stroke-width="1" opacity="0.49019607843137253" d="M 217.5 288 L 222 288.5 L 217.5 289 L 217.5 288 Z " /><path fill="rgb(95,41,109)" stroke="rgb(95,41,109)" stroke-width="1" opacity="0.49019607843137253" d="M 278.5 290 L 276.5 293 L 278.5 290 Z " /><path fill="rgb(95,41,109)" stroke="rgb(95,41,109)" stroke-width="1" opacity="0.49019607843137253" d="M 145.5 293 L 146.5 295 L 145.5 293 Z " /><path fill="rgb(95,41,109)" stroke="rgb(95,41,109)" stroke-width="1" opacity="0.49019607843137253" d="M 273.5 294 L 272.5 296 L 273.5 294 Z " /><path fill="rgb(95,41,109)" stroke="rgb(95,41,109)" stroke-width="1" opacity="0.49019607843137253" d="M 149.5 296 L 150.5 298 L 149.5 296 Z " /><path fill="rgb(95,41,109)" stroke="rgb(95,41,109)" stroke-width="1" opacity="0.49019607843137253" d="M 264.5 300 L 263.5 302 L 264.5 300 Z " /><path fill="rgb(95,41,109)" stroke="rgb(95,41,109)" stroke-width="1" opacity="0.49019607843137253" d="M 160.5 303 L 163 304.5 L 161.5 304 L 160.5 303 Z " /><path fill="rgb(95,41,109)" stroke="rgb(95,41,109)" stroke-width="1" opacity="0.49019607843137253" d="M 187.5 313 L 190 313.5 L 187.5 314 L 187.5 313 Z " /><path fill="rgb(95,41,109)" stroke="rgb(95,41,109)" stroke-width="1" opacity="0.49019607843137253" d="M 230.5 313 L 233 313.5 L 230.5 314 L 230.5 313 Z " /><path fill="rgb(95,41,109)" stroke="rgb(95,41,109)" stroke-width="1" opacity="0.49019607843137253" d="M 192.5 314 L 195 314.5 L 192.5 315 L 192.5 314 Z " /><path fill="rgb(95,41,109)" stroke="rgb(95,41,109)" stroke-width="1" opacity="0.49019607843137253" d="M 199.5 315 L 221 315.5 L 199.5 316 L 199.5 315 Z " /></svg>