<svg width="4464" height="1944" version="1.1" xmlns="http://www.w3.org/2000/svg" desc="Created with imagetracer.js version 1.2.6" ><path fill="rgb(254,254,254)" stroke="rgb(254,254,254)" stroke-width="1" opacity="0" d="M 0 0 L 4464 0 L 4464 1944 L 0 1944 L 0 0 Z M 144 136 L 144 256 L 3160 256 L 3160 256 L 3160 241 L 3161 240 L 3616 240 L 3616 248 L 3608 248 L 3608 256 L 4312 256 L 4312 256 L 4312 136 L 3649 136 L 3648 137 L 3648 144 L 3121 144 L 3120 144 L 3120 136 L 2457 136 L 2456 137 L 2456 144 L 2025 144 L 2024 144 L 2024 136 L 1073 136 L 1072 137 L 1072 144 L 961 144 L 960 144 L 960 137 L 960 136 L 144 136 Z M 144 352 L 144 480 L 3240 480 L 3240 480 L 3240 472 L 3528 472 L 3528 473 L 3528 480 L 4312 480 L 4312 480 L 4312 352 L 3569 352 L 3568 353 L 3568 360 L 3201 360 L 3200 360 L 3200 352 L 2457 352 L 2456 353 L 2456 360 L 2329 360 L 2328 360 L 2328 352 L 1073 352 L 1072 353 L 1072 360 L 961 360 L 960 360 L 960 353 L 960 352 L 144 352 Z M 376 576 L 376 696 L 736 696 L 736 576 L 376 576 Z M 1304 576 L 1304 696 L 4088 696 L 4088 696 L 4088 576 L 3497 576 L 3496 577 L 3496 584 L 3273 584 L 3272 584 L 3272 576 L 2689 576 L 2688 577 L 2688 584 L 2377 584 L 2376 584 L 2376 576 L 1993 576 L 1992 577 L 1992 584 L 1665 584 L 1664 584 L 1664 577 L 1664 576 L 1304 576 Z M 376 800 L 376 920 L 736 920 L 736 800 L 376 800 Z M 1304 800 L 1304 920 L 4088 920 L 4088 920 L 4088 800 L 3417 800 L 3416 801 L 3416 808 L 3361 808 L 3360 808 L 3360 800 L 2689 800 L 2688 801 L 2688 824 L 2305 824 L 2304 824 L 2304 801 L 2304 800 L 1304 800 Z M 376 1024 L 376 1144 L 736 1144 L 736 1024 L 376 1024 Z M 1304 1024 L 1304 1144 L 2304 1144 L 2304 1144 L 2304 1120 L 2688 1120 L 2688 1121 L 2688 1144 L 2689 1144 L 4088 1144 L 4088 1025 L 4088 1024 L 1304 1024 Z M 376 1240 L 376 1368 L 736 1368 L 736 1240 L 376 1240 Z M 1304 1240 L 1304 1368 L 2376 1368 L 2376 1368 L 2376 1304 L 2688 1304 L 2688 1305 L 2688 1368 L 3048 1368 L 3048 1240 L 2689 1240 L 2688 1241 L 2688 1248 L 2353 1248 L 2352 1248 L 2352 1240 L 1993 1240 L 1992 1241 L 1992 1248 L 1665 1248 L 1664 1248 L 1664 1241 L 1664 1240 L 1304 1240 Z M 3184 1240 L 3184 1272 L 3185 1272 L 3192 1272 L 3192 1296 L 3193 1296 L 3200 1296 L 3200 1297 L 3200 1320 L 3201 1320 L 3208 1320 L 3208 1336 L 3216 1336 L 3216 1360 L 3217 1360 L 3224 1360 L 3224 1368 L 4088 1368 L 4088 1368 L 4088 1240 L 3729 1240 L 3728 1241 L 3728 1248 L 3593 1248 L 3592 1248 L 3592 1241 L 3592 1240 L 3184 1240 Z M 152 1464 L 152 1584 L 3048 1584 L 3048 1584 L 3048 1464 L 2457 1464 L 2456 1465 L 2456 1472 L 2369 1472 L 2368 1472 L 2368 1464 L 1073 1464 L 1072 1465 L 1072 1472 L 969 1472 L 968 1472 L 968 1465 L 968 1464 L 152 1464 Z M 3264 1464 L 3264 1496 L 3265 1496 L 3272 1496 L 3272 1512 L 3280 1512 L 3280 1536 L 3281 1536 L 3288 1536 L 3288 1537 L 3288 1560 L 3289 1560 L 3296 1560 L 3296 1561 L 3296 1584 L 4320 1584 L 4320 1584 L 4320 1464 L 3729 1464 L 3728 1465 L 3728 1496 L 3513 1496 L 3512 1496 L 3512 1465 L 3512 1464 L 3264 1464 Z M 152 1688 L 152 1808 L 153 1808 L 3048 1808 L 3048 1689 L 3048 1688 L 152 1688 Z M 3344 1688 L 3344 1712 L 3345 1712 L 3352 1712 L 3352 1713 L 3352 1736 L 3353 1736 L 3360 1736 L 3360 1760 L 3361 1760 L 3368 1760 L 3368 1784 L 3369 1784 L 3376 1784 L 3376 1808 L 3377 1808 L 4320 1808 L 4320 1689 L 4320 1688 L 3344 1688 Z " /><path fill="rgb(254,254,254)" stroke="rgb(254,254,254)" stroke-width="1" opacity="0" d="M 3656 1072 L 3727.5 1072 L 3728 1072.5 L 3728 1088 L 3656.5 1088 L 3656 1087.5 L 3656 1072 Z " /><path fill="rgb(30,112,192)" stroke="rgb(30,112,192)" stroke-width="1" opacity="0.9176470588235294" d="M 148 138 L 958.5 138 L 959 138.5 L 959 253 L 149.5 253 L 148 251.5 L 148 138 Z " /><path fill="rgb(30,112,192)" stroke="rgb(30,112,192)" stroke-width="1" opacity="0.9176470588235294" d="M 1074.5 138 L 1973.5 138 L 1974.5 139 L 1990.5 139 L 1996.5 141 L 2005.5 141 L 2010.5 143 L 2017.5 143 L 2021.5 145 L 2036.5 147 L 2039.5 149 L 2043.5 149 L 2060.5 155 L 2070.5 157 L 2110.5 173 L 2138.5 187 L 2173.5 208 Q 2204 227.5 2230 251.5 L 2228.5 253 L 1074.5 253 L 1073 251.5 L 1073 139.5 L 1074.5 138 Z " /><path fill="rgb(30,112,192)" stroke="rgb(30,112,192)" stroke-width="1" opacity="0.9176470588235294" d="M 2456 138 L 3114.5 138 L 3115 140.5 L 3156 251.5 L 3154.5 253 L 2457.5 253 L 2456 251.5 L 2456 138 Z " /><path fill="rgb(30,112,192)" stroke="rgb(30,112,192)" stroke-width="1" opacity="0.9176470588235294" d="M 3657.5 138 L 4307.5 138 L 4309 139.5 L 4309 251.5 L 4307.5 253 L 3615.5 253 L 3615 251.5 L 3649 160.5 L 3649 157.5 L 3657.5 138 Z " /><path fill="rgb(30,112,192)" stroke="rgb(30,112,192)" stroke-width="1" opacity="0.9176470588235294" d="M 149.5 359 L 958.5 359 L 959 359.5 L 959 474 L 148.5 474 L 148 473.5 L 148 360.5 L 149.5 359 Z " /><path fill="rgb(30,112,192)" stroke="rgb(30,112,192)" stroke-width="1" opacity="0.9176470588235294" d="M 1074.5 359 L 2322.5 359 L 2324 360.5 L 2331 369.5 L 2343 393.5 L 2343 396.5 L 2345 399.5 L 2357 438.5 L 2364 474 L 1074.5 474 L 1073 472.5 L 1073 360.5 L 1074.5 359 Z " /><path fill="rgb(30,112,192)" stroke="rgb(30,112,192)" stroke-width="1" opacity="0.9176470588235294" d="M 2457.5 359 L 3192.5 359 L 3195 361.5 L 3203 387.5 L 3205 390.5 L 3205 393.5 L 3207 396.5 L 3207 399.5 L 3209 402.5 L 3209 405.5 L 3211 408.5 L 3211 411.5 L 3217 425.5 L 3217 428.5 L 3231 467.5 L 3232 474 L 2456.5 474 L 2456 473.5 L 2456 360.5 L 2457.5 359 Z " /><path fill="rgb(30,112,192)" stroke="rgb(30,112,192)" stroke-width="1" opacity="0.9176470588235294" d="M 3574.5 359 L 4307.5 359 L 4309 360.5 L 4309 472.5 L 4307.5 474 L 3536.5 474 L 3536 470.5 L 3541 458.5 L 3541 455.5 L 3543 452.5 L 3543 449.5 L 3545 446.5 L 3545 443.5 L 3547 440.5 L 3547 437.5 L 3549 434.5 L 3549 431.5 L 3551 428.5 L 3551 425.5 L 3553 422.5 L 3565 383.5 L 3574.5 359 Z " /><path fill="rgb(30,112,192)" stroke="rgb(30,112,192)" stroke-width="1" opacity="0.9176470588235294" d="M 381 581 L 731.5 581 L 733 582.5 L 733 694.5 L 731.5 696 L 381.5 696 L 381 695.5 L 381 581 Z " /><path fill="rgb(30,112,192)" stroke="rgb(30,112,192)" stroke-width="1" opacity="0.9176470588235294" d="M 1307 581 L 1657.5 581 L 1659 582.5 L 1659 694.5 L 1657.5 696 L 1307.5 696 L 1307 695.5 L 1307 581 Z " /><path fill="rgb(30,112,192)" stroke="rgb(30,112,192)" stroke-width="1" opacity="0.9176470588235294" d="M 2000.5 581 L 2372.5 581 L 2373 581.5 L 2373 606.5 L 2371 611.5 L 2371 620.5 L 2369 625.5 L 2369 632.5 L 2367 636.5 L 2365 651.5 L 2363 654.5 L 2363 658.5 L 2361 662.5 L 2361 666.5 L 2357 680.5 L 2355 683.5 L 2353 692.5 L 2350.5 696 L 2000.5 696 L 1999 694.5 L 1999 582.5 L 2000.5 581 Z " /><path fill="rgb(30,112,192)" stroke="rgb(30,112,192)" stroke-width="1" opacity="0.9176470588235294" d="M 2690.5 581 L 3270.5 581 L 3271 582.5 L 3293 640.5 L 3293 643.5 L 3297 651.5 L 3301 665.5 L 3305 673.5 L 3305 676.5 L 3309 684.5 L 3312 696 L 2690.5 696 L 2689 694.5 L 2689 582.5 L 2690.5 581 Z " /><path fill="rgb(30,112,192)" stroke="rgb(30,112,192)" stroke-width="1" opacity="0.9176470588235294" d="M 3497 581 L 4080.5 581 L 4082 582.5 L 4082 695.5 L 4081.5 696 L 3456 696 L 3459 684.5 L 3463 676.5 L 3463 673.5 L 3467 665.5 L 3471 651.5 L 3475 643.5 L 3479 629.5 Q 3484.7 620.2 3487 607.5 L 3489 605.5 L 3489 602.5 L 3493 594.5 L 3493 591.5 L 3497 581 Z " /><path fill="rgb(30,112,192)" stroke="rgb(30,112,192)" stroke-width="1" opacity="0.9176470588235294" d="M 381 803 L 732.5 803 L 733 803.5 L 733 916.5 L 731.5 918 L 381 918 L 381 803 Z " /><path fill="rgb(30,112,192)" stroke="rgb(30,112,192)" stroke-width="1" opacity="0.9176470588235294" d="M 1307 803 L 2302.5 803 L 2303 804.5 Q 2292.5 828 2277 846.5 Q 2256.9 871.4 2233.5 893 L 2204.5 918 L 1999.5 918 L 1998.5 917 L 1659.5 917 L 1658.5 918 L 1307 918 L 1307 803 Z " /><path fill="rgb(30,112,192)" stroke="rgb(30,112,192)" stroke-width="1" opacity="0.9176470588235294" d="M 2689 803 L 3352.5 803 L 3353 806.5 L 3361 825.5 L 3361 828.5 L 3365 836.5 L 3369 850.5 L 3385 891.5 L 3385 894.5 L 3387.5 898 L 3422.5 803 L 4081.5 803 L 4082 803.5 L 4082 916.5 L 4080.5 918 L 3730 918 L 3729.5 858 L 3707 918 L 3281.5 917 L 3280.5 918 L 3063.5 918 L 3061 914.5 L 3053 888.5 L 3051 885.5 L 3051 882.5 L 3048 877.5 L 3041.5 858 L 3041 918 L 2690.5 918 L 2689 916.5 L 2689 803 Z " /><path fill="rgb(30,112,192)" stroke="rgb(30,112,192)" stroke-width="1" opacity="0.9176470588235294" d="M 381 1025 L 732.5 1025 L 733 1025.5 L 733 1139 L 381.5 1139 L 381 1138.5 L 381 1025 Z " /><path fill="rgb(30,112,192)" stroke="rgb(30,112,192)" stroke-width="1" opacity="0.9176470588235294" d="M 1307 1025 L 2204.5 1025 Q 2235 1049 2261 1077.5 L 2287 1109.5 Q 2297 1122.8 2303 1139 L 1307.5 1139 L 1307 1138.5 L 1307 1025 Z " /><path fill="rgb(30,112,192)" stroke="rgb(30,112,192)" stroke-width="1" opacity="0.9176470588235294" d="M 2689 1025 L 3040.5 1025 L 3041 1025.5 L 3041 1139 L 2689.5 1139 L 2689 1138.5 L 2689 1025 Z " /><path fill="rgb(30,112,192)" stroke="rgb(30,112,192)" stroke-width="1" opacity="0.9176470588235294" d="M 3104.5 1025 L 3669.5 1025 L 3670 1026.5 L 3629.5 1139 L 3146.5 1139 L 3146 1136.5 L 3104.5 1025 Z " /><path fill="rgb(30,112,192)" stroke="rgb(30,112,192)" stroke-width="1" opacity="0.9176470588235294" d="M 3730 1025 L 4081.5 1025 L 4082 1025.5 L 4082 1139 L 3730.5 1139 L 3730 1138.5 L 3730 1025 Z " /><path fill="rgb(30,112,192)" stroke="rgb(30,112,192)" stroke-width="1" opacity="0.9176470588235294" d="M 381 1247 L 732.5 1247 L 733 1247.5 L 733 1361 L 381.5 1361 L 381 1360.5 L 381 1247 Z " /><path fill="rgb(30,112,192)" stroke="rgb(30,112,192)" stroke-width="1" opacity="0.9176470588235294" d="M 1307 1247 L 1658.5 1247 L 1659 1247.5 L 1659 1361 L 1307.5 1361 L 1307 1360.5 L 1307 1247 Z " /><path fill="rgb(30,112,192)" stroke="rgb(30,112,192)" stroke-width="1" opacity="0.9176470588235294" d="M 1999 1247 L 2351.5 1247 L 2352 1248.5 L 2361 1275.5 L 2363 1287.5 L 2365 1291.5 L 2365 1296.5 L 2367 1300.5 L 2367 1305.5 L 2369 1309.5 Q 2368 1317.5 2371 1321.5 L 2371 1330.5 L 2373 1336.5 L 2373 1361 L 1999.5 1361 L 1999 1360.5 L 1999 1247 Z " /><path fill="rgb(30,112,192)" stroke="rgb(30,112,192)" stroke-width="1" opacity="0.9176470588235294" d="M 2689 1247 L 3040.5 1247 L 3041 1247.5 L 3041 1361 L 2689.5 1361 L 2689 1360.5 L 2689 1247 Z " /><path fill="rgb(30,112,192)" stroke="rgb(30,112,192)" stroke-width="1" opacity="0.9176470588235294" d="M 3184.5 1247 L 3591 1247.5 L 3563 1324.5 L 3559 1332.5 L 3559 1335.5 L 3550 1361 L 3225.5 1361 L 3224 1359.5 L 3215 1334.5 L 3215 1331.5 L 3185 1251.5 L 3184.5 1247 Z " /><path fill="rgb(30,112,192)" stroke="rgb(30,112,192)" stroke-width="1" opacity="0.9176470588235294" d="M 3730 1247 L 4081.5 1247 L 4082 1247.5 L 4082 1361 L 3730.5 1361 L 3730 1360.5 L 3730 1247 Z " /><path fill="rgb(30,112,192)" stroke="rgb(30,112,192)" stroke-width="1" opacity="0.9176470588235294" d="M 154 1469 L 964.5 1469 L 965 1469.5 L 965 1583 L 154.5 1583 L 154 1582.5 L 154 1469 Z " /><path fill="rgb(30,112,192)" stroke="rgb(30,112,192)" stroke-width="1" opacity="0.9176470588235294" d="M 1073 1469 L 2363.5 1469 L 2364 1470.5 L 2359 1491.5 L 2359 1496.5 L 2357 1499.5 L 2357 1504.5 L 2355 1507.5 L 2355 1511.5 L 2347 1538.5 L 2335 1566.5 Q 2330.4 1576.4 2322.5 1583 L 1073.5 1583 L 1073 1582.5 L 1073 1469 Z " /><path fill="rgb(30,112,192)" stroke="rgb(30,112,192)" stroke-width="1" opacity="0.9176470588235294" d="M 2462 1469 L 3040.5 1469 L 3041 1469.5 L 3041 1583 L 2463.5 1583 L 2463 1582.5 L 2463 1510.5 L 2462 1509.5 L 2462 1469 Z " /><path fill="rgb(30,112,192)" stroke="rgb(30,112,192)" stroke-width="1" opacity="0.9176470588235294" d="M 3264.5 1469 L 3510.5 1469 L 3511 1470.5 L 3486 1542.5 L 3481 1553.5 L 3481 1556.5 L 3479 1559.5 L 3472 1583 L 3306.5 1583 L 3306 1581.5 L 3265 1473.5 L 3264.5 1469 Z " /><path fill="rgb(30,112,192)" stroke="rgb(30,112,192)" stroke-width="1" opacity="0.9176470588235294" d="M 3730 1469 L 4314.5 1469 L 4315 1469.5 L 4315 1583 L 3730.5 1583 L 3730 1582.5 L 3730 1469 Z " /><path fill="rgb(30,112,192)" stroke="rgb(30,112,192)" stroke-width="1" opacity="0.9176470588235294" d="M 155.5 1690 L 959.5 1690 L 965 1691 L 965 1804.5 L 964.5 1805 L 154 1805 L 154 1691.5 L 155.5 1690 Z " /><path fill="rgb(30,112,192)" stroke="rgb(30,112,192)" stroke-width="1" opacity="0.9176470588235294" d="M 1074.5 1690 L 2230 1690.5 Q 2178.2 1738.7 2109.5 1770 L 2080.5 1782 L 2042.5 1794 L 2009.5 1801 L 1987.5 1803 L 1986.5 1804 L 1973.5 1804 L 1972.5 1805 L 1073 1805 L 1073 1691.5 L 1074.5 1690 Z " /><path fill="rgb(30,112,192)" stroke="rgb(30,112,192)" stroke-width="1" opacity="0.9176470588235294" d="M 2463 1690 L 3040.5 1690 L 3041 1690.5 L 3041 1805 L 2463.5 1805 L 2463 1804.5 L 2463 1690 Z " /><path fill="rgb(30,112,192)" stroke="rgb(30,112,192)" stroke-width="1" opacity="0.9176470588235294" d="M 3345 1690 L 3432.5 1690 L 3434 1691.5 L 3408 1763.5 L 3401 1779.5 L 3401 1782.5 L 3393 1805 L 3385.5 1805 L 3384 1803.5 L 3375 1778.5 L 3375 1775.5 L 3361 1739.5 L 3361 1736.5 L 3347 1700.5 L 3345 1690 Z " /><path fill="rgb(30,112,192)" stroke="rgb(30,112,192)" stroke-width="1" opacity="0.9176470588235294" d="M 3731.5 1690 L 4308.5 1690 L 4315 1691 L 4315 1804.5 L 4314.5 1805 L 3730 1805 L 3730 1691.5 L 3731.5 1690 Z " /><path fill="rgb(0,0,0)" stroke="rgb(0,0,0)" stroke-width="1" opacity="0" d="M 960 144 L 1072 144 L 1072 256 L 960 256 L 960 144 Z " /><path fill="rgb(0,0,0)" stroke="rgb(0,0,0)" stroke-width="1" opacity="0" d="M 2056 144 L 2455.5 144 L 2456 144.5 L 2456 256 L 2232.5 256 L 2232 255.5 L 2232 240 L 2216 240 L 2216 232 L 2208 232 L 2208 224 L 2200 224 L 2200 216 L 2192 216 L 2192 208 L 2176.5 208 L 2176 207.5 L 2176 200 L 2160 200 L 2160 192 L 2152 192 L 2152 184 L 2136 184 L 2136 176 L 2120 176 L 2120 168 L 2104 168 L 2104 160 L 2080.5 160 L 2080 159.5 L 2080 152.5 L 2079.5 152 L 2056 152 L 2056 144 Z " /><path fill="rgb(0,0,0)" stroke="rgb(0,0,0)" stroke-width="1" opacity="0" d="M 3120 144 L 3647.5 144 L 3648 144.5 L 3648 160 L 3640 160 L 3640 183.5 L 3639.5 184 L 3632 184 L 3632 200 L 3624 200 L 3624 223.5 L 3623.5 224 L 3616 224 L 3616 239.5 L 3615.5 240 L 3152 240 L 3152 216.5 L 3151.5 216 L 3144.5 216 L 3144 215.5 L 3144 192.5 L 3143.5 192 L 3136 192 L 3136 176 L 3128 176 L 3128 152.5 L 3127.5 152 L 3120 152 L 3120 144 Z " /><path fill="rgb(0,0,0)" stroke="rgb(0,0,0)" stroke-width="1" opacity="0" d="M 960 360 L 1072 360 L 1072 480 L 960 480 L 960 360 Z " /><path fill="rgb(0,0,0)" stroke="rgb(0,0,0)" stroke-width="1" opacity="0" d="M 2336 360 L 2456 360 L 2456 480 L 2368 480 L 2368 448.5 L 2367.5 448 L 2360.5 448 L 2360 447.5 L 2360 416.5 L 2359.5 416 L 2352 416 L 2352 392.5 L 2351.5 392 L 2344 392 L 2344 376 L 2336 376 L 2336 360 Z " /><path fill="rgb(0,0,0)" stroke="rgb(0,0,0)" stroke-width="1" opacity="0" d="M 3200 360 L 3567.5 360 L 3568 360.5 L 3568 376 L 3560 376 L 3560 399.5 L 3559.5 400 L 3552 400 L 3552 423.5 L 3551.5 424 L 3544 424 L 3544 447.5 L 3543.5 448 L 3536 448 L 3536 471.5 L 3535.5 472 L 3232 472 L 3232 448.5 L 3231.5 448 L 3224 448 L 3224 424.5 L 3223.5 424 L 3216 424 L 3216 400.5 L 3215.5 400 L 3208 400 L 3208 376.5 L 3207.5 376 L 3200 376 L 3200 360 Z " /><path fill="rgb(0,0,0)" stroke="rgb(0,0,0)" stroke-width="1" opacity="0" d="M 1664 584 L 1991.5 584 L 1992 584.5 L 1992 680 L 1664.5 680 L 1664 679.5 L 1664 584 Z " /><path fill="rgb(0,0,0)" stroke="rgb(0,0,0)" stroke-width="1" opacity="0" d="M 2376 584 L 2688 584 L 2688 696 L 2360.5 696 L 2360 695.5 L 2360 672 L 2368 672 L 2368 640.5 L 2368.5 640 L 2375.5 640 L 2376 639.5 L 2376 584 Z " /><path fill="rgb(0,0,0)" stroke="rgb(0,0,0)" stroke-width="1" opacity="0" d="M 3280 584 L 3487.5 584 L 3488 584.5 L 3488 600 L 3480 600 L 3480 623.5 L 3479.5 624 L 3472.5 624 L 3472 624.5 L 3472 647.5 L 3471.5 648 L 3464.5 648 L 3464 648.5 L 3464 671.5 L 3463.5 672 L 3456 672 L 3456 688 L 3448 688 L 3448 696 L 3320 696 L 3320 688 L 3312 688 L 3312 672 L 3304 672 L 3304 648.5 L 3303.5 648 L 3296 648 L 3296 624.5 L 3295.5 624 L 3288 624 L 3288 600.5 L 3287.5 600 L 3280 600 L 3280 584 Z " /><path fill="rgb(0,0,0)" stroke="rgb(0,0,0)" stroke-width="1" opacity="0" d="M 3360 808 L 3415.5 808 L 3416 808.5 L 3416 816 L 3408 816 L 3408 839.5 L 3407.5 840 L 3400.5 840 L 3400 840.5 L 3400 864 L 3392 864 L 3392 880 L 3384 880 L 3384 864 L 3376.5 864 L 3376 863.5 L 3376 840.5 L 3375.5 840 L 3368 840 L 3368 824 L 3360 824 L 3360 808 Z " /><path fill="rgb(0,0,0)" stroke="rgb(0,0,0)" stroke-width="1" opacity="0" d="M 2296 824 L 2687.5 824 L 2688 824.5 L 2688 896 L 2240.5 896 L 2240 895.5 L 2240 888 L 2248 888 L 2248 880 L 2256 880 L 2256 872 L 2264 872 L 2264 864 L 2272 864 L 2272 856 L 2280 856 L 2280 848 L 2288 848 L 2288 832 L 2296 832 L 2296 824 Z " /><path fill="rgb(0,0,0)" stroke="rgb(0,0,0)" stroke-width="1" opacity="0" d="M 3720 888 L 3728 888 L 3728 896 L 3720 896 L 3720 888 Z " /><path fill="rgb(0,0,0)" stroke="rgb(0,0,0)" stroke-width="1" opacity="0" d="M 2288 1104 L 2687.5 1104 L 2688 1104.5 L 2688 1120 L 2296.5 1120 L 2296 1119.5 L 2296 1112 L 2288 1112 L 2288 1104 Z " /><path fill="rgb(0,0,0)" stroke="rgb(0,0,0)" stroke-width="1" opacity="0" d="M 3640 1112 L 3727.5 1112 L 3728 1112.5 L 3728 1120 L 3640.5 1120 L 3640 1119.5 L 3640 1112 Z " /><path fill="rgb(0,0,0)" stroke="rgb(0,0,0)" stroke-width="1" opacity="0" d="M 1664 1248 L 1991.5 1248 L 1992 1248.5 L 1992 1304 L 1664.5 1304 L 1664 1303.5 L 1664 1248 Z " /><path fill="rgb(0,0,0)" stroke="rgb(0,0,0)" stroke-width="1" opacity="0" d="M 2368 1272 L 2687.5 1272 L 2688 1272.5 L 2688 1304 L 2368.5 1304 L 2368 1303.5 L 2368 1272 Z " /><path fill="rgb(0,0,0)" stroke="rgb(0,0,0)" stroke-width="1" opacity="0" d="M 3560 1336 L 3727.5 1336 L 3728 1336.5 L 3728 1344 L 3560.5 1344 L 3560 1343.5 L 3560 1336 Z " /><path fill="rgb(0,0,0)" stroke="rgb(0,0,0)" stroke-width="1" opacity="0" d="M 968 1472 L 1072 1472 L 1072 1584 L 968 1584 L 968 1472 Z " /><path fill="rgb(0,0,0)" stroke="rgb(0,0,0)" stroke-width="1" opacity="0" d="M 2368 1472 L 2456 1472 L 2456 1528 L 2352.5 1528 L 2352 1527.5 L 2352 1520 L 2360 1520 L 2360 1488.5 L 2360.5 1488 L 2368 1488 L 2368 1472 Z " /><path fill="rgb(0,0,0)" stroke="rgb(0,0,0)" stroke-width="1" opacity="0" d="M 968 1688 L 1072 1688 L 1072 1808 L 968 1808 L 968 1688 Z " /><path fill="rgb(0,0,0)" stroke="rgb(0,0,0)" stroke-width="1" opacity="0" d="M 3408 1768 L 3727.5 1768 L 3728 1768.5 L 3728 1784 L 3408.5 1784 L 3408 1783.5 L 3408 1768 Z " /><path fill="rgb(82,99,117)" stroke="rgb(82,99,117)" stroke-width="1" opacity="0" d="M 144 136 L 959.5 136 L 960 138 L 148.5 138 L 148 138.5 L 148 253 L 959.5 253 L 960 256 L 144.5 256 L 144 255.5 L 144 136 Z " /><path fill="rgb(82,99,117)" stroke="rgb(82,99,117)" stroke-width="1" opacity="0" d="M 1072 136 L 2023.5 136 L 2024 136.5 L 2024 143.5 L 2024.5 144 L 2055.5 144 L 2056 144.5 L 2056 151.5 L 2056.5 152 L 2079.5 152 L 2080 152.5 L 2080 159.5 L 2080.5 160 L 2104 160 L 2104 168 L 2120 168 L 2120 176 L 2135.5 176 L 2136 176.5 L 2136 184 L 2152 184 L 2152 192 L 2160 192 L 2160 199 Q 2123.3 176.4 2079.5 160 L 2032.5 146 L 2006.5 141 L 1992.5 140 L 1991.5 139 L 1981.5 139 L 1980.5 138 L 1073 138 L 1073 252.5 L 1073.5 253 L 2230 253 L 2223.5 245 L 2218 240.5 L 2232 240 L 2232 255.5 L 2231.5 256 L 1072 256 L 1072 136 Z " /><path fill="rgb(82,99,117)" stroke="rgb(82,99,117)" stroke-width="1" opacity="0" d="M 2456 136 L 3119.5 136 L 3120 136.5 L 3120 150.5 L 3119 150.5 L 3115 138 L 2456.5 138 L 2456 136 Z " /><path fill="rgb(82,99,117)" stroke="rgb(82,99,117)" stroke-width="1" opacity="0" d="M 3648 136 L 4311.5 136 L 4312 136.5 L 4312 256 L 3608.5 256 L 3608 255.5 L 3608 248 L 3615.5 248 L 3616 249.5 L 3615 253 L 4308.5 253 L 4309 252.5 L 4309 138 L 3656.5 138 L 3656 139.5 L 3648.5 159 L 3648 136 Z " /><path fill="rgb(82,99,117)" stroke="rgb(82,99,117)" stroke-width="1" opacity="0" d="M 3120 152 L 3128 152 L 3128 172.5 L 3127 172.5 L 3120 152 Z " /><path fill="rgb(82,99,117)" stroke="rgb(82,99,117)" stroke-width="1" opacity="0" d="M 3640 160 L 3647.5 160 L 3648 161.5 L 3640.5 181 L 3640 160 Z " /><path fill="rgb(82,99,117)" stroke="rgb(82,99,117)" stroke-width="1" opacity="0" d="M 3129 176 L 3136 176 L 3136 192 L 3144 192 L 3144 215.5 L 3144.5 216 L 3152 216 L 3152 238.5 L 3151 238.5 L 3129 176 Z " /><path fill="rgb(82,99,117)" stroke="rgb(82,99,117)" stroke-width="1" opacity="0" d="M 3632 184 L 3639 184 L 3639 186.5 L 3616.5 247 L 3616 224 L 3624 224 L 3624 200.5 L 3624.5 200 L 3632 200 L 3632 184 Z " /><path fill="rgb(82,99,117)" stroke="rgb(82,99,117)" stroke-width="1" opacity="0" d="M 2162.5 200 L 2176 200 L 2176 207.5 L 2176.5 208 L 2192 208 L 2192 216 L 2200 216 L 2200 224 L 2208 224 L 2208 232 L 2216 232 L 2216 238.5 L 2211.5 235 Q 2189.3 216.7 2163.5 202 L 2162.5 200 Z " /><path fill="rgb(82,99,117)" stroke="rgb(82,99,117)" stroke-width="1" opacity="0" d="M 3152 240 L 3160 240 L 3160 256 L 2456.5 256 L 2456 253 L 3155.5 253 L 3156 250.5 L 3152 240 Z " /><path fill="rgb(82,99,117)" stroke="rgb(82,99,117)" stroke-width="1" opacity="0" d="M 144 352 L 959.5 352 L 960 352.5 L 960 359 L 148.5 359 L 148 359.5 L 148 474 L 959.5 474 L 960 474.5 L 960 480 L 144.5 480 L 144 479.5 L 144 352 Z " /><path fill="rgb(82,99,117)" stroke="rgb(82,99,117)" stroke-width="1" opacity="0" d="M 1072 352 L 2327.5 352 L 2328 352.5 L 2328 360 L 2336 360 L 2336 376 L 2344 376 L 2344 392 L 2352 392 L 2352 416 L 2359.5 416 L 2360 416.5 L 2360 447.5 L 2360.5 448 L 2367.5 448 L 2368 448.5 L 2368 480 L 1072.5 480 L 1072 479.5 L 1072 352 Z M 1073 359 L 1073 474 L 1074 474 L 2364 474 L 2357 438 L 2345 399 L 2332 371 L 2327 364 L 2323 359 L 1073 359 Z " /><path fill="rgb(82,99,117)" stroke="rgb(82,99,117)" stroke-width="1" opacity="0" d="M 2456 352 L 3199.5 352 L 3200 352.5 L 3200 374.5 L 3199 374.5 L 3195 360.5 L 3193.5 359 L 2456.5 359 L 2456 358.5 L 2456 352 Z " /><path fill="rgb(82,99,117)" stroke="rgb(82,99,117)" stroke-width="1" opacity="0" d="M 3568 352 L 4311.5 352 L 4312 352.5 L 4312 480 L 3528.5 480 L 3528 479.5 L 3528 472 L 3534.5 472 L 3535.5 474 L 4309 474 L 4309 359.5 L 4308.5 359 L 3573 359 L 3568.5 374 L 3568 352 Z " /><path fill="rgb(82,99,117)" stroke="rgb(82,99,117)" stroke-width="1" opacity="0" d="M 3200 376 L 3208 376 L 3208 397.5 L 3207 397.5 L 3200 376 Z " /><path fill="rgb(82,99,117)" stroke="rgb(82,99,117)" stroke-width="1" opacity="0" d="M 3560 376 L 3568 376.5 L 3560.5 398 L 3560 376 Z " /><path fill="rgb(82,99,117)" stroke="rgb(82,99,117)" stroke-width="1" opacity="0" d="M 3208.5 400 L 3216 400 L 3216 421.5 L 3215 421.5 L 3208.5 400 Z " /><path fill="rgb(82,99,117)" stroke="rgb(82,99,117)" stroke-width="1" opacity="0" d="M 3552 400 L 3560 400.5 L 3552.5 422 L 3552 400 Z " /><path fill="rgb(82,99,117)" stroke="rgb(82,99,117)" stroke-width="1" opacity="0" d="M 3216.5 424 L 3224 424 L 3224 445.5 L 3223 445.5 L 3216.5 424 Z " /><path fill="rgb(82,99,117)" stroke="rgb(82,99,117)" stroke-width="1" opacity="0" d="M 3544 424 L 3551 424 L 3551 426.5 L 3544.5 445 L 3544 424 Z " /><path fill="rgb(82,99,117)" stroke="rgb(82,99,117)" stroke-width="1" opacity="0" d="M 3224.5 448 L 3232 448 L 3232 468.5 L 3231 468.5 L 3224.5 448 Z " /><path fill="rgb(82,99,117)" stroke="rgb(82,99,117)" stroke-width="1" opacity="0" d="M 3536 448 L 3543 448 L 3543 450.5 L 3536.5 469 L 3536 448 Z " /><path fill="rgb(82,99,117)" stroke="rgb(82,99,117)" stroke-width="1" opacity="0" d="M 3233 472 L 3240 472 L 3240 480 L 2456.5 480 L 2456 479.5 L 2456 474 L 3232.5 474 L 3233 472 Z " /><path fill="rgb(82,99,117)" stroke="rgb(82,99,117)" stroke-width="1" opacity="0" d="M 376 576 L 736 576 L 736 696 L 733 695.5 L 733 581.5 L 732.5 581 L 381 581 L 381 695.5 L 376 696 L 376 576 Z " /><path fill="rgb(82,99,117)" stroke="rgb(82,99,117)" stroke-width="1" opacity="0" d="M 1304 576 L 1663.5 576 L 1664 576.5 L 1664 679.5 L 1664.5 680 L 1992 680 L 1992 576.5 L 1992.5 576 L 2376 576 L 2376 639.5 L 2375.5 640 L 2368.5 640 L 2368 640.5 L 2368 671.5 L 2367.5 672 L 2360.5 672 L 2360 672.5 L 2360 696 L 2352 696 L 2361 667.5 L 2369 633.5 L 2371 615.5 L 2372 614.5 L 2372 607.5 L 2373 606.5 L 2374 581 L 1999.5 581 L 1999 581.5 L 1999 696 L 1659 696 L 1659 581.5 L 1658.5 581 L 1307 581 L 1307 695.5 L 1304 696 L 1304 576 Z " /><path fill="rgb(82,99,117)" stroke="rgb(82,99,117)" stroke-width="1" opacity="0" d="M 2688 576 L 3271.5 576 Q 3272.6 576.1 3272 581.5 L 3270.5 581 L 2689.5 581 L 2689 581.5 L 2689 695.5 L 2688 695.5 L 2688 576 Z " /><path fill="rgb(82,99,117)" stroke="rgb(82,99,117)" stroke-width="1" opacity="0" d="M 3496 576 L 4087.5 576 L 4088 576.5 L 4088 696 L 4082.5 696 L 4082 695.5 L 4082 581.5 L 4081.5 581 L 3497.5 581 L 3496 581.5 L 3496 576 Z " /><path fill="rgb(82,99,117)" stroke="rgb(82,99,117)" stroke-width="1" opacity="0" d="M 3272.5 584 L 3280 584 L 3280 600 L 3288 600 L 3288 623.5 L 3288.5 624 L 3296 624 L 3296 647.5 L 3296.5 648 L 3304 648 L 3304 669.5 L 3303 669.5 L 3272.5 584 Z " /><path fill="rgb(82,99,117)" stroke="rgb(82,99,117)" stroke-width="1" opacity="0" d="M 3488 584 L 3496 584.5 L 3464.5 670 L 3464 648 L 3472 648 L 3472 624.5 L 3472.5 624 L 3480 624 L 3480 600.5 L 3480.5 600 L 3488 600 L 3488 584 Z " /><path fill="rgb(82,99,117)" stroke="rgb(82,99,117)" stroke-width="1" opacity="0" d="M 3304.5 672 L 3312 672 L 3312 688 L 3320 688 L 3320 696 L 3313.5 696 L 3312 694.5 L 3304.5 672 Z " /><path fill="rgb(82,99,117)" stroke="rgb(82,99,117)" stroke-width="1" opacity="0" d="M 3456 672 L 3464 672.5 L 3454.5 696 L 3448 696 L 3448 688 L 3456 688 L 3456 672 Z " /><path fill="rgb(82,99,117)" stroke="rgb(82,99,117)" stroke-width="1" opacity="0" d="M 376 800 L 736 800 L 736 920 L 376 920 L 376 800 Z M 381 803 L 381 918 L 382 918 L 733 918 L 733 804 L 733 803 L 381 803 Z " /><path fill="rgb(82,99,117)" stroke="rgb(82,99,117)" stroke-width="1" opacity="0" d="M 1304 800 L 2303.5 800 L 2304 803 L 1307.5 803 L 1307 803.5 L 1307 918 L 2204.5 918 Q 2236.9 892.9 2264 862.5 Q 2287.9 837.4 2303.5 804 L 2304 824 L 2296 824 L 2296 832 L 2288 832 L 2288 848 L 2280 848 L 2280 856 L 2272 856 L 2272 864 L 2264 864 L 2264 872 L 2256 872 L 2256 880 L 2248 880 L 2248 888 L 2240 888 L 2240 896 L 2687.5 896 L 2688 895.5 L 2688 800.5 L 2688.5 800 L 3360 800 L 3359.5 822 L 3353 803 L 2689.5 803 L 2689 803.5 L 2689 918 L 3040.5 918 L 3041 917.5 L 3041 858.5 L 3042 858.5 L 3062 918 L 3706.5 918 L 3707 916.5 L 3729.5 858 L 3730 918 L 4081.5 918 L 4082 917.5 L 4082 803 L 3422.5 803 L 3421 804.5 L 3400.5 862 L 3400 840 L 3408 840 L 3408 816.5 L 3408.5 816 L 3416 816 L 3416 800.5 L 3416.5 800 L 4088 800 L 4088 919.5 L 4087.5 920 L 1304 920 L 1304 800 Z M 3720 888 L 3720 896 L 3728 896 L 3728 888 L 3720 888 Z " /><path fill="rgb(82,99,117)" stroke="rgb(82,99,117)" stroke-width="1" opacity="0" d="M 3360.5 824 L 3368 824 L 3368 840 L 3376 840 L 3376 863.5 L 3376.5 864 L 3384 864 L 3384 880 L 3392 880 L 3392 864 L 3399 864 L 3387.5 897 L 3384 890.5 L 3360.5 824 Z " /><path fill="rgb(82,99,117)" stroke="rgb(82,99,117)" stroke-width="1" opacity="0" d="M 376 1024 L 736 1024 L 736 1144 L 376 1144 L 376 1024 Z M 381 1025 L 381 1140 L 382 1140 L 733 1140 L 733 1026 L 733 1025 L 381 1025 Z " /><path fill="rgb(82,99,117)" stroke="rgb(82,99,117)" stroke-width="1" opacity="0" d="M 1304 1024 L 4087.5 1024 L 4088 1024.5 L 4088 1144 L 2688.5 1144 L 2688 1143.5 L 2688 1104.5 L 2687.5 1104 L 2288 1104 L 2287.5 1110 Q 2265.7 1079.3 2238.5 1054 L 2205.5 1025 L 1307 1025 L 1307 1139.5 L 1307.5 1140 L 2303.5 1140 L 2304 1144 L 1304.5 1144 L 1304 1143.5 L 1304 1024 Z M 2689 1025 L 2689 1140 L 2690 1140 L 3041 1140 L 3041 1026 L 3041 1025 L 2689 1025 Z M 3104 1025 L 3146 1138 L 3147 1140 L 3630 1140 L 3639 1114 L 3640 1114 Q 3639 1120 3641 1120 L 3728 1120 L 3728 1113 L 3728 1112 L 3640 1112 L 3670 1028 L 3670 1025 L 3104 1025 Z M 3730 1025 L 3730 1140 L 3731 1140 L 4082 1140 L 4082 1026 L 4082 1025 L 3730 1025 Z M 3656 1072 L 3656 1088 L 3657 1088 L 3728 1088 L 3728 1073 L 3728 1072 L 3656 1072 Z " /><path fill="rgb(82,99,117)" stroke="rgb(82,99,117)" stroke-width="1" opacity="0" d="M 2289.5 1112 L 2296 1112 L 2296 1120 L 2304 1120 L 2304 1137.5 L 2303 1137.5 L 2289.5 1112 Z " /><path fill="rgb(82,99,117)" stroke="rgb(82,99,117)" stroke-width="1" opacity="0" d="M 376 1240 L 736 1240 L 736 1368 L 376 1368 L 376 1240 Z M 381 1246 L 381 1361 L 382 1361 L 733 1361 L 733 1247 L 733 1246 L 381 1246 Z " /><path fill="rgb(82,99,117)" stroke="rgb(82,99,117)" stroke-width="1" opacity="0" d="M 1304 1240 L 1663.5 1240 L 1664 1240.5 L 1664 1303.5 L 1664.5 1304 L 1992 1304 L 1992 1240.5 L 1992.5 1240 L 2352 1240 L 2352 1245.5 L 2351.5 1246 L 1999 1246 L 1999 1361 L 2373.5 1361 L 2374 1360.5 L 2374 1347.5 L 2373 1346.5 L 2373 1335.5 L 2372 1334.5 L 2371 1320.5 L 2367 1299.5 L 2358 1264.5 L 2352 1248.5 L 2688 1248 L 2688 1240.5 L 2688.5 1240 L 3048 1240 L 3048 1368 L 2688 1368 L 2688 1272.5 L 2687.5 1272 L 2368 1272 L 2368 1303.5 L 2368.5 1304 L 2375.5 1304 L 2376 1304.5 L 2376 1368 L 1304.5 1368 L 1304 1367.5 L 1304 1240 Z M 1307 1246 L 1307 1361 L 1308 1361 L 1659 1361 L 1659 1247 L 1659 1246 L 1307 1246 Z M 2689 1246 L 2689 1361 L 2690 1361 L 3041 1361 L 3041 1247 L 3041 1246 L 2689 1246 Z " /><path fill="rgb(82,99,117)" stroke="rgb(82,99,117)" stroke-width="1" opacity="0" d="M 3184 1240 L 3591.5 1240 L 3592 1240.5 L 3592 1247.5 L 3592.5 1248 L 3728 1248 L 3728 1240.5 L 3728.5 1240 L 4088 1240 L 4088 1367.5 L 4087.5 1368 L 3224 1368 L 3224 1360 L 3216.5 1360 L 3216 1359.5 L 3216 1338.5 L 3217 1338.5 L 3222 1354.5 L 3225.5 1361 L 3549.5 1361 L 3550 1358.5 L 3591 1246 L 3184.5 1246 L 3184 1245.5 L 3184 1240 Z M 3730 1246 L 3730 1361 L 3731 1361 L 4082 1361 L 4082 1247 L 4082 1246 L 3730 1246 Z M 3560 1336 L 3560 1344 L 3561 1344 L 3728 1344 L 3728 1337 L 3728 1336 L 3560 1336 Z " /><path fill="rgb(82,99,117)" stroke="rgb(82,99,117)" stroke-width="1" opacity="0" d="M 3184.5 1249 L 3216 1335.5 L 3208 1336 L 3208 1320 L 3200.5 1320 L 3200 1319.5 L 3200 1296 L 3192.5 1296 L 3192 1295.5 L 3192 1272 L 3184.5 1272 L 3184 1271.5 L 3184.5 1249 Z " /><path fill="rgb(82,99,117)" stroke="rgb(82,99,117)" stroke-width="1" opacity="0" d="M 152 1464 L 967.5 1464 L 968 1464.5 L 968 1584 L 152.5 1584 L 152 1583.5 L 152 1464 Z M 154 1468 L 154 1583 L 155 1583 L 966 1583 L 966 1469 L 966 1468 L 154 1468 Z " /><path fill="rgb(82,99,117)" stroke="rgb(82,99,117)" stroke-width="1" opacity="0" d="M 1072 1464 L 2367.5 1464 L 2368 1464.5 L 2368 1488 L 2361 1488 L 2361 1484.5 L 2364 1473.5 L 2364 1468 L 1073.5 1468 L 1073 1468.5 L 1073 1583 L 2323.5 1583 L 2326 1580.5 Q 2343.6 1556.6 2351.5 1523 L 2352 1528 L 2456 1528 L 2456 1464.5 L 2456.5 1464 L 3048 1464 L 3048 1583.5 L 3047.5 1584 L 1072 1584 L 1072 1464 Z M 2462 1468 L 2462 1583 L 2463 1583 L 3041 1583 L 3041 1469 L 3041 1468 L 2462 1468 Z " /><path fill="rgb(82,99,117)" stroke="rgb(82,99,117)" stroke-width="1" opacity="0" d="M 3264 1464 L 3511.5 1464 L 3512 1464.5 L 3512 1495.5 L 3512.5 1496 L 3728 1496 L 3728 1464.5 L 3728.5 1464 L 4320 1464 L 4320 1583.5 L 4319.5 1584 L 3296 1584 L 3296 1560.5 L 3295.5 1560 L 3288 1560 L 3288 1536.5 L 3287.5 1536 L 3280 1536 L 3280 1515.5 L 3281 1515.5 L 3303 1576.5 L 3306.5 1583 L 3471.5 1583 L 3472 1581.5 L 3504 1491.5 L 3511 1468 L 3264.5 1468 L 3264 1464 Z M 3730 1468 L 3730 1583 L 3731 1583 L 4315 1583 L 4315 1469 L 4315 1468 L 3730 1468 Z " /><path fill="rgb(82,99,117)" stroke="rgb(82,99,117)" stroke-width="1" opacity="0" d="M 3264.5 1471 L 3279 1512 L 3272 1512 L 3272 1496 L 3264 1496 L 3264.5 1471 Z " /><path fill="rgb(82,99,117)" stroke="rgb(82,99,117)" stroke-width="1" opacity="0" d="M 2359.5 1493 L 2360 1520 L 2353 1520 L 2353 1517.5 L 2359.5 1493 Z " /><path fill="rgb(82,99,117)" stroke="rgb(82,99,117)" stroke-width="1" opacity="0" d="M 152 1688 L 967.5 1688 L 968 1688.5 L 968 1808 L 152.5 1808 L 152 1807.5 L 152 1688 Z M 154 1690 L 154 1805 L 155 1805 L 966 1805 L 966 1691 L 966 1690 L 154 1690 Z " /><path fill="rgb(82,99,117)" stroke="rgb(82,99,117)" stroke-width="1" opacity="0" d="M 1072 1688 L 3047.5 1688 L 3048 1688.5 L 3048 1808 L 1072.5 1808 L 1072 1807.5 L 1072 1688 Z M 1073 1690 L 1073 1805 L 1974 1805 L 1975 1804 L 1987 1804 L 1988 1803 L 1996 1803 L 1997 1802 L 2016 1800 L 2047 1793 L 2076 1784 L 2115 1768 Q 2180 1737 2230 1692 L 2230 1690 L 1073 1690 Z M 2462 1690 L 2462 1805 L 2463 1805 L 3041 1805 L 3041 1691 L 3041 1690 L 2462 1690 Z " /><path fill="rgb(82,99,117)" stroke="rgb(82,99,117)" stroke-width="1" opacity="0" d="M 3344 1688 L 4319.5 1688 L 4320 1688.5 L 4320 1808 L 3376.5 1808 L 3376 1807.5 L 3376 1784 L 3368.5 1784 L 3368 1783.5 L 3368 1760 L 3360.5 1760 L 3360 1759.5 L 3360 1737.5 L 3361 1737.5 L 3383 1801.5 L 3385.5 1805 L 3392.5 1805 L 3393 1803.5 L 3434 1690 L 3344.5 1690 L 3344 1688 Z M 3730 1690 L 3730 1805 L 3731 1805 L 4315 1805 L 4315 1691 L 4315 1690 L 3730 1690 Z M 3408 1768 L 3408 1784 L 3409 1784 L 3728 1784 L 3728 1769 L 3728 1768 L 3408 1768 Z " /><path fill="rgb(82,99,117)" stroke="rgb(82,99,117)" stroke-width="1" opacity="0" d="M 3344.5 1693 L 3351 1712 L 3344 1712 L 3344.5 1693 Z " /><path fill="rgb(82,99,117)" stroke="rgb(82,99,117)" stroke-width="1" opacity="0" d="M 3352.5 1715 L 3360 1735.5 L 3352 1736 L 3352.5 1715 Z " /><path fill="rgb(67,101,142)" stroke="rgb(67,101,142)" stroke-width="1" opacity="0.24705882352941178" d="M 959.5 138 L 960 252.5 L 959 252.5 L 959.5 138 Z " /><path fill="rgb(67,101,142)" stroke="rgb(67,101,142)" stroke-width="1" opacity="0.24705882352941178" d="M 1974.5 138 L 1981 138.5 L 1974.5 139 L 1974.5 138 Z " /><path fill="rgb(67,101,142)" stroke="rgb(67,101,142)" stroke-width="1" opacity="0.24705882352941178" d="M 1996.5 140 L 2000 140.5 L 1996.5 141 L 1996.5 140 Z " /><path fill="rgb(67,101,142)" stroke="rgb(67,101,142)" stroke-width="1" opacity="0.24705882352941178" d="M 2010.5 142 L 2013 142.5 L 2010.5 143 L 2010.5 142 Z " /><path fill="rgb(67,101,142)" stroke="rgb(67,101,142)" stroke-width="1" opacity="0.24705882352941178" d="M 2021.5 144 L 2024 144.5 L 2021.5 145 L 2021.5 144 Z " /><path fill="rgb(67,101,142)" stroke="rgb(67,101,142)" stroke-width="1" opacity="0.24705882352941178" d="M 2144.5 190 L 2145.5 192 L 2144.5 190 Z " /><path fill="rgb(67,101,142)" stroke="rgb(67,101,142)" stroke-width="1" opacity="0.24705882352941178" d="M 2169.5 205 L 2170.5 207 L 2169.5 205 Z " /><path fill="rgb(67,101,142)" stroke="rgb(67,101,142)" stroke-width="1" opacity="0.24705882352941178" d="M 2181.5 213 L 2182.5 215 L 2181.5 213 Z " /><path fill="rgb(67,101,142)" stroke="rgb(67,101,142)" stroke-width="1" opacity="0.24705882352941178" d="M 2187.5 217 L 2188.5 219 L 2187.5 217 Z " /><path fill="rgb(67,101,142)" stroke="rgb(67,101,142)" stroke-width="1" opacity="0.24705882352941178" d="M 2194.5 222 L 2195.5 224 L 2194.5 222 Z " /><path fill="rgb(67,101,142)" stroke="rgb(67,101,142)" stroke-width="1" opacity="0.24705882352941178" d="M 2198.5 225 L 2199.5 227 L 2198.5 225 Z " /><path fill="rgb(67,101,142)" stroke="rgb(67,101,142)" stroke-width="1" opacity="0.24705882352941178" d="M 2202.5 228 L 2203.5 230 L 2202.5 228 Z " /><path fill="rgb(67,101,142)" stroke="rgb(67,101,142)" stroke-width="1" opacity="0.24705882352941178" d="M 2211.5 235 L 2213.5 238 L 2211.5 235 Z " /><path fill="rgb(67,101,142)" stroke="rgb(67,101,142)" stroke-width="1" opacity="0.24705882352941178" d="M 2217.5 240 L 2218.5 242 L 2217.5 240 Z " /><path fill="rgb(67,101,142)" stroke="rgb(67,101,142)" stroke-width="1" opacity="0.24705882352941178" d="M 2223.5 245 L 2226.5 249 L 2223.5 245 Z " /><path fill="rgb(67,101,142)" stroke="rgb(67,101,142)" stroke-width="1" opacity="0.24705882352941178" d="M 959.5 359 L 960 473.5 L 959 473.5 L 959.5 359 Z " /><path fill="rgb(67,101,142)" stroke="rgb(67,101,142)" stroke-width="1" opacity="0.24705882352941178" d="M 3193.5 359 L 3194.5 361 L 3193.5 359 Z " /><path fill="rgb(67,101,142)" stroke="rgb(67,101,142)" stroke-width="1" opacity="0.24705882352941178" d="M 2324.5 361 L 2326.5 364 L 2324.5 361 Z " /><path fill="rgb(67,101,142)" stroke="rgb(67,101,142)" stroke-width="1" opacity="0.24705882352941178" d="M 2328.5 366 L 2329.5 368 L 2328.5 366 Z " /><path fill="rgb(67,101,142)" stroke="rgb(67,101,142)" stroke-width="1" opacity="0.24705882352941178" d="M 2363.5 469 L 2364 471.5 L 2363 471.5 L 2363.5 469 Z " /><path fill="rgb(67,101,142)" stroke="rgb(67,101,142)" stroke-width="1" opacity="0.24705882352941178" d="M 2373.5 581 L 2374 594.5 L 2373 594.5 L 2373.5 581 Z " /><path fill="rgb(67,101,142)" stroke="rgb(67,101,142)" stroke-width="1" opacity="0.24705882352941178" d="M 2371.5 611 L 2372 614.5 L 2371 614.5 L 2371.5 611 Z " /><path fill="rgb(67,101,142)" stroke="rgb(67,101,142)" stroke-width="1" opacity="0.24705882352941178" d="M 2369.5 625 L 2370 627.5 L 2369 627.5 L 2369.5 625 Z " /><path fill="rgb(67,101,142)" stroke="rgb(67,101,142)" stroke-width="1" opacity="0.24705882352941178" d="M 2367.5 636 L 2368 638.5 L 2367 638.5 L 2367.5 636 Z " /><path fill="rgb(67,101,142)" stroke="rgb(67,101,142)" stroke-width="1" opacity="0.24705882352941178" d="M 2294.5 821 L 2293.5 823 L 2294.5 821 Z " /><path fill="rgb(67,101,142)" stroke="rgb(67,101,142)" stroke-width="1" opacity="0.24705882352941178" d="M 2284.5 836 L 2283.5 838 L 2284.5 836 Z " /><path fill="rgb(67,101,142)" stroke="rgb(67,101,142)" stroke-width="1" opacity="0.24705882352941178" d="M 2281.5 840 L 2280.5 842 L 2281.5 840 Z " /><path fill="rgb(67,101,142)" stroke="rgb(67,101,142)" stroke-width="1" opacity="0.24705882352941178" d="M 2278.5 844 L 2277.5 846 L 2278.5 844 Z " /><path fill="rgb(67,101,142)" stroke="rgb(67,101,142)" stroke-width="1" opacity="0.24705882352941178" d="M 2274.5 849 L 2272.5 852 L 2274.5 849 Z " /><path fill="rgb(67,101,142)" stroke="rgb(67,101,142)" stroke-width="1" opacity="0.24705882352941178" d="M 2269.5 855 L 2267.5 858 L 2269.5 855 Z " /><path fill="rgb(67,101,142)" stroke="rgb(67,101,142)" stroke-width="1" opacity="0.24705882352941178" d="M 2263.5 862 L 2258.5 868 L 2263.5 862 Z " /><path fill="rgb(67,101,142)" stroke="rgb(67,101,142)" stroke-width="1" opacity="0.24705882352941178" d="M 2232.5 893 L 2228.5 898 L 2232.5 893 Z " /><path fill="rgb(67,101,142)" stroke="rgb(67,101,142)" stroke-width="1" opacity="0.24705882352941178" d="M 3386.5 896 L 3387.5 898 L 3386.5 896 Z " /><path fill="rgb(67,101,142)" stroke="rgb(67,101,142)" stroke-width="1" opacity="0.24705882352941178" d="M 2221.5 903 L 2219.5 906 L 2221.5 903 Z " /><path fill="rgb(67,101,142)" stroke="rgb(67,101,142)" stroke-width="1" opacity="0.24705882352941178" d="M 2214.5 909 L 2212.5 912 L 2214.5 909 Z " /><path fill="rgb(67,101,142)" stroke="rgb(67,101,142)" stroke-width="1" opacity="0.24705882352941178" d="M 2208.5 914 L 2207.5 916 L 2208.5 914 Z " /><path fill="rgb(67,101,142)" stroke="rgb(67,101,142)" stroke-width="1" opacity="0.24705882352941178" d="M 1659.5 917 L 1999 917.5 L 1659.5 918 L 1659.5 917 Z " /><path fill="rgb(67,101,142)" stroke="rgb(67,101,142)" stroke-width="1" opacity="0.24705882352941178" d="M 3281.5 917 L 3487 917.5 L 3281.5 918 L 3281.5 917 Z " /><path fill="rgb(67,101,142)" stroke="rgb(67,101,142)" stroke-width="1" opacity="0.24705882352941178" d="M 2205.5 1025 L 2206.5 1027 L 2205.5 1025 Z " /><path fill="rgb(67,101,142)" stroke="rgb(67,101,142)" stroke-width="1" opacity="0.24705882352941178" d="M 2210.5 1029 L 2212.5 1032 L 2210.5 1029 Z " /><path fill="rgb(67,101,142)" stroke="rgb(67,101,142)" stroke-width="1" opacity="0.24705882352941178" d="M 2217.5 1035 L 2219.5 1038 L 2217.5 1035 Z " /><path fill="rgb(67,101,142)" stroke="rgb(67,101,142)" stroke-width="1" opacity="0.24705882352941178" d="M 2225.5 1042 L 2229.5 1047 L 2225.5 1042 Z " /><path fill="rgb(67,101,142)" stroke="rgb(67,101,142)" stroke-width="1" opacity="0.24705882352941178" d="M 2238.5 1054 L 2254.5 1071 L 2238.5 1054 Z " /><path fill="rgb(67,101,142)" stroke="rgb(67,101,142)" stroke-width="1" opacity="0.24705882352941178" d="M 2261.5 1078 L 2265.5 1083 L 2261.5 1078 Z " /><path fill="rgb(67,101,142)" stroke="rgb(67,101,142)" stroke-width="1" opacity="0.24705882352941178" d="M 2269.5 1087 L 2271.5 1090 L 2269.5 1087 Z " /><path fill="rgb(67,101,142)" stroke="rgb(67,101,142)" stroke-width="1" opacity="0.24705882352941178" d="M 2274.5 1093 L 2275.5 1095 L 2274.5 1093 Z " /><path fill="rgb(67,101,142)" stroke="rgb(67,101,142)" stroke-width="1" opacity="0.24705882352941178" d="M 2278.5 1098 L 2279.5 1100 L 2278.5 1098 Z " /><path fill="rgb(67,101,142)" stroke="rgb(67,101,142)" stroke-width="1" opacity="0.24705882352941178" d="M 2281.5 1102 L 2282.5 1104 L 2281.5 1102 Z " /><path fill="rgb(67,101,142)" stroke="rgb(67,101,142)" stroke-width="1" opacity="0.24705882352941178" d="M 2303.5 1138 L 2304 1140 L 1307 1139.5 L 2302.5 1139 L 2303.5 1138 Z " /><path fill="rgb(67,101,142)" stroke="rgb(67,101,142)" stroke-width="1" opacity="0.24705882352941178" d="M 381.5 1139 L 733 1139.5 L 381.5 1140 L 381.5 1139 Z " /><path fill="rgb(67,101,142)" stroke="rgb(67,101,142)" stroke-width="1" opacity="0.24705882352941178" d="M 2689.5 1139 L 3041 1139.5 L 2689.5 1140 L 2689.5 1139 Z " /><path fill="rgb(67,101,142)" stroke="rgb(67,101,142)" stroke-width="1" opacity="0.24705882352941178" d="M 3146.5 1139 L 3630 1139.5 L 3146.5 1140 L 3146.5 1139 Z " /><path fill="rgb(67,101,142)" stroke="rgb(67,101,142)" stroke-width="1" opacity="0.24705882352941178" d="M 3730.5 1139 L 4082 1139.5 L 3730.5 1140 L 3730.5 1139 Z " /><path fill="rgb(67,101,142)" stroke="rgb(67,101,142)" stroke-width="1" opacity="0.24705882352941178" d="M 381.5 1246 L 733 1246.5 L 381.5 1247 L 381.5 1246 Z " /><path fill="rgb(67,101,142)" stroke="rgb(67,101,142)" stroke-width="1" opacity="0.24705882352941178" d="M 1307.5 1246 L 1659 1246.5 L 1307.5 1247 L 1307.5 1246 Z " /><path fill="rgb(67,101,142)" stroke="rgb(67,101,142)" stroke-width="1" opacity="0.24705882352941178" d="M 1999.5 1246 L 2352 1246.5 L 1999.5 1247 L 1999.5 1246 Z " /><path fill="rgb(67,101,142)" stroke="rgb(67,101,142)" stroke-width="1" opacity="0.24705882352941178" d="M 2689.5 1246 L 3041 1246.5 L 2689.5 1247 L 2689.5 1246 Z " /><path fill="rgb(67,101,142)" stroke="rgb(67,101,142)" stroke-width="1" opacity="0.24705882352941178" d="M 3184.5 1246 L 3591 1246.5 L 3184.5 1247 L 3184.5 1246 Z " /><path fill="rgb(67,101,142)" stroke="rgb(67,101,142)" stroke-width="1" opacity="0.24705882352941178" d="M 3730.5 1246 L 4082 1246.5 L 3730.5 1247 L 3730.5 1246 Z " /><path fill="rgb(67,101,142)" stroke="rgb(67,101,142)" stroke-width="1" opacity="0.24705882352941178" d="M 2369.5 1314 L 2370 1316.5 L 2369 1316.5 L 2369.5 1314 Z " /><path fill="rgb(67,101,142)" stroke="rgb(67,101,142)" stroke-width="1" opacity="0.24705882352941178" d="M 2371.5 1327 L 2372 1330.5 L 2371 1330.5 L 2371.5 1327 Z " /><path fill="rgb(67,101,142)" stroke="rgb(67,101,142)" stroke-width="1" opacity="0.24705882352941178" d="M 2373.5 1347 L 2374 1360.5 L 2373 1360.5 L 2373.5 1347 Z " /><path fill="rgb(67,101,142)" stroke="rgb(67,101,142)" stroke-width="1" opacity="0.24705882352941178" d="M 154.5 1468 L 965.5 1468 L 966 1468.5 L 966 1582.5 L 965 1582.5 L 965 1469.5 L 964.5 1469 L 154.5 1469 L 154.5 1468 Z " /><path fill="rgb(67,101,142)" stroke="rgb(67,101,142)" stroke-width="1" opacity="0.24705882352941178" d="M 1073.5 1468 L 2364 1468.5 L 1073.5 1469 L 1073.5 1468 Z " /><path fill="rgb(67,101,142)" stroke="rgb(67,101,142)" stroke-width="1" opacity="0.24705882352941178" d="M 2462.5 1468 L 3041 1468.5 L 2462.5 1469 L 2462.5 1468 Z " /><path fill="rgb(67,101,142)" stroke="rgb(67,101,142)" stroke-width="1" opacity="0.24705882352941178" d="M 3264.5 1468 L 3511 1468.5 L 3264.5 1469 L 3264.5 1468 Z " /><path fill="rgb(67,101,142)" stroke="rgb(67,101,142)" stroke-width="1" opacity="0.24705882352941178" d="M 3730.5 1468 L 4315 1468.5 L 3730.5 1469 L 3730.5 1468 Z " /><path fill="rgb(67,101,142)" stroke="rgb(67,101,142)" stroke-width="1" opacity="0.24705882352941178" d="M 2363.5 1471 L 2364 1473.5 L 2363 1473.5 L 2363.5 1471 Z " /><path fill="rgb(67,101,142)" stroke="rgb(67,101,142)" stroke-width="1" opacity="0.24705882352941178" d="M 2361.5 1481 L 2362 1483.5 L 2361 1483.5 L 2361.5 1481 Z " /><path fill="rgb(67,101,142)" stroke="rgb(67,101,142)" stroke-width="1" opacity="0.24705882352941178" d="M 2462.5 1510 L 2463 1582.5 L 2462 1582.5 L 2462.5 1510 Z " /><path fill="rgb(67,101,142)" stroke="rgb(67,101,142)" stroke-width="1" opacity="0.24705882352941178" d="M 2325.5 1580 L 2323.5 1583 L 2325.5 1580 Z " /><path fill="rgb(67,101,142)" stroke="rgb(67,101,142)" stroke-width="1" opacity="0.24705882352941178" d="M 960.5 1690 Q 965.9 1689.4 966 1690.5 L 966 1804.5 L 965 1804.5 L 965 1691.5 Q 965 1690.5 960.5 1691 L 960.5 1690 Z " /><path fill="rgb(67,101,142)" stroke="rgb(67,101,142)" stroke-width="1" opacity="0.24705882352941178" d="M 2462.5 1690 L 2463 1804.5 L 2462 1804.5 L 2462.5 1690 Z " /><path fill="rgb(67,101,142)" stroke="rgb(67,101,142)" stroke-width="1" opacity="0.24705882352941178" d="M 3344.5 1690 L 3345 1692.5 L 3344 1692.5 L 3344.5 1690 Z " /><path fill="rgb(67,101,142)" stroke="rgb(67,101,142)" stroke-width="1" opacity="0.24705882352941178" d="M 4309.5 1690 L 4315 1690.5 L 4309.5 1691 L 4309.5 1690 Z " /><path fill="rgb(67,101,142)" stroke="rgb(67,101,142)" stroke-width="1" opacity="0.24705882352941178" d="M 2229.5 1691 L 2226.5 1695 L 2229.5 1691 Z " /><path fill="rgb(67,101,142)" stroke="rgb(67,101,142)" stroke-width="1" opacity="0.24705882352941178" d="M 2221.5 1698 L 2219.5 1701 L 2221.5 1698 Z " /><path fill="rgb(67,101,142)" stroke="rgb(67,101,142)" stroke-width="1" opacity="0.24705882352941178" d="M 2214.5 1704 L 2213.5 1706 L 2214.5 1704 Z " /><path fill="rgb(67,101,142)" stroke="rgb(67,101,142)" stroke-width="1" opacity="0.24705882352941178" d="M 2209.5 1708 L 2208.5 1710 L 2209.5 1708 Z " /></svg>