<svg width="290" height="149" version="1.1" xmlns="http://www.w3.org/2000/svg" desc="Created with imagetracer.js version 1.2.6" ><path fill="rgb(26,26,24)" stroke="rgb(26,26,24)" stroke-width="1" opacity="0.8980392156862745" d="M 113.5 13 Q 125.3 11.7 132.5 15 L 176.5 42 L 189.5 47 L 203.5 50 L 212.5 50 L 213.5 51 L 260.5 53 L 280.5 57 L 289 62 L 290 67.5 L 278.5 81 Q 269.7 89.7 257.5 95 L 248.5 98 L 243 98 Q 241.7 94.7 246.5 96 Q 265.8 89.3 277 74.5 L 280 70.5 L 280 67.5 L 269.5 60 L 258.5 57 L 242.5 56 L 241.5 55 L 206.5 54 L 205.5 53 L 197.5 53 L 187.5 51 L 176.5 47 L 138.5 25 L 125.5 20 L 120.5 19 L 87 18.5 L 113.5 13 Z " /><path fill="rgb(26,26,24)" stroke="rgb(26,26,24)" stroke-width="1" opacity="0.8980392156862745" d="M 15.5 41 L 32.5 46 L 44 47 Q 45.1 49.7 42.5 49 L 40.5 50 L 39.5 49 L 28.5 49 L 19.5 51 L 9 57.5 Q 4.3 62.3 5 72.5 L 10 84 L 5 80.5 L 0 71.5 L 0 62.5 Q 2.1 54.6 8.5 51 L 15 47.5 L 14 42.5 L 15.5 41 Z " /><path fill="rgb(26,26,24)" stroke="rgb(26,26,24)" stroke-width="1" opacity="0.8980392156862745" d="M 39.5 120 Q 45.6 118.8 45 121.5 L 52 137 Q 48.2 138 47 135.5 L 45.5 133 L 37.5 133 L 37 134.5 L 36 137 Q 30.8 139.1 32 134.5 L 39.5 120 Z M 42 123 L 39 131 Q 44 132 45 130 L 42 123 Z " /><path fill="rgb(26,26,24)" stroke="rgb(26,26,24)" stroke-width="1" opacity="0.8980392156862745" d="M 92 120 L 97 120 L 97 132.5 Q 98.3 135.3 103.5 134 L 105 132.5 L 105 120 L 110 120 L 110 129.5 L 109 133.5 L 106.5 136 L 97.5 137 L 93 133.5 L 92 120 Z " /><path fill="rgb(26,26,24)" stroke="rgb(26,26,24)" stroke-width="1" opacity="0.8980392156862745" d="M 150 120 L 162.5 120 L 163 123 L 158 123 L 158 136.5 L 155 137 L 155 123.5 L 150 123 L 150 120 Z " /><path fill="rgb(26,26,24)" stroke="rgb(26,26,24)" stroke-width="1" opacity="0.8980392156862745" d="M 210.5 120 Q 223 118 227 124.5 L 228 128.5 L 227 132.5 L 224.5 135 Q 220.5 138.5 211.5 137 L 204 132.5 Q 202 123 207.5 121 L 210.5 120 Z M 214 122 L 209 126 L 210 133 L 212 134 L 220 134 Q 224 133 222 126 Q 220 121 214 122 Z " /><path fill="rgb(5,5,5)" stroke="rgb(5,5,5)" stroke-width="1" opacity="0" d="M 288 13 L 290 13.5 L 290 56 L 280 56 L 280 48.5 L 279.5 48 L 200.5 48 L 200 47.5 L 200 40.5 L 199.5 40 L 176 40 L 176 32 L 168 32 L 168 24 L 152 24 L 152 16 L 287.5 16 L 288 13 Z " /><path fill="rgb(5,5,5)" stroke="rgb(5,5,5)" stroke-width="1" opacity="0" d="M 0 16 L 79.5 16 L 80 16.5 L 80 23.5 L 80.5 24 L 127.5 24 L 128 24.5 L 128 32 L 144 32 L 144 40 L 160 40 L 160 48 L 176 48 L 176 56 L 216 56 L 216 72 L 200 72 L 200 64 L 192 64 L 192 71.5 L 191.5 72 L 160 72 L 160 64 L 152 64 L 152 56 L 128 56 L 128 72 L 120 72 L 120 64 L 112 64 L 112 72 L 96 72 L 96 64 L 88 64 L 88 71.5 L 87.5 72 L 48 72 L 48 64 L 40 64 L 40 72 L 24.5 72 L 24 72.5 L 24 120 L 32 120 L 32 128 L 24 128 L 24 144 L 0 144 L 0 88.5 L 0.5 88 L 16 88 L 16 80 L 8 80 L 8 64 L 16 64 L 16 56.5 L 16.5 56 L 48 56 L 48 40 L 8.5 40 L 8 40.5 L 8 48 L 0 48 L 0 16 Z " /><path fill="rgb(5,5,5)" stroke="rgb(5,5,5)" stroke-width="1" opacity="0" d="M 232 56 L 240 56 L 240 63.5 L 240.5 64 L 272 64 L 272 72 L 264 72 L 264 80 L 256 80 L 256 88 L 240 88 L 240 104 L 255.5 104 L 256 103.5 L 256 96 L 272 96 L 272 88 L 280 88 L 280 80 L 288 80 L 288 72.5 L 290 72 L 290 136.5 L 288 137.5 L 288 144 L 224 144 L 224 136 L 231.5 136 L 232 135.5 L 232 56 Z " /><path fill="rgb(5,5,5)" stroke="rgb(5,5,5)" stroke-width="1" opacity="0" d="M 152 80 L 160 80 L 160 96 L 152 96 L 152 80 Z " /><path fill="rgb(5,5,5)" stroke="rgb(5,5,5)" stroke-width="1" opacity="0" d="M 56 120 L 88 120 L 88 144 L 56 144 L 56 120 Z " /><path fill="rgb(5,5,5)" stroke="rgb(5,5,5)" stroke-width="1" opacity="0" d="M 112 120 L 144 120 L 144 128 L 152 128 L 152 144 L 112 144 L 112 120 Z " /><path fill="rgb(5,5,5)" stroke="rgb(5,5,5)" stroke-width="1" opacity="0" d="M 168 120 L 200 120 L 200 136 L 208 136 L 208 144 L 160 144 L 160 128 L 168 128 L 168 120 Z " /><path fill="rgb(25,149,205)" stroke="rgb(25,149,205)" stroke-width="1" opacity="0.1450980392156863" d="M 134 58 L 145.5 58 L 146 60 L 134.5 60 L 134 58 Z " /><path fill="rgb(25,149,205)" stroke="rgb(25,149,205)" stroke-width="1" opacity="0.1450980392156863" d="M 216 58 L 227.5 58 L 228 60 L 216.5 60 L 216 58 Z " /><path fill="rgb(25,149,205)" stroke="rgb(25,149,205)" stroke-width="1" opacity="0.1450980392156863" d="M 44 70 Q 49.2 68.3 48 72 Q 42.8 73.7 44 70 Z " /><path fill="rgb(25,149,205)" stroke="rgb(25,149,205)" stroke-width="1" opacity="0.1450980392156863" d="M 90 70 Q 95.2 68.3 94 72 Q 88.8 73.7 90 70 Z " /><path fill="rgb(25,149,205)" stroke="rgb(25,149,205)" stroke-width="1" opacity="0.1450980392156863" d="M 114 70 Q 117 69 116 72 Q 113 73 114 70 Z " /><path fill="rgb(25,149,205)" stroke="rgb(25,149,205)" stroke-width="1" opacity="0.1450980392156863" d="M 156 70 Q 161.2 68.3 160 72 Q 154.8 73.7 156 70 Z " /><path fill="rgb(25,149,205)" stroke="rgb(25,149,205)" stroke-width="1" opacity="0.1450980392156863" d="M 192 70 Q 197.2 68.3 196 72 Q 190.8 73.7 192 70 Z " /><path fill="rgb(25,149,205)" stroke="rgb(25,149,205)" stroke-width="1" opacity="0.1450980392156863" d="M 34 72 L 39 72.5 L 34.5 74 L 34 72 Z " /><path fill="rgb(25,149,205)" stroke="rgb(25,149,205)" stroke-width="1" opacity="0.1450980392156863" d="M 55.5 72 Q 60.9 70.1 60 73.5 L 60.5 75 L 55.5 73 L 55.5 72 Z " /><path fill="rgb(25,149,205)" stroke="rgb(25,149,205)" stroke-width="1" opacity="0.1450980392156863" d="M 70.5 72 L 86 72.5 L 80.5 76 L 80 73 L 70.5 73 L 70.5 72 Z " /><path fill="rgb(25,149,205)" stroke="rgb(25,149,205)" stroke-width="1" opacity="0.1450980392156863" d="M 97.5 72 Q 100.8 70.9 100 73.5 L 98.5 73 L 97.5 72 Z " /><path fill="rgb(25,149,205)" stroke="rgb(25,149,205)" stroke-width="1" opacity="0.1450980392156863" d="M 106 72 L 110 72.5 Q 104.9 72.9 103.5 77 L 101.5 74 Q 107.3 75.7 106 72 Z " /><path fill="rgb(25,149,205)" stroke="rgb(25,149,205)" stroke-width="1" opacity="0.1450980392156863" d="M 120.5 72 L 124 72 L 124 74 L 128 76 L 128 78.5 L 127 78.5 L 122.5 73 Q 119.5 73.5 120.5 72 Z " /><path fill="rgb(25,149,205)" stroke="rgb(25,149,205)" stroke-width="1" opacity="0.1450980392156863" d="M 148 72 L 151 72.5 L 148.5 74 L 148 72 Z " /><path fill="rgb(25,149,205)" stroke="rgb(25,149,205)" stroke-width="1" opacity="0.1450980392156863" d="M 163.5 72 L 168 72 L 168 74 L 172 76 L 172 78.5 L 171 78.5 L 168.5 75 L 163.5 73 L 163.5 72 Z " /><path fill="rgb(25,149,205)" stroke="rgb(25,149,205)" stroke-width="1" opacity="0.1450980392156863" d="M 180 72 L 185 72.5 Q 179.4 73.4 177 77.5 L 176.5 79 L 176 76 L 178 76 L 180 72 Z " /><path fill="rgb(25,149,205)" stroke="rgb(25,149,205)" stroke-width="1" opacity="0.1450980392156863" d="M 201.5 72 Q 206.9 70.1 206 73.5 L 204.5 73 Q 200.5 73.8 201.5 72 Z " /><path fill="rgb(25,149,205)" stroke="rgb(25,149,205)" stroke-width="1" opacity="0.1450980392156863" d="M 30 74 L 33 74.5 Q 29.4 76.4 30 81 L 40.5 81 L 41 79.5 L 44 78 L 42 82 L 51.5 82 L 52 80 Q 49 81 50 78 L 53 79.5 L 53 83 L 46.5 83 L 40 84 L 39.5 82 L 28 82 L 28 78 Q 31.7 79.2 30 74 Z " /><path fill="rgb(25,149,205)" stroke="rgb(25,149,205)" stroke-width="1" opacity="0.1450980392156863" d="M 207.5 74 L 210 74 Q 209.3 77.1 212 76.5 L 212 97.5 L 211 97.5 L 211 78.5 L 207.5 74 Z " /><path fill="rgb(25,149,205)" stroke="rgb(25,149,205)" stroke-width="1" opacity="0.1450980392156863" d="M 63.5 76 L 64 78 L 66 78.5 L 66 100.5 L 65 100.5 L 65 81.5 L 63.5 76 Z " /><path fill="rgb(25,149,205)" stroke="rgb(25,149,205)" stroke-width="1" opacity="0.1450980392156863" d="M 46.5 77 L 49 77.5 L 46.5 78 L 46.5 77 Z " /><path fill="rgb(25,149,205)" stroke="rgb(25,149,205)" stroke-width="1" opacity="0.1450980392156863" d="M 87.5 77 L 89 77.5 Q 87.6 80.6 82.5 80 L 82.5 79 L 87.5 77 Z " /><path fill="rgb(25,149,205)" stroke="rgb(25,149,205)" stroke-width="1" opacity="0.1450980392156863" d="M 110.5 77 L 113 77.5 L 110.5 78 L 110.5 77 Z " /><path fill="rgb(25,149,205)" stroke="rgb(25,149,205)" stroke-width="1" opacity="0.1450980392156863" d="M 153.5 77 L 156 77.5 L 153.5 78 L 153.5 77 Z " /><path fill="rgb(25,149,205)" stroke="rgb(25,149,205)" stroke-width="1" opacity="0.1450980392156863" d="M 90 78 L 93 79.5 L 94 84 L 92 84 L 92 80 Q 89 81 90 78 Z " /><path fill="rgb(25,149,205)" stroke="rgb(25,149,205)" stroke-width="1" opacity="0.1450980392156863" d="M 107.5 78 L 108 80 L 106 80.5 L 106 104 L 94.5 104 L 94.5 103 L 104 103 L 104 83.5 L 107.5 78 Z " /><path fill="rgb(25,149,205)" stroke="rgb(25,149,205)" stroke-width="1" opacity="0.1450980392156863" d="M 114.5 78 L 118 82.5 L 118 103 L 128 103.5 L 116 104 L 116 80.5 L 114 80 L 114.5 78 Z " /><path fill="rgb(25,149,205)" stroke="rgb(25,149,205)" stroke-width="1" opacity="0.1450980392156863" d="M 150.5 78 Q 153.1 77.3 152 80 L 148 80 Q 149.7 85.2 146 84 L 148.5 79 L 150.5 78 Z " /><path fill="rgb(25,149,205)" stroke="rgb(25,149,205)" stroke-width="1" opacity="0.1450980392156863" d="M 158.5 78 L 161.5 82 L 158 80 L 158.5 78 Z " /><path fill="rgb(25,149,205)" stroke="rgb(25,149,205)" stroke-width="1" opacity="0.1450980392156863" d="M 189.5 78 L 190 80 L 188 79.5 L 189.5 78 Z " /><path fill="rgb(25,149,205)" stroke="rgb(25,149,205)" stroke-width="1" opacity="0.1450980392156863" d="M 198.5 78 L 199.5 80 Q 196.7 80.7 198.5 78 Z " /><path fill="rgb(25,149,205)" stroke="rgb(25,149,205)" stroke-width="1" opacity="0.1450980392156863" d="M 172.5 80 Q 175.5 79.1 174 83.5 L 173 83.5 L 172.5 80 Z " /><path fill="rgb(25,149,205)" stroke="rgb(25,149,205)" stroke-width="1" opacity="0.1450980392156863" d="M 81.5 81 L 82 104 L 70 103.5 L 80 103 L 80 85.5 L 81.5 81 Z " /><path fill="rgb(25,149,205)" stroke="rgb(25,149,205)" stroke-width="1" opacity="0.1450980392156863" d="M 176.5 81 L 200 82.5 L 188 84 L 187.5 82 L 176.5 82 L 176.5 81 Z " /><path fill="rgb(25,149,205)" stroke="rgb(25,149,205)" stroke-width="1" opacity="0.1450980392156863" d="M 32 84 L 37 84.5 L 30 88.5 L 28.5 91 L 28 88 L 30 88 L 32 84 Z " /><path fill="rgb(25,149,205)" stroke="rgb(25,149,205)" stroke-width="1" opacity="0.1450980392156863" d="M 180 84 L 184 84.5 L 180.5 86 L 180 84 Z " /><path fill="rgb(25,149,205)" stroke="rgb(25,149,205)" stroke-width="1" opacity="0.1450980392156863" d="M 162.5 85 L 163 89.5 L 162 89.5 L 162.5 85 Z " /><path fill="rgb(25,149,205)" stroke="rgb(25,149,205)" stroke-width="1" opacity="0.1450980392156863" d="M 176 86 L 179 86.5 L 176 88.5 L 176 86 Z " /><path fill="rgb(25,149,205)" stroke="rgb(25,149,205)" stroke-width="1" opacity="0.1450980392156863" d="M 46.5 88 L 53.5 88 L 54 90.5 L 53 94.5 L 50.5 97 L 46 98 L 46 96 L 50 96 Q 49 93 52 94 L 52 90 L 42 90 Q 43 93 40 92 L 40 94.5 L 39 94.5 Q 38.5 89.5 42.5 89 L 46.5 88 Z " /><path fill="rgb(25,149,205)" stroke="rgb(25,149,205)" stroke-width="1" opacity="0.1450980392156863" d="M 193.5 88 Q 201.1 86.5 200 90 L 189 89.5 L 193.5 88 Z " /><path fill="rgb(25,149,205)" stroke="rgb(25,149,205)" stroke-width="1" opacity="0.1450980392156863" d="M 174.5 90 L 176 90.5 Q 173.5 92 175 97.5 L 178.5 102 L 176 102 Q 177 99 174 100 L 174 96 L 172.5 96 L 173 94.5 Q 172.3 90.8 174.5 90 Z " /><path fill="rgb(25,149,205)" stroke="rgb(25,149,205)" stroke-width="1" opacity="0.1450980392156863" d="M 187.5 90 L 188 92 L 186 91.5 L 187.5 90 Z " /><path fill="rgb(25,149,205)" stroke="rgb(25,149,205)" stroke-width="1" opacity="0.1450980392156863" d="M 146 92 Q 149 90.8 148 94.5 L 146 93.5 L 146 92 Z " /><path fill="rgb(25,149,205)" stroke="rgb(25,149,205)" stroke-width="1" opacity="0.1450980392156863" d="M 160 92 Q 162.7 90.9 162 93.5 L 160 94.5 L 160 92 Z " /><path fill="rgb(25,149,205)" stroke="rgb(25,149,205)" stroke-width="1" opacity="0.1450980392156863" d="M 198 92 Q 200.7 90.9 200 93.5 L 197.5 97 L 194 98 Q 192.8 94.3 198 96 L 198 92 Z " /><path fill="rgb(25,149,205)" stroke="rgb(25,149,205)" stroke-width="1" opacity="0.1450980392156863" d="M 186 94 Q 189 93 188 96 L 192 96 L 192 98 L 186 95.5 L 186 94 Z " /><path fill="rgb(25,149,205)" stroke="rgb(25,149,205)" stroke-width="1" opacity="0.1450980392156863" d="M 40.5 96 Q 45.3 94.7 44 98 Q 39.8 98 40.5 96 Z " /><path fill="rgb(25,149,205)" stroke="rgb(25,149,205)" stroke-width="1" opacity="0.1450980392156863" d="M 149.5 96 L 159 96.5 Q 156.9 98.9 151.5 98 L 149.5 96 Z " /><path fill="rgb(25,149,205)" stroke="rgb(25,149,205)" stroke-width="1" opacity="0.1450980392156863" d="M 28.5 97 L 32.5 102 L 40 103.5 L 32 104 L 32 102 L 28 100 L 28.5 97 Z " /><path fill="rgb(25,149,205)" stroke="rgb(25,149,205)" stroke-width="1" opacity="0.1450980392156863" d="M 171.5 97 L 172 100 Q 169 99 170 102 L 167.5 102 Q 166 105.5 159.5 104 L 159.5 103 L 163.5 103 L 171.5 97 Z " /><path fill="rgb(25,149,205)" stroke="rgb(25,149,205)" stroke-width="1" opacity="0.1450980392156863" d="M 53.5 100 L 55 100 L 55.5 103 L 65.5 103 L 68 102 L 67.5 104 L 54 104 Q 55 101 52 102 L 51.5 104 L 43.5 104 L 43.5 103 Q 50.9 103.9 53.5 100 Z " /><path fill="rgb(25,149,205)" stroke="rgb(25,149,205)" stroke-width="1" opacity="0.1450980392156863" d="M 146.5 100 Q 149.1 103.9 156 103.5 L 148 104 Q 149 101 146 102 L 145.5 104 L 134 104 L 134.5 102 L 135.5 103 L 144.5 103 L 146.5 100 Z " /><path fill="rgb(25,149,205)" stroke="rgb(25,149,205)" stroke-width="1" opacity="0.1450980392156863" d="M 200.5 100 L 202 103 L 211.5 103 L 212 100 L 214 100 L 213.5 104 L 200 104 Q 201 101 198 102 L 197.5 104 L 190.5 104 L 190.5 103 Q 197.9 103.9 200.5 100 Z " /><path fill="rgb(25,149,205)" stroke="rgb(25,149,205)" stroke-width="1" opacity="0.1450980392156863" d="M 180.5 102 L 187 103.5 L 180 104 L 180.5 102 Z " /><path fill="rgb(25,149,205)" stroke="rgb(25,149,205)" stroke-width="1" opacity="0.1450980392156863" d="M 216.5 102 L 217.5 103 L 226.5 103 L 228 102.5 L 227.5 104 L 216 104 L 216.5 102 Z " /><path fill="rgb(36,146,195)" stroke="rgb(36,146,195)" stroke-width="1" opacity="0.5098039215686274" d="M 134.5 60 L 135 102 L 144.5 102 L 145 99.5 L 146 99.5 L 144.5 103 L 135.5 103 L 134 101.5 L 134.5 60 Z " /><path fill="rgb(36,146,195)" stroke="rgb(36,146,195)" stroke-width="1" opacity="0.5098039215686274" d="M 145.5 60 L 146 74.5 L 145 74.5 L 145.5 60 Z " /><path fill="rgb(36,146,195)" stroke="rgb(36,146,195)" stroke-width="1" opacity="0.5098039215686274" d="M 216.5 60 L 217 102 L 226.5 102 L 227 101.5 L 227 60.5 L 228 60.5 L 228 101.5 L 226.5 103 L 217.5 103 L 216 101.5 L 216.5 60 Z " /><path fill="rgb(36,146,195)" stroke="rgb(36,146,195)" stroke-width="1" opacity="0.5098039215686274" d="M 39.5 72 L 42 72.5 L 39.5 73 L 39.5 72 Z " /><path fill="rgb(36,146,195)" stroke="rgb(36,146,195)" stroke-width="1" opacity="0.5098039215686274" d="M 51.5 72 L 55 72.5 L 51.5 73 L 51.5 72 Z " /><path fill="rgb(36,146,195)" stroke="rgb(36,146,195)" stroke-width="1" opacity="0.5098039215686274" d="M 151.5 72 L 154 72.5 L 151.5 73 L 151.5 72 Z " /><path fill="rgb(36,146,195)" stroke="rgb(36,146,195)" stroke-width="1" opacity="0.5098039215686274" d="M 185.5 72 L 189 72.5 L 185.5 73 L 185.5 72 Z " /><path fill="rgb(36,146,195)" stroke="rgb(36,146,195)" stroke-width="1" opacity="0.5098039215686274" d="M 198.5 72 L 201 72.5 L 198.5 73 L 198.5 72 Z " /><path fill="rgb(36,146,195)" stroke="rgb(36,146,195)" stroke-width="1" opacity="0.5098039215686274" d="M 70.5 73 L 71 102 L 80 102.5 L 70 103 L 70.5 73 Z " /><path fill="rgb(36,146,195)" stroke="rgb(36,146,195)" stroke-width="1" opacity="0.5098039215686274" d="M 82.5 74 L 80.5 77 L 82.5 74 Z " /><path fill="rgb(36,146,195)" stroke="rgb(36,146,195)" stroke-width="1" opacity="0.5098039215686274" d="M 61.5 75 L 62.5 77 L 61.5 75 Z " /><path fill="rgb(36,146,195)" stroke="rgb(36,146,195)" stroke-width="1" opacity="0.5098039215686274" d="M 168.5 75 L 170.5 78 L 168.5 75 Z " /><path fill="rgb(36,146,195)" stroke="rgb(36,146,195)" stroke-width="1" opacity="0.5098039215686274" d="M 190.5 77 L 193 77.5 L 190.5 78 L 190.5 77 Z " /><path fill="rgb(36,146,195)" stroke="rgb(36,146,195)" stroke-width="1" opacity="0.5098039215686274" d="M 195.5 77 L 198 77.5 L 195.5 78 L 195.5 77 Z " /><path fill="rgb(36,146,195)" stroke="rgb(36,146,195)" stroke-width="1" opacity="0.5098039215686274" d="M 115.5 78 L 116.5 80 L 115.5 78 Z " /><path fill="rgb(36,146,195)" stroke="rgb(36,146,195)" stroke-width="1" opacity="0.5098039215686274" d="M 127.5 79 L 128 103 L 118 102.5 L 127 102 L 127.5 79 Z " /><path fill="rgb(36,146,195)" stroke="rgb(36,146,195)" stroke-width="1" opacity="0.5098039215686274" d="M 53.5 80 L 54 82.5 L 53 82.5 L 53.5 80 Z " /><path fill="rgb(36,146,195)" stroke="rgb(36,146,195)" stroke-width="1" opacity="0.5098039215686274" d="M 200.5 80 L 201 82.5 L 200 82.5 L 200.5 80 Z " /><path fill="rgb(36,146,195)" stroke="rgb(36,146,195)" stroke-width="1" opacity="0.5098039215686274" d="M 64.5 81 L 65 97.5 L 64 97.5 L 64.5 81 Z " /><path fill="rgb(36,146,195)" stroke="rgb(36,146,195)" stroke-width="1" opacity="0.5098039215686274" d="M 46.5 83 L 52 83.5 L 46.5 84 L 46.5 83 Z " /><path fill="rgb(36,146,195)" stroke="rgb(36,146,195)" stroke-width="1" opacity="0.5098039215686274" d="M 193.5 83 L 199 83.5 L 193.5 84 L 193.5 83 Z " /><path fill="rgb(36,146,195)" stroke="rgb(36,146,195)" stroke-width="1" opacity="0.5098039215686274" d="M 173.5 84 L 174 90.5 L 173 90.5 L 173.5 84 Z " /><path fill="rgb(36,146,195)" stroke="rgb(36,146,195)" stroke-width="1" opacity="0.5098039215686274" d="M 184.5 84 L 187 84.5 L 184.5 85 L 184.5 84 Z " /><path fill="rgb(36,146,195)" stroke="rgb(36,146,195)" stroke-width="1" opacity="0.5098039215686274" d="M 145.5 85 L 146 91.5 L 145 91.5 L 145.5 85 Z " /><path fill="rgb(36,146,195)" stroke="rgb(36,146,195)" stroke-width="1" opacity="0.5098039215686274" d="M 31.5 87 L 30.5 89 L 31.5 87 Z " /><path fill="rgb(36,146,195)" stroke="rgb(36,146,195)" stroke-width="1" opacity="0.5098039215686274" d="M 200.5 88 L 201 91.5 L 200 91.5 L 200.5 88 Z " /><path fill="rgb(36,146,195)" stroke="rgb(36,146,195)" stroke-width="1" opacity="0.5098039215686274" d="M 40.5 90 L 39.5 92 L 40.5 90 Z " /><path fill="rgb(36,146,195)" stroke="rgb(36,146,195)" stroke-width="1" opacity="0.5098039215686274" d="M 28.5 91 L 29 96.5 L 28 96.5 L 28.5 91 Z " /><path fill="rgb(36,146,195)" stroke="rgb(36,146,195)" stroke-width="1" opacity="0.5098039215686274" d="M 147.5 95 L 148.5 97 L 147.5 95 Z " /><path fill="rgb(36,146,195)" stroke="rgb(36,146,195)" stroke-width="1" opacity="0.5098039215686274" d="M 160.5 95 L 159.5 97 L 160.5 95 Z " /><path fill="rgb(36,146,195)" stroke="rgb(36,146,195)" stroke-width="1" opacity="0.5098039215686274" d="M 65.5 101 L 66 103 L 55 102.5 L 64.5 102 L 65.5 101 Z " /><path fill="rgb(36,146,195)" stroke="rgb(36,146,195)" stroke-width="1" opacity="0.5098039215686274" d="M 94.5 102 L 104 102.5 L 94.5 103 L 94.5 102 Z " /><path fill="rgb(36,146,195)" stroke="rgb(36,146,195)" stroke-width="1" opacity="0.5098039215686274" d="M 202.5 102 L 212 102.5 L 202.5 103 L 202.5 102 Z " /><path fill="rgb(36,146,195)" stroke="rgb(36,146,195)" stroke-width="1" opacity="0.5098039215686274" d="M 40.5 103 L 43 103.5 L 40.5 104 L 40.5 103 Z " /><path fill="rgb(36,146,195)" stroke="rgb(36,146,195)" stroke-width="1" opacity="0.5098039215686274" d="M 156.5 103 L 159 103.5 L 156.5 104 L 156.5 103 Z " /><path fill="rgb(36,146,195)" stroke="rgb(36,146,195)" stroke-width="1" opacity="0.5098039215686274" d="M 187.5 103 L 190 103.5 L 187.5 104 L 187.5 103 Z " /><path fill="rgb(220,3,19)" stroke="rgb(220,3,19)" stroke-width="1" opacity="0.8705882352941177" d="M 27 109 L 227.5 109 L 228 113 L 225.5 114 L 28.5 114 Q 26 112.8 27 109 Z " /><path fill="rgb(2,157,227)" stroke="rgb(2,157,227)" stroke-width="1" opacity="0.9725490196078431" d="M 135 60 L 145 60 L 145 74.5 L 147.5 75 L 149.5 73 L 160.5 72 Q 167.9 73.1 171 78.5 L 173 81.5 L 173 93.5 L 168.5 100 Q 163.3 104.8 151.5 103 L 145.5 99 L 145 102 L 135.5 102 L 135 101.5 L 135 60 Z M 152 77 L 150 78 L 145 86 Q 144 93 147 96 L 151 98 L 160 97 L 163 92 Q 164 83 161 79 L 158 77 L 152 77 Z " /><path fill="rgb(2,157,227)" stroke="rgb(2,157,227)" stroke-width="1" opacity="0.9725490196078431" d="M 217 60 L 226.5 60 L 227 60.5 L 227 102 L 217.5 102 L 217 101.5 L 217 60 Z " /><path fill="rgb(2,157,227)" stroke="rgb(2,157,227)" stroke-width="1" opacity="0.9725490196078431" d="M 42.5 72 L 56.5 73 L 64 78.5 L 64 97.5 L 65 102 L 55.5 102 L 55 100 L 53.5 100 Q 48 105 35.5 103 L 30 99.5 L 29 90.5 L 35.5 85 L 51.5 84 L 54 83 Q 54.8 79.2 51.5 78 L 44.5 77 L 41 79.5 L 40.5 81 L 30 81 L 32.5 75 L 42.5 72 Z M 46 88 L 41 90 Q 38 91 39 96 Q 41 100 50 98 L 54 93 L 54 88 L 46 88 Z " /><path fill="rgb(2,157,227)" stroke="rgb(2,157,227)" stroke-width="1" opacity="0.9725490196078431" d="M 88.5 72 L 94.5 72 L 102 75 Q 100.9 77.7 103.5 77 Q 107.2 71.2 117.5 72 Q 124.1 72.9 127 77.5 L 127 102 L 118 102 L 118 81.5 L 115.5 78 L 109.5 77 L 105 80.5 L 104 82.5 L 104 102 L 94 102 L 94 81.5 L 91.5 78 L 85.5 77 L 81 80.5 L 80 83.5 L 80 102 L 71.5 102 L 71 101.5 L 71 73 L 80 73 L 80 76.5 L 84.5 73 L 88.5 72 Z " /><path fill="rgb(2,157,227)" stroke="rgb(2,157,227)" stroke-width="1" opacity="0.9725490196078431" d="M 189.5 72 L 203.5 73 L 210 77.5 L 211 79.5 L 211 99.5 L 212 102 L 202.5 102 L 202 100 L 199.5 100 Q 194.8 105.3 182.5 103 L 176 98.5 L 175 91.5 L 178.5 87 L 187.5 84 Q 197.1 85.4 201 83 Q 201.8 78.3 197.5 77 Q 190.7 76.1 188 78 L 186.5 81 L 177 81 L 177 77.5 L 183.5 73 Q 188.2 74.2 189.5 72 Z M 193 88 L 189 89 L 185 94 L 189 98 L 198 97 L 201 92 L 201 88 L 193 88 Z " /><path fill="rgb(25,26,25)" stroke="rgb(25,26,25)" stroke-width="1" opacity="0.1568627450980392" d="M 96 8 L 136 8 L 136 16 L 152 16 L 152 24 L 168 24 L 168 32 L 176 32 L 176 40 L 199.5 40 L 200 40.5 L 200 47.5 L 200.5 48 L 279.5 48 L 280 48.5 L 280 56 L 290 56 L 290 63.5 L 289 63.5 Q 289.8 61.3 287.5 62 L 280.5 57 L 260.5 53 L 213.5 51 L 212.5 50 L 203.5 50 L 189.5 47 L 176.5 42 L 132.5 15 Q 125.3 11.7 113.5 13 L 87 18.5 L 120.5 19 L 125.5 20 L 134.5 23 L 168.5 43 L 187.5 51 L 197.5 53 L 205.5 53 L 206.5 54 L 241.5 55 L 242.5 56 L 258.5 57 L 269.5 60 L 280 67.5 L 280 70.5 L 277 74.5 L 267.5 84 L 249.5 95 L 243 96 Q 241.6 100 248.5 98 L 265.5 91 L 284 75.5 L 289.5 68 L 290 72 L 288 72.5 L 288 80 L 280 80 L 280 88 L 272 88 L 272 96 L 256 96 L 256 103.5 L 255.5 104 L 240 104 L 240 88 L 256 88 L 256 80 L 264 80 L 264 72 L 272 72 L 272 64 L 240.5 64 L 240 63.5 L 240 56.5 L 239.5 56 L 176.5 56 L 176 55.5 L 176 48 L 160 48 L 160 40 L 144 40 L 144 32 L 128 32 L 128 24 L 80.5 24 L 80 23.5 L 80 16 L 96 16 L 96 8 Z " /><path fill="rgb(25,26,25)" stroke="rgb(25,26,25)" stroke-width="1" opacity="0.1568627450980392" d="M 8 40 L 48 40 L 48 56 L 16 56 L 16 64 L 8 64 L 8 78.5 L 7 78.5 L 5 72.5 L 5 66.5 Q 6.5 59 11.5 55 Q 21.5 48 39.5 49 L 41.5 50 L 44 49 Q 45.1 45.5 37.5 47 L 15.5 41 L 14 43.5 L 15 47.5 Q 6.8 50.8 2 57.5 L 0.5 62 L 0 48 L 8 48 L 8 40 Z " /><path fill="rgb(25,26,25)" stroke="rgb(25,26,25)" stroke-width="1" opacity="0.1568627450980392" d="M 0.5 72 L 8.5 84 Q 10.8 84.8 10 82.5 L 8.5 80 L 16 80 L 16 88 L 0 88 L 0.5 72 Z " /><path fill="rgb(25,26,25)" stroke="rgb(25,26,25)" stroke-width="1" opacity="0.1568627450980392" d="M 39.5 119 L 56 120 L 56 144 L 24 144 L 24 128 L 32 128 L 32 120 L 38.5 120 L 39.5 119 Z M 40 120 L 32 135 Q 31 139 36 137 L 37 135 L 38 133 L 46 133 L 47 136 Q 48 138 52 137 L 45 122 Q 46 119 40 120 Z " /><path fill="rgb(25,26,25)" stroke="rgb(25,26,25)" stroke-width="1" opacity="0.1568627450980392" d="M 92.5 119 L 104.5 120 L 109.5 119 L 112 120 L 112 144 L 88 144 L 88 120.5 L 91.5 120 L 92.5 119 Z M 92 120 L 93 134 L 98 137 L 107 136 L 109 134 L 110 130 L 110 120 L 105 120 L 105 133 L 104 134 Q 98 135 97 133 L 97 120 L 92 120 Z " /><path fill="rgb(25,26,25)" stroke="rgb(25,26,25)" stroke-width="1" opacity="0.1568627450980392" d="M 149.5 119 Q 161.3 117.8 168 120 L 168 128 L 160 128 L 160 144 L 152 144 L 152 128 L 144 128 L 144 120 L 149.5 119 Z M 150 120 L 150 123 L 155 124 L 155 137 L 158 137 L 158 123 L 163 123 L 163 120 L 150 120 Z " /><path fill="rgb(25,26,25)" stroke="rgb(25,26,25)" stroke-width="1" opacity="0.1568627450980392" d="M 211.5 119 L 220 119.5 L 211.5 120 L 211.5 119 Z " /><path fill="rgb(25,26,25)" stroke="rgb(25,26,25)" stroke-width="1" opacity="0.1568627450980392" d="M 200 120 L 210 120.5 L 204 124.5 Q 202 133 206.5 135 Q 211.2 138.3 220.5 137 L 227 132.5 L 228 128.5 L 227 124.5 L 223.5 121 L 221 120.5 L 232 120 L 232 136 L 224 136 L 224 144 L 208 144 L 208 136 L 200 136 L 200 120 Z " /><path fill="rgb(25,26,25)" stroke="rgb(25,26,25)" stroke-width="1" opacity="0.1568627450980392" d="M 213.5 122 Q 220.4 121.1 222 125.5 Q 223.5 132.5 219.5 134 L 211.5 134 L 210 132.5 L 209 125.5 L 213.5 122 Z " /><path fill="rgb(25,26,25)" stroke="rgb(25,26,25)" stroke-width="1" opacity="0.1568627450980392" d="M 41.5 123 L 45 129.5 Q 43.6 132.3 39 131 L 41.5 123 Z " /><path fill="rgb(83,61,63)" stroke="rgb(83,61,63)" stroke-width="1" opacity="0" d="M 24 104 L 231.5 104 L 232 104.5 L 232 120 L 211.5 119 L 210.5 120 L 164.5 120 L 163.5 119 L 149.5 119 L 148.5 120 L 110.5 120 L 105.5 119 Q 103.8 121.8 97.5 120 L 92.5 119 L 91.5 120 L 45.5 120 Q 44.3 117.8 39.5 119 L 38.5 120 L 24 120 L 24 104 Z M 27 109 L 28 114 L 228 114 L 228 109 L 27 109 Z " /><path fill="rgb(108,122,128)" stroke="rgb(108,122,128)" stroke-width="1" opacity="0" d="M 128 56 L 152 56 L 152 64 L 160 64 L 160 70 Q 154.7 68.8 155.5 72 L 148.5 72 Q 149.1 74.8 146 74 L 146 58 L 134 58 L 134 103.5 L 133.5 104 L 128 104 L 128 76.5 Q 125.3 77.1 126 74 L 124 74 L 124 72 L 128 71.5 L 128 56 Z " /><path fill="rgb(108,122,128)" stroke="rgb(108,122,128)" stroke-width="1" opacity="0" d="M 216 56 L 232 56 L 232 104 L 228 103.5 L 228 58.5 L 227.5 58 L 216.5 58 L 216 56 Z " /><path fill="rgb(108,122,128)" stroke="rgb(108,122,128)" stroke-width="1" opacity="0" d="M 40 64 L 48 64 L 48 70 L 44.5 70 Q 45.3 73.3 40 72 L 40 64 Z " /><path fill="rgb(108,122,128)" stroke="rgb(108,122,128)" stroke-width="1" opacity="0" d="M 88 64 L 96 64 L 96 72 Q 93 73 94 70 L 90 70 Q 91 73 88 72 L 88 64 Z " /><path fill="rgb(108,122,128)" stroke="rgb(108,122,128)" stroke-width="1" opacity="0" d="M 112 64 L 120 64 L 120 72 L 116 72 Q 117 69 114 70 Q 115 73 112 72 L 112 64 Z " /><path fill="rgb(108,122,128)" stroke="rgb(108,122,128)" stroke-width="1" opacity="0" d="M 192 64 L 200 64 L 200 72 L 196.5 72 Q 197.3 68.8 192 70 L 192 64 Z " /><path fill="rgb(108,122,128)" stroke="rgb(108,122,128)" stroke-width="1" opacity="0" d="M 24 72 L 33.5 72 L 34 74 L 30 74 L 30 77.5 Q 26.8 76.7 28 82 L 39.5 82 L 40 84 L 32 84 L 32 86 L 28 88 L 28 100 L 30 100 L 32 104 L 24.5 104 L 24 103.5 L 24 72 Z " /><path fill="rgb(108,122,128)" stroke="rgb(108,122,128)" stroke-width="1" opacity="0" d="M 60 72 L 69.5 72 L 70 72.5 L 70 104 L 68 104 Q 68.8 100.9 66 101.5 L 66 78.5 L 62.5 76 L 60 72 Z " /><path fill="rgb(108,122,128)" stroke="rgb(108,122,128)" stroke-width="1" opacity="0" d="M 100 72 L 106 72 L 106 74 L 100 74 L 100 72 Z " /><path fill="rgb(108,122,128)" stroke="rgb(108,122,128)" stroke-width="1" opacity="0" d="M 168 72 L 179.5 72 L 180 74 L 176 76 L 176 82 L 187.5 82 Q 186.9 79.3 190 80 L 190 78 L 198 78 L 200 82 L 188.5 82 Q 189.3 85.4 180.5 84 Q 181.3 87.3 176 86 Q 177.7 91.2 174 90 L 174 80 L 172 80 L 172 76 L 170 76 L 168 72 Z " /><path fill="rgb(108,122,128)" stroke="rgb(108,122,128)" stroke-width="1" opacity="0" d="M 206 72 L 215.5 72 L 216 72.5 L 216 104 L 214 104 Q 215.3 98.7 212 99.5 L 212 76.5 Q 209.3 77.1 210 74 L 206 74 L 206 72 Z " /><path fill="rgb(108,122,128)" stroke="rgb(108,122,128)" stroke-width="1" opacity="0" d="M 44 78 L 50 78 L 52 82 L 42.5 82 L 42 80 Q 45 81 44 78 Z " /><path fill="rgb(108,122,128)" stroke="rgb(108,122,128)" stroke-width="1" opacity="0" d="M 87.5 78 L 90 78 Q 89 81 92 80 L 92 84 L 94 84.5 L 94 104 L 82 104 L 82 80 Q 86.3 81 87.5 78 Z " /><path fill="rgb(108,122,128)" stroke="rgb(108,122,128)" stroke-width="1" opacity="0" d="M 108 78 L 114 78 Q 113.3 81.1 116 80.5 L 116 104 L 106 104 L 106 80 Q 109 81 108 78 Z " /><path fill="rgb(108,122,128)" stroke="rgb(108,122,128)" stroke-width="1" opacity="0" d="M 152 78 L 158 78 L 158 80 L 152 80 L 152 95.5 L 148 96 Q 149.3 90.7 146 91.5 L 146 84 L 148 84 L 148 80 Q 153.2 81.7 152 78 Z " /><path fill="rgb(108,122,128)" stroke="rgb(108,122,128)" stroke-width="1" opacity="0" d="M 160.5 81 L 162 82.5 L 162 92 L 160 91.5 L 160.5 81 Z " /><path fill="rgb(108,122,128)" stroke="rgb(108,122,128)" stroke-width="1" opacity="0" d="M 42 90 L 52 90 L 52 94 Q 49 93 50 96 L 46 96 Q 47 99 44 98 Q 45.2 94.3 40 96 L 40 92 Q 43 93 42 90 Z " /><path fill="rgb(108,122,128)" stroke="rgb(108,122,128)" stroke-width="1" opacity="0" d="M 188 90 L 199.5 90 L 200 92 Q 196.3 90.8 198 96 L 194 96 Q 195 99 192 98 Q 193.2 94.3 188 96 L 186 92 Q 189 93 188 90 Z " /><path fill="rgb(108,122,128)" stroke="rgb(108,122,128)" stroke-width="1" opacity="0" d="M 172 96 L 174 96 L 174 100 Q 177 99 176 102 L 180 102 L 180 104 L 166 103.5 L 170 102 Q 169 99 172 100 L 172 96 Z " /><path fill="rgb(108,122,128)" stroke="rgb(108,122,128)" stroke-width="1" opacity="0" d="M 52 102 Q 55 101 54 104 Q 51 105 52 102 Z " /><path fill="rgb(108,122,128)" stroke="rgb(108,122,128)" stroke-width="1" opacity="0" d="M 146 102 Q 149 101 148 104 Q 145 105 146 102 Z " /><path fill="rgb(108,122,128)" stroke="rgb(108,122,128)" stroke-width="1" opacity="0" d="M 198 102 Q 201 101 200 104 Q 197 105 198 102 Z " /><path fill="rgb(254,254,254)" stroke="rgb(254,254,254)" stroke-width="1" opacity="0" d="M 0 0 L 289.5 0 L 290 0.5 L 290 13 L 288 13 L 287.5 16 L 136 16 L 136 8.5 L 135.5 8 L 96 8 L 96 15.5 L 95.5 16 L 0 16 L 0 0 Z " /><path fill="rgb(254,254,254)" stroke="rgb(254,254,254)" stroke-width="1" opacity="0" d="M 288 137 L 290 137.5 L 290 149 L 0.5 149 L 0 144 L 287.5 144 L 288 143.5 L 288 137 Z " /></svg>