<svg width="266" height="266" version="1.1" xmlns="http://www.w3.org/2000/svg" desc="Created with imagetracer.js version 1.2.6" ><path fill="rgb(0,0,0)" stroke="rgb(0,0,0)" stroke-width="1" opacity="0" d="M 0 0 L 266 0 L 266 119.5 L 265 119.5 L 261.5 115 Q 257.1 111.9 248.5 113 Q 242.8 114.3 240 118.5 L 239 120.5 L 239 145.5 L 241 150 Q 245.8 154.5 257.5 153 L 264 149.5 L 265.5 146 L 266 266 L 0 266 L 0 145.5 L 1 145.5 L 1 147.5 L 5.5 152 L 16.5 154 L 23.5 152 L 27 148.5 L 28 137.5 L 24.5 133 L 14.5 128 L 11 124.5 Q 10.3 120.8 12.5 120 Q 16.3 119.3 17 121.5 L 17 125 L 27 125 Q 28.4 116.6 22.5 114 Q 17.4 111.6 8.5 113 L 2 117.5 L 0.5 123 L 0 0 Z M 134 113 L 129 115 L 124 122 Q 123 128 126 131 L 140 139 Q 142 141 141 146 L 139 147 L 135 146 L 134 144 L 134 140 L 124 140 L 125 149 Q 128 153 135 154 Q 143 155 147 152 L 151 147 Q 153 139 150 136 L 137 127 Q 133 126 134 122 Q 135 119 139 120 Q 142 121 141 126 L 150 126 L 151 125 L 150 119 Q 146 111 134 113 Z M 41 114 L 34 150 L 35 152 L 45 152 L 50 120 L 54 146 L 54 152 L 65 152 L 58 116 L 58 114 L 41 114 Z M 73 114 L 73 141 L 72 142 L 72 152 L 82 152 L 83 123 L 84 126 L 86 141 L 88 147 L 88 152 L 99 152 L 104 123 L 105 123 L 105 152 L 106 152 L 115 152 L 115 132 L 114 131 L 114 114 L 98 114 L 94 142 L 89 117 L 89 114 L 73 114 Z M 160 114 L 160 147 L 161 149 L 165 152 L 172 154 Q 179 154 184 151 L 187 145 L 187 115 L 187 114 L 177 114 L 177 144 L 176 146 Q 171 147 170 145 L 170 115 L 170 114 L 160 114 Z M 197 114 L 197 152 L 198 152 L 207 152 L 207 144 L 206 143 L 207 123 L 215 152 L 229 152 L 229 114 L 221 114 L 219 116 Q 217 122 220 124 L 220 142 L 212 116 L 211 114 L 197 114 Z " /><path fill="rgb(0,0,0)" stroke="rgb(0,0,0)" stroke-width="1" opacity="0" d="M 251.5 120 Q 255.5 119.5 256 122.5 Q 255.3 126.3 257.5 127 L 266 127 L 266 131 L 252 131 L 252 135.5 L 256 137 L 256 144.5 L 254.5 145 L 251.5 146 L 249 145 L 249 121.5 L 250.5 121 L 251.5 120 Z " /><path fill="rgb(0,0,0)" stroke="rgb(0,0,0)" stroke-width="1" opacity="0" d="M 0.5 125 Q 1.4 130.6 5.5 133 L 17 139 L 18 144.5 Q 17 147 12.5 146 Q 9.5 144.4 11 139 L 1.5 139 L 0.5 140 L 0.5 125 Z " /><path fill="rgb(0,0,0)" stroke="rgb(0,0,0)" stroke-width="1" opacity="0.9647058823529412" d="M 8.5 113 Q 21.8 110.8 26 117.5 L 27 125 L 17 125 L 17 121.5 Q 16.3 119.3 12.5 120 Q 10.3 120.8 11 124.5 L 26 134.5 Q 29.6 137.4 28 145.5 L 23.5 152 L 12.5 154 L 5.5 152 L 1 147.5 L 0 140.5 L 1.5 139 L 11 139 Q 9.5 144.4 12.5 146 Q 17 147 18 144.5 L 17 139 Q 8.1 136.1 2 129.5 L 0 123.5 Q 0.9 116.9 5.5 114 L 8.5 113 Z " /><path fill="rgb(0,0,0)" stroke="rgb(0,0,0)" stroke-width="1" opacity="0.9647058823529412" d="M 133.5 113 Q 146.1 111.4 150 118.5 L 151 124.5 L 149.5 126 L 141 126 Q 142 121.3 138.5 120 Q 134.8 119.3 134 121.5 Q 133.3 126.3 136.5 127 L 150 135.5 Q 152.5 139 151 146.5 L 146.5 152 Q 142.5 155 134.5 154 Q 127.9 153.1 125 148.5 L 124 140 L 134 140 L 134 143.5 L 135 146 L 138.5 147 L 141 146 Q 142.5 140.6 139.5 139 L 126 130.5 Q 123.2 127.8 124 121.5 L 128.5 115 L 133.5 113 Z " /><path fill="rgb(0,0,0)" stroke="rgb(0,0,0)" stroke-width="1" opacity="0.9647058823529412" d="M 248.5 113 Q 261.1 111.4 265 118.5 L 266 127 L 257.5 127 L 256 125.5 Q 256.8 120.8 253.5 120 L 249 121 L 249 144.5 L 250.5 145 L 253.5 146 L 256 145 L 256 137 L 253.5 137 Q 250.8 135.6 252 131 L 266 131 L 266 145.5 L 262.5 151 Q 257.4 154.4 247.5 153 L 241 150 L 239 145.5 L 239 120.5 L 243.5 115 L 248.5 113 Z " /><path fill="rgb(0,0,0)" stroke="rgb(0,0,0)" stroke-width="1" opacity="0.9647058823529412" d="M 41 114 L 57.5 114 L 58 115.5 L 65 152 L 54 152 L 54 145.5 L 49.5 120 L 45 152 L 34.5 152 L 34 149.5 L 41 114 Z " /><path fill="rgb(0,0,0)" stroke="rgb(0,0,0)" stroke-width="1" opacity="0.9647058823529412" d="M 73 114 L 88.5 114 L 89 116.5 L 93.5 142 L 98 114 L 114 114 L 114 130.5 L 115 131.5 L 115 152 L 105.5 152 L 105 151.5 L 105 122.5 L 104 122.5 L 99 152 L 88 152 L 88 146.5 L 86 140.5 L 84 125.5 L 82.5 123 L 82 152 L 72 152 L 72 141.5 L 73 140.5 L 73 114 Z " /><path fill="rgb(0,0,0)" stroke="rgb(0,0,0)" stroke-width="1" opacity="0.9647058823529412" d="M 160 114 L 169.5 114 L 170 114.5 L 170 144.5 Q 171.4 147.3 176 146 L 177 143.5 L 177 114 L 186.5 114 L 187 114.5 L 187 144.5 L 183.5 151 Q 179.2 154.2 171.5 154 L 164.5 152 L 161 148.5 L 160 146.5 L 160 114 Z " /><path fill="rgb(0,0,0)" stroke="rgb(0,0,0)" stroke-width="1" opacity="0.9647058823529412" d="M 197 114 L 210.5 114 L 212 115.5 L 219.5 142 L 220 123.5 Q 217.3 121.8 219 115.5 L 220.5 114 L 229 114 L 229 152 L 215 152 L 206.5 123 L 206 142.5 L 207 143.5 L 207 152 L 197.5 152 L 197 151.5 L 197 114 Z " /></svg>